<?xml version="1.0" encoding="UTF-8"?>
<!-- Generated by SVGo -->
<svg width="372.902mm" height="125.252mm" viewBox="0.000 0.000 372.902 125.252" xmlns="http://www.w3.org/2000/svg" xmlns:xlink="http://www.w3.org/1999/xlink">
<polygon points="362.902,5.001 363.294,5.016 363.684,5.062 364.069,5.139 364.447,5.245 364.815,5.381 365.171,5.545 365.514,5.737 365.840,5.955 366.149,6.198 366.437,6.465 366.704,6.753 366.947,7.062 367.165,7.388 367.357,7.731 367.521,8.087 367.657,8.455 367.763,8.833 367.840,9.218 367.886,9.608 367.901,10.001 367.902,115.251 367.886,115.644 367.840,116.034 367.763,116.419 367.657,116.797 367.521,117.165 367.357,117.521 367.165,117.864 366.947,118.190 366.704,118.499 366.437,118.787 366.149,119.054 365.840,119.297 365.514,119.515 365.171,119.707 364.815,119.871 364.447,120.007 364.069,120.113 363.684,120.190 363.294,120.236 362.902,120.252 10.001,120.251 9.608,120.236 9.218,120.190 8.833,120.113 8.455,120.007 8.087,119.871 7.731,119.707 7.388,119.515 7.062,119.297 6.753,119.054 6.465,118.787 6.198,118.499 5.955,118.190 5.737,117.864 5.545,117.521 5.381,117.165 5.245,116.797 5.139,116.419 5.062,116.034 5.016,115.644 5.000,115.251 5.001,10.001 5.016,9.608 5.062,9.218 5.139,8.833 5.245,8.455 5.381,8.087 5.545,7.731 5.737,7.388 5.955,7.062 6.198,6.753 6.465,6.465 6.753,6.198 7.062,5.955 7.388,5.737 7.731,5.545 8.087,5.381 8.455,5.245 8.833,5.139 9.218,5.062 9.608,5.016 10.001,5.000" style="fill:none;stroke-width:0.050000mm;stroke:black"/>
<polygon points="9.460,113.587 8.972,113.836 8.585,114.223 8.336,114.711 8.251,115.251 8.336,115.792 8.585,116.280 8.972,116.667 9.460,116.916 10.001,117.001 10.541,116.916 11.029,116.667 11.416,116.280 11.665,115.792 11.751,115.251 11.665,114.711 11.416,114.223 11.029,113.836 10.541,113.587 10.001,113.501" style="fill:none;stroke-width:0.050000mm;stroke:black"/>
<polygon points="97.685,113.587 97.197,113.836 96.810,114.223 96.561,114.711 96.476,115.251 96.561,115.792 96.810,116.280 97.197,116.667 97.685,116.916 98.226,117.001 98.767,116.916 99.254,116.667 99.642,116.280 99.890,115.792 99.976,115.251 99.890,114.711 99.642,114.223 99.254,113.836 98.767,113.587 98.226,113.501" style="fill:none;stroke-width:0.050000mm;stroke:black"/>
<polygon points="185.910,113.587 185.422,113.836 185.035,114.223 184.787,114.711 184.701,115.251 184.787,115.792 185.035,116.280 185.422,116.667 185.910,116.916 186.451,117.001 186.992,116.916 187.480,116.667 187.867,116.280 188.115,115.792 188.201,115.251 188.115,114.711 187.867,114.223 187.480,113.836 186.992,113.587 186.451,113.501" style="fill:none;stroke-width:0.050000mm;stroke:black"/>
<polygon points="274.135,113.587 273.648,113.836 273.260,114.223 273.012,114.711 272.926,115.251 273.012,115.792 273.260,116.280 273.648,116.667 274.135,116.916 274.676,117.001 275.217,116.916 275.705,116.667 276.092,116.280 276.341,115.792 276.426,115.251 276.341,114.711 276.092,114.223 275.705,113.836 275.217,113.587 274.676,113.501" style="fill:none;stroke-width:0.050000mm;stroke:black"/>
<polygon points="362.361,113.587 361.873,113.836 361.486,114.223 361.237,114.711 361.152,115.251 361.237,115.792 361.486,116.280 361.873,116.667 362.361,116.916 362.902,117.001 363.442,116.916 363.930,116.667 364.317,116.280 364.566,115.792 364.652,115.251 364.566,114.711 364.317,114.223 363.930,113.836 363.442,113.587 362.902,113.501" style="fill:none;stroke-width:0.050000mm;stroke:black"/>
<polygon points="160.401,93.726 160.401,94.726 159.601,94.726 159.601,97.825 160.401,97.825 160.401,103.626 159.601,103.626 159.601,106.726 160.401,106.726 160.401,107.726 174.401,107.726 174.401,106.726 175.201,106.726 175.201,103.626 174.401,103.626 174.401,97.825 175.201,97.825 175.201,94.726 174.401,94.726 174.401,93.726" style="fill:none;stroke-width:0.050000mm;stroke:black"/>
<polygon points="141.351,93.726 141.351,94.726 140.550,94.726 140.550,97.825 141.351,97.825 141.351,103.626 140.550,103.626 140.550,106.726 141.351,106.726 141.351,107.726 155.351,107.726 155.351,106.726 156.151,106.726 156.151,103.626 155.351,103.626 155.351,97.825 156.151,97.825 156.151,94.726 155.351,94.726 155.351,93.726" style="fill:none;stroke-width:0.050000mm;stroke:black"/>
<polygon points="191.410,73.908 191.752,74.848 191.000,75.121 192.061,78.034 192.812,77.761 194.796,83.211 194.044,83.484 195.105,86.397 195.856,86.124 196.198,87.064 209.354,82.275 209.012,81.336 209.764,81.062 208.704,78.149 207.952,78.423 205.968,72.972 206.720,72.699 205.660,69.786 204.908,70.059 204.566,69.120" style="fill:none;stroke-width:0.050000mm;stroke:black"/>
<polygon points="209.311,67.392 209.653,68.332 208.902,68.606 209.962,71.519 210.714,71.245 212.697,76.695 211.945,76.969 213.006,79.882 213.758,79.608 214.100,80.548 227.255,75.760 226.913,74.820 227.665,74.546 226.605,71.633 225.853,71.907 223.869,66.457 224.621,66.183 223.561,63.270 222.809,63.544 222.467,62.604" style="fill:none;stroke-width:0.050000mm;stroke:black"/>
<polygon points="110.843,60.534 110.091,60.261 109.031,63.174 109.783,63.447 107.799,68.898 107.047,68.624 105.987,71.537 106.739,71.811 106.397,72.750 119.553,77.539 119.895,76.599 120.646,76.872 121.707,73.959 120.955,73.686 122.939,68.236 123.690,68.509 124.751,65.596 123.999,65.323 124.341,64.383 111.185,59.595" style="fill:none;stroke-width:0.050000mm;stroke:black"/>
<polygon points="227.212,60.877 227.554,61.817 226.803,62.090 227.863,65.002 228.615,64.730 230.598,70.180 229.847,70.453 230.907,73.367 231.659,73.093 232.001,74.033 245.156,69.244 244.814,68.305 245.566,68.031 244.506,65.118 243.754,65.392 241.770,59.941 242.522,59.668 241.462,56.755 240.710,57.028 240.368,56.089" style="fill:none;stroke-width:0.050000mm;stroke:black"/>
<polygon points="92.942,54.019 92.190,53.745 91.130,56.658 91.882,56.932 89.898,62.382 89.146,62.108 88.086,65.020 88.838,65.295 88.496,66.235 101.651,71.023 101.993,70.083 102.745,70.357 103.806,67.444 103.054,67.170 105.037,61.720 105.789,61.994 106.849,59.081 106.098,58.807 106.440,57.867 93.284,53.079" style="fill:none;stroke-width:0.050000mm;stroke:black"/>
<polygon points="184.895,56.007 185.237,56.946 184.485,57.220 185.545,60.133 186.297,59.859 188.281,65.310 187.529,65.583 188.589,68.496 189.341,68.223 189.683,69.162 202.839,64.374 202.497,63.434 203.248,63.161 202.188,60.248 201.436,60.521 199.453,55.071 200.204,54.798 199.144,51.884 198.392,52.158 198.050,51.218" style="fill:none;stroke-width:0.050000mm;stroke:black"/>
<polygon points="75.041,47.503 74.289,47.230 73.229,50.143 73.981,50.416 71.997,55.867 71.245,55.593 70.185,58.506 70.937,58.780 70.595,59.719 83.750,64.508 84.092,63.568 84.844,63.842 85.904,60.928 85.153,60.655 87.136,55.205 87.888,55.478 88.948,52.565 88.197,52.292 88.539,51.352 75.383,46.564" style="fill:none;stroke-width:0.050000mm;stroke:black"/>
<polygon points="202.796,49.491 203.138,50.431 202.386,50.705 203.446,53.618 204.198,53.344 206.182,58.794 205.430,59.068 206.490,61.981 207.242,61.707 207.584,62.647 220.740,57.859 220.398,56.919 221.149,56.645 220.089,53.732 219.337,54.006 217.354,48.556 218.106,48.282 217.045,45.369 216.293,45.643 215.951,44.703" style="fill:none;stroke-width:0.050000mm;stroke:black"/>
<polygon points="220.697,42.976 221.039,43.915 220.287,44.189 221.347,47.102 222.099,46.828 224.083,52.279 223.331,52.552 224.391,55.465 225.143,55.192 225.485,56.131 238.641,51.343 238.299,50.403 239.051,50.130 237.990,47.217 237.239,47.490 235.255,42.040 236.007,41.767 234.946,38.854 234.195,39.127 233.853,38.187" style="fill:none;stroke-width:0.050000mm;stroke:black"/>
<polygon points="99.458,36.118 98.706,35.844 97.645,38.757 98.397,39.031 96.414,44.481 95.662,44.207 94.602,47.120 95.353,47.394 95.011,48.334 108.167,53.122 108.509,52.182 109.261,52.456 110.321,49.543 109.569,49.269 111.553,43.819 112.305,44.093 113.365,41.180 112.613,40.906 112.955,39.966 99.800,35.178" style="fill:none;stroke-width:0.050000mm;stroke:black"/>
<polygon points="341.376,17.526 341.376,18.526 340.576,18.526 340.576,21.626 341.376,21.626 341.376,27.425 340.576,27.425 340.576,30.526 341.376,30.526 341.376,31.526 355.376,31.526 355.376,30.526 356.176,30.526 356.176,27.425 355.376,27.425 355.376,21.626 356.176,21.626 356.176,18.526 355.376,18.526 355.376,17.526" style="fill:none;stroke-width:0.050000mm;stroke:black"/>
<polygon points="322.326,17.526 322.326,18.526 321.526,18.526 321.526,21.626 322.326,21.626 322.326,27.425 321.526,27.425 321.526,30.526 322.326,30.526 322.326,31.526 336.326,31.526 336.326,30.526 337.126,30.526 337.126,27.425 336.326,27.425 336.326,21.626 337.126,21.626 337.126,18.526 336.326,18.526 336.326,17.526" style="fill:none;stroke-width:0.050000mm;stroke:black"/>
<polygon points="303.276,17.526 303.276,18.526 302.476,18.526 302.476,21.626 303.276,21.626 303.276,27.425 302.476,27.425 302.476,30.526 303.276,30.526 303.276,31.526 317.276,31.526 317.276,30.526 318.076,30.526 318.076,27.425 317.276,27.425 317.276,21.626 318.076,21.626 318.076,18.526 317.276,18.526 317.276,17.526" style="fill:none;stroke-width:0.050000mm;stroke:black"/>
<polygon points="284.226,17.526 284.226,18.526 283.426,18.526 283.426,21.626 284.226,21.626 284.226,27.425 283.426,27.425 283.426,30.526 284.226,30.526 284.226,31.526 298.226,31.526 298.226,30.526 299.026,30.526 299.026,27.425 298.226,27.425 298.226,21.626 299.026,21.626 299.026,18.526 298.226,18.526 298.226,17.526" style="fill:none;stroke-width:0.050000mm;stroke:black"/>
<polygon points="36.576,17.526 36.576,18.526 35.776,18.526 35.776,21.626 36.576,21.626 36.576,27.425 35.776,27.425 35.776,30.526 36.576,30.526 36.576,31.526 50.576,31.526 50.576,30.526 51.376,30.526 51.376,27.425 50.576,27.425 50.576,21.626 51.376,21.626 51.376,18.526 50.576,18.526 50.576,17.526" style="fill:none;stroke-width:0.050000mm;stroke:black"/>
<polygon points="17.526,17.526 17.526,18.526 16.725,18.526 16.725,21.626 17.526,21.626 17.526,27.425 16.725,27.425 16.725,30.526 17.526,30.526 17.526,31.526 31.526,31.526 31.526,30.526 32.324,30.526 32.324,27.425 31.526,27.425 31.526,21.626 32.324,21.626 32.324,18.526 31.526,18.526 31.526,17.526" style="fill:none;stroke-width:0.050000mm;stroke:black"/>
<polygon points="9.460,8.336 8.972,8.585 8.585,8.972 8.336,9.460 8.251,10.001 8.336,10.541 8.585,11.029 8.972,11.416 9.460,11.665 10.001,11.751 10.541,11.665 11.029,11.416 11.416,11.029 11.665,10.541 11.751,10.001 11.665,9.460 11.416,8.972 11.029,8.585 10.541,8.336 10.001,8.251" style="fill:none;stroke-width:0.050000mm;stroke:black"/>
<polygon points="362.361,8.336 361.873,8.585 361.486,8.972 361.237,9.460 361.152,10.001 361.237,10.541 361.486,11.029 361.873,11.416 362.361,11.665 362.902,11.751 363.442,11.665 363.930,11.416 364.317,11.029 364.566,10.541 364.652,10.001 364.566,9.460 364.317,8.972 363.930,8.585 363.442,8.336 362.902,8.251" style="fill:none;stroke-width:0.050000mm;stroke:black"/>
<polygon points="274.135,8.336 273.648,8.585 273.260,8.972 273.012,9.460 272.926,10.001 273.012,10.541 273.260,11.029 273.648,11.416 274.135,11.665 274.676,11.751 275.217,11.665 275.705,11.416 276.092,11.029 276.341,10.541 276.426,10.001 276.341,9.460 276.092,8.972 275.705,8.585 275.217,8.336 274.676,8.251" style="fill:none;stroke-width:0.050000mm;stroke:black"/>
<polygon points="185.910,8.336 185.422,8.585 185.035,8.972 184.787,9.460 184.701,10.001 184.787,10.541 185.035,11.029 185.422,11.416 185.910,11.665 186.451,11.751 186.992,11.665 187.480,11.416 187.867,11.029 188.115,10.541 188.201,10.001 188.115,9.460 187.867,8.972 187.480,8.585 186.992,8.336 186.451,8.251" style="fill:none;stroke-width:0.050000mm;stroke:black"/>
<polygon points="97.685,8.336 97.197,8.585 96.810,8.972 96.561,9.460 96.476,10.001 96.561,10.541 96.810,11.029 97.197,11.416 97.685,11.665 98.226,11.751 98.767,11.665 99.254,11.416 99.642,11.029 99.890,10.541 99.976,10.001 99.890,9.460 99.642,8.972 99.254,8.585 98.767,8.336 98.226,8.251" style="fill:none;stroke-width:0.050000mm;stroke:black"/>
</svg>