  0
SECTION
  2
HEADER
  9
$ACADVER
  1
AC1009
  9
$EXTMIN
 10
0.0
 20
0.0
 30
0.0
  9
$EXTMAX
 10
1000.0
 20
1000.0
 30
0.0
  9
$FILLMODE
 70
 0
  9
$SPLFRAME
 70
 1
  0
ENDSEC
  0
SECTION
  2
TABLES
  0
TABLE
  2
LAYER
 70
1
  0
LAYER
  2
0
 70
     0
 62
     7
  6
CONTINUOUS
  0
ENDTAB
  0
ENDSEC
  0
SECTION
  2
ENTITIES
  0
LINE
  8
0
 62
     0
 10
357.995
 20
115.616
 30
0.0
 11
358.39
 21
115.601
 31
0.0
  0
LINE
  8
0
 62
     0
 10
358.39
 20
115.601
 30
0.0
 11
358.779
 21
115.554
 31
0.0
  0
LINE
  8
0
 62
     0
 10
358.779
 20
115.554
 30
0.0
 11
359.163
 21
115.478
 31
0.0
  0
LINE
  8
0
 62
     0
 10
359.163
 20
115.478
 30
0.0
 11
359.541
 21
115.372
 31
0.0
  0
LINE
  8
0
 62
     0
 10
359.541
 20
115.372
 30
0.0
 11
359.907
 21
115.236
 31
0.0
  0
LINE
  8
0
 62
     0
 10
359.907
 20
115.236
 30
0.0
 11
360.267
 21
115.072
 31
0.0
  0
LINE
  8
0
 62
     0
 10
360.267
 20
115.072
 30
0.0
 11
360.609
 21
114.88
 31
0.0
  0
LINE
  8
0
 62
     0
 10
360.609
 20
114.88
 30
0.0
 11
360.934
 21
114.661
 31
0.0
  0
LINE
  8
0
 62
     0
 10
360.934
 20
114.661
 30
0.0
 11
361.244
 21
114.419
 31
0.0
  0
LINE
  8
0
 62
     0
 10
361.244
 20
114.419
 30
0.0
 11
361.53
 21
114.151
 31
0.0
  0
LINE
  8
0
 62
     0
 10
361.53
 20
114.151
 30
0.0
 11
361.798
 21
113.863
 31
0.0
  0
LINE
  8
0
 62
     0
 10
361.798
 20
113.863
 30
0.0
 11
362.042
 21
113.555
 31
0.0
  0
LINE
  8
0
 62
     0
 10
362.042
 20
113.555
 30
0.0
 11
362.26
 21
113.229
 31
0.0
  0
LINE
  8
0
 62
     0
 10
362.26
 20
113.229
 30
0.0
 11
362.451
 21
112.886
 31
0.0
  0
LINE
  8
0
 62
     0
 10
362.451
 20
112.886
 30
0.0
 11
362.617
 21
112.529
 31
0.0
  0
LINE
  8
0
 62
     0
 10
362.617
 20
112.529
 30
0.0
 11
362.751
 21
112.161
 31
0.0
  0
LINE
  8
0
 62
     0
 10
362.751
 20
112.161
 30
0.0
 11
362.857
 21
111.784
 31
0.0
  0
LINE
  8
0
 62
     0
 10
362.857
 20
111.784
 30
0.0
 11
362.934
 21
111.399
 31
0.0
  0
LINE
  8
0
 62
     0
 10
362.934
 20
111.399
 30
0.0
 11
362.98
 21
111.009
 31
0.0
  0
LINE
  8
0
 62
     0
 10
362.98
 20
111.009
 30
0.0
 11
362.994
 21
110.615
 31
0.0
  0
LINE
  8
0
 62
     0
 10
362.994
 20
110.615
 30
0.0
 11
362.994
 21
5.36607
 31
0.0
  0
LINE
  8
0
 62
     0
 10
362.994
 20
5.36607
 30
0.0
 11
362.98
 21
4.97198
 31
0.0
  0
LINE
  8
0
 62
     0
 10
362.98
 20
4.97198
 30
0.0
 11
362.934
 21
4.58198
 31
0.0
  0
LINE
  8
0
 62
     0
 10
362.934
 20
4.58198
 30
0.0
 11
362.857
 21
4.19749
 31
0.0
  0
LINE
  8
0
 62
     0
 10
362.857
 20
4.19749
 30
0.0
 11
362.751
 21
3.81991
 31
0.0
  0
LINE
  8
0
 62
     0
 10
362.751
 20
3.81991
 30
0.0
 11
362.617
 21
3.45199
 31
0.0
  0
LINE
  8
0
 62
     0
 10
362.617
 20
3.45199
 30
0.0
 11
362.451
 21
3.09507
 31
0.0
  0
LINE
  8
0
 62
     0
 10
362.451
 20
3.09507
 30
0.0
 11
362.26
 21
2.75194
 31
0.0
  0
LINE
  8
0
 62
     0
 10
362.26
 20
2.75194
 30
0.0
 11
362.042
 21
2.42673
 31
0.0
  0
LINE
  8
0
 62
     0
 10
362.042
 20
2.42673
 30
0.0
 11
361.798
 21
2.11805
 31
0.0
  0
LINE
  8
0
 62
     0
 10
361.798
 20
2.11805
 30
0.0
 11
361.53
 21
1.83003
 31
0.0
  0
LINE
  8
0
 62
     0
 10
361.53
 20
1.83003
 30
0.0
 11
361.244
 21
1.5627
 31
0.0
  0
LINE
  8
0
 62
     0
 10
361.244
 20
1.5627
 30
0.0
 11
360.934
 21
1.32016
 31
0.0
  0
LINE
  8
0
 62
     0
 10
360.934
 20
1.32016
 30
0.0
 11
360.609
 21
1.10105
 31
0.0
  0
LINE
  8
0
 62
     0
 10
360.609
 20
1.10105
 30
0.0
 11
360.267
 21
0.909507
 31
0.0
  0
LINE
  8
0
 62
     0
 10
360.267
 20
0.909507
 30
0.0
 11
359.907
 21
0.745518
 31
0.0
  0
LINE
  8
0
 62
     0
 10
359.907
 20
0.745518
 30
0.0
 11
359.541
 21
0.609092
 31
0.0
  0
LINE
  8
0
 62
     0
 10
359.541
 20
0.609092
 30
0.0
 11
359.163
 21
0.502984
 31
0.0
  0
LINE
  8
0
 62
     0
 10
359.163
 20
0.502984
 30
0.0
 11
358.779
 21
0.427193
 31
0.0
  0
LINE
  8
0
 62
     0
 10
358.779
 20
0.427193
 30
0.0
 11
358.39
 21
0.38034
 31
0.0
  0
LINE
  8
0
 62
     0
 10
358.39
 20
0.38034
 30
0.0
 11
357.995
 21
0.365181
 31
0.0
  0
LINE
  8
0
 62
     0
 10
357.995
 20
0.365181
 30
0.0
 11
5.09598
 21
0.365181
 31
0.0
  0
LINE
  8
0
 62
     0
 10
5.09598
 20
0.365181
 30
0.0
 11
4.70186
 21
0.38034
 31
0.0
  0
LINE
  8
0
 62
     0
 10
4.70186
 20
0.38034
 30
0.0
 11
4.3119
 21
0.427193
 31
0.0
  0
LINE
  8
0
 62
     0
 10
4.3119
 20
0.427193
 30
0.0
 11
3.9274
 21
0.502984
 31
0.0
  0
LINE
  8
0
 62
     0
 10
3.9274
 20
0.502984
 30
0.0
 11
3.54983
 21
0.609092
 31
0.0
  0
LINE
  8
0
 62
     0
 10
3.54983
 20
0.609092
 30
0.0
 11
3.18189
 21
0.745518
 31
0.0
  0
LINE
  8
0
 62
     0
 10
3.18189
 20
0.745518
 30
0.0
 11
2.82498
 21
0.909507
 31
0.0
  0
LINE
  8
0
 62
     0
 10
2.82498
 20
0.909507
 30
0.0
 11
2.48185
 21
1.10105
 31
0.0
  0
LINE
  8
0
 62
     0
 10
2.48185
 20
1.10105
 30
0.0
 11
2.15663
 21
1.32016
 31
0.0
  0
LINE
  8
0
 62
     0
 10
2.15663
 20
1.32016
 30
0.0
 11
1.84795
 21
1.5627
 31
0.0
  0
LINE
  8
0
 62
     0
 10
1.84795
 20
1.5627
 30
0.0
 11
1.55994
 21
1.83003
 31
0.0
  0
LINE
  8
0
 62
     0
 10
1.55994
 20
1.83003
 30
0.0
 11
1.2926
 21
2.11805
 31
0.0
  0
LINE
  8
0
 62
     0
 10
1.2926
 20
2.11805
 30
0.0
 11
1.05006
 21
2.42673
 31
0.0
  0
LINE
  8
0
 62
     0
 10
1.05006
 20
2.42673
 30
0.0
 11
0.830957
 21
2.75194
 31
0.0
  0
LINE
  8
0
 62
     0
 10
0.830957
 20
2.75194
 30
0.0
 11
0.63941
 21
3.09507
 31
0.0
  0
LINE
  8
0
 62
     0
 10
0.63941
 20
3.09507
 30
0.0
 11
0.475424
 21
3.45199
 31
0.0
  0
LINE
  8
0
 62
     0
 10
0.475424
 20
3.45199
 30
0.0
 11
0.338998
 21
3.81991
 31
0.0
  0
LINE
  8
0
 62
     0
 10
0.338998
 20
3.81991
 30
0.0
 11
0.232888
 21
4.19749
 31
0.0
  0
LINE
  8
0
 62
     0
 10
0.232888
 20
4.19749
 30
0.0
 11
0.157097
 21
4.58198
 31
0.0
  0
LINE
  8
0
 62
     0
 10
0.157097
 20
4.58198
 30
0.0
 11
0.110243
 21
4.97198
 31
0.0
  0
LINE
  8
0
 62
     0
 10
0.110243
 20
4.97198
 30
0.0
 11
0.0950846
 21
5.36607
 31
0.0
  0
LINE
  8
0
 62
     0
 10
0.0950846
 20
5.36607
 30
0.0
 11
0.0950846
 21
110.615
 31
0.0
  0
LINE
  8
0
 62
     0
 10
0.0950846
 20
110.615
 30
0.0
 11
0.110243
 21
111.009
 31
0.0
  0
LINE
  8
0
 62
     0
 10
0.110243
 20
111.009
 30
0.0
 11
0.157097
 21
111.399
 31
0.0
  0
LINE
  8
0
 62
     0
 10
0.157097
 20
111.399
 30
0.0
 11
0.232888
 21
111.784
 31
0.0
  0
LINE
  8
0
 62
     0
 10
0.232888
 20
111.784
 30
0.0
 11
0.338998
 21
112.161
 31
0.0
  0
LINE
  8
0
 62
     0
 10
0.338998
 20
112.161
 30
0.0
 11
0.475424
 21
112.529
 31
0.0
  0
LINE
  8
0
 62
     0
 10
0.475424
 20
112.529
 30
0.0
 11
0.63941
 21
112.886
 31
0.0
  0
LINE
  8
0
 62
     0
 10
0.63941
 20
112.886
 30
0.0
 11
0.830957
 21
113.229
 31
0.0
  0
LINE
  8
0
 62
     0
 10
0.830957
 20
113.229
 30
0.0
 11
1.05006
 21
113.555
 31
0.0
  0
LINE
  8
0
 62
     0
 10
1.05006
 20
113.555
 30
0.0
 11
1.2926
 21
113.863
 31
0.0
  0
LINE
  8
0
 62
     0
 10
1.2926
 20
113.863
 30
0.0
 11
1.55994
 21
114.151
 31
0.0
  0
LINE
  8
0
 62
     0
 10
1.55994
 20
114.151
 30
0.0
 11
1.84795
 21
114.419
 31
0.0
  0
LINE
  8
0
 62
     0
 10
1.84795
 20
114.419
 30
0.0
 11
2.15663
 21
114.661
 31
0.0
  0
LINE
  8
0
 62
     0
 10
2.15663
 20
114.661
 30
0.0
 11
2.48185
 21
114.88
 31
0.0
  0
LINE
  8
0
 62
     0
 10
2.48185
 20
114.88
 30
0.0
 11
2.82498
 21
115.072
 31
0.0
  0
LINE
  8
0
 62
     0
 10
2.82498
 20
115.072
 30
0.0
 11
3.18189
 21
115.236
 31
0.0
  0
LINE
  8
0
 62
     0
 10
3.18189
 20
115.236
 30
0.0
 11
3.54983
 21
115.372
 31
0.0
  0
LINE
  8
0
 62
     0
 10
3.54983
 20
115.372
 30
0.0
 11
3.9274
 21
115.478
 31
0.0
  0
LINE
  8
0
 62
     0
 10
3.9274
 20
115.478
 30
0.0
 11
4.3119
 21
115.554
 31
0.0
  0
LINE
  8
0
 62
     0
 10
4.3119
 20
115.554
 30
0.0
 11
4.70186
 21
115.601
 31
0.0
  0
LINE
  8
0
 62
     0
 10
4.70186
 20
115.601
 30
0.0
 11
5.09598
 21
115.616
 31
0.0
  0
LINE
  8
0
 62
     0
 10
5.09598
 20
115.616
 30
0.0
 11
357.995
 21
115.616
 31
0.0
  0
LINE
  8
0
 62
     0
 10
4.55443
 20
7.02938
 30
0.0
 11
4.06658
 21
6.77997
 31
0.0
  0
LINE
  8
0
 62
     0
 10
4.06658
 20
6.77997
 30
0.0
 11
3.67937
 21
6.3941
 31
0.0
  0
LINE
  8
0
 62
     0
 10
3.67937
 20
6.3941
 30
0.0
 11
3.42994
 21
5.90628
 31
0.0
  0
LINE
  8
0
 62
     0
 10
3.42994
 20
5.90628
 30
0.0
 11
3.34588
 21
5.36607
 31
0.0
  0
LINE
  8
0
 62
     0
 10
3.34588
 20
5.36607
 30
0.0
 11
3.42994
 21
4.82452
 31
0.0
  0
LINE
  8
0
 62
     0
 10
3.42994
 20
4.82452
 30
0.0
 11
3.67937
 21
4.3367
 31
0.0
  0
LINE
  8
0
 62
     0
 10
3.67937
 20
4.3367
 30
0.0
 11
4.06658
 21
3.94945
 31
0.0
  0
LINE
  8
0
 62
     0
 10
4.06658
 20
3.94945
 30
0.0
 11
4.55443
 21
3.70004
 31
0.0
  0
LINE
  8
0
 62
     0
 10
4.55443
 20
3.70004
 30
0.0
 11
5.09598
 21
3.61597
 31
0.0
  0
LINE
  8
0
 62
     0
 10
5.09598
 20
3.61597
 30
0.0
 11
5.63619
 21
3.70004
 31
0.0
  0
LINE
  8
0
 62
     0
 10
5.63619
 20
3.70004
 30
0.0
 11
6.12401
 21
3.94945
 31
0.0
  0
LINE
  8
0
 62
     0
 10
6.12401
 20
3.94945
 30
0.0
 11
6.50984
 21
4.3367
 31
0.0
  0
LINE
  8
0
 62
     0
 10
6.50984
 20
4.3367
 30
0.0
 11
6.75929
 21
4.82452
 31
0.0
  0
LINE
  8
0
 62
     0
 10
6.75929
 20
4.82452
 30
0.0
 11
6.84611
 21
5.36607
 31
0.0
  0
LINE
  8
0
 62
     0
 10
6.84611
 20
5.36607
 30
0.0
 11
6.75929
 21
5.90628
 31
0.0
  0
LINE
  8
0
 62
     0
 10
6.75929
 20
5.90628
 30
0.0
 11
6.50984
 21
6.3941
 31
0.0
  0
LINE
  8
0
 62
     0
 10
6.50984
 20
6.3941
 30
0.0
 11
6.12401
 21
6.77997
 31
0.0
  0
LINE
  8
0
 62
     0
 10
6.12401
 20
6.77997
 30
0.0
 11
5.63619
 21
7.02938
 31
0.0
  0
LINE
  8
0
 62
     0
 10
5.63619
 20
7.02938
 30
0.0
 11
5.09598
 21
7.1162
 31
0.0
  0
LINE
  8
0
 62
     0
 10
5.09598
 20
7.1162
 30
0.0
 11
4.55443
 21
7.02938
 31
0.0
  0
LINE
  8
0
 62
     0
 10
92.7791
 20
7.02938
 30
0.0
 11
92.2913
 21
6.77997
 31
0.0
  0
LINE
  8
0
 62
     0
 10
92.2913
 20
6.77997
 30
0.0
 11
91.9043
 21
6.3941
 31
0.0
  0
LINE
  8
0
 62
     0
 10
91.9043
 20
6.3941
 30
0.0
 11
91.6562
 21
5.90628
 31
0.0
  0
LINE
  8
0
 62
     0
 10
91.6562
 20
5.90628
 30
0.0
 11
91.5705
 21
5.36607
 31
0.0
  0
LINE
  8
0
 62
     0
 10
91.5705
 20
5.36607
 30
0.0
 11
91.6562
 21
4.82452
 31
0.0
  0
LINE
  8
0
 62
     0
 10
91.6562
 20
4.82452
 30
0.0
 11
91.9043
 21
4.3367
 31
0.0
  0
LINE
  8
0
 62
     0
 10
91.9043
 20
4.3367
 30
0.0
 11
92.2913
 21
3.94945
 31
0.0
  0
LINE
  8
0
 62
     0
 10
92.2913
 20
3.94945
 30
0.0
 11
92.7791
 21
3.70004
 31
0.0
  0
LINE
  8
0
 62
     0
 10
92.7791
 20
3.70004
 30
0.0
 11
93.3207
 21
3.61597
 31
0.0
  0
LINE
  8
0
 62
     0
 10
93.3207
 20
3.61597
 30
0.0
 11
93.8611
 21
3.70004
 31
0.0
  0
LINE
  8
0
 62
     0
 10
93.8611
 20
3.70004
 30
0.0
 11
94.3487
 21
3.94945
 31
0.0
  0
LINE
  8
0
 62
     0
 10
94.3487
 20
3.94945
 30
0.0
 11
94.736
 21
4.3367
 31
0.0
  0
LINE
  8
0
 62
     0
 10
94.736
 20
4.3367
 30
0.0
 11
94.984
 21
4.82452
 31
0.0
  0
LINE
  8
0
 62
     0
 10
94.984
 20
4.82452
 30
0.0
 11
95.0708
 21
5.36607
 31
0.0
  0
LINE
  8
0
 62
     0
 10
95.0708
 20
5.36607
 30
0.0
 11
94.984
 21
5.90628
 31
0.0
  0
LINE
  8
0
 62
     0
 10
94.984
 20
5.90628
 30
0.0
 11
94.736
 21
6.3941
 31
0.0
  0
LINE
  8
0
 62
     0
 10
94.736
 20
6.3941
 30
0.0
 11
94.3487
 21
6.77997
 31
0.0
  0
LINE
  8
0
 62
     0
 10
94.3487
 20
6.77997
 30
0.0
 11
93.8611
 21
7.02938
 31
0.0
  0
LINE
  8
0
 62
     0
 10
93.8611
 20
7.02938
 30
0.0
 11
93.3207
 21
7.1162
 31
0.0
  0
LINE
  8
0
 62
     0
 10
93.3207
 20
7.1162
 30
0.0
 11
92.7791
 21
7.02938
 31
0.0
  0
LINE
  8
0
 62
     0
 10
181.004
 20
7.02938
 30
0.0
 11
180.516
 21
6.77997
 31
0.0
  0
LINE
  8
0
 62
     0
 10
180.516
 20
6.77997
 30
0.0
 11
180.129
 21
6.3941
 31
0.0
  0
LINE
  8
0
 62
     0
 10
180.129
 20
6.3941
 30
0.0
 11
179.881
 21
5.90628
 31
0.0
  0
LINE
  8
0
 62
     0
 10
179.881
 20
5.90628
 30
0.0
 11
179.795
 21
5.36607
 31
0.0
  0
LINE
  8
0
 62
     0
 10
179.795
 20
5.36607
 30
0.0
 11
179.881
 21
4.82452
 31
0.0
  0
LINE
  8
0
 62
     0
 10
179.881
 20
4.82452
 30
0.0
 11
180.129
 21
4.3367
 31
0.0
  0
LINE
  8
0
 62
     0
 10
180.129
 20
4.3367
 30
0.0
 11
180.516
 21
3.94945
 31
0.0
  0
LINE
  8
0
 62
     0
 10
180.516
 20
3.94945
 30
0.0
 11
181.004
 21
3.70004
 31
0.0
  0
LINE
  8
0
 62
     0
 10
181.004
 20
3.70004
 30
0.0
 11
181.545
 21
3.61597
 31
0.0
  0
LINE
  8
0
 62
     0
 10
181.545
 20
3.61597
 30
0.0
 11
182.087
 21
3.70004
 31
0.0
  0
LINE
  8
0
 62
     0
 10
182.087
 20
3.70004
 30
0.0
 11
182.575
 21
3.94945
 31
0.0
  0
LINE
  8
0
 62
     0
 10
182.575
 20
3.94945
 30
0.0
 11
182.962
 21
4.3367
 31
0.0
  0
LINE
  8
0
 62
     0
 10
182.962
 20
4.3367
 30
0.0
 11
183.209
 21
4.82452
 31
0.0
  0
LINE
  8
0
 62
     0
 10
183.209
 20
4.82452
 30
0.0
 11
183.296
 21
5.36607
 31
0.0
  0
LINE
  8
0
 62
     0
 10
183.296
 20
5.36607
 30
0.0
 11
183.209
 21
5.90628
 31
0.0
  0
LINE
  8
0
 62
     0
 10
183.209
 20
5.90628
 30
0.0
 11
182.962
 21
6.3941
 31
0.0
  0
LINE
  8
0
 62
     0
 10
182.962
 20
6.3941
 30
0.0
 11
182.575
 21
6.77997
 31
0.0
  0
LINE
  8
0
 62
     0
 10
182.575
 20
6.77997
 30
0.0
 11
182.087
 21
7.02938
 31
0.0
  0
LINE
  8
0
 62
     0
 10
182.087
 20
7.02938
 30
0.0
 11
181.545
 21
7.1162
 31
0.0
  0
LINE
  8
0
 62
     0
 10
181.545
 20
7.1162
 30
0.0
 11
181.004
 21
7.02938
 31
0.0
  0
LINE
  8
0
 62
     0
 10
269.23
 20
7.02938
 30
0.0
 11
268.742
 21
6.77997
 31
0.0
  0
LINE
  8
0
 62
     0
 10
268.742
 20
6.77997
 30
0.0
 11
268.355
 21
6.3941
 31
0.0
  0
LINE
  8
0
 62
     0
 10
268.355
 20
6.3941
 30
0.0
 11
268.107
 21
5.90628
 31
0.0
  0
LINE
  8
0
 62
     0
 10
268.107
 20
5.90628
 30
0.0
 11
268.02
 21
5.36607
 31
0.0
  0
LINE
  8
0
 62
     0
 10
268.02
 20
5.36607
 30
0.0
 11
268.107
 21
4.82452
 31
0.0
  0
LINE
  8
0
 62
     0
 10
268.107
 20
4.82452
 30
0.0
 11
268.355
 21
4.3367
 31
0.0
  0
LINE
  8
0
 62
     0
 10
268.355
 20
4.3367
 30
0.0
 11
268.742
 21
3.94945
 31
0.0
  0
LINE
  8
0
 62
     0
 10
268.742
 20
3.94945
 30
0.0
 11
269.23
 21
3.70004
 31
0.0
  0
LINE
  8
0
 62
     0
 10
269.23
 20
3.70004
 30
0.0
 11
269.77
 21
3.61597
 31
0.0
  0
LINE
  8
0
 62
     0
 10
269.77
 20
3.61597
 30
0.0
 11
270.312
 21
3.70004
 31
0.0
  0
LINE
  8
0
 62
     0
 10
270.312
 20
3.70004
 30
0.0
 11
270.8
 21
3.94945
 31
0.0
  0
LINE
  8
0
 62
     0
 10
270.8
 20
3.94945
 30
0.0
 11
271.187
 21
4.3367
 31
0.0
  0
LINE
  8
0
 62
     0
 10
271.187
 20
4.3367
 30
0.0
 11
271.435
 21
4.82452
 31
0.0
  0
LINE
  8
0
 62
     0
 10
271.435
 20
4.82452
 30
0.0
 11
271.52
 21
5.36607
 31
0.0
  0
LINE
  8
0
 62
     0
 10
271.52
 20
5.36607
 30
0.0
 11
271.435
 21
5.90628
 31
0.0
  0
LINE
  8
0
 62
     0
 10
271.435
 20
5.90628
 30
0.0
 11
271.187
 21
6.3941
 31
0.0
  0
LINE
  8
0
 62
     0
 10
271.187
 20
6.3941
 30
0.0
 11
270.8
 21
6.77997
 31
0.0
  0
LINE
  8
0
 62
     0
 10
270.8
 20
6.77997
 30
0.0
 11
270.312
 21
7.02938
 31
0.0
  0
LINE
  8
0
 62
     0
 10
270.312
 20
7.02938
 30
0.0
 11
269.77
 21
7.1162
 31
0.0
  0
LINE
  8
0
 62
     0
 10
269.77
 20
7.1162
 30
0.0
 11
269.23
 21
7.02938
 31
0.0
  0
LINE
  8
0
 62
     0
 10
357.456
 20
7.02938
 30
0.0
 11
356.969
 21
6.77997
 31
0.0
  0
LINE
  8
0
 62
     0
 10
356.969
 20
6.77997
 30
0.0
 11
356.581
 21
6.3941
 31
0.0
  0
LINE
  8
0
 62
     0
 10
356.581
 20
6.3941
 30
0.0
 11
356.33
 21
5.90628
 31
0.0
  0
LINE
  8
0
 62
     0
 10
356.33
 20
5.90628
 30
0.0
 11
356.246
 21
5.36607
 31
0.0
  0
LINE
  8
0
 62
     0
 10
356.246
 20
5.36607
 30
0.0
 11
356.33
 21
4.82452
 31
0.0
  0
LINE
  8
0
 62
     0
 10
356.33
 20
4.82452
 30
0.0
 11
356.581
 21
4.3367
 31
0.0
  0
LINE
  8
0
 62
     0
 10
356.581
 20
4.3367
 30
0.0
 11
356.969
 21
3.94945
 31
0.0
  0
LINE
  8
0
 62
     0
 10
356.969
 20
3.94945
 30
0.0
 11
357.456
 21
3.70004
 31
0.0
  0
LINE
  8
0
 62
     0
 10
357.456
 20
3.70004
 30
0.0
 11
357.995
 21
3.61597
 31
0.0
  0
LINE
  8
0
 62
     0
 10
357.995
 20
3.61597
 30
0.0
 11
358.535
 21
3.70004
 31
0.0
  0
LINE
  8
0
 62
     0
 10
358.535
 20
3.70004
 30
0.0
 11
359.025
 21
3.94945
 31
0.0
  0
LINE
  8
0
 62
     0
 10
359.025
 20
3.94945
 30
0.0
 11
359.41
 21
4.3367
 31
0.0
  0
LINE
  8
0
 62
     0
 10
359.41
 20
4.3367
 30
0.0
 11
359.66
 21
4.82452
 31
0.0
  0
LINE
  8
0
 62
     0
 10
359.66
 20
4.82452
 30
0.0
 11
359.745
 21
5.36607
 31
0.0
  0
LINE
  8
0
 62
     0
 10
359.745
 20
5.36607
 30
0.0
 11
359.66
 21
5.90628
 31
0.0
  0
LINE
  8
0
 62
     0
 10
359.66
 20
5.90628
 30
0.0
 11
359.41
 21
6.3941
 31
0.0
  0
LINE
  8
0
 62
     0
 10
359.41
 20
6.3941
 30
0.0
 11
359.025
 21
6.77997
 31
0.0
  0
LINE
  8
0
 62
     0
 10
359.025
 20
6.77997
 30
0.0
 11
358.535
 21
7.02938
 31
0.0
  0
LINE
  8
0
 62
     0
 10
358.535
 20
7.02938
 30
0.0
 11
357.995
 21
7.1162
 31
0.0
  0
LINE
  8
0
 62
     0
 10
357.995
 20
7.1162
 30
0.0
 11
357.456
 21
7.02938
 31
0.0
  0
LINE
  8
0
 62
     0
 10
4.55443
 20
112.281
 30
0.0
 11
4.06658
 21
112.032
 31
0.0
  0
LINE
  8
0
 62
     0
 10
4.06658
 20
112.032
 30
0.0
 11
3.67937
 21
111.645
 31
0.0
  0
LINE
  8
0
 62
     0
 10
3.67937
 20
111.645
 30
0.0
 11
3.42994
 21
111.157
 31
0.0
  0
LINE
  8
0
 62
     0
 10
3.42994
 20
111.157
 30
0.0
 11
3.34588
 21
110.615
 31
0.0
  0
LINE
  8
0
 62
     0
 10
3.34588
 20
110.615
 30
0.0
 11
3.42994
 21
110.075
 31
0.0
  0
LINE
  8
0
 62
     0
 10
3.42994
 20
110.075
 30
0.0
 11
3.67937
 21
109.587
 31
0.0
  0
LINE
  8
0
 62
     0
 10
3.67937
 20
109.587
 30
0.0
 11
4.06658
 21
109.201
 31
0.0
  0
LINE
  8
0
 62
     0
 10
4.06658
 20
109.201
 30
0.0
 11
4.55443
 21
108.952
 31
0.0
  0
LINE
  8
0
 62
     0
 10
4.55443
 20
108.952
 30
0.0
 11
5.09598
 21
108.865
 31
0.0
  0
LINE
  8
0
 62
     0
 10
5.09598
 20
108.865
 30
0.0
 11
5.63619
 21
108.952
 31
0.0
  0
LINE
  8
0
 62
     0
 10
5.63619
 20
108.952
 30
0.0
 11
6.12401
 21
109.201
 31
0.0
  0
LINE
  8
0
 62
     0
 10
6.12401
 20
109.201
 30
0.0
 11
6.50984
 21
109.587
 31
0.0
  0
LINE
  8
0
 62
     0
 10
6.50984
 20
109.587
 30
0.0
 11
6.75929
 21
110.075
 31
0.0
  0
LINE
  8
0
 62
     0
 10
6.75929
 20
110.075
 30
0.0
 11
6.84611
 21
110.615
 31
0.0
  0
LINE
  8
0
 62
     0
 10
6.84611
 20
110.615
 30
0.0
 11
6.75929
 21
111.157
 31
0.0
  0
LINE
  8
0
 62
     0
 10
6.75929
 20
111.157
 30
0.0
 11
6.50984
 21
111.645
 31
0.0
  0
LINE
  8
0
 62
     0
 10
6.50984
 20
111.645
 30
0.0
 11
6.12401
 21
112.032
 31
0.0
  0
LINE
  8
0
 62
     0
 10
6.12401
 20
112.032
 30
0.0
 11
5.63619
 21
112.281
 31
0.0
  0
LINE
  8
0
 62
     0
 10
5.63619
 20
112.281
 30
0.0
 11
5.09598
 21
112.365
 31
0.0
  0
LINE
  8
0
 62
     0
 10
5.09598
 20
112.365
 30
0.0
 11
4.55443
 21
112.281
 31
0.0
  0
LINE
  8
0
 62
     0
 10
357.456
 20
112.281
 30
0.0
 11
356.969
 21
112.032
 31
0.0
  0
LINE
  8
0
 62
     0
 10
356.969
 20
112.032
 30
0.0
 11
356.581
 21
111.645
 31
0.0
  0
LINE
  8
0
 62
     0
 10
356.581
 20
111.645
 30
0.0
 11
356.33
 21
111.157
 31
0.0
  0
LINE
  8
0
 62
     0
 10
356.33
 20
111.157
 30
0.0
 11
356.246
 21
110.615
 31
0.0
  0
LINE
  8
0
 62
     0
 10
356.246
 20
110.615
 30
0.0
 11
356.33
 21
110.075
 31
0.0
  0
LINE
  8
0
 62
     0
 10
356.33
 20
110.075
 30
0.0
 11
356.581
 21
109.587
 31
0.0
  0
LINE
  8
0
 62
     0
 10
356.581
 20
109.587
 30
0.0
 11
356.969
 21
109.201
 31
0.0
  0
LINE
  8
0
 62
     0
 10
356.969
 20
109.201
 30
0.0
 11
357.456
 21
108.952
 31
0.0
  0
LINE
  8
0
 62
     0
 10
357.456
 20
108.952
 30
0.0
 11
357.995
 21
108.865
 31
0.0
  0
LINE
  8
0
 62
     0
 10
357.995
 20
108.865
 30
0.0
 11
358.535
 21
108.952
 31
0.0
  0
LINE
  8
0
 62
     0
 10
358.535
 20
108.952
 30
0.0
 11
359.025
 21
109.201
 31
0.0
  0
LINE
  8
0
 62
     0
 10
359.025
 20
109.201
 30
0.0
 11
359.41
 21
109.587
 31
0.0
  0
LINE
  8
0
 62
     0
 10
359.41
 20
109.587
 30
0.0
 11
359.66
 21
110.075
 31
0.0
  0
LINE
  8
0
 62
     0
 10
359.66
 20
110.075
 30
0.0
 11
359.745
 21
110.615
 31
0.0
  0
LINE
  8
0
 62
     0
 10
359.745
 20
110.615
 30
0.0
 11
359.66
 21
111.157
 31
0.0
  0
LINE
  8
0
 62
     0
 10
359.66
 20
111.157
 30
0.0
 11
359.41
 21
111.645
 31
0.0
  0
LINE
  8
0
 62
     0
 10
359.41
 20
111.645
 30
0.0
 11
359.025
 21
112.032
 31
0.0
  0
LINE
  8
0
 62
     0
 10
359.025
 20
112.032
 30
0.0
 11
358.535
 21
112.281
 31
0.0
  0
LINE
  8
0
 62
     0
 10
358.535
 20
112.281
 30
0.0
 11
357.995
 21
112.365
 31
0.0
  0
LINE
  8
0
 62
     0
 10
357.995
 20
112.365
 30
0.0
 11
357.456
 21
112.281
 31
0.0
  0
LINE
  8
0
 62
     0
 10
269.23
 20
112.281
 30
0.0
 11
268.742
 21
112.032
 31
0.0
  0
LINE
  8
0
 62
     0
 10
268.742
 20
112.032
 30
0.0
 11
268.355
 21
111.645
 31
0.0
  0
LINE
  8
0
 62
     0
 10
268.355
 20
111.645
 30
0.0
 11
268.107
 21
111.157
 31
0.0
  0
LINE
  8
0
 62
     0
 10
268.107
 20
111.157
 30
0.0
 11
268.02
 21
110.615
 31
0.0
  0
LINE
  8
0
 62
     0
 10
268.02
 20
110.615
 30
0.0
 11
268.107
 21
110.075
 31
0.0
  0
LINE
  8
0
 62
     0
 10
268.107
 20
110.075
 30
0.0
 11
268.355
 21
109.587
 31
0.0
  0
LINE
  8
0
 62
     0
 10
268.355
 20
109.587
 30
0.0
 11
268.742
 21
109.201
 31
0.0
  0
LINE
  8
0
 62
     0
 10
268.742
 20
109.201
 30
0.0
 11
269.23
 21
108.952
 31
0.0
  0
LINE
  8
0
 62
     0
 10
269.23
 20
108.952
 30
0.0
 11
269.77
 21
108.865
 31
0.0
  0
LINE
  8
0
 62
     0
 10
269.77
 20
108.865
 30
0.0
 11
270.312
 21
108.952
 31
0.0
  0
LINE
  8
0
 62
     0
 10
270.312
 20
108.952
 30
0.0
 11
270.8
 21
109.201
 31
0.0
  0
LINE
  8
0
 62
     0
 10
270.8
 20
109.201
 30
0.0
 11
271.187
 21
109.587
 31
0.0
  0
LINE
  8
0
 62
     0
 10
271.187
 20
109.587
 30
0.0
 11
271.435
 21
110.075
 31
0.0
  0
LINE
  8
0
 62
     0
 10
271.435
 20
110.075
 30
0.0
 11
271.52
 21
110.615
 31
0.0
  0
LINE
  8
0
 62
     0
 10
271.52
 20
110.615
 30
0.0
 11
271.435
 21
111.157
 31
0.0
  0
LINE
  8
0
 62
     0
 10
271.435
 20
111.157
 30
0.0
 11
271.187
 21
111.645
 31
0.0
  0
LINE
  8
0
 62
     0
 10
271.187
 20
111.645
 30
0.0
 11
270.8
 21
112.032
 31
0.0
  0
LINE
  8
0
 62
     0
 10
270.8
 20
112.032
 30
0.0
 11
270.312
 21
112.281
 31
0.0
  0
LINE
  8
0
 62
     0
 10
270.312
 20
112.281
 30
0.0
 11
269.77
 21
112.365
 31
0.0
  0
LINE
  8
0
 62
     0
 10
269.77
 20
112.365
 30
0.0
 11
269.23
 21
112.281
 31
0.0
  0
LINE
  8
0
 62
     0
 10
181.004
 20
112.281
 30
0.0
 11
180.516
 21
112.032
 31
0.0
  0
LINE
  8
0
 62
     0
 10
180.516
 20
112.032
 30
0.0
 11
180.129
 21
111.645
 31
0.0
  0
LINE
  8
0
 62
     0
 10
180.129
 20
111.645
 30
0.0
 11
179.881
 21
111.157
 31
0.0
  0
LINE
  8
0
 62
     0
 10
179.881
 20
111.157
 30
0.0
 11
179.795
 21
110.615
 31
0.0
  0
LINE
  8
0
 62
     0
 10
179.795
 20
110.615
 30
0.0
 11
179.881
 21
110.075
 31
0.0
  0
LINE
  8
0
 62
     0
 10
179.881
 20
110.075
 30
0.0
 11
180.129
 21
109.587
 31
0.0
  0
LINE
  8
0
 62
     0
 10
180.129
 20
109.587
 30
0.0
 11
180.516
 21
109.201
 31
0.0
  0
LINE
  8
0
 62
     0
 10
180.516
 20
109.201
 30
0.0
 11
181.004
 21
108.952
 31
0.0
  0
LINE
  8
0
 62
     0
 10
181.004
 20
108.952
 30
0.0
 11
181.545
 21
108.865
 31
0.0
  0
LINE
  8
0
 62
     0
 10
181.545
 20
108.865
 30
0.0
 11
182.087
 21
108.952
 31
0.0
  0
LINE
  8
0
 62
     0
 10
182.087
 20
108.952
 30
0.0
 11
182.575
 21
109.201
 31
0.0
  0
LINE
  8
0
 62
     0
 10
182.575
 20
109.201
 30
0.0
 11
182.962
 21
109.587
 31
0.0
  0
LINE
  8
0
 62
     0
 10
182.962
 20
109.587
 30
0.0
 11
183.209
 21
110.075
 31
0.0
  0
LINE
  8
0
 62
     0
 10
183.209
 20
110.075
 30
0.0
 11
183.296
 21
110.615
 31
0.0
  0
LINE
  8
0
 62
     0
 10
183.296
 20
110.615
 30
0.0
 11
183.209
 21
111.157
 31
0.0
  0
LINE
  8
0
 62
     0
 10
183.209
 20
111.157
 30
0.0
 11
182.962
 21
111.645
 31
0.0
  0
LINE
  8
0
 62
     0
 10
182.962
 20
111.645
 30
0.0
 11
182.575
 21
112.032
 31
0.0
  0
LINE
  8
0
 62
     0
 10
182.575
 20
112.032
 30
0.0
 11
182.087
 21
112.281
 31
0.0
  0
LINE
  8
0
 62
     0
 10
182.087
 20
112.281
 30
0.0
 11
181.545
 21
112.365
 31
0.0
  0
LINE
  8
0
 62
     0
 10
181.545
 20
112.365
 30
0.0
 11
181.004
 21
112.281
 31
0.0
  0
LINE
  8
0
 62
     0
 10
92.7791
 20
112.281
 30
0.0
 11
92.2913
 21
112.032
 31
0.0
  0
LINE
  8
0
 62
     0
 10
92.2913
 20
112.032
 30
0.0
 11
91.9043
 21
111.645
 31
0.0
  0
LINE
  8
0
 62
     0
 10
91.9043
 20
111.645
 30
0.0
 11
91.6562
 21
111.157
 31
0.0
  0
LINE
  8
0
 62
     0
 10
91.6562
 20
111.157
 30
0.0
 11
91.5705
 21
110.615
 31
0.0
  0
LINE
  8
0
 62
     0
 10
91.5705
 20
110.615
 30
0.0
 11
91.6562
 21
110.075
 31
0.0
  0
LINE
  8
0
 62
     0
 10
91.6562
 20
110.075
 30
0.0
 11
91.9043
 21
109.587
 31
0.0
  0
LINE
  8
0
 62
     0
 10
91.9043
 20
109.587
 30
0.0
 11
92.2913
 21
109.201
 31
0.0
  0
LINE
  8
0
 62
     0
 10
92.2913
 20
109.201
 30
0.0
 11
92.7791
 21
108.952
 31
0.0
  0
LINE
  8
0
 62
     0
 10
92.7791
 20
108.952
 30
0.0
 11
93.3207
 21
108.865
 31
0.0
  0
LINE
  8
0
 62
     0
 10
93.3207
 20
108.865
 30
0.0
 11
93.8611
 21
108.952
 31
0.0
  0
LINE
  8
0
 62
     0
 10
93.8611
 20
108.952
 30
0.0
 11
94.3487
 21
109.201
 31
0.0
  0
LINE
  8
0
 62
     0
 10
94.3487
 20
109.201
 30
0.0
 11
94.736
 21
109.587
 31
0.0
  0
LINE
  8
0
 62
     0
 10
94.736
 20
109.587
 30
0.0
 11
94.984
 21
110.075
 31
0.0
  0
LINE
  8
0
 62
     0
 10
94.984
 20
110.075
 30
0.0
 11
95.0708
 21
110.615
 31
0.0
  0
LINE
  8
0
 62
     0
 10
95.0708
 20
110.615
 30
0.0
 11
94.984
 21
111.157
 31
0.0
  0
LINE
  8
0
 62
     0
 10
94.984
 20
111.157
 30
0.0
 11
94.736
 21
111.645
 31
0.0
  0
LINE
  8
0
 62
     0
 10
94.736
 20
111.645
 30
0.0
 11
94.3487
 21
112.032
 31
0.0
  0
LINE
  8
0
 62
     0
 10
94.3487
 20
112.032
 30
0.0
 11
93.8611
 21
112.281
 31
0.0
  0
LINE
  8
0
 62
     0
 10
93.8611
 20
112.281
 30
0.0
 11
93.3207
 21
112.365
 31
0.0
  0
LINE
  8
0
 62
     0
 10
93.3207
 20
112.365
 30
0.0
 11
92.7791
 21
112.281
 31
0.0
  0
ENDSEC
  0
EOF
