<?xml version="1.0" encoding="UTF-8"?>
<!-- Generated by SVGo -->
<svg width="372.902mm" height="125.252mm" viewBox="0.000 0.000 372.902 125.252" xmlns="http://www.w3.org/2000/svg" xmlns:xlink="http://www.w3.org/1999/xlink">
<polygon points="181.451,15.001 15.001,15.001 15.001,110.251 357.902,110.251 357.902,15.001 191.451,15.001 191.451,5.001 362.902,5.001 363.294,5.016 363.684,5.062 364.069,5.139 364.447,5.245 364.815,5.381 365.171,5.545 365.514,5.737 365.840,5.955 366.149,6.198 366.437,6.465 366.704,6.753 366.947,7.062 367.165,7.388 367.357,7.731 367.521,8.087 367.657,8.455 367.763,8.833 367.840,9.218 367.886,9.608 367.901,10.001 367.902,115.251 367.886,115.644 367.840,116.034 367.763,116.419 367.657,116.797 367.521,117.165 367.357,117.521 367.165,117.864 366.947,118.190 366.704,118.499 366.437,118.787 366.149,119.054 365.840,119.297 365.514,119.515 365.171,119.707 364.815,119.871 364.447,120.007 364.069,120.113 363.684,120.190 363.294,120.236 362.902,120.252 10.001,120.251 9.608,120.236 9.218,120.190 8.833,120.113 8.455,120.007 8.087,119.871 7.731,119.707 7.388,119.515 7.062,119.297 6.753,119.054 6.465,118.787 6.198,118.499 5.955,118.190 5.737,117.864 5.545,117.521 5.381,117.165 5.245,116.797 5.139,116.419 5.062,116.034 5.016,115.644 5.000,115.251 5.001,10.001 5.016,9.608 5.062,9.218 5.139,8.833 5.245,8.455 5.381,8.087 5.545,7.731 5.737,7.388 5.955,7.062 6.198,6.753 6.465,6.465 6.753,6.198 7.062,5.955 7.388,5.737 7.731,5.545 8.087,5.381 8.455,5.245 8.833,5.139 9.218,5.062 9.608,5.016 10.001,5.000 181.451,5.000" style="fill:none;stroke-width:0.050000mm;stroke:black"/>
<polygon points="9.460,113.587 8.972,113.836 8.585,114.223 8.336,114.711 8.251,115.251 8.336,115.792 8.585,116.280 8.972,116.667 9.460,116.916 10.001,117.001 10.541,116.916 11.029,116.667 11.416,116.280 11.665,115.792 11.751,115.251 11.665,114.711 11.416,114.223 11.029,113.836 10.541,113.587 10.001,113.501" style="fill:none;stroke-width:0.050000mm;stroke:black"/>
<polygon points="97.685,113.587 97.197,113.836 96.810,114.223 96.561,114.711 96.476,115.251 96.561,115.792 96.810,116.280 97.197,116.667 97.685,116.916 98.226,117.001 98.767,116.916 99.254,116.667 99.642,116.280 99.890,115.792 99.976,115.251 99.890,114.711 99.642,114.223 99.254,113.836 98.767,113.587 98.226,113.501" style="fill:none;stroke-width:0.050000mm;stroke:black"/>
<polygon points="185.910,113.587 185.422,113.836 185.035,114.223 184.787,114.711 184.701,115.251 184.787,115.792 185.035,116.280 185.422,116.667 185.910,116.916 186.451,117.001 186.992,116.916 187.480,116.667 187.867,116.280 188.115,115.792 188.201,115.251 188.115,114.711 187.867,114.223 187.480,113.836 186.992,113.587 186.451,113.501" style="fill:none;stroke-width:0.050000mm;stroke:black"/>
<polygon points="274.135,113.587 273.648,113.836 273.260,114.223 273.012,114.711 272.926,115.251 273.012,115.792 273.260,116.280 273.648,116.667 274.135,116.916 274.676,117.001 275.217,116.916 275.705,116.667 276.092,116.280 276.341,115.792 276.426,115.251 276.341,114.711 276.092,114.223 275.705,113.836 275.217,113.587 274.676,113.501" style="fill:none;stroke-width:0.050000mm;stroke:black"/>
<polygon points="362.361,113.587 361.873,113.836 361.486,114.223 361.237,114.711 361.152,115.251 361.237,115.792 361.486,116.280 361.873,116.667 362.361,116.916 362.902,117.001 363.442,116.916 363.930,116.667 364.317,116.280 364.566,115.792 364.652,115.251 364.566,114.711 364.317,114.223 363.930,113.836 363.442,113.587 362.902,113.501" style="fill:none;stroke-width:0.050000mm;stroke:black"/>
<polygon points="9.460,8.336 8.972,8.585 8.585,8.972 8.336,9.460 8.251,10.001 8.336,10.541 8.585,11.029 8.972,11.416 9.460,11.665 10.001,11.751 10.541,11.665 11.029,11.416 11.416,11.029 11.665,10.541 11.751,10.001 11.665,9.460 11.416,8.972 11.029,8.585 10.541,8.336 10.001,8.251" style="fill:none;stroke-width:0.050000mm;stroke:black"/>
<polygon points="362.361,8.336 361.873,8.585 361.486,8.972 361.237,9.460 361.152,10.001 361.237,10.541 361.486,11.029 361.873,11.416 362.361,11.665 362.902,11.751 363.442,11.665 363.930,11.416 364.317,11.029 364.566,10.541 364.652,10.001 364.566,9.460 364.317,8.972 363.930,8.585 363.442,8.336 362.902,8.251" style="fill:none;stroke-width:0.050000mm;stroke:black"/>
<polygon points="274.135,8.336 273.648,8.585 273.260,8.972 273.012,9.460 272.926,10.001 273.012,10.541 273.260,11.029 273.648,11.416 274.135,11.665 274.676,11.751 275.217,11.665 275.705,11.416 276.092,11.029 276.341,10.541 276.426,10.001 276.341,9.460 276.092,8.972 275.705,8.585 275.217,8.336 274.676,8.251" style="fill:none;stroke-width:0.050000mm;stroke:black"/>
<polygon points="97.685,8.336 97.197,8.585 96.810,8.972 96.561,9.460 96.476,10.001 96.561,10.541 96.810,11.029 97.197,11.416 97.685,11.665 98.226,11.751 98.767,11.665 99.254,11.416 99.642,11.029 99.890,10.541 99.976,10.001 99.890,9.460 99.642,8.972 99.254,8.585 98.767,8.336 98.226,8.251" style="fill:none;stroke-width:0.050000mm;stroke:black"/>
</svg>