<?xml version="1.0" encoding="UTF-8" standalone="no"?><!DOCTYPE svg PUBLIC "-//W3C//DTD SVG 1.1//EN" "http://www.w3.org/Graphics/SVG/1.1/DTD/svg11.dtd"><svg width="100%" height="100%" viewBox="0 0 1700 1700" version="1.1" xmlns="http://www.w3.org/2000/svg" xmlns:xlink="http://www.w3.org/1999/xlink" xml:space="preserve" xmlns:serif="http://www.serif.com/" style="fill-rule:evenodd;clip-rule:evenodd;stroke-miterlimit:10;"><g id="CutLinesOG"><path d="M845.746,100.96l506.679,0" style="fill:none;fill-rule:nonzero;stroke:#224096;stroke-width:1px;"/><path d="M1353.19,1588.48l235.106,0" style="fill:none;fill-rule:nonzero;stroke:#224096;stroke-width:1px;"/><path d="M1588.29,1588.48l0,-93.713" style="fill:none;fill-rule:nonzero;stroke:#224096;stroke-width:1px;"/><path d="M1588.29,1494.77l-123.952,-10.566" style="fill:none;fill-rule:nonzero;stroke:#224096;stroke-width:1px;"/><path d="M845.746,1590.54l505.375,0" style="fill:none;fill-rule:nonzero;stroke:#224096;stroke-width:1px;"/><path d="M1351.13,1590.54l2.062,-2.062" style="fill:none;fill-rule:nonzero;stroke:#224096;stroke-width:1px;"/><path d="M1464.34,1484.2l-109.092,0" style="fill:none;fill-rule:nonzero;stroke:#224096;stroke-width:1px;"/><path d="M1355.25,1484.2l-4.124,-2.062" style="fill:none;fill-rule:nonzero;stroke:#224096;stroke-width:1px;"/><path d="M1464.34,1484.2l8.504,-4.91" style="fill:none;fill-rule:nonzero;stroke:#224096;stroke-width:1px;"/><path d="M1472.85,1479.29l108.403,0" style="fill:none;fill-rule:nonzero;stroke:#224096;stroke-width:1px;"/><path d="M1472.85,904.174l108.403,0" style="fill:none;fill-rule:nonzero;stroke:#224096;stroke-width:1px;"/><path d="M1472.85,904.174l-8.504,-2.847" style="fill:none;fill-rule:nonzero;stroke:#224096;stroke-width:1px;"/><path d="M1355.25,1375.77l-8.461,0" style="fill:none;fill-rule:nonzero;stroke:#224096;stroke-width:1px;"/><path d="M1346.79,1375.77l0,-129.827" style="fill:none;fill-rule:nonzero;stroke:#224096;stroke-width:1px;"/><path d="M1355.25,1375.77l0,-129.827" style="fill:none;fill-rule:nonzero;stroke:#224096;stroke-width:1px;"/><path d="M1355.25,1245.95l-8.461,0" style="fill:none;fill-rule:nonzero;stroke:#224096;stroke-width:1px;"/><path d="M1355.25,1137.52l-8.461,0" style="fill:none;fill-rule:nonzero;stroke:#224096;stroke-width:1px;"/><path d="M1346.79,1137.52l0,-129.827" style="fill:none;fill-rule:nonzero;stroke:#224096;stroke-width:1px;"/><path d="M1355.25,1137.52l0,-129.827" style="fill:none;fill-rule:nonzero;stroke:#224096;stroke-width:1px;"/><path d="M1355.25,1007.69l-8.461,0" style="fill:none;fill-rule:nonzero;stroke:#224096;stroke-width:1px;"/><path d="M1581.25,1479.29l0,-106.352" style="fill:none;fill-rule:nonzero;stroke:#224096;stroke-width:1px;"/><path d="M1581.25,1372.94l7.045,0" style="fill:none;fill-rule:nonzero;stroke:#224096;stroke-width:1px;"/><path d="M1588.29,1372.94l0,-124.158" style="fill:none;fill-rule:nonzero;stroke:#224096;stroke-width:1px;"/><path d="M1581.25,1248.78l7.045,0" style="fill:none;fill-rule:nonzero;stroke:#224096;stroke-width:1px;"/><path d="M1581.25,1248.78l0,-114.097" style="fill:none;fill-rule:nonzero;stroke:#224096;stroke-width:1px;"/><path d="M1581.25,1134.68l7.045,0" style="fill:none;fill-rule:nonzero;stroke:#224096;stroke-width:1px;"/><path d="M1588.29,1134.68l0,-124.157" style="fill:none;fill-rule:nonzero;stroke:#224096;stroke-width:1px;"/><path d="M1581.25,1010.53l7.045,0" style="fill:none;fill-rule:nonzero;stroke:#224096;stroke-width:1px;"/><path d="M1581.25,1010.53l0,-106.353" style="fill:none;fill-rule:nonzero;stroke:#224096;stroke-width:1px;"/><path d="M1464.34,901.327l123.952,-12.629" style="fill:none;fill-rule:nonzero;stroke:#224096;stroke-width:1px;"/><path d="M1588.29,888.698l0,-93.713" style="fill:none;fill-rule:nonzero;stroke:#224096;stroke-width:1px;"/><path d="M1588.29,794.985l-237.168,0" style="fill:none;fill-rule:nonzero;stroke:#224096;stroke-width:1px;"/><path d="M1351.13,901.327l4.124,0" style="fill:none;fill-rule:nonzero;stroke:#224096;stroke-width:1px;"/><path d="M1355.25,901.327l109.092,0" style="fill:none;fill-rule:nonzero;stroke:#224096;stroke-width:1px;"/><path d="M1351.13,794.985l-1.375,-2.75" style="fill:none;fill-rule:nonzero;stroke:#224096;stroke-width:1px;"/><path d="M1349.75,792.235l0,-1.374" style="fill:none;fill-rule:nonzero;stroke:#224096;stroke-width:1px;"/><path d="M1349.75,790.861l71.811,-23.236" style="fill:none;fill-rule:nonzero;stroke:#224096;stroke-width:1px;"/><path d="M1421.56,767.625c35.906,-12.306 35.906,-12.306 35.906,-266.483" style="fill:none;fill-rule:nonzero;stroke:#224096;stroke-width:1px;"/><path d="M1421.56,234.66c35.906,12.306 35.906,12.306 35.906,266.483" style="fill:none;fill-rule:nonzero;stroke:#224096;stroke-width:1px;"/><path d="M1421.56,234.66l-71.811,-23.235" style="fill:none;fill-rule:nonzero;stroke:#224096;stroke-width:1px;"/><path d="M1349.75,211.42l0,-1.375" style="fill:none;fill-rule:nonzero;stroke:#224096;stroke-width:1px;"/><path d="M1445.7,195.1c4.097,-0.723 7.881,-2.671 10.85,-5.587c2.968,-2.915 4.984,-6.663 5.781,-10.747c0.796,-4.084 0.336,-8.315 -1.32,-12.132" style="fill:none;fill-rule:nonzero;stroke:#224096;stroke-width:1px;"/><path d="M1461.01,166.64c-8.463,-19.509 -22.448,-36.125 -40.227,-47.793c-17.78,-11.667 -38.588,-17.886 -59.854,-17.886" style="fill:none;fill-rule:nonzero;stroke:#224096;stroke-width:1px;"/><path d="M1352.43,210.05l93.274,-14.947" style="fill:none;fill-rule:nonzero;stroke:#224096;stroke-width:1px;"/><path d="M1349.75,210.05l2.679,-0" style="fill:none;fill-rule:nonzero;stroke:#224096;stroke-width:1px;"/><path d="M1360.93,100.96l-8.504,0" style="fill:none;fill-rule:nonzero;stroke:#224096;stroke-width:1px;"/><path d="M1363.75,1599.05l2.062,-2.062" style="fill:none;fill-rule:nonzero;stroke:#00a050;stroke-width:1px;"/><path d="M845.746,100.96l-506.679,0" style="fill:none;fill-rule:nonzero;stroke:#224096;stroke-width:1px;"/><path d="M338.309,1588.48l-235.105,0" style="fill:none;fill-rule:nonzero;stroke:#224096;stroke-width:1px;"/><path d="M103.204,1588.48l0,-93.713" style="fill:none;fill-rule:nonzero;stroke:#224096;stroke-width:1px;"/><path d="M103.204,1494.77l123.951,-10.566" style="fill:none;fill-rule:nonzero;stroke:#224096;stroke-width:1px;"/><path d="M845.746,1590.54l-505.375,-0" style="fill:none;fill-rule:nonzero;stroke:#224096;stroke-width:1px;"/><path d="M340.371,1590.54l-2.062,-2.062" style="fill:none;fill-rule:nonzero;stroke:#224096;stroke-width:1px;"/><path d="M227.155,1484.2l109.092,0" style="fill:none;fill-rule:nonzero;stroke:#224096;stroke-width:1px;"/><path d="M336.247,1484.2l4.124,-2.062" style="fill:none;fill-rule:nonzero;stroke:#224096;stroke-width:1px;"/><path d="M227.155,1484.2l-8.503,-4.91" style="fill:none;fill-rule:nonzero;stroke:#224096;stroke-width:1px;"/><path d="M218.652,1479.29l-108.404,0" style="fill:none;fill-rule:nonzero;stroke:#224096;stroke-width:1px;"/><path d="M218.652,904.174l-108.404,0" style="fill:none;fill-rule:nonzero;stroke:#224096;stroke-width:1px;"/><path d="M218.652,904.174l8.503,-2.847" style="fill:none;fill-rule:nonzero;stroke:#224096;stroke-width:1px;"/><path d="M336.247,1375.77l8.461,0" style="fill:none;fill-rule:nonzero;stroke:#224096;stroke-width:1px;"/><path d="M344.708,1375.77l0,-129.827" style="fill:none;fill-rule:nonzero;stroke:#224096;stroke-width:1px;"/><path d="M336.247,1375.77l0,-129.827" style="fill:none;fill-rule:nonzero;stroke:#224096;stroke-width:1px;"/><path d="M336.247,1245.95l8.461,0" style="fill:none;fill-rule:nonzero;stroke:#224096;stroke-width:1px;"/><path d="M336.247,1137.52l8.461,0" style="fill:none;fill-rule:nonzero;stroke:#224096;stroke-width:1px;"/><path d="M344.708,1137.52l0,-129.827" style="fill:none;fill-rule:nonzero;stroke:#224096;stroke-width:1px;"/><path d="M336.247,1137.52l0,-129.827" style="fill:none;fill-rule:nonzero;stroke:#224096;stroke-width:1px;"/><path d="M336.247,1007.69l8.461,0" style="fill:none;fill-rule:nonzero;stroke:#224096;stroke-width:1px;"/><path d="M110.248,1479.29l0,-106.352" style="fill:none;fill-rule:nonzero;stroke:#224096;stroke-width:1px;"/><path d="M110.248,1372.94l-7.044,0" style="fill:none;fill-rule:nonzero;stroke:#224096;stroke-width:1px;"/><path d="M103.204,1372.94l0,-124.158" style="fill:none;fill-rule:nonzero;stroke:#224096;stroke-width:1px;"/><path d="M110.248,1248.78l-7.044,0" style="fill:none;fill-rule:nonzero;stroke:#224096;stroke-width:1px;"/><path d="M110.248,1248.78l0,-114.097" style="fill:none;fill-rule:nonzero;stroke:#224096;stroke-width:1px;"/><path d="M110.248,1134.68l-7.044,0" style="fill:none;fill-rule:nonzero;stroke:#224096;stroke-width:1px;"/><path d="M103.204,1134.68l0,-124.157" style="fill:none;fill-rule:nonzero;stroke:#224096;stroke-width:1px;"/><path d="M110.248,1010.53l-7.044,0" style="fill:none;fill-rule:nonzero;stroke:#224096;stroke-width:1px;"/><path d="M110.248,1010.53l0,-106.353" style="fill:none;fill-rule:nonzero;stroke:#224096;stroke-width:1px;"/><path d="M227.155,901.327l-123.951,-12.629" style="fill:none;fill-rule:nonzero;stroke:#224096;stroke-width:1px;"/><path d="M103.204,888.698l0,-93.713" style="fill:none;fill-rule:nonzero;stroke:#224096;stroke-width:1px;"/><path d="M103.204,794.985l237.167,0" style="fill:none;fill-rule:nonzero;stroke:#224096;stroke-width:1px;"/><path d="M340.371,901.327l-4.124,0" style="fill:none;fill-rule:nonzero;stroke:#224096;stroke-width:1px;"/><path d="M336.247,901.327l-109.092,0" style="fill:none;fill-rule:nonzero;stroke:#224096;stroke-width:1px;"/><path d="M340.371,794.985l1.375,-2.75" style="fill:none;fill-rule:nonzero;stroke:#224096;stroke-width:1px;"/><path d="M341.746,792.235l0,-1.374" style="fill:none;fill-rule:nonzero;stroke:#224096;stroke-width:1px;"/><path d="M341.746,790.861l-71.811,-23.236" style="fill:none;fill-rule:nonzero;stroke:#224096;stroke-width:1px;"/><path d="M269.935,767.625c-35.906,-12.306 -35.906,-12.306 -35.906,-266.483" style="fill:none;fill-rule:nonzero;stroke:#224096;stroke-width:1px;"/><path d="M269.935,234.66c-35.906,12.306 -35.906,12.306 -35.906,266.483" style="fill:none;fill-rule:nonzero;stroke:#224096;stroke-width:1px;"/><path d="M269.935,234.66l71.811,-23.235" style="fill:none;fill-rule:nonzero;stroke:#224096;stroke-width:1px;"/><path d="M341.746,211.42l0,-1.375" style="fill:none;fill-rule:nonzero;stroke:#224096;stroke-width:1px;"/><path d="M245.793,195.1c-4.097,-0.723 -7.881,-2.671 -10.85,-5.587c-2.968,-2.915 -4.984,-6.663 -5.781,-10.747c-0.796,-4.084 -0.336,-8.315 1.32,-12.132" style="fill:none;fill-rule:nonzero;stroke:#224096;stroke-width:1px;"/><path d="M230.482,166.64c8.463,-19.509 22.448,-36.125 40.228,-47.793c17.779,-11.667 38.588,-17.886 59.853,-17.886" style="fill:none;fill-rule:nonzero;stroke:#224096;stroke-width:1px;"/><path d="M339.067,210.05l-93.274,-14.947" style="fill:none;fill-rule:nonzero;stroke:#224096;stroke-width:1px;"/><path d="M341.746,210.05l-2.679,-0" style="fill:none;fill-rule:nonzero;stroke:#224096;stroke-width:1px;"/><path d="M330.563,100.96l8.504,0" style="fill:none;fill-rule:nonzero;stroke:#224096;stroke-width:1px;"/></g><g id="ScoreLinesOG"><path d="M341.746,790.861l0,-579.437" style="fill:none;fill-rule:nonzero;stroke:#e82126;stroke-width:1px;"/><path d="M339.067,210.05l0,-109.092" style="fill:none;fill-rule:nonzero;stroke:#e82126;stroke-width:1px;"/><path d="M845.746,210.05l-504,-0" style="fill:none;fill-rule:nonzero;stroke:#e82126;stroke-width:1px;"/><path d="M336.247,1484.2l0,-582.874" style="fill:none;fill-rule:nonzero;stroke:#e82126;stroke-width:1px;"/><path d="M341.746,792.235l504,0" style="fill:none;fill-rule:nonzero;stroke:#e82126;stroke-width:1px;"/><path d="M340.371,901.327l0,-106.342" style="fill:none;fill-rule:nonzero;stroke:#e82126;stroke-width:1px;"/><path d="M340.371,1482.14l505.375,0" style="fill:none;fill-rule:nonzero;stroke:#e82126;stroke-width:1px;"/><path d="M340.371,1590.54l0,-108.403" style="fill:none;fill-rule:nonzero;stroke:#e82126;stroke-width:1px;"/><path d="M227.155,1484.2l0,-582.874" style="fill:none;fill-rule:nonzero;stroke:#e82126;stroke-width:1px;"/><path d="M218.652,1479.29l0,-575.117" style="fill:none;fill-rule:nonzero;stroke:#e82126;stroke-width:1px;"/><path d="M845.746,901.327l-505.375,0" style="fill:none;fill-rule:nonzero;stroke:#e82126;stroke-width:1px;"/><path d="M1355.25,1484.2l0,-582.874" style="fill:none;fill-rule:nonzero;stroke:#e82126;stroke-width:1px;"/><path d="M845.746,901.327l505.375,0" style="fill:none;fill-rule:nonzero;stroke:#e82126;stroke-width:1px;"/><path d="M1349.75,792.235l-504,0" style="fill:none;fill-rule:nonzero;stroke:#e82126;stroke-width:1px;"/><path d="M1351.13,901.327l0,-106.342" style="fill:none;fill-rule:nonzero;stroke:#e82126;stroke-width:1px;"/><path d="M1349.75,790.861l0,-579.437" style="fill:none;fill-rule:nonzero;stroke:#e82126;stroke-width:1px;"/><path d="M1352.43,210.05l0,-109.092" style="fill:none;fill-rule:nonzero;stroke:#e82126;stroke-width:1px;"/><path d="M845.746,210.05l504,-0" style="fill:none;fill-rule:nonzero;stroke:#e82126;stroke-width:1px;"/><path d="M1351.13,1482.14l-505.375,0" style="fill:none;fill-rule:nonzero;stroke:#e82126;stroke-width:1px;"/><path d="M1351.13,1590.54l0,-108.403" style="fill:none;fill-rule:nonzero;stroke:#e82126;stroke-width:1px;"/><path d="M1464.34,1484.2l0,-582.874" style="fill:none;fill-rule:nonzero;stroke:#e82126;stroke-width:1px;"/><path d="M1472.85,1479.29l0,-575.117" style="fill:none;fill-rule:nonzero;stroke:#e82126;stroke-width:1px;"/></g></svg>