<?xml version="1.0" encoding="UTF-8" standalone="no"?><!DOCTYPE svg PUBLIC "-//W3C//DTD SVG 1.1//EN" "http://www.w3.org/Graphics/SVG/1.1/DTD/svg11.dtd"><svg width="100%" height="100%" viewBox="0 0 1244 811" version="1.1" xmlns="http://www.w3.org/2000/svg" xmlns:xlink="http://www.w3.org/1999/xlink" xml:space="preserve" xmlns:serif="http://www.serif.com/" style="fill-rule:evenodd;clip-rule:evenodd;stroke-miterlimit:10;"><g id="CutLinesLid"><path d="M621.71,5.303l506.679,0.001" style="fill:none;fill-rule:nonzero;stroke:#224096;stroke-width:1px;"/><path d="M1127.08,699.331l-1.375,-2.75" style="fill:none;fill-rule:nonzero;stroke:#224096;stroke-width:1px;"/><path d="M1125.71,696.582l0,-1.375" style="fill:none;fill-rule:nonzero;stroke:#224096;stroke-width:1px;"/><path d="M1125.71,695.207l71.811,-23.236" style="fill:none;fill-rule:nonzero;stroke:#224096;stroke-width:1px;"/><path d="M1197.52,671.971c35.906,-12.305 35.906,-12.305 35.906,-266.484" style="fill:none;fill-rule:nonzero;stroke:#224096;stroke-width:1px;"/><path d="M1197.52,139.006c35.906,12.305 35.906,12.305 35.906,266.482" style="fill:none;fill-rule:nonzero;stroke:#224096;stroke-width:1px;"/><path d="M1197.52,139.006l-71.811,-23.236" style="fill:none;fill-rule:nonzero;stroke:#224096;stroke-width:1px;"/><path d="M1125.71,115.77l0,-1.375" style="fill:none;fill-rule:nonzero;stroke:#224096;stroke-width:1px;"/><path d="M1221.66,99.448c4.096,-0.723 7.88,-2.671 10.849,-5.586c2.968,-2.916 4.984,-6.664 5.781,-10.748c0.796,-4.084 0.336,-8.314 -1.32,-12.132" style="fill:none;fill-rule:nonzero;stroke:#224096;stroke-width:1px;"/><path d="M1236.97,70.982c-8.463,-19.509 -22.448,-36.125 -40.227,-47.792c-17.78,-11.668 -38.588,-17.886 -59.854,-17.886" style="fill:none;fill-rule:nonzero;stroke:#224096;stroke-width:1px;"/><path d="M1128.39,114.395l93.273,-14.947" style="fill:none;fill-rule:nonzero;stroke:#224096;stroke-width:1px;"/><path d="M1125.71,114.395l2.679,0" style="fill:none;fill-rule:nonzero;stroke:#224096;stroke-width:1px;"/><path d="M1136.89,5.304l-8.505,0" style="fill:none;fill-rule:nonzero;stroke:#224096;stroke-width:1px;"/><path d="M621.71,5.303l-506.679,0" style="fill:none;fill-rule:nonzero;stroke:#224096;stroke-width:1px;"/><path d="M116.335,699.331l1.375,-2.75" style="fill:none;fill-rule:nonzero;stroke:#224096;stroke-width:1px;"/><path d="M117.71,696.582l-0,-1.375" style="fill:none;fill-rule:nonzero;stroke:#224096;stroke-width:1px;"/><path d="M117.71,695.207l-71.811,-23.236" style="fill:none;fill-rule:nonzero;stroke:#224096;stroke-width:1px;"/><path d="M45.899,671.971c-35.906,-12.306 -35.906,-12.306 -35.906,-266.484" style="fill:none;fill-rule:nonzero;stroke:#224096;stroke-width:1px;"/><path d="M45.899,139.005c-35.906,12.305 -35.906,12.305 -35.906,266.483" style="fill:none;fill-rule:nonzero;stroke:#224096;stroke-width:1px;"/><path d="M45.899,139.005l71.811,-23.236" style="fill:none;fill-rule:nonzero;stroke:#224096;stroke-width:1px;"/><path d="M117.71,115.769l-0,-1.375" style="fill:none;fill-rule:nonzero;stroke:#224096;stroke-width:1px;"/><path d="M21.757,99.447c-4.097,-0.722 -7.881,-2.671 -10.85,-5.586c-2.968,-2.916 -4.984,-6.664 -5.781,-10.748c-0.796,-4.084 -0.336,-8.314 1.32,-12.132" style="fill:none;fill-rule:nonzero;stroke:#224096;stroke-width:1px;"/><path d="M6.446,70.981c8.463,-19.509 22.448,-36.125 40.227,-47.792c17.78,-11.668 38.589,-17.886 59.854,-17.886" style="fill:none;fill-rule:nonzero;stroke:#224096;stroke-width:1px;"/><path d="M115.031,114.394l-93.274,-14.947" style="fill:none;fill-rule:nonzero;stroke:#224096;stroke-width:1px;"/><path d="M117.71,114.394l-2.679,0" style="fill:none;fill-rule:nonzero;stroke:#224096;stroke-width:1px;"/><path d="M106.527,5.303l8.504,0" style="fill:none;fill-rule:nonzero;stroke:#224096;stroke-width:1px;"/><path d="M116.335,805.673l-0,-106.342" style="fill:none;fill-rule:nonzero;stroke:#224096;stroke-width:1px;"/><path d="M621.71,805.673l-505.375,0" style="fill:none;fill-rule:nonzero;stroke:#224096;stroke-width:1px;"/><path d="M621.71,805.673l505.375,0" style="fill:none;fill-rule:nonzero;stroke:#224096;stroke-width:1px;"/><path d="M1127.08,805.673l0,-106.342" style="fill:none;fill-rule:nonzero;stroke:#224096;stroke-width:1px;"/></g><g id="ScoreLinesLid"><path d="M117.71,695.207l-0,-579.438" style="fill:none;fill-rule:nonzero;stroke:#e82126;stroke-width:1px;"/><path d="M115.031,114.394l0,-109.091" style="fill:none;fill-rule:nonzero;stroke:#e82126;stroke-width:1px;"/><path d="M621.71,114.394l-504,0" style="fill:none;fill-rule:nonzero;stroke:#e82126;stroke-width:1px;"/><path d="M117.71,696.582l504,0" style="fill:none;fill-rule:nonzero;stroke:#e82126;stroke-width:1px;"/><path d="M1125.71,696.582l-504,0" style="fill:none;fill-rule:nonzero;stroke:#e82126;stroke-width:1px;"/><path d="M1125.71,695.207l0,-579.437" style="fill:none;fill-rule:nonzero;stroke:#e82126;stroke-width:1px;"/><path d="M1128.39,114.395l-0.001,-109.091" style="fill:none;fill-rule:nonzero;stroke:#e82126;stroke-width:1px;"/><path d="M621.71,114.394l504,0.001" style="fill:none;fill-rule:nonzero;stroke:#e82126;stroke-width:1px;"/></g><g id="HB-Buttons"><circle cx="619.535" cy="285.606" r="42.52" style="fill:none;stroke:#000;stroke-width:1px;stroke-linecap:round;stroke-linejoin:round;stroke-miterlimit:1.5;stroke-dasharray:1,1;"/><circle cx="652.803" cy="383.531" r="34.016" style="fill:none;stroke:#000;stroke-width:1px;stroke-linecap:round;stroke-linejoin:round;stroke-miterlimit:1.5;stroke-dasharray:1,1;"/><circle cx="728.504" cy="415.13" r="34.016" style="fill:none;stroke:#000;stroke-width:1px;stroke-linecap:round;stroke-linejoin:round;stroke-miterlimit:1.5;stroke-dasharray:1,1;"/><circle cx="813.543" cy="415.13" r="34.016" style="fill:none;stroke:#000;stroke-width:1px;stroke-linecap:round;stroke-linejoin:round;stroke-miterlimit:1.5;stroke-dasharray:1,1;"/><circle cx="892.913" cy="402.791" r="34.016" style="fill:none;stroke:#000;stroke-width:1px;stroke-linecap:round;stroke-linejoin:round;stroke-miterlimit:1.5;stroke-dasharray:1,1;"/><circle cx="895.748" cy="486.996" r="34.016" style="fill:none;stroke:#000;stroke-width:1px;stroke-linecap:round;stroke-linejoin:round;stroke-miterlimit:1.5;stroke-dasharray:1,1;"/><circle cx="1071.5" cy="636.208" r="34.016" style="fill:none;stroke:#000;stroke-width:1px;stroke-linecap:round;stroke-linejoin:round;stroke-miterlimit:1.5;stroke-dasharray:1,1;"/><circle cx="986.457" cy="636.208" r="34.016" style="fill:none;stroke:#000;stroke-width:1px;stroke-linecap:round;stroke-linejoin:round;stroke-miterlimit:1.5;stroke-dasharray:1,1;"/><circle cx="901.417" cy="636.208" r="34.016" style="fill:none;stroke:#000;stroke-width:1px;stroke-linecap:round;stroke-linejoin:round;stroke-miterlimit:1.5;stroke-dasharray:1,1;"/><circle cx="816.378" cy="636.208" r="34.016" style="fill:none;stroke:#000;stroke-width:1px;stroke-linecap:round;stroke-linejoin:round;stroke-miterlimit:1.5;stroke-dasharray:1,1;"/><circle cx="814.543" cy="497.334" r="34.016" style="fill:none;stroke:#000;stroke-width:1px;stroke-linecap:round;stroke-linejoin:round;stroke-miterlimit:1.5;stroke-dasharray:1,1;"/><circle cx="733.173" cy="498.696" r="34.016" style="fill:none;stroke:#000;stroke-width:1px;stroke-linecap:round;stroke-linejoin:round;stroke-miterlimit:1.5;stroke-dasharray:1,1;"/><circle cx="659.061" cy="467.153" r="34.016" style="fill:none;stroke:#000;stroke-width:1px;stroke-linecap:round;stroke-linejoin:round;stroke-miterlimit:1.5;stroke-dasharray:1,1;"/><circle cx="512.071" cy="469.822" r="34.016" style="fill:none;stroke:#000;stroke-width:1px;stroke-linecap:round;stroke-linejoin:round;stroke-miterlimit:1.5;stroke-dasharray:1,1;"/><circle cx="582.937" cy="432.137" r="34.016" style="fill:none;stroke:#000;stroke-width:1px;stroke-linecap:round;stroke-linejoin:round;stroke-miterlimit:1.5;stroke-dasharray:1,1;"/><circle cx="431.866" cy="469.822" r="34.016" style="fill:none;stroke:#000;stroke-width:1px;stroke-linecap:round;stroke-linejoin:round;stroke-miterlimit:1.5;stroke-dasharray:1,1;"/></g></svg>