<?xml version="1.0" encoding="UTF-8" standalone="no"?><!DOCTYPE svg PUBLIC "-//W3C//DTD SVG 1.1//EN" "http://www.w3.org/Graphics/SVG/1.1/DTD/svg11.dtd"><svg width="100%" height="100%" viewBox="0 0 815 1496" version="1.1" xmlns="http://www.w3.org/2000/svg" xmlns:xlink="http://www.w3.org/1999/xlink" xml:space="preserve" xmlns:serif="http://www.serif.com/" style="fill-rule:evenodd;clip-rule:evenodd;stroke-miterlimit:10;"><g id="CutLinesBase"><path d="M15.591,1255l0,235.106" style="fill:none;fill-rule:nonzero;stroke:#224096;stroke-width:1px;"/><path d="M15.591,1490.11l93.713,-0" style="fill:none;fill-rule:nonzero;stroke:#224096;stroke-width:1px;"/><path d="M109.304,1490.11l10.567,-123.952" style="fill:none;fill-rule:nonzero;stroke:#224096;stroke-width:1px;"/><path d="M13.529,747.567l-0,505.375" style="fill:none;fill-rule:nonzero;stroke:#224096;stroke-width:1px;"/><path d="M13.529,1252.94l2.062,2.062" style="fill:none;fill-rule:nonzero;stroke:#224096;stroke-width:1px;"/><path d="M119.871,1366.16l-0,-109.091" style="fill:none;fill-rule:nonzero;stroke:#224096;stroke-width:1px;"/><path d="M119.871,1257.07l2.062,-4.125" style="fill:none;fill-rule:nonzero;stroke:#224096;stroke-width:1px;"/><path d="M119.871,1366.16l4.909,8.504" style="fill:none;fill-rule:nonzero;stroke:#224096;stroke-width:1px;"/><path d="M124.78,1374.66l0,108.404" style="fill:none;fill-rule:nonzero;stroke:#224096;stroke-width:1px;"/><path d="M699.897,1374.66l0,108.404" style="fill:none;fill-rule:nonzero;stroke:#224096;stroke-width:1px;"/><path d="M699.897,1374.66l2.848,-8.504" style="fill:none;fill-rule:nonzero;stroke:#224096;stroke-width:1px;"/><path d="M228.298,1257.07l0,-8.462" style="fill:none;fill-rule:nonzero;stroke:#224096;stroke-width:1px;"/><path d="M228.298,1248.61l129.827,0" style="fill:none;fill-rule:nonzero;stroke:#224096;stroke-width:1px;"/><path d="M228.298,1257.07l129.827,-0" style="fill:none;fill-rule:nonzero;stroke:#224096;stroke-width:1px;"/><path d="M358.125,1257.07l-0,-8.462" style="fill:none;fill-rule:nonzero;stroke:#224096;stroke-width:1px;"/><path d="M466.552,1257.07l0,-8.462" style="fill:none;fill-rule:nonzero;stroke:#224096;stroke-width:1px;"/><path d="M466.552,1248.61l129.827,0" style="fill:none;fill-rule:nonzero;stroke:#224096;stroke-width:1px;"/><path d="M466.552,1257.07l129.827,-0" style="fill:none;fill-rule:nonzero;stroke:#224096;stroke-width:1px;"/><path d="M596.379,1257.07l0,-8.462" style="fill:none;fill-rule:nonzero;stroke:#224096;stroke-width:1px;"/><path d="M124.78,1483.07l106.353,-0" style="fill:none;fill-rule:nonzero;stroke:#224096;stroke-width:1px;"/><path d="M231.133,1483.07l-0,7.044" style="fill:none;fill-rule:nonzero;stroke:#224096;stroke-width:1px;"/><path d="M231.133,1490.11l124.157,-0" style="fill:none;fill-rule:nonzero;stroke:#224096;stroke-width:1px;"/><path d="M355.29,1483.07l0,7.044" style="fill:none;fill-rule:nonzero;stroke:#224096;stroke-width:1px;"/><path d="M355.29,1483.07l114.097,-0" style="fill:none;fill-rule:nonzero;stroke:#224096;stroke-width:1px;"/><path d="M469.387,1483.07l0,7.044" style="fill:none;fill-rule:nonzero;stroke:#224096;stroke-width:1px;"/><path d="M469.387,1490.11l124.158,-0" style="fill:none;fill-rule:nonzero;stroke:#224096;stroke-width:1px;"/><path d="M593.545,1483.07l-0,7.044" style="fill:none;fill-rule:nonzero;stroke:#224096;stroke-width:1px;"/><path d="M593.545,1483.07l106.352,-0" style="fill:none;fill-rule:nonzero;stroke:#224096;stroke-width:1px;"/><path d="M702.745,1366.16l12.628,123.952" style="fill:none;fill-rule:nonzero;stroke:#224096;stroke-width:1px;"/><path d="M715.373,1490.11l93.713,-0" style="fill:none;fill-rule:nonzero;stroke:#224096;stroke-width:1px;"/><path d="M809.086,1490.11l0,-1485.09" style="fill:none;fill-rule:nonzero;stroke:#224096;stroke-width:1px;"/><path d="M702.745,1252.94l-0,4.125" style="fill:none;fill-rule:nonzero;stroke:#224096;stroke-width:1px;"/><path d="M702.745,1257.07l-0,109.091" style="fill:none;fill-rule:nonzero;stroke:#224096;stroke-width:1px;"/><path d="M5.025,1265.57l2.062,2.062" style="fill:none;fill-rule:nonzero;stroke:#00a050;stroke-width:1px;"/><path d="M15.591,240.13l0,-235.105" style="fill:none;fill-rule:nonzero;stroke:#224096;stroke-width:1px;"/><path d="M15.591,5.025l93.713,-0" style="fill:none;fill-rule:nonzero;stroke:#224096;stroke-width:1px;"/><path d="M109.304,5.025l10.567,123.952" style="fill:none;fill-rule:nonzero;stroke:#224096;stroke-width:1px;"/><path d="M13.529,747.567l-0,-505.374" style="fill:none;fill-rule:nonzero;stroke:#224096;stroke-width:1px;"/><path d="M13.529,242.193l2.062,-2.063" style="fill:none;fill-rule:nonzero;stroke:#224096;stroke-width:1px;"/><path d="M119.871,128.977l-0,109.091" style="fill:none;fill-rule:nonzero;stroke:#224096;stroke-width:1px;"/><path d="M119.871,238.068l2.062,4.125" style="fill:none;fill-rule:nonzero;stroke:#224096;stroke-width:1px;"/><path d="M119.871,128.977l4.909,-8.504" style="fill:none;fill-rule:nonzero;stroke:#224096;stroke-width:1px;"/><path d="M124.78,120.473l0,-108.404" style="fill:none;fill-rule:nonzero;stroke:#224096;stroke-width:1px;"/><path d="M699.897,120.473l0,-108.404" style="fill:none;fill-rule:nonzero;stroke:#224096;stroke-width:1px;"/><path d="M699.897,120.473l2.848,8.504" style="fill:none;fill-rule:nonzero;stroke:#224096;stroke-width:1px;"/><path d="M228.298,238.068l0,8.462" style="fill:none;fill-rule:nonzero;stroke:#224096;stroke-width:1px;"/><path d="M228.298,246.53l129.827,-0" style="fill:none;fill-rule:nonzero;stroke:#224096;stroke-width:1px;"/><path d="M228.298,238.068l129.827,0" style="fill:none;fill-rule:nonzero;stroke:#224096;stroke-width:1px;"/><path d="M358.125,238.068l-0,8.462" style="fill:none;fill-rule:nonzero;stroke:#224096;stroke-width:1px;"/><path d="M466.552,238.068l0,8.462" style="fill:none;fill-rule:nonzero;stroke:#224096;stroke-width:1px;"/><path d="M466.552,246.53l129.827,-0" style="fill:none;fill-rule:nonzero;stroke:#224096;stroke-width:1px;"/><path d="M466.552,238.068l129.827,0" style="fill:none;fill-rule:nonzero;stroke:#224096;stroke-width:1px;"/><path d="M596.379,238.068l0,8.462" style="fill:none;fill-rule:nonzero;stroke:#224096;stroke-width:1px;"/><path d="M124.78,12.069l106.353,0" style="fill:none;fill-rule:nonzero;stroke:#224096;stroke-width:1px;"/><path d="M231.133,12.069l-0,-7.044" style="fill:none;fill-rule:nonzero;stroke:#224096;stroke-width:1px;"/><path d="M231.133,5.025l124.157,-0" style="fill:none;fill-rule:nonzero;stroke:#224096;stroke-width:1px;"/><path d="M355.29,12.069l0,-7.044" style="fill:none;fill-rule:nonzero;stroke:#224096;stroke-width:1px;"/><path d="M355.29,12.069l114.097,0" style="fill:none;fill-rule:nonzero;stroke:#224096;stroke-width:1px;"/><path d="M469.387,12.069l0,-7.044" style="fill:none;fill-rule:nonzero;stroke:#224096;stroke-width:1px;"/><path d="M469.387,5.025l124.158,-0" style="fill:none;fill-rule:nonzero;stroke:#224096;stroke-width:1px;"/><path d="M593.545,12.069l-0,-7.044" style="fill:none;fill-rule:nonzero;stroke:#224096;stroke-width:1px;"/><path d="M593.545,12.069l106.352,0" style="fill:none;fill-rule:nonzero;stroke:#224096;stroke-width:1px;"/><path d="M702.745,128.977l12.628,-123.952" style="fill:none;fill-rule:nonzero;stroke:#224096;stroke-width:1px;"/><path d="M715.373,5.025l93.713,-0" style="fill:none;fill-rule:nonzero;stroke:#224096;stroke-width:1px;"/><path d="M702.745,242.193l-0,-4.125" style="fill:none;fill-rule:nonzero;stroke:#224096;stroke-width:1px;"/><path d="M702.745,238.068l-0,-109.091" style="fill:none;fill-rule:nonzero;stroke:#224096;stroke-width:1px;"/></g><g id="ScoreLinesBase"><path d="M119.871,238.068l582.874,0" style="fill:none;fill-rule:nonzero;stroke:#e82126;stroke-width:1px;"/><path d="M702.745,242.193l106.341,-0" style="fill:none;fill-rule:nonzero;stroke:#e82126;stroke-width:1px;"/><path d="M121.933,242.193l-0,505.374" style="fill:none;fill-rule:nonzero;stroke:#e82126;stroke-width:1px;"/><path d="M13.529,242.193l108.404,-0" style="fill:none;fill-rule:nonzero;stroke:#e82126;stroke-width:1px;"/><path d="M119.871,128.977l582.874,-0" style="fill:none;fill-rule:nonzero;stroke:#e82126;stroke-width:1px;"/><path d="M124.78,120.473l575.117,-0" style="fill:none;fill-rule:nonzero;stroke:#e82126;stroke-width:1px;"/><path d="M702.745,747.567l-0,-505.374" style="fill:none;fill-rule:nonzero;stroke:#e82126;stroke-width:1px;"/><path d="M119.871,1257.07l582.874,-0" style="fill:none;fill-rule:nonzero;stroke:#e82126;stroke-width:1px;"/><path d="M702.745,747.567l-0,505.375" style="fill:none;fill-rule:nonzero;stroke:#e82126;stroke-width:1px;"/><path d="M702.745,1252.94l106.341,0" style="fill:none;fill-rule:nonzero;stroke:#e82126;stroke-width:1px;"/><path d="M121.933,1252.94l-0,-505.375" style="fill:none;fill-rule:nonzero;stroke:#e82126;stroke-width:1px;"/><path d="M13.529,1252.94l108.404,0" style="fill:none;fill-rule:nonzero;stroke:#e82126;stroke-width:1px;"/><path d="M119.871,1366.16l582.874,0" style="fill:none;fill-rule:nonzero;stroke:#e82126;stroke-width:1px;"/><path d="M124.78,1374.66l575.117,-0" style="fill:none;fill-rule:nonzero;stroke:#e82126;stroke-width:1px;"/></g></svg>