<?xml version="1.0" encoding="UTF-8" standalone="no"?><!DOCTYPE svg PUBLIC "-//W3C//DTD SVG 1.1//EN" "http://www.w3.org/Graphics/SVG/1.1/DTD/svg11.dtd"><svg width="100%" height="100%" viewBox="0 0 1244 811" version="1.1" xmlns="http://www.w3.org/2000/svg" xmlns:xlink="http://www.w3.org/1999/xlink" xml:space="preserve" xmlns:serif="http://www.serif.com/" style="fill-rule:evenodd;clip-rule:evenodd;stroke-linecap:round;stroke-linejoin:round;stroke-miterlimit:1.5;"><rect x="567.768" y="307.496" width="39.685" height="39.685" style="fill:none;stroke:#224096;stroke-width:0.5px;"/><rect x="636.17" y="307.496" width="39.685" height="39.685" style="fill:none;stroke:#224096;stroke-width:0.5px;"/><rect x="675.102" y="605.686" width="39.685" height="39.685" style="fill:none;stroke:#224096;stroke-width:0.5px;"/><rect x="422.61" y="605.688" width="39.685" height="39.685" style="fill:none;stroke:#224096;stroke-width:0.5px;"/><rect x="368.962" y="605.688" width="39.685" height="39.685" style="fill:none;stroke:#224096;stroke-width:0.5px;"/><rect x="729.102" y="605.686" width="39.685" height="39.685" style="fill:none;stroke:#224096;stroke-width:0.5px;"/><rect x="783.102" y="605.688" width="39.685" height="39.685" style="fill:none;stroke:#224096;stroke-width:0.5px;"/><path d="M734.911,488.533l-37.292,-13.573l13.573,-37.292l37.292,13.573l-13.573,37.292Z" style="fill:none;stroke:#224096;stroke-width:0.5px;"/><path d="M785.654,507.002l-37.291,-13.573l13.573,-37.291l37.291,13.573l-13.573,37.291Z" style="fill:none;stroke:#224096;stroke-width:0.5px;"/><path d="M836.397,525.474l-37.292,-13.573l13.573,-37.292l37.292,13.573l-13.573,37.292Z" style="fill:none;stroke:#224096;stroke-width:0.5px;"/><path d="M754.301,435.259l-37.292,-13.573l13.573,-37.291l37.292,13.573l-13.573,37.291Z" style="fill:none;stroke:#224096;stroke-width:0.5px;"/><path d="M805.045,453.728l-37.292,-13.573l13.573,-37.291l37.292,13.573l-13.573,37.291Z" style="fill:none;stroke:#224096;stroke-width:0.5px;"/><path d="M855.787,472.2l-37.292,-13.573l13.573,-37.292l37.292,13.574l-13.573,37.291Z" style="fill:none;stroke:#224096;stroke-width:0.5px;"/><rect x="837.244" y="605.686" width="39.685" height="39.685" style="fill:none;stroke:#224096;stroke-width:0.5px;"/><path d="M423.945,485.462l-37.291,13.573l-13.574,-37.291l37.292,-13.574l13.573,37.292Z" style="fill:none;stroke:#224096;stroke-width:0.5px;"/><path d="M474.689,466.993l-37.292,13.573l-13.573,-37.292l37.292,-13.573l13.573,37.292Z" style="fill:none;stroke:#224096;stroke-width:0.5px;"/><path d="M494.079,520.268l-37.291,13.574l-13.574,-37.292l37.292,-13.573l13.573,37.291Z" style="fill:none;stroke:#224096;stroke-width:0.5px;"/><path d="M525.433,448.527l-37.292,13.573l-13.573,-37.292l37.292,-13.573l13.573,37.292Z" style="fill:none;stroke:#224096;stroke-width:0.5px;"/><g id="CutLinesLid"><path d="M621.71,5.303l506.679,0.001" style="fill:none;fill-rule:nonzero;stroke:#224096;stroke-width:1px;stroke-linecap:butt;stroke-linejoin:miter;stroke-miterlimit:10;"/><path d="M1127.08,699.331l-1.375,-2.75" style="fill:none;fill-rule:nonzero;stroke:#224096;stroke-width:1px;stroke-linecap:butt;stroke-linejoin:miter;stroke-miterlimit:10;"/><path d="M1125.71,696.582l0,-1.375" style="fill:none;fill-rule:nonzero;stroke:#224096;stroke-width:1px;stroke-linecap:butt;stroke-linejoin:miter;stroke-miterlimit:10;"/><path d="M1125.71,695.207l71.811,-23.236" style="fill:none;fill-rule:nonzero;stroke:#224096;stroke-width:1px;stroke-linecap:butt;stroke-linejoin:miter;stroke-miterlimit:10;"/><path d="M1197.52,671.971c35.906,-12.305 35.906,-12.305 35.906,-266.484" style="fill:none;fill-rule:nonzero;stroke:#224096;stroke-width:1px;stroke-linecap:butt;stroke-linejoin:miter;stroke-miterlimit:10;"/><path d="M1197.52,139.006c35.906,12.305 35.906,12.305 35.906,266.482" style="fill:none;fill-rule:nonzero;stroke:#224096;stroke-width:1px;stroke-linecap:butt;stroke-linejoin:miter;stroke-miterlimit:10;"/><path d="M1197.52,139.006l-71.811,-23.236" style="fill:none;fill-rule:nonzero;stroke:#224096;stroke-width:1px;stroke-linecap:butt;stroke-linejoin:miter;stroke-miterlimit:10;"/><path d="M1125.71,115.77l0,-1.375" style="fill:none;fill-rule:nonzero;stroke:#224096;stroke-width:1px;stroke-linecap:butt;stroke-linejoin:miter;stroke-miterlimit:10;"/><path d="M1221.66,99.448c4.096,-0.723 7.88,-2.671 10.849,-5.586c2.968,-2.916 4.984,-6.664 5.781,-10.748c0.796,-4.084 0.336,-8.314 -1.32,-12.132" style="fill:none;fill-rule:nonzero;stroke:#224096;stroke-width:1px;stroke-linecap:butt;stroke-linejoin:miter;stroke-miterlimit:10;"/><path d="M1236.97,70.982c-8.463,-19.509 -22.448,-36.125 -40.227,-47.792c-17.78,-11.668 -38.588,-17.886 -59.854,-17.886" style="fill:none;fill-rule:nonzero;stroke:#224096;stroke-width:1px;stroke-linecap:butt;stroke-linejoin:miter;stroke-miterlimit:10;"/><path d="M1128.39,114.395l93.273,-14.947" style="fill:none;fill-rule:nonzero;stroke:#224096;stroke-width:1px;stroke-linecap:butt;stroke-linejoin:miter;stroke-miterlimit:10;"/><path d="M1125.71,114.395l2.679,-0" style="fill:none;fill-rule:nonzero;stroke:#224096;stroke-width:1px;stroke-linecap:butt;stroke-linejoin:miter;stroke-miterlimit:10;"/><path d="M1136.89,5.304l-8.505,-0" style="fill:none;fill-rule:nonzero;stroke:#224096;stroke-width:1px;stroke-linecap:butt;stroke-linejoin:miter;stroke-miterlimit:10;"/><path d="M621.71,5.303l-506.679,0" style="fill:none;fill-rule:nonzero;stroke:#224096;stroke-width:1px;stroke-linecap:butt;stroke-linejoin:miter;stroke-miterlimit:10;"/><path d="M116.335,699.331l1.375,-2.75" style="fill:none;fill-rule:nonzero;stroke:#224096;stroke-width:1px;stroke-linecap:butt;stroke-linejoin:miter;stroke-miterlimit:10;"/><path d="M117.71,696.582l0,-1.375" style="fill:none;fill-rule:nonzero;stroke:#224096;stroke-width:1px;stroke-linecap:butt;stroke-linejoin:miter;stroke-miterlimit:10;"/><path d="M117.71,695.207l-71.811,-23.236" style="fill:none;fill-rule:nonzero;stroke:#224096;stroke-width:1px;stroke-linecap:butt;stroke-linejoin:miter;stroke-miterlimit:10;"/><path d="M45.899,671.971c-35.906,-12.306 -35.906,-12.306 -35.906,-266.484" style="fill:none;fill-rule:nonzero;stroke:#224096;stroke-width:1px;stroke-linecap:butt;stroke-linejoin:miter;stroke-miterlimit:10;"/><path d="M45.899,139.005c-35.906,12.305 -35.906,12.305 -35.906,266.483" style="fill:none;fill-rule:nonzero;stroke:#224096;stroke-width:1px;stroke-linecap:butt;stroke-linejoin:miter;stroke-miterlimit:10;"/><path d="M45.899,139.005l71.811,-23.236" style="fill:none;fill-rule:nonzero;stroke:#224096;stroke-width:1px;stroke-linecap:butt;stroke-linejoin:miter;stroke-miterlimit:10;"/><path d="M117.71,115.769l0,-1.375" style="fill:none;fill-rule:nonzero;stroke:#224096;stroke-width:1px;stroke-linecap:butt;stroke-linejoin:miter;stroke-miterlimit:10;"/><path d="M21.757,99.447c-4.097,-0.722 -7.881,-2.671 -10.85,-5.586c-2.968,-2.916 -4.984,-6.664 -5.781,-10.748c-0.796,-4.084 -0.336,-8.314 1.32,-12.132" style="fill:none;fill-rule:nonzero;stroke:#224096;stroke-width:1px;stroke-linecap:butt;stroke-linejoin:miter;stroke-miterlimit:10;"/><path d="M6.446,70.981c8.463,-19.509 22.448,-36.125 40.227,-47.792c17.78,-11.668 38.589,-17.886 59.854,-17.886" style="fill:none;fill-rule:nonzero;stroke:#224096;stroke-width:1px;stroke-linecap:butt;stroke-linejoin:miter;stroke-miterlimit:10;"/><path d="M115.031,114.394l-93.274,-14.947" style="fill:none;fill-rule:nonzero;stroke:#224096;stroke-width:1px;stroke-linecap:butt;stroke-linejoin:miter;stroke-miterlimit:10;"/><path d="M117.71,114.394l-2.679,0" style="fill:none;fill-rule:nonzero;stroke:#224096;stroke-width:1px;stroke-linecap:butt;stroke-linejoin:miter;stroke-miterlimit:10;"/><path d="M106.527,5.303l8.504,0" style="fill:none;fill-rule:nonzero;stroke:#224096;stroke-width:1px;stroke-linecap:butt;stroke-linejoin:miter;stroke-miterlimit:10;"/><path d="M116.335,805.673l0,-106.342" style="fill:none;fill-rule:nonzero;stroke:#224096;stroke-width:1px;stroke-linecap:butt;stroke-linejoin:miter;stroke-miterlimit:10;"/><path d="M621.71,805.673l-505.375,-0" style="fill:none;fill-rule:nonzero;stroke:#224096;stroke-width:1px;stroke-linecap:butt;stroke-linejoin:miter;stroke-miterlimit:10;"/><path d="M621.71,805.673l505.375,-0" style="fill:none;fill-rule:nonzero;stroke:#224096;stroke-width:1px;stroke-linecap:butt;stroke-linejoin:miter;stroke-miterlimit:10;"/><path d="M1127.08,805.673l0,-106.342" style="fill:none;fill-rule:nonzero;stroke:#224096;stroke-width:1px;stroke-linecap:butt;stroke-linejoin:miter;stroke-miterlimit:10;"/></g><g id="ScoreLinesLid"><path d="M117.71,695.207l0,-579.438" style="fill:none;fill-rule:nonzero;stroke:#e82126;stroke-width:1px;stroke-linecap:butt;stroke-linejoin:miter;stroke-miterlimit:10;"/><path d="M115.031,114.394l0,-109.091" style="fill:none;fill-rule:nonzero;stroke:#e82126;stroke-width:1px;stroke-linecap:butt;stroke-linejoin:miter;stroke-miterlimit:10;"/><path d="M621.71,114.394l-504,0" style="fill:none;fill-rule:nonzero;stroke:#e82126;stroke-width:1px;stroke-linecap:butt;stroke-linejoin:miter;stroke-miterlimit:10;"/><path d="M117.71,696.582l504,-0" style="fill:none;fill-rule:nonzero;stroke:#e82126;stroke-width:1px;stroke-linecap:butt;stroke-linejoin:miter;stroke-miterlimit:10;"/><path d="M1125.71,696.582l-504,-0" style="fill:none;fill-rule:nonzero;stroke:#e82126;stroke-width:1px;stroke-linecap:butt;stroke-linejoin:miter;stroke-miterlimit:10;"/><path d="M1125.71,695.207l0,-579.437" style="fill:none;fill-rule:nonzero;stroke:#e82126;stroke-width:1px;stroke-linecap:butt;stroke-linejoin:miter;stroke-miterlimit:10;"/><path d="M1128.39,114.395l-0.001,-109.091" style="fill:none;fill-rule:nonzero;stroke:#e82126;stroke-width:1px;stroke-linecap:butt;stroke-linejoin:miter;stroke-miterlimit:10;"/><path d="M621.71,114.394l504,0.001" style="fill:none;fill-rule:nonzero;stroke:#e82126;stroke-width:1px;stroke-linecap:butt;stroke-linejoin:miter;stroke-miterlimit:10;"/></g></svg>