<?xml version="1.0" encoding="UTF-8" standalone="no"?><!DOCTYPE svg PUBLIC "-//W3C//DTD SVG 1.1//EN" "http://www.w3.org/Graphics/SVG/1.1/DTD/svg11.dtd"><svg width="100%" height="100%" viewBox="0 0 811 1244" version="1.1" xmlns="http://www.w3.org/2000/svg" xmlns:xlink="http://www.w3.org/1999/xlink" xml:space="preserve" xmlns:serif="http://www.serif.com/" style="fill-rule:evenodd;clip-rule:evenodd;stroke-miterlimit:10;"><g id="CutLinesLid"><path d="M805.394,621.989l0,506.679" style="fill:none;fill-rule:nonzero;stroke:#224096;stroke-width:1px;"/><path d="M111.367,1127.36l2.749,-1.375" style="fill:none;fill-rule:nonzero;stroke:#224096;stroke-width:1px;"/><path d="M114.116,1125.99l1.375,0" style="fill:none;fill-rule:nonzero;stroke:#224096;stroke-width:1px;"/><path d="M115.491,1125.99l23.236,71.811" style="fill:none;fill-rule:nonzero;stroke:#224096;stroke-width:1px;"/><path d="M138.727,1197.8c12.305,35.906 12.305,35.906 266.483,35.906" style="fill:none;fill-rule:nonzero;stroke:#224096;stroke-width:1px;"/><path d="M671.692,1197.8c-12.305,35.906 -12.305,35.906 -266.482,35.906" style="fill:none;fill-rule:nonzero;stroke:#224096;stroke-width:1px;"/><path d="M671.692,1197.8l23.236,-71.811" style="fill:none;fill-rule:nonzero;stroke:#224096;stroke-width:1px;"/><path d="M694.928,1125.99l1.375,0" style="fill:none;fill-rule:nonzero;stroke:#224096;stroke-width:1px;"/><path d="M711.25,1221.94c0.723,4.097 2.671,7.881 5.586,10.85c2.916,2.968 6.664,4.984 10.748,5.781c4.084,0.796 8.314,0.336 12.132,-1.32" style="fill:none;fill-rule:nonzero;stroke:#224096;stroke-width:1px;"/><path d="M739.716,1237.25c19.509,-8.463 36.125,-22.448 47.792,-40.227c11.668,-17.78 17.886,-38.588 17.886,-59.854" style="fill:none;fill-rule:nonzero;stroke:#224096;stroke-width:1px;"/><path d="M696.303,1128.67l14.947,93.274" style="fill:none;fill-rule:nonzero;stroke:#224096;stroke-width:1px;"/><path d="M696.303,1125.99l-0,2.679" style="fill:none;fill-rule:nonzero;stroke:#224096;stroke-width:1px;"/><path d="M805.394,1137.17l0,-8.504" style="fill:none;fill-rule:nonzero;stroke:#224096;stroke-width:1px;"/><path d="M805.394,621.989l0,-506.679" style="fill:none;fill-rule:nonzero;stroke:#224096;stroke-width:1px;"/><path d="M111.367,116.614l2.749,1.375" style="fill:none;fill-rule:nonzero;stroke:#224096;stroke-width:1px;"/><path d="M114.116,117.989l1.375,0" style="fill:none;fill-rule:nonzero;stroke:#224096;stroke-width:1px;"/><path d="M115.491,117.989l23.236,-71.811" style="fill:none;fill-rule:nonzero;stroke:#224096;stroke-width:1px;"/><path d="M138.727,46.178c12.305,-35.906 12.305,-35.906 266.483,-35.906" style="fill:none;fill-rule:nonzero;stroke:#224096;stroke-width:1px;"/><path d="M671.692,46.178c-12.305,-35.906 -12.305,-35.906 -266.482,-35.906" style="fill:none;fill-rule:nonzero;stroke:#224096;stroke-width:1px;"/><path d="M671.692,46.178l23.236,71.811" style="fill:none;fill-rule:nonzero;stroke:#224096;stroke-width:1px;"/><path d="M694.928,117.989l1.375,0" style="fill:none;fill-rule:nonzero;stroke:#224096;stroke-width:1px;"/><path d="M711.25,22.036c0.723,-4.097 2.671,-7.881 5.586,-10.85c2.916,-2.968 6.664,-4.984 10.748,-5.781c4.084,-0.796 8.314,-0.336 12.132,1.32" style="fill:none;fill-rule:nonzero;stroke:#224096;stroke-width:1px;"/><path d="M739.716,6.725c19.509,8.463 36.125,22.448 47.792,40.227c11.668,17.78 17.886,38.589 17.886,59.854" style="fill:none;fill-rule:nonzero;stroke:#224096;stroke-width:1px;"/><path d="M696.303,115.31l14.947,-93.274" style="fill:none;fill-rule:nonzero;stroke:#224096;stroke-width:1px;"/><path d="M696.303,117.989l-0,-2.679" style="fill:none;fill-rule:nonzero;stroke:#224096;stroke-width:1px;"/><path d="M805.394,106.806l0,8.504" style="fill:none;fill-rule:nonzero;stroke:#224096;stroke-width:1px;"/><path d="M5.025,116.614l106.342,0" style="fill:none;fill-rule:nonzero;stroke:#224096;stroke-width:1px;"/><path d="M5.025,621.989l-0,-505.375" style="fill:none;fill-rule:nonzero;stroke:#224096;stroke-width:1px;"/><path d="M5.025,621.989l-0,505.375" style="fill:none;fill-rule:nonzero;stroke:#224096;stroke-width:1px;"/><path d="M5.025,1127.36l106.342,-0" style="fill:none;fill-rule:nonzero;stroke:#224096;stroke-width:1px;"/></g><g id="ScoreLinesLid"><path d="M115.491,117.989l579.437,0" style="fill:none;fill-rule:nonzero;stroke:#e82126;stroke-width:1px;"/><path d="M696.303,115.31l109.091,0" style="fill:none;fill-rule:nonzero;stroke:#e82126;stroke-width:1px;"/><path d="M696.303,621.989l-0,-504" style="fill:none;fill-rule:nonzero;stroke:#e82126;stroke-width:1px;"/><path d="M114.116,117.989l0,504" style="fill:none;fill-rule:nonzero;stroke:#e82126;stroke-width:1px;"/><path d="M114.116,1125.99l0,-504" style="fill:none;fill-rule:nonzero;stroke:#e82126;stroke-width:1px;"/><path d="M115.491,1125.99l579.437,0" style="fill:none;fill-rule:nonzero;stroke:#e82126;stroke-width:1px;"/><path d="M696.303,1128.67l109.091,-0" style="fill:none;fill-rule:nonzero;stroke:#e82126;stroke-width:1px;"/><path d="M696.303,621.989l-0,504" style="fill:none;fill-rule:nonzero;stroke:#e82126;stroke-width:1px;"/></g></svg>