<?xml version="1.0" encoding="UTF-8" standalone="no"?><!DOCTYPE svg PUBLIC "-//W3C//DTD SVG 1.1//EN" "http://www.w3.org/Graphics/SVG/1.1/DTD/svg11.dtd"><svg width="100%" height="100%" viewBox="0 0 624 624" version="1.1" xmlns="http://www.w3.org/2000/svg" xmlns:xlink="http://www.w3.org/1999/xlink" xml:space="preserve" xmlns:serif="http://www.serif.com/" style="fill-rule:evenodd;clip-rule:evenodd;stroke-linecap:round;stroke-linejoin:round;stroke-miterlimit:1.5;"><path d="M326.17,349.214l-0,2.835l-2.268,-0l0,8.787l2.268,0l-0,16.441l-2.268,0l0,8.788l2.268,-0l-0,2.834l39.685,0l-0,-2.834l2.268,-0l-0,-8.788l-2.268,0l-0,-16.441l2.268,0l-0,-8.787l-2.268,-0l-0,-2.835l-39.685,0Zm-68.4,0l-0,2.835l-2.271,-0l0,8.787l2.271,0l-0,16.441l-2.271,0l0,8.788l2.271,-0l-0,2.834l39.685,0l-0,-2.834l2.268,-0l-0,-8.788l-2.268,0l-0,-16.441l2.268,0l-0,-8.787l-2.268,-0l-0,-2.835l-39.685,0Zm149.099,-76.875l0.97,2.664l-2.132,0.774l3.008,8.257l2.129,-0.774l5.624,15.449l-2.132,0.774l3.007,8.257l2.129,-0.773l0.97,2.664l37.292,-13.575l-0.969,-2.662l2.132,-0.776l-3.005,-8.258l-2.132,0.777l-5.624,-15.452l2.132,-0.774l-3.005,-8.257l-2.132,0.774l-0.969,-2.662l-37.293,13.573Zm50.743,-18.471l0.97,2.665l-2.129,0.776l3.005,8.258l2.131,-0.777l5.622,15.449l-2.132,0.776l3.007,8.258l2.132,-0.777l0.97,2.665l37.289,-13.573l-0.969,-2.664l2.132,-0.777l-3.005,-8.257l-2.132,0.776l-5.624,-15.448l2.132,-0.777l-3.005,-8.257l-2.132,0.776l-0.969,-2.664l-37.293,13.572Zm-279.121,-19.44l-2.132,-0.774l-3.005,8.257l2.132,0.774l-5.624,15.452l-2.132,-0.777l-3.004,8.258l2.131,0.776l-0.969,2.662l37.292,13.575l0.97,-2.664l2.129,0.773l3.007,-8.257l-2.132,-0.774l5.624,-15.449l2.129,0.774l3.008,-8.257l-2.132,-0.774l0.97,-2.664l-37.293,-13.573l-0.969,2.662Zm329.864,0.972l0.97,2.665l-2.129,0.774l3.005,8.257l2.131,-0.774l5.622,15.449l-2.129,0.774l3.004,8.26l2.132,-0.777l0.97,2.665l37.289,-13.575l-0.969,-2.662l2.132,-0.777l-3.005,-8.257l-2.132,0.777l-5.624,-15.452l2.132,-0.774l-3.005,-8.257l-2.132,0.774l-0.969,-2.662l-37.293,13.572Zm-380.607,-19.44l-2.132,-0.776l-3.005,8.257l2.132,0.777l-5.624,15.448l-2.132,-0.776l-3.004,8.257l2.131,0.777l-0.969,2.664l37.289,13.573l0.97,-2.668l2.132,0.777l3.007,-8.255l-2.132,-0.776l5.622,-15.449l2.131,0.777l3.005,-8.258l-2.129,-0.776l0.97,-2.665l-37.293,-13.572l-0.969,2.664Zm260.654,5.636l0.969,2.661l-2.131,0.777l3.004,8.257l2.132,-0.776l5.624,15.451l-2.132,0.774l3.005,8.257l2.132,-0.773l0.969,2.661l37.293,-13.572l-0.97,-2.664l2.129,-0.774l-3.005,-8.258l-2.131,0.774l-5.621,-15.449l2.128,-0.773l-3.004,-8.261l-2.132,0.777l-0.97,-2.665l-37.289,13.576Zm-311.397,-24.106l-2.132,-0.774l-3.005,8.257l2.132,0.774l-5.624,15.452l-2.132,-0.777l-3.004,8.257l2.131,0.777l-0.972,2.662l37.292,13.575l0.97,-2.665l2.132,0.777l3.004,-8.26l-2.128,-0.774l5.621,-15.449l2.131,0.774l3.005,-8.257l-2.129,-0.774l0.97,-2.665l-37.293,-13.572l-0.969,2.662Zm362.14,5.635l0.969,2.665l-2.131,0.776l3.004,8.258l2.132,-0.777l5.624,15.449l-2.132,0.776l3.005,8.258l2.132,-0.777l0.969,2.665l37.293,-13.573l-0.97,-2.664l2.129,-0.777l-3.005,-8.257l-2.131,0.776l-5.622,-15.448l2.132,-0.777l-3.007,-8.257l-2.132,0.776l-0.97,-2.664l-37.289,13.572Zm50.743,-18.468l0.969,2.662l-2.131,0.777l3.004,8.257l2.132,-0.777l5.624,15.452l-2.132,0.774l3.005,8.257l2.132,-0.774l0.969,2.662l37.293,-13.572l-0.97,-2.665l2.132,-0.774l-3.008,-8.257l-2.129,0.774l-5.624,-15.449l2.132,-0.774l-3.007,-8.257l-2.129,0.774l-0.97,-2.665l-37.292,13.575Zm-343.67,-19.44l-2.132,-0.776l-3.007,8.257l2.132,0.777l-5.622,15.448l-2.131,-0.776l-3.005,8.257l2.129,0.777l-0.97,2.664l37.293,13.573l0.969,-2.665l2.132,0.777l3.005,-8.258l-2.132,-0.776l5.624,-15.449l2.132,0.777l3.005,-8.258l-2.132,-0.776l0.969,-2.665l-37.289,-13.572l-0.97,2.664Zm326.884,-114.196l0,2.834l-2.267,0l-0,8.788l2.267,-0l0,16.441l-2.267,-0l-0,8.79l2.267,0l0,2.835l39.685,-0l0,-2.835l2.268,0l0,-8.79l-2.268,-0l0,-16.441l2.268,-0l0,-8.788l-2.268,0l0,-2.834l-39.685,-0Zm-54,-0l0,2.834l-2.267,0l-0,8.788l2.267,-0l0,16.441l-2.267,-0l-0,8.79l2.267,0l0,2.835l39.685,-0l0,-2.835l2.268,0l0,-8.79l-2.268,-0l0,-16.441l2.268,-0l0,-8.788l-2.268,0l0,-2.834l-39.685,-0Zm-306.139,-0l0,2.834l-2.267,0l-0,8.788l2.267,-0l0,16.441l-2.267,-0l-0,8.79l2.267,0l0,2.835l39.686,-0l-0,-2.835l2.267,0l0,-8.79l-2.267,-0l-0,-16.441l2.267,-0l0,-8.788l-2.267,0l-0,-2.834l-39.686,-0Zm252.139,-0l0,2.834l-2.267,0l-0,8.788l2.267,-0l0,16.441l-2.267,-0l-0,8.79l2.267,0l0,2.835l39.685,-0l0,-2.835l2.268,0l0,-8.79l-2.268,-0l0,-16.441l2.268,-0l0,-8.788l-2.268,0l0,-2.834l-39.685,-0Zm-306.141,-0l-0,2.834l-2.268,0l-0,8.788l2.268,-0l-0,16.441l-2.268,-0l-0,8.79l2.268,0l-0,2.835l39.688,-0l-0,-2.835l2.267,0l0,-8.79l-2.267,-0l-0,-16.441l2.267,-0l0,-8.788l-2.267,0l-0,-2.834l-39.688,-0Zm468.141,-0l0,2.834l-2.267,0l-0,8.788l2.267,-0l0,16.441l-2.267,-0l-0,8.79l2.267,0l0,2.835l39.685,-0l0,-2.835l2.268,0l0,-8.79l-2.268,-0l0,-16.441l2.268,-0l0,-8.788l-2.268,0l0,-2.834l-39.685,-0Z" style="fill:none;stroke:#000;stroke-width:0.5px;"/></svg>