  0
SECTION
  2
HEADER
  9
$ACADVER
  1
AC1009
  9
$EXTMIN
 10
0.0
 20
0.0
 30
0.0
  9
$EXTMAX
 10
1000.0
 20
1000.0
 30
0.0
  9
$FILLMODE
 70
 0
  9
$SPLFRAME
 70
 1
  0
ENDSEC
  0
SECTION
  2
TABLES
  0
TABLE
  2
LAYER
 70
1
  0
LAYER
  2
0
 70
     0
 62
     7
  6
CONTINUOUS
  0
ENDTAB
  0
ENDSEC
  0
SECTION
  2
ENTITIES
  0
LINE
  8
0
 62
     0
 10
355.999
 20
111.383
 30
0.0
 11
356.231
 21
111.373
 31
0.0
  0
LINE
  8
0
 62
     0
 10
356.231
 20
111.373
 30
0.0
 11
356.464
 21
111.347
 31
0.0
  0
LINE
  8
0
 62
     0
 10
356.464
 20
111.347
 30
0.0
 11
356.697
 21
111.3
 31
0.0
  0
LINE
  8
0
 62
     0
 10
356.697
 20
111.3
 30
0.0
 11
356.923
 21
111.236
 31
0.0
  0
LINE
  8
0
 62
     0
 10
356.923
 20
111.236
 30
0.0
 11
357.145
 21
111.154
 31
0.0
  0
LINE
  8
0
 62
     0
 10
357.145
 20
111.154
 30
0.0
 11
357.357
 21
111.056
 31
0.0
  0
LINE
  8
0
 62
     0
 10
357.357
 20
111.056
 30
0.0
 11
357.565
 21
110.94
 31
0.0
  0
LINE
  8
0
 62
     0
 10
357.565
 20
110.94
 30
0.0
 11
357.759
 21
110.811
 31
0.0
  0
LINE
  8
0
 62
     0
 10
357.759
 20
110.811
 30
0.0
 11
357.942
 21
110.665
 31
0.0
  0
LINE
  8
0
 62
     0
 10
357.942
 20
110.665
 30
0.0
 11
358.119
 21
110.505
 31
0.0
  0
LINE
  8
0
 62
     0
 10
358.119
 20
110.505
 30
0.0
 11
358.278
 21
110.331
 31
0.0
  0
LINE
  8
0
 62
     0
 10
358.278
 20
110.331
 30
0.0
 11
358.422
 21
110.147
 31
0.0
  0
LINE
  8
0
 62
     0
 10
358.422
 20
110.147
 30
0.0
 11
358.553
 21
109.951
 31
0.0
  0
LINE
  8
0
 62
     0
 10
358.553
 20
109.951
 30
0.0
 11
358.669
 21
109.744
 31
0.0
  0
LINE
  8
0
 62
     0
 10
358.669
 20
109.744
 30
0.0
 11
358.768
 21
109.53
 31
0.0
  0
LINE
  8
0
 62
     0
 10
358.768
 20
109.53
 30
0.0
 11
358.849
 21
109.31
 31
0.0
  0
LINE
  8
0
 62
     0
 10
358.849
 20
109.31
 30
0.0
 11
358.913
 21
109.083
 31
0.0
  0
LINE
  8
0
 62
     0
 10
358.913
 20
109.083
 30
0.0
 11
358.958
 21
108.853
 31
0.0
  0
LINE
  8
0
 62
     0
 10
358.958
 20
108.853
 30
0.0
 11
358.987
 21
108.619
 31
0.0
  0
LINE
  8
0
 62
     0
 10
358.987
 20
108.619
 30
0.0
 11
358.997
 21
108.383
 31
0.0
  0
LINE
  8
0
 62
     0
 10
358.997
 20
108.383
 30
0.0
 11
358.997
 21
3.13228
 31
0.0
  0
LINE
  8
0
 62
     0
 10
358.997
 20
3.13228
 30
0.0
 11
358.987
 21
2.89664
 31
0.0
  0
LINE
  8
0
 62
     0
 10
358.987
 20
2.89664
 30
0.0
 11
358.958
 21
2.66237
 31
0.0
  0
LINE
  8
0
 62
     0
 10
358.958
 20
2.66237
 30
0.0
 11
358.913
 21
2.43086
 31
0.0
  0
LINE
  8
0
 62
     0
 10
358.913
 20
2.43086
 30
0.0
 11
358.849
 21
2.20486
 31
0.0
  0
LINE
  8
0
 62
     0
 10
358.849
 20
2.20486
 30
0.0
 11
358.768
 21
1.983
 31
0.0
  0
LINE
  8
0
 62
     0
 10
358.768
 20
1.983
 30
0.0
 11
358.669
 21
1.77078
 31
0.0
  0
LINE
  8
0
 62
     0
 10
358.669
 20
1.77078
 30
0.0
 11
358.553
 21
1.56407
 31
0.0
  0
LINE
  8
0
 62
     0
 10
358.553
 20
1.56407
 30
0.0
 11
358.422
 21
1.36839
 31
0.0
  0
LINE
  8
0
 62
     0
 10
358.422
 20
1.36839
 30
0.0
 11
358.278
 21
1.18374
 31
0.0
  0
LINE
  8
0
 62
     0
 10
358.278
 20
1.18374
 30
0.0
 11
358.119
 21
1.0101
 31
0.0
  0
LINE
  8
0
 62
     0
 10
358.119
 20
1.0101
 30
0.0
 11
357.942
 21
0.850251
 31
0.0
  0
LINE
  8
0
 62
     0
 10
357.942
 20
0.850251
 30
0.0
 11
357.759
 21
0.704176
 31
0.0
  0
LINE
  8
0
 62
     0
 10
357.759
 20
0.704176
 30
0.0
 11
357.565
 21
0.574643
 31
0.0
  0
LINE
  8
0
 62
     0
 10
357.565
 20
0.574643
 30
0.0
 11
357.357
 21
0.458886
 31
0.0
  0
LINE
  8
0
 62
     0
 10
357.357
 20
0.458886
 30
0.0
 11
357.145
 21
0.359668
 31
0.0
  0
LINE
  8
0
 62
     0
 10
357.145
 20
0.359668
 30
0.0
 11
356.923
 21
0.278364
 31
0.0
  0
LINE
  8
0
 62
     0
 10
356.923
 20
0.278364
 30
0.0
 11
356.697
 21
0.214974
 31
0.0
  0
LINE
  8
0
 62
     0
 10
356.697
 20
0.214974
 30
0.0
 11
356.464
 21
0.168121
 31
0.0
  0
LINE
  8
0
 62
     0
 10
356.464
 20
0.168121
 30
0.0
 11
356.231
 21
0.141938
 31
0.0
  0
LINE
  8
0
 62
     0
 10
356.231
 20
0.141938
 30
0.0
 11
355.999
 21
0.130914
 31
0.0
  0
LINE
  8
0
 62
     0
 10
355.999
 20
0.130914
 30
0.0
 11
3.09507
 21
0.132292
 31
0.0
  0
LINE
  8
0
 62
     0
 10
3.09507
 20
0.132292
 30
0.0
 11
2.85943
 21
0.141938
 31
0.0
  0
LINE
  8
0
 62
     0
 10
2.85943
 20
0.141938
 30
0.0
 11
2.62516
 21
0.168121
 31
0.0
  0
LINE
  8
0
 62
     0
 10
2.62516
 20
0.168121
 30
0.0
 11
2.39503
 21
0.214974
 31
0.0
  0
LINE
  8
0
 62
     0
 10
2.39503
 20
0.214974
 30
0.0
 11
2.16765
 21
0.278364
 31
0.0
  0
LINE
  8
0
 62
     0
 10
2.16765
 20
0.278364
 30
0.0
 11
1.94717
 21
0.359668
 31
0.0
  0
LINE
  8
0
 62
     0
 10
1.94717
 20
0.359668
 30
0.0
 11
1.73357
 21
0.458886
 31
0.0
  0
LINE
  8
0
 62
     0
 10
1.73357
 20
0.458886
 30
0.0
 11
1.52687
 21
0.574643
 31
0.0
  0
LINE
  8
0
 62
     0
 10
1.52687
 20
0.574643
 30
0.0
 11
1.33119
 21
0.704176
 31
0.0
  0
LINE
  8
0
 62
     0
 10
1.33119
 20
0.704176
 30
0.0
 11
1.14653
 21
0.850251
 31
0.0
  0
LINE
  8
0
 62
     0
 10
1.14653
 20
0.850251
 30
0.0
 11
0.972894
 21
1.0101
 31
0.0
  0
LINE
  8
0
 62
     0
 10
0.972894
 20
1.0101
 30
0.0
 11
0.813043
 21
1.18374
 31
0.0
  0
LINE
  8
0
 62
     0
 10
0.813043
 20
1.18374
 30
0.0
 11
0.666972
 21
1.36839
 31
0.0
  0
LINE
  8
0
 62
     0
 10
0.666972
 20
1.36839
 30
0.0
 11
0.537436
 21
1.56407
 31
0.0
  0
LINE
  8
0
 62
     0
 10
0.537436
 20
1.56407
 30
0.0
 11
0.421679
 21
1.77078
 31
0.0
  0
LINE
  8
0
 62
     0
 10
0.421679
 20
1.77078
 30
0.0
 11
0.323839
 21
1.983
 31
0.0
  0
LINE
  8
0
 62
     0
 10
0.323839
 20
1.983
 30
0.0
 11
0.241157
 21
2.20486
 31
0.0
  0
LINE
  8
0
 62
     0
 10
0.241157
 20
2.20486
 30
0.0
 11
0.177767
 21
2.43086
 31
0.0
  0
LINE
  8
0
 62
     0
 10
0.177767
 20
2.43086
 30
0.0
 11
0.130914
 21
2.66237
 31
0.0
  0
LINE
  8
0
 62
     0
 10
0.130914
 20
2.66237
 30
0.0
 11
0.104731
 21
2.89664
 31
0.0
  0
LINE
  8
0
 62
     0
 10
0.104731
 20
2.89664
 30
0.0
 11
0.0950846
 21
3.13228
 31
0.0
  0
LINE
  8
0
 62
     0
 10
0.0950846
 20
3.13228
 30
0.0
 11
0.0950846
 21
108.383
 31
0.0
  0
LINE
  8
0
 62
     0
 10
0.0950846
 20
108.383
 30
0.0
 11
0.104731
 21
108.619
 31
0.0
  0
LINE
  8
0
 62
     0
 10
0.104731
 20
108.619
 30
0.0
 11
0.130914
 21
108.853
 31
0.0
  0
LINE
  8
0
 62
     0
 10
0.130914
 20
108.853
 30
0.0
 11
0.177767
 21
109.083
 31
0.0
  0
LINE
  8
0
 62
     0
 10
0.177767
 20
109.083
 30
0.0
 11
0.241157
 21
109.31
 31
0.0
  0
LINE
  8
0
 62
     0
 10
0.241157
 20
109.31
 30
0.0
 11
0.323839
 21
109.53
 31
0.0
  0
LINE
  8
0
 62
     0
 10
0.323839
 20
109.53
 30
0.0
 11
0.421679
 21
109.744
 31
0.0
  0
LINE
  8
0
 62
     0
 10
0.421679
 20
109.744
 30
0.0
 11
0.537436
 21
109.951
 31
0.0
  0
LINE
  8
0
 62
     0
 10
0.537436
 20
109.951
 30
0.0
 11
0.666972
 21
110.147
 31
0.0
  0
LINE
  8
0
 62
     0
 10
0.666972
 20
110.147
 30
0.0
 11
0.813043
 21
110.331
 31
0.0
  0
LINE
  8
0
 62
     0
 10
0.813043
 20
110.331
 30
0.0
 11
0.972894
 21
110.505
 31
0.0
  0
LINE
  8
0
 62
     0
 10
0.972894
 20
110.505
 30
0.0
 11
1.14653
 21
110.665
 31
0.0
  0
LINE
  8
0
 62
     0
 10
1.14653
 20
110.665
 30
0.0
 11
1.33119
 21
110.811
 31
0.0
  0
LINE
  8
0
 62
     0
 10
1.33119
 20
110.811
 30
0.0
 11
1.52687
 21
110.94
 31
0.0
  0
LINE
  8
0
 62
     0
 10
1.52687
 20
110.94
 30
0.0
 11
1.73357
 21
111.056
 31
0.0
  0
LINE
  8
0
 62
     0
 10
1.73357
 20
111.056
 30
0.0
 11
1.94717
 21
111.154
 31
0.0
  0
LINE
  8
0
 62
     0
 10
1.94717
 20
111.154
 30
0.0
 11
2.16765
 21
111.236
 31
0.0
  0
LINE
  8
0
 62
     0
 10
2.16765
 20
111.236
 30
0.0
 11
2.39503
 21
111.3
 31
0.0
  0
LINE
  8
0
 62
     0
 10
2.39503
 20
111.3
 30
0.0
 11
2.62516
 21
111.347
 31
0.0
  0
LINE
  8
0
 62
     0
 10
2.62516
 20
111.347
 30
0.0
 11
2.85943
 21
111.373
 31
0.0
  0
LINE
  8
0
 62
     0
 10
2.85943
 20
111.373
 30
0.0
 11
3.09507
 21
111.383
 31
0.0
  0
LINE
  8
0
 62
     0
 10
3.09507
 20
111.383
 30
0.0
 11
355.999
 21
111.383
 31
0.0
  0
LINE
  8
0
 62
     0
 10
153.495
 20
24.6572
 30
0.0
 11
153.495
 21
23.6568
 31
0.0
  0
LINE
  8
0
 62
     0
 10
153.495
 20
23.6568
 30
0.0
 11
152.695
 21
23.6568
 31
0.0
  0
LINE
  8
0
 62
     0
 10
152.695
 20
23.6568
 30
0.0
 11
152.695
 21
20.5589
 31
0.0
  0
LINE
  8
0
 62
     0
 10
152.695
 20
20.5589
 30
0.0
 11
153.495
 21
20.5589
 31
0.0
  0
LINE
  8
0
 62
     0
 10
153.495
 20
20.5589
 30
0.0
 11
153.495
 21
14.7574
 31
0.0
  0
LINE
  8
0
 62
     0
 10
153.495
 20
14.7574
 30
0.0
 11
152.695
 21
14.7574
 31
0.0
  0
LINE
  8
0
 62
     0
 10
152.695
 20
14.7574
 30
0.0
 11
152.695
 21
11.6568
 31
0.0
  0
LINE
  8
0
 62
     0
 10
152.695
 20
11.6568
 30
0.0
 11
153.495
 21
11.6568
 31
0.0
  0
LINE
  8
0
 62
     0
 10
153.495
 20
11.6568
 30
0.0
 11
153.495
 21
10.6577
 31
0.0
  0
LINE
  8
0
 62
     0
 10
153.495
 20
10.6577
 30
0.0
 11
167.495
 21
10.6577
 31
0.0
  0
LINE
  8
0
 62
     0
 10
167.495
 20
10.6577
 30
0.0
 11
167.495
 21
11.6568
 31
0.0
  0
LINE
  8
0
 62
     0
 10
167.495
 20
11.6568
 30
0.0
 11
168.296
 21
11.6568
 31
0.0
  0
LINE
  8
0
 62
     0
 10
168.296
 20
11.6568
 30
0.0
 11
168.296
 21
14.7574
 31
0.0
  0
LINE
  8
0
 62
     0
 10
168.296
 20
14.7574
 30
0.0
 11
167.495
 21
14.7574
 31
0.0
  0
LINE
  8
0
 62
     0
 10
167.495
 20
14.7574
 30
0.0
 11
167.495
 21
20.5589
 31
0.0
  0
LINE
  8
0
 62
     0
 10
167.495
 20
20.5589
 30
0.0
 11
168.296
 21
20.5589
 31
0.0
  0
LINE
  8
0
 62
     0
 10
168.296
 20
20.5589
 30
0.0
 11
168.296
 21
23.6568
 31
0.0
  0
LINE
  8
0
 62
     0
 10
168.296
 20
23.6568
 30
0.0
 11
167.495
 21
23.6568
 31
0.0
  0
LINE
  8
0
 62
     0
 10
167.495
 20
23.6568
 30
0.0
 11
167.495
 21
24.6572
 31
0.0
  0
LINE
  8
0
 62
     0
 10
167.495
 20
24.6572
 30
0.0
 11
153.495
 21
24.6572
 31
0.0
  0
LINE
  8
0
 62
     0
 10
134.445
 20
24.6572
 30
0.0
 11
134.445
 21
23.6568
 31
0.0
  0
LINE
  8
0
 62
     0
 10
134.445
 20
23.6568
 30
0.0
 11
133.645
 21
23.6568
 31
0.0
  0
LINE
  8
0
 62
     0
 10
133.645
 20
23.6568
 30
0.0
 11
133.645
 21
20.5589
 31
0.0
  0
LINE
  8
0
 62
     0
 10
133.645
 20
20.5589
 30
0.0
 11
134.445
 21
20.5589
 31
0.0
  0
LINE
  8
0
 62
     0
 10
134.445
 20
20.5589
 30
0.0
 11
134.445
 21
14.7574
 31
0.0
  0
LINE
  8
0
 62
     0
 10
134.445
 20
14.7574
 30
0.0
 11
133.645
 21
14.7574
 31
0.0
  0
LINE
  8
0
 62
     0
 10
133.645
 20
14.7574
 30
0.0
 11
133.645
 21
11.6568
 31
0.0
  0
LINE
  8
0
 62
     0
 10
133.645
 20
11.6568
 30
0.0
 11
134.445
 21
11.6568
 31
0.0
  0
LINE
  8
0
 62
     0
 10
134.445
 20
11.6568
 30
0.0
 11
134.445
 21
10.6577
 31
0.0
  0
LINE
  8
0
 62
     0
 10
134.445
 20
10.6577
 30
0.0
 11
148.445
 21
10.6577
 31
0.0
  0
LINE
  8
0
 62
     0
 10
148.445
 20
10.6577
 30
0.0
 11
148.445
 21
11.6568
 31
0.0
  0
LINE
  8
0
 62
     0
 10
148.445
 20
11.6568
 30
0.0
 11
149.246
 21
11.6568
 31
0.0
  0
LINE
  8
0
 62
     0
 10
149.246
 20
11.6568
 30
0.0
 11
149.246
 21
14.7574
 31
0.0
  0
LINE
  8
0
 62
     0
 10
149.246
 20
14.7574
 30
0.0
 11
148.445
 21
14.7574
 31
0.0
  0
LINE
  8
0
 62
     0
 10
148.445
 20
14.7574
 30
0.0
 11
148.445
 21
20.5589
 31
0.0
  0
LINE
  8
0
 62
     0
 10
148.445
 20
20.5589
 30
0.0
 11
149.246
 21
20.5589
 31
0.0
  0
LINE
  8
0
 62
     0
 10
149.246
 20
20.5589
 30
0.0
 11
149.246
 21
23.6568
 31
0.0
  0
LINE
  8
0
 62
     0
 10
149.246
 20
23.6568
 30
0.0
 11
148.445
 21
23.6568
 31
0.0
  0
LINE
  8
0
 62
     0
 10
148.445
 20
23.6568
 30
0.0
 11
148.445
 21
24.6572
 31
0.0
  0
LINE
  8
0
 62
     0
 10
148.445
 20
24.6572
 30
0.0
 11
134.445
 21
24.6572
 31
0.0
  0
LINE
  8
0
 62
     0
 10
184.504
 20
44.4747
 30
0.0
 11
184.846
 21
43.5349
 31
0.0
  0
LINE
  8
0
 62
     0
 10
184.846
 20
43.5349
 30
0.0
 11
184.095
 21
43.2622
 31
0.0
  0
LINE
  8
0
 62
     0
 10
184.095
 20
43.2622
 30
0.0
 11
185.156
 21
40.349
 31
0.0
  0
LINE
  8
0
 62
     0
 10
185.156
 20
40.349
 30
0.0
 11
185.907
 21
40.6217
 31
0.0
  0
LINE
  8
0
 62
     0
 10
185.907
 20
40.6217
 30
0.0
 11
187.89
 21
35.1717
 31
0.0
  0
LINE
  8
0
 62
     0
 10
187.89
 20
35.1717
 30
0.0
 11
187.139
 21
34.8988
 31
0.0
  0
LINE
  8
0
 62
     0
 10
187.139
 20
34.8988
 30
0.0
 11
188.2
 21
31.9857
 31
0.0
  0
LINE
  8
0
 62
     0
 10
188.2
 20
31.9857
 30
0.0
 11
188.951
 21
32.2599
 31
0.0
  0
LINE
  8
0
 62
     0
 10
188.951
 20
32.2599
 30
0.0
 11
189.293
 21
31.3187
 31
0.0
  0
LINE
  8
0
 62
     0
 10
189.293
 20
31.3187
 30
0.0
 11
202.449
 21
36.1086
 31
0.0
  0
LINE
  8
0
 62
     0
 10
202.449
 20
36.1086
 30
0.0
 11
202.106
 21
37.0473
 31
0.0
  0
LINE
  8
0
 62
     0
 10
202.106
 20
37.0473
 30
0.0
 11
202.858
 21
37.3214
 31
0.0
  0
LINE
  8
0
 62
     0
 10
202.858
 20
37.3214
 30
0.0
 11
201.798
 21
40.2347
 31
0.0
  0
LINE
  8
0
 62
     0
 10
201.798
 20
40.2347
 30
0.0
 11
201.046
 21
39.9602
 31
0.0
  0
LINE
  8
0
 62
     0
 10
201.046
 20
39.9602
 30
0.0
 11
199.063
 21
45.412
 31
0.0
  0
LINE
  8
0
 62
     0
 10
199.063
 20
45.412
 30
0.0
 11
199.814
 21
45.6847
 31
0.0
  0
LINE
  8
0
 62
     0
 10
199.814
 20
45.6847
 30
0.0
 11
198.754
 21
48.598
 31
0.0
  0
LINE
  8
0
 62
     0
 10
198.754
 20
48.598
 30
0.0
 11
198.002
 21
48.3235
 31
0.0
  0
LINE
  8
0
 62
     0
 10
198.002
 20
48.3235
 30
0.0
 11
197.66
 21
49.2637
 31
0.0
  0
LINE
  8
0
 62
     0
 10
197.66
 20
49.2637
 30
0.0
 11
184.504
 21
44.4747
 31
0.0
  0
LINE
  8
0
 62
     0
 10
202.405
 20
50.9916
 30
0.0
 11
202.748
 21
50.0518
 31
0.0
  0
LINE
  8
0
 62
     0
 10
202.748
 20
50.0518
 30
0.0
 11
201.997
 21
49.7777
 31
0.0
  0
LINE
  8
0
 62
     0
 10
201.997
 20
49.7777
 30
0.0
 11
203.057
 21
46.8644
 31
0.0
  0
LINE
  8
0
 62
     0
 10
203.057
 20
46.8644
 30
0.0
 11
203.809
 21
47.1385
 31
0.0
  0
LINE
  8
0
 62
     0
 10
203.809
 20
47.1385
 30
0.0
 11
205.792
 21
41.6885
 31
0.0
  0
LINE
  8
0
 62
     0
 10
205.792
 20
41.6885
 30
0.0
 11
205.04
 21
41.4143
 31
0.0
  0
LINE
  8
0
 62
     0
 10
205.04
 20
41.4143
 30
0.0
 11
206.101
 21
38.5011
 31
0.0
  0
LINE
  8
0
 62
     0
 10
206.101
 20
38.5011
 30
0.0
 11
206.852
 21
38.7752
 31
0.0
  0
LINE
  8
0
 62
     0
 10
206.852
 20
38.7752
 30
0.0
 11
207.195
 21
37.8354
 31
0.0
  0
LINE
  8
0
 62
     0
 10
207.195
 20
37.8354
 30
0.0
 11
220.35
 21
42.6226
 31
0.0
  0
LINE
  8
0
 62
     0
 10
220.35
 20
42.6226
 30
0.0
 11
220.008
 21
43.5638
 31
0.0
  0
LINE
  8
0
 62
     0
 10
220.008
 20
43.5638
 30
0.0
 11
220.759
 21
43.8369
 31
0.0
  0
LINE
  8
0
 62
     0
 10
220.759
 20
43.8369
 30
0.0
 11
219.699
 21
46.7501
 31
0.0
  0
LINE
  8
0
 62
     0
 10
219.699
 20
46.7501
 30
0.0
 11
218.947
 21
46.4757
 31
0.0
  0
LINE
  8
0
 62
     0
 10
218.947
 20
46.4757
 30
0.0
 11
216.964
 21
51.9257
 31
0.0
  0
LINE
  8
0
 62
     0
 10
216.964
 20
51.9257
 30
0.0
 11
217.715
 21
52.2002
 31
0.0
  0
LINE
  8
0
 62
     0
 10
217.715
 20
52.2002
 30
0.0
 11
216.655
 21
55.1134
 31
0.0
  0
LINE
  8
0
 62
     0
 10
216.655
 20
55.1134
 30
0.0
 11
215.904
 21
54.839
 31
0.0
  0
LINE
  8
0
 62
     0
 10
215.904
 20
54.839
 30
0.0
 11
215.561
 21
55.7788
 31
0.0
  0
LINE
  8
0
 62
     0
 10
215.561
 20
55.7788
 30
0.0
 11
202.405
 21
50.9916
 31
0.0
  0
LINE
  8
0
 62
     0
 10
103.937
 20
57.8485
 30
0.0
 11
103.186
 21
58.123
 31
0.0
  0
LINE
  8
0
 62
     0
 10
103.186
 20
58.123
 30
0.0
 11
102.125
 21
55.2097
 31
0.0
  0
LINE
  8
0
 62
     0
 10
102.125
 20
55.2097
 30
0.0
 11
102.877
 21
54.937
 31
0.0
  0
LINE
  8
0
 62
     0
 10
102.877
 20
54.937
 30
0.0
 11
100.893
 21
49.4852
 31
0.0
  0
LINE
  8
0
 62
     0
 10
100.893
 20
49.4852
 30
0.0
 11
100.142
 21
49.7597
 31
0.0
  0
LINE
  8
0
 62
     0
 10
100.142
 20
49.7597
 30
0.0
 11
99.0808
 21
46.8464
 31
0.0
  0
LINE
  8
0
 62
     0
 10
99.0808
 20
46.8464
 30
0.0
 11
99.8333
 21
46.5723
 31
0.0
  0
LINE
  8
0
 62
     0
 10
99.8333
 20
46.5723
 30
0.0
 11
99.4915
 21
45.6336
 31
0.0
  0
LINE
  8
0
 62
     0
 10
99.4915
 20
45.6336
 30
0.0
 11
112.648
 21
40.8436
 31
0.0
  0
LINE
  8
0
 62
     0
 10
112.648
 20
40.8436
 30
0.0
 11
112.989
 21
41.7848
 31
0.0
  0
LINE
  8
0
 62
     0
 10
112.989
 20
41.7848
 30
0.0
 11
113.74
 21
41.5107
 31
0.0
  0
LINE
  8
0
 62
     0
 10
113.74
 20
41.5107
 30
0.0
 11
114.802
 21
44.4239
 31
0.0
  0
LINE
  8
0
 62
     0
 10
114.802
 20
44.4239
 30
0.0
 11
114.049
 21
44.6966
 31
0.0
  0
LINE
  8
0
 62
     0
 10
114.049
 20
44.6966
 30
0.0
 11
116.034
 21
50.1467
 31
0.0
  0
LINE
  8
0
 62
     0
 10
116.034
 20
50.1467
 30
0.0
 11
116.785
 21
49.874
 31
0.0
  0
LINE
  8
0
 62
     0
 10
116.785
 20
49.874
 30
0.0
 11
117.846
 21
52.7872
 31
0.0
  0
LINE
  8
0
 62
     0
 10
117.846
 20
52.7872
 30
0.0
 11
117.093
 21
53.0599
 31
0.0
  0
LINE
  8
0
 62
     0
 10
117.093
 20
53.0599
 30
0.0
 11
117.435
 21
53.9997
 31
0.0
  0
LINE
  8
0
 62
     0
 10
117.435
 20
53.9997
 30
0.0
 11
104.279
 21
58.7887
 31
0.0
  0
LINE
  8
0
 62
     0
 10
104.279
 20
58.7887
 30
0.0
 11
103.937
 21
57.8485
 31
0.0
  0
LINE
  8
0
 62
     0
 10
220.307
 20
57.507
 30
0.0
 11
220.649
 21
56.5658
 31
0.0
  0
LINE
  8
0
 62
     0
 10
220.649
 20
56.5658
 30
0.0
 11
219.898
 21
56.2928
 31
0.0
  0
LINE
  8
0
 62
     0
 10
219.898
 20
56.2928
 30
0.0
 11
220.957
 21
53.3799
 31
0.0
  0
LINE
  8
0
 62
     0
 10
220.957
 20
53.3799
 30
0.0
 11
221.71
 21
53.654
 31
0.0
  0
LINE
  8
0
 62
     0
 10
221.71
 20
53.654
 30
0.0
 11
223.693
 21
48.2039
 31
0.0
  0
LINE
  8
0
 62
     0
 10
223.693
 20
48.2039
 30
0.0
 11
222.942
 21
47.9309
 31
0.0
  0
LINE
  8
0
 62
     0
 10
222.942
 20
47.9309
 30
0.0
 11
224.002
 21
45.0162
 31
0.0
  0
LINE
  8
0
 62
     0
 10
224.002
 20
45.0162
 30
0.0
 11
224.754
 21
45.2907
 31
0.0
  0
LINE
  8
0
 62
     0
 10
224.754
 20
45.2907
 30
0.0
 11
225.095
 21
44.3509
 31
0.0
  0
LINE
  8
0
 62
     0
 10
225.095
 20
44.3509
 30
0.0
 11
238.25
 21
49.1395
 31
0.0
  0
LINE
  8
0
 62
     0
 10
238.25
 20
49.1395
 30
0.0
 11
237.909
 21
50.0779
 31
0.0
  0
LINE
  8
0
 62
     0
 10
237.909
 20
50.0779
 30
0.0
 11
238.661
 21
50.352
 31
0.0
  0
LINE
  8
0
 62
     0
 10
238.661
 20
50.352
 30
0.0
 11
237.6
 21
53.2652
 31
0.0
  0
LINE
  8
0
 62
     0
 10
237.6
 20
53.2652
 30
0.0
 11
236.849
 21
52.9911
 31
0.0
  0
LINE
  8
0
 62
     0
 10
236.849
 20
52.9911
 30
0.0
 11
234.865
 21
58.4426
 31
0.0
  0
LINE
  8
0
 62
     0
 10
234.865
 20
58.4426
 30
0.0
 11
235.617
 21
58.7156
 31
0.0
  0
LINE
  8
0
 62
     0
 10
235.617
 20
58.7156
 30
0.0
 11
234.556
 21
61.6285
 31
0.0
  0
LINE
  8
0
 62
     0
 10
234.556
 20
61.6285
 30
0.0
 11
233.805
 21
61.3558
 31
0.0
  0
LINE
  8
0
 62
     0
 10
233.805
 20
61.3558
 30
0.0
 11
233.463
 21
62.2942
 31
0.0
  0
LINE
  8
0
 62
     0
 10
233.463
 20
62.2942
 30
0.0
 11
220.307
 21
57.507
 31
0.0
  0
LINE
  8
0
 62
     0
 10
86.0365
 20
64.364
 30
0.0
 11
85.284
 21
64.6384
 31
0.0
  0
LINE
  8
0
 62
     0
 10
85.284
 20
64.6384
 30
0.0
 11
84.2243
 21
61.7252
 31
0.0
  0
LINE
  8
0
 62
     0
 10
84.2243
 20
61.7252
 30
0.0
 11
84.9768
 21
61.4507
 31
0.0
  0
LINE
  8
0
 62
     0
 10
84.9768
 20
61.4507
 30
0.0
 11
82.9924
 21
56.0007
 31
0.0
  0
LINE
  8
0
 62
     0
 10
82.9924
 20
56.0007
 30
0.0
 11
82.2399
 21
56.2751
 31
0.0
  0
LINE
  8
0
 62
     0
 10
82.2399
 20
56.2751
 30
0.0
 11
81.1802
 21
53.3619
 31
0.0
  0
LINE
  8
0
 62
     0
 10
81.1802
 20
53.3619
 30
0.0
 11
81.9326
 21
53.0888
 31
0.0
  0
LINE
  8
0
 62
     0
 10
81.9326
 20
53.0888
 30
0.0
 11
81.5908
 21
52.149
 31
0.0
  0
LINE
  8
0
 62
     0
 10
81.5908
 20
52.149
 30
0.0
 11
94.7455
 21
47.3604
 31
0.0
  0
LINE
  8
0
 62
     0
 10
94.7455
 20
47.3604
 30
0.0
 11
95.0874
 21
48.3002
 31
0.0
  0
LINE
  8
0
 62
     0
 10
95.0874
 20
48.3002
 30
0.0
 11
95.8398
 21
48.0261
 31
0.0
  0
LINE
  8
0
 62
     0
 10
95.8398
 20
48.0261
 30
0.0
 11
96.901
 21
50.9393
 31
0.0
  0
LINE
  8
0
 62
     0
 10
96.901
 20
50.9393
 30
0.0
 11
96.1485
 21
51.2135
 31
0.0
  0
LINE
  8
0
 62
     0
 10
96.1485
 20
51.2135
 30
0.0
 11
98.1315
 21
56.6635
 31
0.0
  0
LINE
  8
0
 62
     0
 10
98.1315
 20
56.6635
 30
0.0
 11
98.884
 21
56.3894
 31
0.0
  0
LINE
  8
0
 62
     0
 10
98.884
 20
56.3894
 30
0.0
 11
99.9437
 21
59.3027
 31
0.0
  0
LINE
  8
0
 62
     0
 10
99.9437
 20
59.3027
 30
0.0
 11
99.1926
 21
59.5768
 31
0.0
  0
LINE
  8
0
 62
     0
 10
99.1926
 20
59.5768
 30
0.0
 11
99.5345
 21
60.5166
 31
0.0
  0
LINE
  8
0
 62
     0
 10
99.5345
 20
60.5166
 30
0.0
 11
86.3783
 21
65.3038
 31
0.0
  0
LINE
  8
0
 62
     0
 10
86.3783
 20
65.3038
 30
0.0
 11
86.0365
 21
64.364
 31
0.0
  0
LINE
  8
0
 62
     0
 10
177.99
 20
62.3768
 30
0.0
 11
178.332
 21
61.437
 31
0.0
  0
LINE
  8
0
 62
     0
 10
178.332
 20
61.437
 30
0.0
 11
177.58
 21
61.1628
 31
0.0
  0
LINE
  8
0
 62
     0
 10
177.58
 20
61.1628
 30
0.0
 11
178.639
 21
58.2496
 31
0.0
  0
LINE
  8
0
 62
     0
 10
178.639
 20
58.2496
 30
0.0
 11
179.392
 21
58.5241
 31
0.0
  0
LINE
  8
0
 62
     0
 10
179.392
 20
58.5241
 30
0.0
 11
181.376
 21
53.0737
 31
0.0
  0
LINE
  8
0
 62
     0
 10
181.376
 20
53.0737
 30
0.0
 11
180.624
 21
52.801
 31
0.0
  0
LINE
  8
0
 62
     0
 10
180.624
 20
52.801
 30
0.0
 11
181.683
 21
49.8877
 31
0.0
  0
LINE
  8
0
 62
     0
 10
181.683
 20
49.8877
 30
0.0
 11
182.436
 21
50.1608
 31
0.0
  0
LINE
  8
0
 62
     0
 10
182.436
 20
50.1608
 30
0.0
 11
182.777
 21
49.2206
 31
0.0
  0
LINE
  8
0
 62
     0
 10
182.777
 20
49.2206
 30
0.0
 11
195.933
 21
54.0096
 31
0.0
  0
LINE
  8
0
 62
     0
 10
195.933
 20
54.0096
 30
0.0
 11
195.592
 21
54.9494
 31
0.0
  0
LINE
  8
0
 62
     0
 10
195.592
 20
54.9494
 30
0.0
 11
196.343
 21
55.2221
 31
0.0
  0
LINE
  8
0
 62
     0
 10
196.343
 20
55.2221
 30
0.0
 11
195.283
 21
58.1353
 31
0.0
  0
LINE
  8
0
 62
     0
 10
195.283
 20
58.1353
 30
0.0
 11
194.531
 21
57.8626
 31
0.0
  0
LINE
  8
0
 62
     0
 10
194.531
 20
57.8626
 30
0.0
 11
192.548
 21
63.3127
 31
0.0
  0
LINE
  8
0
 62
     0
 10
192.548
 20
63.3127
 30
0.0
 11
193.299
 21
63.5854
 31
0.0
  0
LINE
  8
0
 62
     0
 10
193.299
 20
63.5854
 30
0.0
 11
192.239
 21
66.4986
 31
0.0
  0
LINE
  8
0
 62
     0
 10
192.239
 20
66.4986
 30
0.0
 11
191.487
 21
66.2259
 31
0.0
  0
LINE
  8
0
 62
     0
 10
191.487
 20
66.2259
 30
0.0
 11
191.145
 21
67.1657
 31
0.0
  0
LINE
  8
0
 62
     0
 10
191.145
 20
67.1657
 30
0.0
 11
177.99
 21
62.3768
 31
0.0
  0
LINE
  8
0
 62
     0
 10
68.1359
 20
70.8808
 30
0.0
 11
67.3834
 21
71.1535
 31
0.0
  0
LINE
  8
0
 62
     0
 10
67.3834
 20
71.1535
 30
0.0
 11
66.3236
 21
68.2406
 31
0.0
  0
LINE
  8
0
 62
     0
 10
66.3236
 20
68.2406
 30
0.0
 11
67.0761
 21
67.9676
 31
0.0
  0
LINE
  8
0
 62
     0
 10
67.0761
 20
67.9676
 30
0.0
 11
65.0917
 21
62.5161
 31
0.0
  0
LINE
  8
0
 62
     0
 10
65.0917
 20
62.5161
 30
0.0
 11
64.3393
 21
62.7902
 31
0.0
  0
LINE
  8
0
 62
     0
 10
64.3393
 20
62.7902
 30
0.0
 11
63.2795
 21
59.877
 31
0.0
  0
LINE
  8
0
 62
     0
 10
63.2795
 20
59.877
 30
0.0
 11
64.032
 21
59.6029
 31
0.0
  0
LINE
  8
0
 62
     0
 10
64.032
 20
59.6029
 30
0.0
 11
63.6901
 21
58.6645
 31
0.0
  0
LINE
  8
0
 62
     0
 10
63.6901
 20
58.6645
 30
0.0
 11
76.8449
 21
53.8759
 31
0.0
  0
LINE
  8
0
 62
     0
 10
76.8449
 20
53.8759
 30
0.0
 11
77.1867
 21
54.8157
 31
0.0
  0
LINE
  8
0
 62
     0
 10
77.1867
 20
54.8157
 30
0.0
 11
77.9392
 21
54.5412
 31
0.0
  0
LINE
  8
0
 62
     0
 10
77.9392
 20
54.5412
 30
0.0
 11
78.9989
 21
57.4559
 31
0.0
  0
LINE
  8
0
 62
     0
 10
78.9989
 20
57.4559
 30
0.0
 11
78.2479
 21
57.7289
 31
0.0
  0
LINE
  8
0
 62
     0
 10
78.2479
 20
57.7289
 30
0.0
 11
80.2308
 21
63.179
 31
0.0
  0
LINE
  8
0
 62
     0
 10
80.2308
 20
63.179
 30
0.0
 11
80.9833
 21
62.9049
 31
0.0
  0
LINE
  8
0
 62
     0
 10
80.9833
 20
62.9049
 30
0.0
 11
82.0431
 21
65.8178
 31
0.0
  0
LINE
  8
0
 62
     0
 10
82.0431
 20
65.8178
 30
0.0
 11
81.292
 21
66.0908
 31
0.0
  0
LINE
  8
0
 62
     0
 10
81.292
 20
66.0908
 30
0.0
 11
81.6335
 21
67.032
 31
0.0
  0
LINE
  8
0
 62
     0
 10
81.6335
 20
67.032
 30
0.0
 11
68.4773
 21
71.8192
 31
0.0
  0
LINE
  8
0
 62
     0
 10
68.4773
 20
71.8192
 30
0.0
 11
68.1359
 21
70.8808
 31
0.0
  0
LINE
  8
0
 62
     0
 10
195.891
 20
68.8922
 30
0.0
 11
196.233
 21
67.9524
 31
0.0
  0
LINE
  8
0
 62
     0
 10
196.233
 20
67.9524
 30
0.0
 11
195.48
 21
67.6783
 31
0.0
  0
LINE
  8
0
 62
     0
 10
195.48
 20
67.6783
 30
0.0
 11
196.54
 21
64.7651
 31
0.0
  0
LINE
  8
0
 62
     0
 10
196.54
 20
64.7651
 30
0.0
 11
197.292
 21
65.0392
 31
0.0
  0
LINE
  8
0
 62
     0
 10
197.292
 20
65.0392
 30
0.0
 11
199.277
 21
59.5891
 31
0.0
  0
LINE
  8
0
 62
     0
 10
199.277
 20
59.5891
 30
0.0
 11
198.524
 21
59.315
 31
0.0
  0
LINE
  8
0
 62
     0
 10
198.524
 20
59.315
 30
0.0
 11
199.584
 21
56.4018
 31
0.0
  0
LINE
  8
0
 62
     0
 10
199.584
 20
56.4018
 30
0.0
 11
200.337
 21
56.6759
 31
0.0
  0
LINE
  8
0
 62
     0
 10
200.337
 20
56.6759
 30
0.0
 11
200.678
 21
55.7361
 31
0.0
  0
LINE
  8
0
 62
     0
 10
200.678
 20
55.7361
 30
0.0
 11
213.834
 21
60.5247
 31
0.0
  0
LINE
  8
0
 62
     0
 10
213.834
 20
60.5247
 30
0.0
 11
213.493
 21
61.4645
 31
0.0
  0
LINE
  8
0
 62
     0
 10
213.493
 20
61.4645
 30
0.0
 11
214.244
 21
61.7389
 31
0.0
  0
LINE
  8
0
 62
     0
 10
214.244
 20
61.7389
 30
0.0
 11
213.184
 21
64.6508
 31
0.0
  0
LINE
  8
0
 62
     0
 10
213.184
 20
64.6508
 30
0.0
 11
212.432
 21
64.3777
 31
0.0
  0
LINE
  8
0
 62
     0
 10
212.432
 20
64.3777
 30
0.0
 11
210.449
 21
69.8281
 31
0.0
  0
LINE
  8
0
 62
     0
 10
210.449
 20
69.8281
 30
0.0
 11
211.201
 21
70.1008
 31
0.0
  0
LINE
  8
0
 62
     0
 10
211.201
 20
70.1008
 30
0.0
 11
210.14
 21
73.0141
 31
0.0
  0
LINE
  8
0
 62
     0
 10
210.14
 20
73.0141
 30
0.0
 11
209.387
 21
72.7396
 31
0.0
  0
LINE
  8
0
 62
     0
 10
209.387
 20
72.7396
 30
0.0
 11
209.046
 21
73.6808
 31
0.0
  0
LINE
  8
0
 62
     0
 10
209.046
 20
73.6808
 30
0.0
 11
195.891
 21
68.8922
 31
0.0
  0
LINE
  8
0
 62
     0
 10
213.791
 20
75.4077
 30
0.0
 11
214.133
 21
74.4679
 31
0.0
  0
LINE
  8
0
 62
     0
 10
214.133
 20
74.4679
 30
0.0
 11
213.381
 21
74.1948
 31
0.0
  0
LINE
  8
0
 62
     0
 10
213.381
 20
74.1948
 30
0.0
 11
214.442
 21
71.2819
 31
0.0
  0
LINE
  8
0
 62
     0
 10
214.442
 20
71.2819
 30
0.0
 11
215.193
 21
71.5546
 31
0.0
  0
LINE
  8
0
 62
     0
 10
215.193
 20
71.5546
 30
0.0
 11
217.177
 21
66.1046
 31
0.0
  0
LINE
  8
0
 62
     0
 10
217.177
 20
66.1046
 30
0.0
 11
216.425
 21
65.8315
 31
0.0
  0
LINE
  8
0
 62
     0
 10
216.425
 20
65.8315
 30
0.0
 11
217.486
 21
62.9186
 31
0.0
  0
LINE
  8
0
 62
     0
 10
217.486
 20
62.9186
 30
0.0
 11
218.237
 21
63.1913
 31
0.0
  0
LINE
  8
0
 62
     0
 10
218.237
 20
63.1913
 30
0.0
 11
218.579
 21
62.2529
 31
0.0
  0
LINE
  8
0
 62
     0
 10
218.579
 20
62.2529
 30
0.0
 11
231.735
 21
67.0401
 31
0.0
  0
LINE
  8
0
 62
     0
 10
231.735
 20
67.0401
 30
0.0
 11
231.393
 21
67.9799
 31
0.0
  0
LINE
  8
0
 62
     0
 10
231.393
 20
67.9799
 30
0.0
 11
232.146
 21
68.253
 31
0.0
  0
LINE
  8
0
 62
     0
 10
232.146
 20
68.253
 30
0.0
 11
231.085
 21
71.1659
 31
0.0
  0
LINE
  8
0
 62
     0
 10
231.085
 20
71.1659
 30
0.0
 11
230.334
 21
70.8932
 31
0.0
  0
LINE
  8
0
 62
     0
 10
230.334
 20
70.8932
 30
0.0
 11
228.349
 21
76.3432
 31
0.0
  0
LINE
  8
0
 62
     0
 10
228.349
 20
76.3432
 30
0.0
 11
229.102
 21
76.6163
 31
0.0
  0
LINE
  8
0
 62
     0
 10
229.102
 20
76.6163
 30
0.0
 11
228.04
 21
79.5295
 31
0.0
  0
LINE
  8
0
 62
     0
 10
228.04
 20
79.5295
 30
0.0
 11
227.289
 21
79.2565
 31
0.0
  0
LINE
  8
0
 62
     0
 10
227.289
 20
79.2565
 30
0.0
 11
226.948
 21
80.1963
 31
0.0
  0
LINE
  8
0
 62
     0
 10
226.948
 20
80.1963
 30
0.0
 11
213.791
 21
75.4077
 31
0.0
  0
LINE
  8
0
 62
     0
 10
92.552
 20
82.2646
 30
0.0
 11
91.8009
 21
82.5391
 31
0.0
  0
LINE
  8
0
 62
     0
 10
91.8009
 20
82.5391
 30
0.0
 11
90.7397
 21
79.6258
 31
0.0
  0
LINE
  8
0
 62
     0
 10
90.7397
 20
79.6258
 30
0.0
 11
91.4922
 21
79.3531
 31
0.0
  0
LINE
  8
0
 62
     0
 10
91.4922
 20
79.3531
 30
0.0
 11
89.5092
 21
73.9027
 31
0.0
  0
LINE
  8
0
 62
     0
 10
89.5092
 20
73.9027
 30
0.0
 11
88.7568
 21
74.1758
 31
0.0
  0
LINE
  8
0
 62
     0
 10
88.7568
 20
74.1758
 30
0.0
 11
87.697
 21
71.2639
 31
0.0
  0
LINE
  8
0
 62
     0
 10
87.697
 20
71.2639
 30
0.0
 11
88.4481
 21
70.9895
 31
0.0
  0
LINE
  8
0
 62
     0
 10
88.4481
 20
70.9895
 30
0.0
 11
88.1048
 21
70.0497
 31
0.0
  0
LINE
  8
0
 62
     0
 10
88.1048
 20
70.0497
 30
0.0
 11
101.261
 21
65.2611
 31
0.0
  0
LINE
  8
0
 62
     0
 10
101.261
 20
65.2611
 30
0.0
 11
101.604
 21
66.2009
 31
0.0
  0
LINE
  8
0
 62
     0
 10
101.604
 20
66.2009
 30
0.0
 11
102.355
 21
65.9268
 31
0.0
  0
LINE
  8
0
 62
     0
 10
102.355
 20
65.9268
 30
0.0
 11
103.415
 21
68.84
 31
0.0
  0
LINE
  8
0
 62
     0
 10
103.415
 20
68.84
 30
0.0
 11
102.664
 21
69.1141
 31
0.0
  0
LINE
  8
0
 62
     0
 10
102.664
 20
69.1141
 30
0.0
 11
104.647
 21
74.5642
 31
0.0
  0
LINE
  8
0
 62
     0
 10
104.647
 20
74.5642
 30
0.0
 11
105.399
 21
74.2901
 31
0.0
  0
LINE
  8
0
 62
     0
 10
105.399
 20
74.2901
 30
0.0
 11
106.459
 21
77.2033
 31
0.0
  0
LINE
  8
0
 62
     0
 10
106.459
 20
77.2033
 30
0.0
 11
105.708
 21
77.4774
 31
0.0
  0
LINE
  8
0
 62
     0
 10
105.708
 20
77.4774
 30
0.0
 11
106.05
 21
78.4172
 31
0.0
  0
LINE
  8
0
 62
     0
 10
106.05
 20
78.4172
 30
0.0
 11
92.8949
 21
83.2058
 31
0.0
  0
LINE
  8
0
 62
     0
 10
92.8949
 20
83.2058
 30
0.0
 11
92.552
 21
82.2646
 31
0.0
  0
LINE
  8
0
 62
     0
 10
334.47
 20
100.858
 30
0.0
 11
334.47
 21
99.8569
 31
0.0
  0
LINE
  8
0
 62
     0
 10
334.47
 20
99.8569
 30
0.0
 11
333.67
 21
99.8569
 31
0.0
  0
LINE
  8
0
 62
     0
 10
333.67
 20
99.8569
 30
0.0
 11
333.67
 21
96.7574
 31
0.0
  0
LINE
  8
0
 62
     0
 10
333.67
 20
96.7574
 30
0.0
 11
334.47
 21
96.7574
 31
0.0
  0
LINE
  8
0
 62
     0
 10
334.47
 20
96.7574
 30
0.0
 11
334.47
 21
90.9588
 31
0.0
  0
LINE
  8
0
 62
     0
 10
334.47
 20
90.9588
 30
0.0
 11
333.67
 21
90.9588
 31
0.0
  0
LINE
  8
0
 62
     0
 10
333.67
 20
90.9588
 30
0.0
 11
333.67
 21
87.8568
 31
0.0
  0
LINE
  8
0
 62
     0
 10
333.67
 20
87.8568
 30
0.0
 11
334.47
 21
87.8568
 31
0.0
  0
LINE
  8
0
 62
     0
 10
334.47
 20
87.8568
 30
0.0
 11
334.47
 21
86.8578
 31
0.0
  0
LINE
  8
0
 62
     0
 10
334.47
 20
86.8578
 30
0.0
 11
348.47
 21
86.8578
 31
0.0
  0
LINE
  8
0
 62
     0
 10
348.47
 20
86.8578
 30
0.0
 11
348.47
 21
87.8568
 31
0.0
  0
LINE
  8
0
 62
     0
 10
348.47
 20
87.8568
 30
0.0
 11
349.271
 21
87.8568
 31
0.0
  0
LINE
  8
0
 62
     0
 10
349.271
 20
87.8568
 30
0.0
 11
349.271
 21
90.9588
 31
0.0
  0
LINE
  8
0
 62
     0
 10
349.271
 20
90.9588
 30
0.0
 11
348.47
 21
90.9588
 31
0.0
  0
LINE
  8
0
 62
     0
 10
348.47
 20
90.9588
 30
0.0
 11
348.47
 21
96.7574
 31
0.0
  0
LINE
  8
0
 62
     0
 10
348.47
 20
96.7574
 30
0.0
 11
349.271
 21
96.7574
 31
0.0
  0
LINE
  8
0
 62
     0
 10
349.271
 20
96.7574
 30
0.0
 11
349.271
 21
99.8569
 31
0.0
  0
LINE
  8
0
 62
     0
 10
349.271
 20
99.8569
 30
0.0
 11
348.47
 21
99.8569
 31
0.0
  0
LINE
  8
0
 62
     0
 10
348.47
 20
99.8569
 30
0.0
 11
348.47
 21
100.858
 31
0.0
  0
LINE
  8
0
 62
     0
 10
348.47
 20
100.858
 30
0.0
 11
334.47
 21
100.858
 31
0.0
  0
LINE
  8
0
 62
     0
 10
315.42
 20
100.858
 30
0.0
 11
315.42
 21
99.8569
 31
0.0
  0
LINE
  8
0
 62
     0
 10
315.42
 20
99.8569
 30
0.0
 11
314.62
 21
99.8569
 31
0.0
  0
LINE
  8
0
 62
     0
 10
314.62
 20
99.8569
 30
0.0
 11
314.62
 21
96.7574
 31
0.0
  0
LINE
  8
0
 62
     0
 10
314.62
 20
96.7574
 30
0.0
 11
315.42
 21
96.7574
 31
0.0
  0
LINE
  8
0
 62
     0
 10
315.42
 20
96.7574
 30
0.0
 11
315.42
 21
90.9588
 31
0.0
  0
LINE
  8
0
 62
     0
 10
315.42
 20
90.9588
 30
0.0
 11
314.62
 21
90.9588
 31
0.0
  0
LINE
  8
0
 62
     0
 10
314.62
 20
90.9588
 30
0.0
 11
314.62
 21
87.8568
 31
0.0
  0
LINE
  8
0
 62
     0
 10
314.62
 20
87.8568
 30
0.0
 11
315.42
 21
87.8568
 31
0.0
  0
LINE
  8
0
 62
     0
 10
315.42
 20
87.8568
 30
0.0
 11
315.42
 21
86.8578
 31
0.0
  0
LINE
  8
0
 62
     0
 10
315.42
 20
86.8578
 30
0.0
 11
329.42
 21
86.8578
 31
0.0
  0
LINE
  8
0
 62
     0
 10
329.42
 20
86.8578
 30
0.0
 11
329.42
 21
87.8568
 31
0.0
  0
LINE
  8
0
 62
     0
 10
329.42
 20
87.8568
 30
0.0
 11
330.221
 21
87.8568
 31
0.0
  0
LINE
  8
0
 62
     0
 10
330.221
 20
87.8568
 30
0.0
 11
330.221
 21
90.9588
 31
0.0
  0
LINE
  8
0
 62
     0
 10
330.221
 20
90.9588
 30
0.0
 11
329.42
 21
90.9588
 31
0.0
  0
LINE
  8
0
 62
     0
 10
329.42
 20
90.9588
 30
0.0
 11
329.42
 21
96.7574
 31
0.0
  0
LINE
  8
0
 62
     0
 10
329.42
 20
96.7574
 30
0.0
 11
330.221
 21
96.7574
 31
0.0
  0
LINE
  8
0
 62
     0
 10
330.221
 20
96.7574
 30
0.0
 11
330.221
 21
99.8569
 31
0.0
  0
LINE
  8
0
 62
     0
 10
330.221
 20
99.8569
 30
0.0
 11
329.42
 21
99.8569
 31
0.0
  0
LINE
  8
0
 62
     0
 10
329.42
 20
99.8569
 30
0.0
 11
329.42
 21
100.858
 31
0.0
  0
LINE
  8
0
 62
     0
 10
329.42
 20
100.858
 30
0.0
 11
315.42
 21
100.858
 31
0.0
  0
LINE
  8
0
 62
     0
 10
296.37
 20
100.858
 30
0.0
 11
296.37
 21
99.8569
 31
0.0
  0
LINE
  8
0
 62
     0
 10
296.37
 20
99.8569
 30
0.0
 11
295.57
 21
99.8569
 31
0.0
  0
LINE
  8
0
 62
     0
 10
295.57
 20
99.8569
 30
0.0
 11
295.57
 21
96.7574
 31
0.0
  0
LINE
  8
0
 62
     0
 10
295.57
 20
96.7574
 30
0.0
 11
296.37
 21
96.7574
 31
0.0
  0
LINE
  8
0
 62
     0
 10
296.37
 20
96.7574
 30
0.0
 11
296.37
 21
90.9588
 31
0.0
  0
LINE
  8
0
 62
     0
 10
296.37
 20
90.9588
 30
0.0
 11
295.57
 21
90.9588
 31
0.0
  0
LINE
  8
0
 62
     0
 10
295.57
 20
90.9588
 30
0.0
 11
295.57
 21
87.8568
 31
0.0
  0
LINE
  8
0
 62
     0
 10
295.57
 20
87.8568
 30
0.0
 11
296.37
 21
87.8568
 31
0.0
  0
LINE
  8
0
 62
     0
 10
296.37
 20
87.8568
 30
0.0
 11
296.37
 21
86.8578
 31
0.0
  0
LINE
  8
0
 62
     0
 10
296.37
 20
86.8578
 30
0.0
 11
310.37
 21
86.8578
 31
0.0
  0
LINE
  8
0
 62
     0
 10
310.37
 20
86.8578
 30
0.0
 11
310.37
 21
87.8568
 31
0.0
  0
LINE
  8
0
 62
     0
 10
310.37
 20
87.8568
 30
0.0
 11
311.171
 21
87.8568
 31
0.0
  0
LINE
  8
0
 62
     0
 10
311.171
 20
87.8568
 30
0.0
 11
311.171
 21
90.9588
 31
0.0
  0
LINE
  8
0
 62
     0
 10
311.171
 20
90.9588
 30
0.0
 11
310.37
 21
90.9588
 31
0.0
  0
LINE
  8
0
 62
     0
 10
310.37
 20
90.9588
 30
0.0
 11
310.37
 21
96.7574
 31
0.0
  0
LINE
  8
0
 62
     0
 10
310.37
 20
96.7574
 30
0.0
 11
311.171
 21
96.7574
 31
0.0
  0
LINE
  8
0
 62
     0
 10
311.171
 20
96.7574
 30
0.0
 11
311.171
 21
99.8569
 31
0.0
  0
LINE
  8
0
 62
     0
 10
311.171
 20
99.8569
 30
0.0
 11
310.37
 21
99.8569
 31
0.0
  0
LINE
  8
0
 62
     0
 10
310.37
 20
99.8569
 30
0.0
 11
310.37
 21
100.858
 31
0.0
  0
LINE
  8
0
 62
     0
 10
310.37
 20
100.858
 30
0.0
 11
296.37
 21
100.858
 31
0.0
  0
LINE
  8
0
 62
     0
 10
277.32
 20
100.858
 30
0.0
 11
277.32
 21
99.8569
 31
0.0
  0
LINE
  8
0
 62
     0
 10
277.32
 20
99.8569
 30
0.0
 11
276.52
 21
99.8569
 31
0.0
  0
LINE
  8
0
 62
     0
 10
276.52
 20
99.8569
 30
0.0
 11
276.52
 21
96.7574
 31
0.0
  0
LINE
  8
0
 62
     0
 10
276.52
 20
96.7574
 30
0.0
 11
277.32
 21
96.7574
 31
0.0
  0
LINE
  8
0
 62
     0
 10
277.32
 20
96.7574
 30
0.0
 11
277.32
 21
90.9588
 31
0.0
  0
LINE
  8
0
 62
     0
 10
277.32
 20
90.9588
 30
0.0
 11
276.52
 21
90.9588
 31
0.0
  0
LINE
  8
0
 62
     0
 10
276.52
 20
90.9588
 30
0.0
 11
276.52
 21
87.8568
 31
0.0
  0
LINE
  8
0
 62
     0
 10
276.52
 20
87.8568
 30
0.0
 11
277.32
 21
87.8568
 31
0.0
  0
LINE
  8
0
 62
     0
 10
277.32
 20
87.8568
 30
0.0
 11
277.32
 21
86.8578
 31
0.0
  0
LINE
  8
0
 62
     0
 10
277.32
 20
86.8578
 30
0.0
 11
291.32
 21
86.8578
 31
0.0
  0
LINE
  8
0
 62
     0
 10
291.32
 20
86.8578
 30
0.0
 11
291.32
 21
87.8568
 31
0.0
  0
LINE
  8
0
 62
     0
 10
291.32
 20
87.8568
 30
0.0
 11
292.121
 21
87.8568
 31
0.0
  0
LINE
  8
0
 62
     0
 10
292.121
 20
87.8568
 30
0.0
 11
292.121
 21
90.9588
 31
0.0
  0
LINE
  8
0
 62
     0
 10
292.121
 20
90.9588
 30
0.0
 11
291.32
 21
90.9588
 31
0.0
  0
LINE
  8
0
 62
     0
 10
291.32
 20
90.9588
 30
0.0
 11
291.32
 21
96.7574
 31
0.0
  0
LINE
  8
0
 62
     0
 10
291.32
 20
96.7574
 30
0.0
 11
292.121
 21
96.7574
 31
0.0
  0
LINE
  8
0
 62
     0
 10
292.121
 20
96.7574
 30
0.0
 11
292.121
 21
99.8569
 31
0.0
  0
LINE
  8
0
 62
     0
 10
292.121
 20
99.8569
 30
0.0
 11
291.32
 21
99.8569
 31
0.0
  0
LINE
  8
0
 62
     0
 10
291.32
 20
99.8569
 30
0.0
 11
291.32
 21
100.858
 31
0.0
  0
LINE
  8
0
 62
     0
 10
291.32
 20
100.858
 30
0.0
 11
277.32
 21
100.858
 31
0.0
  0
LINE
  8
0
 62
     0
 10
29.6706
 20
100.858
 30
0.0
 11
29.6706
 21
99.8569
 31
0.0
  0
LINE
  8
0
 62
     0
 10
29.6706
 20
99.8569
 30
0.0
 11
28.8699
 21
99.8569
 31
0.0
  0
LINE
  8
0
 62
     0
 10
28.8699
 20
99.8569
 30
0.0
 11
28.8699
 21
96.7574
 31
0.0
  0
LINE
  8
0
 62
     0
 10
28.8699
 20
96.7574
 30
0.0
 11
29.6706
 21
96.7574
 31
0.0
  0
LINE
  8
0
 62
     0
 10
29.6706
 20
96.7574
 30
0.0
 11
29.6706
 21
90.9588
 31
0.0
  0
LINE
  8
0
 62
     0
 10
29.6706
 20
90.9588
 30
0.0
 11
28.8699
 21
90.9588
 31
0.0
  0
LINE
  8
0
 62
     0
 10
28.8699
 20
90.9588
 30
0.0
 11
28.8699
 21
87.8568
 31
0.0
  0
LINE
  8
0
 62
     0
 10
28.8699
 20
87.8568
 30
0.0
 11
29.6706
 21
87.8568
 31
0.0
  0
LINE
  8
0
 62
     0
 10
29.6706
 20
87.8568
 30
0.0
 11
29.6706
 21
86.8578
 31
0.0
  0
LINE
  8
0
 62
     0
 10
29.6706
 20
86.8578
 30
0.0
 11
43.67
 21
86.8578
 31
0.0
  0
LINE
  8
0
 62
     0
 10
43.67
 20
86.8578
 30
0.0
 11
43.67
 21
87.8568
 31
0.0
  0
LINE
  8
0
 62
     0
 10
43.67
 20
87.8568
 30
0.0
 11
44.4708
 21
87.8568
 31
0.0
  0
LINE
  8
0
 62
     0
 10
44.4708
 20
87.8568
 30
0.0
 11
44.4708
 21
90.9588
 31
0.0
  0
LINE
  8
0
 62
     0
 10
44.4708
 20
90.9588
 30
0.0
 11
43.67
 21
90.9588
 31
0.0
  0
LINE
  8
0
 62
     0
 10
43.67
 20
90.9588
 30
0.0
 11
43.67
 21
96.7574
 31
0.0
  0
LINE
  8
0
 62
     0
 10
43.67
 20
96.7574
 30
0.0
 11
44.4708
 21
96.7574
 31
0.0
  0
LINE
  8
0
 62
     0
 10
44.4708
 20
96.7574
 30
0.0
 11
44.4708
 21
99.8569
 31
0.0
  0
LINE
  8
0
 62
     0
 10
44.4708
 20
99.8569
 30
0.0
 11
43.67
 21
99.8569
 31
0.0
  0
LINE
  8
0
 62
     0
 10
43.67
 20
99.8569
 30
0.0
 11
43.67
 21
100.858
 31
0.0
  0
LINE
  8
0
 62
     0
 10
43.67
 20
100.858
 30
0.0
 11
29.6706
 21
100.858
 31
0.0
  0
LINE
  8
0
 62
     0
 10
10.6192
 20
100.858
 30
0.0
 11
10.6192
 21
99.8569
 31
0.0
  0
LINE
  8
0
 62
     0
 10
10.6192
 20
99.8569
 30
0.0
 11
9.81989
 21
99.8569
 31
0.0
  0
LINE
  8
0
 62
     0
 10
9.81989
 20
99.8569
 30
0.0
 11
9.81989
 21
96.7574
 31
0.0
  0
LINE
  8
0
 62
     0
 10
9.81989
 20
96.7574
 30
0.0
 11
10.6192
 21
96.7574
 31
0.0
  0
LINE
  8
0
 62
     0
 10
10.6192
 20
96.7574
 30
0.0
 11
10.6192
 21
90.9588
 31
0.0
  0
LINE
  8
0
 62
     0
 10
10.6192
 20
90.9588
 30
0.0
 11
9.81989
 21
90.9588
 31
0.0
  0
LINE
  8
0
 62
     0
 10
9.81989
 20
90.9588
 30
0.0
 11
9.81989
 21
87.8568
 31
0.0
  0
LINE
  8
0
 62
     0
 10
9.81989
 20
87.8568
 30
0.0
 11
10.6192
 21
87.8568
 31
0.0
  0
LINE
  8
0
 62
     0
 10
10.6192
 20
87.8568
 30
0.0
 11
10.6192
 21
86.8578
 31
0.0
  0
LINE
  8
0
 62
     0
 10
10.6192
 20
86.8578
 30
0.0
 11
24.62
 21
86.8578
 31
0.0
  0
LINE
  8
0
 62
     0
 10
24.62
 20
86.8578
 30
0.0
 11
24.62
 21
87.8568
 31
0.0
  0
LINE
  8
0
 62
     0
 10
24.62
 20
87.8568
 30
0.0
 11
25.4207
 21
87.8568
 31
0.0
  0
LINE
  8
0
 62
     0
 10
25.4207
 20
87.8568
 30
0.0
 11
25.4207
 21
90.9588
 31
0.0
  0
LINE
  8
0
 62
     0
 10
25.4207
 20
90.9588
 30
0.0
 11
24.62
 21
90.9588
 31
0.0
  0
LINE
  8
0
 62
     0
 10
24.62
 20
90.9588
 30
0.0
 11
24.62
 21
96.7574
 31
0.0
  0
LINE
  8
0
 62
     0
 10
24.62
 20
96.7574
 30
0.0
 11
25.4207
 21
96.7574
 31
0.0
  0
LINE
  8
0
 62
     0
 10
25.4207
 20
96.7574
 30
0.0
 11
25.4207
 21
99.8569
 31
0.0
  0
LINE
  8
0
 62
     0
 10
25.4207
 20
99.8569
 30
0.0
 11
24.62
 21
99.8569
 31
0.0
  0
LINE
  8
0
 62
     0
 10
24.62
 20
99.8569
 30
0.0
 11
24.62
 21
100.858
 31
0.0
  0
LINE
  8
0
 62
     0
 10
24.62
 20
100.858
 30
0.0
 11
10.6192
 21
100.858
 31
0.0
  0
ENDSEC
  0
EOF
