  0
SECTION
  2
HEADER
  9
$ACADVER
  1
AC1009
  9
$EXTMIN
 10
0.0
 20
0.0
 30
0.0
  9
$EXTMAX
 10
1000.0
 20
1000.0
 30
0.0
  9
$FILLMODE
 70
 0
  9
$SPLFRAME
 70
 1
  0
ENDSEC
  0
SECTION
  2
TABLES
  0
TABLE
  2
LAYER
 70
1
  0
LAYER
  2
0
 70
     0
 62
     7
  6
CONTINUOUS
  0
ENDTAB
  0
ENDSEC
  0
SECTION
  2
ENTITIES
  0
LINE
  8
0
 62
     0
 10
357.995
 20
115.616
 30
0.0
 11
358.39
 21
115.601
 31
0.0
  0
LINE
  8
0
 62
     0
 10
358.39
 20
115.601
 30
0.0
 11
358.779
 21
115.554
 31
0.0
  0
LINE
  8
0
 62
     0
 10
358.779
 20
115.554
 30
0.0
 11
359.163
 21
115.478
 31
0.0
  0
LINE
  8
0
 62
     0
 10
359.163
 20
115.478
 30
0.0
 11
359.541
 21
115.372
 31
0.0
  0
LINE
  8
0
 62
     0
 10
359.541
 20
115.372
 30
0.0
 11
359.907
 21
115.236
 31
0.0
  0
LINE
  8
0
 62
     0
 10
359.907
 20
115.236
 30
0.0
 11
360.267
 21
115.072
 31
0.0
  0
LINE
  8
0
 62
     0
 10
360.267
 20
115.072
 30
0.0
 11
360.609
 21
114.88
 31
0.0
  0
LINE
  8
0
 62
     0
 10
360.609
 20
114.88
 30
0.0
 11
360.934
 21
114.661
 31
0.0
  0
LINE
  8
0
 62
     0
 10
360.934
 20
114.661
 30
0.0
 11
361.244
 21
114.419
 31
0.0
  0
LINE
  8
0
 62
     0
 10
361.244
 20
114.419
 30
0.0
 11
361.53
 21
114.151
 31
0.0
  0
LINE
  8
0
 62
     0
 10
361.53
 20
114.151
 30
0.0
 11
361.798
 21
113.863
 31
0.0
  0
LINE
  8
0
 62
     0
 10
361.798
 20
113.863
 30
0.0
 11
362.042
 21
113.555
 31
0.0
  0
LINE
  8
0
 62
     0
 10
362.042
 20
113.555
 30
0.0
 11
362.26
 21
113.229
 31
0.0
  0
LINE
  8
0
 62
     0
 10
362.26
 20
113.229
 30
0.0
 11
362.451
 21
112.886
 31
0.0
  0
LINE
  8
0
 62
     0
 10
362.451
 20
112.886
 30
0.0
 11
362.617
 21
112.529
 31
0.0
  0
LINE
  8
0
 62
     0
 10
362.617
 20
112.529
 30
0.0
 11
362.751
 21
112.161
 31
0.0
  0
LINE
  8
0
 62
     0
 10
362.751
 20
112.161
 30
0.0
 11
362.857
 21
111.784
 31
0.0
  0
LINE
  8
0
 62
     0
 10
362.857
 20
111.784
 30
0.0
 11
362.934
 21
111.399
 31
0.0
  0
LINE
  8
0
 62
     0
 10
362.934
 20
111.399
 30
0.0
 11
362.98
 21
111.009
 31
0.0
  0
LINE
  8
0
 62
     0
 10
362.98
 20
111.009
 30
0.0
 11
362.994
 21
110.615
 31
0.0
  0
LINE
  8
0
 62
     0
 10
362.994
 20
110.615
 30
0.0
 11
362.994
 21
5.36607
 31
0.0
  0
LINE
  8
0
 62
     0
 10
362.994
 20
5.36607
 30
0.0
 11
362.98
 21
4.97198
 31
0.0
  0
LINE
  8
0
 62
     0
 10
362.98
 20
4.97198
 30
0.0
 11
362.934
 21
4.58198
 31
0.0
  0
LINE
  8
0
 62
     0
 10
362.934
 20
4.58198
 30
0.0
 11
362.857
 21
4.19749
 31
0.0
  0
LINE
  8
0
 62
     0
 10
362.857
 20
4.19749
 30
0.0
 11
362.751
 21
3.81991
 31
0.0
  0
LINE
  8
0
 62
     0
 10
362.751
 20
3.81991
 30
0.0
 11
362.617
 21
3.45199
 31
0.0
  0
LINE
  8
0
 62
     0
 10
362.617
 20
3.45199
 30
0.0
 11
362.451
 21
3.09507
 31
0.0
  0
LINE
  8
0
 62
     0
 10
362.451
 20
3.09507
 30
0.0
 11
362.26
 21
2.75194
 31
0.0
  0
LINE
  8
0
 62
     0
 10
362.26
 20
2.75194
 30
0.0
 11
362.042
 21
2.42673
 31
0.0
  0
LINE
  8
0
 62
     0
 10
362.042
 20
2.42673
 30
0.0
 11
361.798
 21
2.11805
 31
0.0
  0
LINE
  8
0
 62
     0
 10
361.798
 20
2.11805
 30
0.0
 11
361.53
 21
1.83003
 31
0.0
  0
LINE
  8
0
 62
     0
 10
361.53
 20
1.83003
 30
0.0
 11
361.244
 21
1.5627
 31
0.0
  0
LINE
  8
0
 62
     0
 10
361.244
 20
1.5627
 30
0.0
 11
360.934
 21
1.32016
 31
0.0
  0
LINE
  8
0
 62
     0
 10
360.934
 20
1.32016
 30
0.0
 11
360.609
 21
1.10105
 31
0.0
  0
LINE
  8
0
 62
     0
 10
360.609
 20
1.10105
 30
0.0
 11
360.267
 21
0.909507
 31
0.0
  0
LINE
  8
0
 62
     0
 10
360.267
 20
0.909507
 30
0.0
 11
359.907
 21
0.745518
 31
0.0
  0
LINE
  8
0
 62
     0
 10
359.907
 20
0.745518
 30
0.0
 11
359.541
 21
0.609092
 31
0.0
  0
LINE
  8
0
 62
     0
 10
359.541
 20
0.609092
 30
0.0
 11
359.163
 21
0.502984
 31
0.0
  0
LINE
  8
0
 62
     0
 10
359.163
 20
0.502984
 30
0.0
 11
358.779
 21
0.427193
 31
0.0
  0
LINE
  8
0
 62
     0
 10
358.779
 20
0.427193
 30
0.0
 11
358.39
 21
0.38034
 31
0.0
  0
LINE
  8
0
 62
     0
 10
358.39
 20
0.38034
 30
0.0
 11
357.995
 21
0.365181
 31
0.0
  0
LINE
  8
0
 62
     0
 10
357.995
 20
0.365181
 30
0.0
 11
5.09598
 21
0.365181
 31
0.0
  0
LINE
  8
0
 62
     0
 10
5.09598
 20
0.365181
 30
0.0
 11
4.70186
 21
0.38034
 31
0.0
  0
LINE
  8
0
 62
     0
 10
4.70186
 20
0.38034
 30
0.0
 11
4.3119
 21
0.427193
 31
0.0
  0
LINE
  8
0
 62
     0
 10
4.3119
 20
0.427193
 30
0.0
 11
3.9274
 21
0.502984
 31
0.0
  0
LINE
  8
0
 62
     0
 10
3.9274
 20
0.502984
 30
0.0
 11
3.54983
 21
0.609092
 31
0.0
  0
LINE
  8
0
 62
     0
 10
3.54983
 20
0.609092
 30
0.0
 11
3.18189
 21
0.745518
 31
0.0
  0
LINE
  8
0
 62
     0
 10
3.18189
 20
0.745518
 30
0.0
 11
2.82498
 21
0.909507
 31
0.0
  0
LINE
  8
0
 62
     0
 10
2.82498
 20
0.909507
 30
0.0
 11
2.48185
 21
1.10105
 31
0.0
  0
LINE
  8
0
 62
     0
 10
2.48185
 20
1.10105
 30
0.0
 11
2.15663
 21
1.32016
 31
0.0
  0
LINE
  8
0
 62
     0
 10
2.15663
 20
1.32016
 30
0.0
 11
1.84795
 21
1.5627
 31
0.0
  0
LINE
  8
0
 62
     0
 10
1.84795
 20
1.5627
 30
0.0
 11
1.55994
 21
1.83003
 31
0.0
  0
LINE
  8
0
 62
     0
 10
1.55994
 20
1.83003
 30
0.0
 11
1.2926
 21
2.11805
 31
0.0
  0
LINE
  8
0
 62
     0
 10
1.2926
 20
2.11805
 30
0.0
 11
1.05006
 21
2.42673
 31
0.0
  0
LINE
  8
0
 62
     0
 10
1.05006
 20
2.42673
 30
0.0
 11
0.830957
 21
2.75194
 31
0.0
  0
LINE
  8
0
 62
     0
 10
0.830957
 20
2.75194
 30
0.0
 11
0.63941
 21
3.09507
 31
0.0
  0
LINE
  8
0
 62
     0
 10
0.63941
 20
3.09507
 30
0.0
 11
0.475424
 21
3.45199
 31
0.0
  0
LINE
  8
0
 62
     0
 10
0.475424
 20
3.45199
 30
0.0
 11
0.338998
 21
3.81991
 31
0.0
  0
LINE
  8
0
 62
     0
 10
0.338998
 20
3.81991
 30
0.0
 11
0.232888
 21
4.19749
 31
0.0
  0
LINE
  8
0
 62
     0
 10
0.232888
 20
4.19749
 30
0.0
 11
0.157097
 21
4.58198
 31
0.0
  0
LINE
  8
0
 62
     0
 10
0.157097
 20
4.58198
 30
0.0
 11
0.110243
 21
4.97198
 31
0.0
  0
LINE
  8
0
 62
     0
 10
0.110243
 20
4.97198
 30
0.0
 11
0.0950846
 21
5.36607
 31
0.0
  0
LINE
  8
0
 62
     0
 10
0.0950846
 20
5.36607
 30
0.0
 11
0.0950846
 21
110.615
 31
0.0
  0
LINE
  8
0
 62
     0
 10
0.0950846
 20
110.615
 30
0.0
 11
0.110243
 21
111.009
 31
0.0
  0
LINE
  8
0
 62
     0
 10
0.110243
 20
111.009
 30
0.0
 11
0.157097
 21
111.399
 31
0.0
  0
LINE
  8
0
 62
     0
 10
0.157097
 20
111.399
 30
0.0
 11
0.232888
 21
111.784
 31
0.0
  0
LINE
  8
0
 62
     0
 10
0.232888
 20
111.784
 30
0.0
 11
0.338998
 21
112.161
 31
0.0
  0
LINE
  8
0
 62
     0
 10
0.338998
 20
112.161
 30
0.0
 11
0.475424
 21
112.529
 31
0.0
  0
LINE
  8
0
 62
     0
 10
0.475424
 20
112.529
 30
0.0
 11
0.63941
 21
112.886
 31
0.0
  0
LINE
  8
0
 62
     0
 10
0.63941
 20
112.886
 30
0.0
 11
0.830957
 21
113.229
 31
0.0
  0
LINE
  8
0
 62
     0
 10
0.830957
 20
113.229
 30
0.0
 11
1.05006
 21
113.555
 31
0.0
  0
LINE
  8
0
 62
     0
 10
1.05006
 20
113.555
 30
0.0
 11
1.2926
 21
113.863
 31
0.0
  0
LINE
  8
0
 62
     0
 10
1.2926
 20
113.863
 30
0.0
 11
1.55994
 21
114.151
 31
0.0
  0
LINE
  8
0
 62
     0
 10
1.55994
 20
114.151
 30
0.0
 11
1.84795
 21
114.419
 31
0.0
  0
LINE
  8
0
 62
     0
 10
1.84795
 20
114.419
 30
0.0
 11
2.15663
 21
114.661
 31
0.0
  0
LINE
  8
0
 62
     0
 10
2.15663
 20
114.661
 30
0.0
 11
2.48185
 21
114.88
 31
0.0
  0
LINE
  8
0
 62
     0
 10
2.48185
 20
114.88
 30
0.0
 11
2.82498
 21
115.072
 31
0.0
  0
LINE
  8
0
 62
     0
 10
2.82498
 20
115.072
 30
0.0
 11
3.18189
 21
115.236
 31
0.0
  0
LINE
  8
0
 62
     0
 10
3.18189
 20
115.236
 30
0.0
 11
3.54983
 21
115.372
 31
0.0
  0
LINE
  8
0
 62
     0
 10
3.54983
 20
115.372
 30
0.0
 11
3.9274
 21
115.478
 31
0.0
  0
LINE
  8
0
 62
     0
 10
3.9274
 20
115.478
 30
0.0
 11
4.3119
 21
115.554
 31
0.0
  0
LINE
  8
0
 62
     0
 10
4.3119
 20
115.554
 30
0.0
 11
4.70186
 21
115.601
 31
0.0
  0
LINE
  8
0
 62
     0
 10
4.70186
 20
115.601
 30
0.0
 11
5.09598
 21
115.616
 31
0.0
  0
LINE
  8
0
 62
     0
 10
5.09598
 20
115.616
 30
0.0
 11
357.995
 21
115.616
 31
0.0
  0
LINE
  8
0
 62
     0
 10
4.55443
 20
7.02938
 30
0.0
 11
4.06658
 21
6.77997
 31
0.0
  0
LINE
  8
0
 62
     0
 10
4.06658
 20
6.77997
 30
0.0
 11
3.67937
 21
6.3941
 31
0.0
  0
LINE
  8
0
 62
     0
 10
3.67937
 20
6.3941
 30
0.0
 11
3.42994
 21
5.90628
 31
0.0
  0
LINE
  8
0
 62
     0
 10
3.42994
 20
5.90628
 30
0.0
 11
3.34588
 21
5.36607
 31
0.0
  0
LINE
  8
0
 62
     0
 10
3.34588
 20
5.36607
 30
0.0
 11
3.42994
 21
4.82452
 31
0.0
  0
LINE
  8
0
 62
     0
 10
3.42994
 20
4.82452
 30
0.0
 11
3.67937
 21
4.3367
 31
0.0
  0
LINE
  8
0
 62
     0
 10
3.67937
 20
4.3367
 30
0.0
 11
4.06658
 21
3.94945
 31
0.0
  0
LINE
  8
0
 62
     0
 10
4.06658
 20
3.94945
 30
0.0
 11
4.55443
 21
3.70004
 31
0.0
  0
LINE
  8
0
 62
     0
 10
4.55443
 20
3.70004
 30
0.0
 11
5.09598
 21
3.61597
 31
0.0
  0
LINE
  8
0
 62
     0
 10
5.09598
 20
3.61597
 30
0.0
 11
5.63619
 21
3.70004
 31
0.0
  0
LINE
  8
0
 62
     0
 10
5.63619
 20
3.70004
 30
0.0
 11
6.12401
 21
3.94945
 31
0.0
  0
LINE
  8
0
 62
     0
 10
6.12401
 20
3.94945
 30
0.0
 11
6.50984
 21
4.3367
 31
0.0
  0
LINE
  8
0
 62
     0
 10
6.50984
 20
4.3367
 30
0.0
 11
6.75929
 21
4.82452
 31
0.0
  0
LINE
  8
0
 62
     0
 10
6.75929
 20
4.82452
 30
0.0
 11
6.84611
 21
5.36607
 31
0.0
  0
LINE
  8
0
 62
     0
 10
6.84611
 20
5.36607
 30
0.0
 11
6.75929
 21
5.90628
 31
0.0
  0
LINE
  8
0
 62
     0
 10
6.75929
 20
5.90628
 30
0.0
 11
6.50984
 21
6.3941
 31
0.0
  0
LINE
  8
0
 62
     0
 10
6.50984
 20
6.3941
 30
0.0
 11
6.12401
 21
6.77997
 31
0.0
  0
LINE
  8
0
 62
     0
 10
6.12401
 20
6.77997
 30
0.0
 11
5.63619
 21
7.02938
 31
0.0
  0
LINE
  8
0
 62
     0
 10
5.63619
 20
7.02938
 30
0.0
 11
5.09598
 21
7.1162
 31
0.0
  0
LINE
  8
0
 62
     0
 10
5.09598
 20
7.1162
 30
0.0
 11
4.55443
 21
7.02938
 31
0.0
  0
LINE
  8
0
 62
     0
 10
92.7791
 20
7.02938
 30
0.0
 11
92.2913
 21
6.77997
 31
0.0
  0
LINE
  8
0
 62
     0
 10
92.2913
 20
6.77997
 30
0.0
 11
91.9043
 21
6.3941
 31
0.0
  0
LINE
  8
0
 62
     0
 10
91.9043
 20
6.3941
 30
0.0
 11
91.6562
 21
5.90628
 31
0.0
  0
LINE
  8
0
 62
     0
 10
91.6562
 20
5.90628
 30
0.0
 11
91.5705
 21
5.36607
 31
0.0
  0
LINE
  8
0
 62
     0
 10
91.5705
 20
5.36607
 30
0.0
 11
91.6562
 21
4.82452
 31
0.0
  0
LINE
  8
0
 62
     0
 10
91.6562
 20
4.82452
 30
0.0
 11
91.9043
 21
4.3367
 31
0.0
  0
LINE
  8
0
 62
     0
 10
91.9043
 20
4.3367
 30
0.0
 11
92.2913
 21
3.94945
 31
0.0
  0
LINE
  8
0
 62
     0
 10
92.2913
 20
3.94945
 30
0.0
 11
92.7791
 21
3.70004
 31
0.0
  0
LINE
  8
0
 62
     0
 10
92.7791
 20
3.70004
 30
0.0
 11
93.3207
 21
3.61597
 31
0.0
  0
LINE
  8
0
 62
     0
 10
93.3207
 20
3.61597
 30
0.0
 11
93.8611
 21
3.70004
 31
0.0
  0
LINE
  8
0
 62
     0
 10
93.8611
 20
3.70004
 30
0.0
 11
94.3487
 21
3.94945
 31
0.0
  0
LINE
  8
0
 62
     0
 10
94.3487
 20
3.94945
 30
0.0
 11
94.736
 21
4.3367
 31
0.0
  0
LINE
  8
0
 62
     0
 10
94.736
 20
4.3367
 30
0.0
 11
94.984
 21
4.82452
 31
0.0
  0
LINE
  8
0
 62
     0
 10
94.984
 20
4.82452
 30
0.0
 11
95.0708
 21
5.36607
 31
0.0
  0
LINE
  8
0
 62
     0
 10
95.0708
 20
5.36607
 30
0.0
 11
94.984
 21
5.90628
 31
0.0
  0
LINE
  8
0
 62
     0
 10
94.984
 20
5.90628
 30
0.0
 11
94.736
 21
6.3941
 31
0.0
  0
LINE
  8
0
 62
     0
 10
94.736
 20
6.3941
 30
0.0
 11
94.3487
 21
6.77997
 31
0.0
  0
LINE
  8
0
 62
     0
 10
94.3487
 20
6.77997
 30
0.0
 11
93.8611
 21
7.02938
 31
0.0
  0
LINE
  8
0
 62
     0
 10
93.8611
 20
7.02938
 30
0.0
 11
93.3207
 21
7.1162
 31
0.0
  0
LINE
  8
0
 62
     0
 10
93.3207
 20
7.1162
 30
0.0
 11
92.7791
 21
7.02938
 31
0.0
  0
LINE
  8
0
 62
     0
 10
181.004
 20
7.02938
 30
0.0
 11
180.516
 21
6.77997
 31
0.0
  0
LINE
  8
0
 62
     0
 10
180.516
 20
6.77997
 30
0.0
 11
180.129
 21
6.3941
 31
0.0
  0
LINE
  8
0
 62
     0
 10
180.129
 20
6.3941
 30
0.0
 11
179.881
 21
5.90628
 31
0.0
  0
LINE
  8
0
 62
     0
 10
179.881
 20
5.90628
 30
0.0
 11
179.795
 21
5.36607
 31
0.0
  0
LINE
  8
0
 62
     0
 10
179.795
 20
5.36607
 30
0.0
 11
179.881
 21
4.82452
 31
0.0
  0
LINE
  8
0
 62
     0
 10
179.881
 20
4.82452
 30
0.0
 11
180.129
 21
4.3367
 31
0.0
  0
LINE
  8
0
 62
     0
 10
180.129
 20
4.3367
 30
0.0
 11
180.516
 21
3.94945
 31
0.0
  0
LINE
  8
0
 62
     0
 10
180.516
 20
3.94945
 30
0.0
 11
181.004
 21
3.70004
 31
0.0
  0
LINE
  8
0
 62
     0
 10
181.004
 20
3.70004
 30
0.0
 11
181.545
 21
3.61597
 31
0.0
  0
LINE
  8
0
 62
     0
 10
181.545
 20
3.61597
 30
0.0
 11
182.087
 21
3.70004
 31
0.0
  0
LINE
  8
0
 62
     0
 10
182.087
 20
3.70004
 30
0.0
 11
182.575
 21
3.94945
 31
0.0
  0
LINE
  8
0
 62
     0
 10
182.575
 20
3.94945
 30
0.0
 11
182.962
 21
4.3367
 31
0.0
  0
LINE
  8
0
 62
     0
 10
182.962
 20
4.3367
 30
0.0
 11
183.209
 21
4.82452
 31
0.0
  0
LINE
  8
0
 62
     0
 10
183.209
 20
4.82452
 30
0.0
 11
183.296
 21
5.36607
 31
0.0
  0
LINE
  8
0
 62
     0
 10
183.296
 20
5.36607
 30
0.0
 11
183.209
 21
5.90628
 31
0.0
  0
LINE
  8
0
 62
     0
 10
183.209
 20
5.90628
 30
0.0
 11
182.962
 21
6.3941
 31
0.0
  0
LINE
  8
0
 62
     0
 10
182.962
 20
6.3941
 30
0.0
 11
182.575
 21
6.77997
 31
0.0
  0
LINE
  8
0
 62
     0
 10
182.575
 20
6.77997
 30
0.0
 11
182.087
 21
7.02938
 31
0.0
  0
LINE
  8
0
 62
     0
 10
182.087
 20
7.02938
 30
0.0
 11
181.545
 21
7.1162
 31
0.0
  0
LINE
  8
0
 62
     0
 10
181.545
 20
7.1162
 30
0.0
 11
181.004
 21
7.02938
 31
0.0
  0
LINE
  8
0
 62
     0
 10
269.23
 20
7.02938
 30
0.0
 11
268.742
 21
6.77997
 31
0.0
  0
LINE
  8
0
 62
     0
 10
268.742
 20
6.77997
 30
0.0
 11
268.355
 21
6.3941
 31
0.0
  0
LINE
  8
0
 62
     0
 10
268.355
 20
6.3941
 30
0.0
 11
268.107
 21
5.90628
 31
0.0
  0
LINE
  8
0
 62
     0
 10
268.107
 20
5.90628
 30
0.0
 11
268.02
 21
5.36607
 31
0.0
  0
LINE
  8
0
 62
     0
 10
268.02
 20
5.36607
 30
0.0
 11
268.107
 21
4.82452
 31
0.0
  0
LINE
  8
0
 62
     0
 10
268.107
 20
4.82452
 30
0.0
 11
268.355
 21
4.3367
 31
0.0
  0
LINE
  8
0
 62
     0
 10
268.355
 20
4.3367
 30
0.0
 11
268.742
 21
3.94945
 31
0.0
  0
LINE
  8
0
 62
     0
 10
268.742
 20
3.94945
 30
0.0
 11
269.23
 21
3.70004
 31
0.0
  0
LINE
  8
0
 62
     0
 10
269.23
 20
3.70004
 30
0.0
 11
269.77
 21
3.61597
 31
0.0
  0
LINE
  8
0
 62
     0
 10
269.77
 20
3.61597
 30
0.0
 11
270.312
 21
3.70004
 31
0.0
  0
LINE
  8
0
 62
     0
 10
270.312
 20
3.70004
 30
0.0
 11
270.8
 21
3.94945
 31
0.0
  0
LINE
  8
0
 62
     0
 10
270.8
 20
3.94945
 30
0.0
 11
271.187
 21
4.3367
 31
0.0
  0
LINE
  8
0
 62
     0
 10
271.187
 20
4.3367
 30
0.0
 11
271.435
 21
4.82452
 31
0.0
  0
LINE
  8
0
 62
     0
 10
271.435
 20
4.82452
 30
0.0
 11
271.52
 21
5.36607
 31
0.0
  0
LINE
  8
0
 62
     0
 10
271.52
 20
5.36607
 30
0.0
 11
271.435
 21
5.90628
 31
0.0
  0
LINE
  8
0
 62
     0
 10
271.435
 20
5.90628
 30
0.0
 11
271.187
 21
6.3941
 31
0.0
  0
LINE
  8
0
 62
     0
 10
271.187
 20
6.3941
 30
0.0
 11
270.8
 21
6.77997
 31
0.0
  0
LINE
  8
0
 62
     0
 10
270.8
 20
6.77997
 30
0.0
 11
270.312
 21
7.02938
 31
0.0
  0
LINE
  8
0
 62
     0
 10
270.312
 20
7.02938
 30
0.0
 11
269.77
 21
7.1162
 31
0.0
  0
LINE
  8
0
 62
     0
 10
269.77
 20
7.1162
 30
0.0
 11
269.23
 21
7.02938
 31
0.0
  0
LINE
  8
0
 62
     0
 10
357.456
 20
7.02938
 30
0.0
 11
356.969
 21
6.77997
 31
0.0
  0
LINE
  8
0
 62
     0
 10
356.969
 20
6.77997
 30
0.0
 11
356.581
 21
6.3941
 31
0.0
  0
LINE
  8
0
 62
     0
 10
356.581
 20
6.3941
 30
0.0
 11
356.33
 21
5.90628
 31
0.0
  0
LINE
  8
0
 62
     0
 10
356.33
 20
5.90628
 30
0.0
 11
356.246
 21
5.36607
 31
0.0
  0
LINE
  8
0
 62
     0
 10
356.246
 20
5.36607
 30
0.0
 11
356.33
 21
4.82452
 31
0.0
  0
LINE
  8
0
 62
     0
 10
356.33
 20
4.82452
 30
0.0
 11
356.581
 21
4.3367
 31
0.0
  0
LINE
  8
0
 62
     0
 10
356.581
 20
4.3367
 30
0.0
 11
356.969
 21
3.94945
 31
0.0
  0
LINE
  8
0
 62
     0
 10
356.969
 20
3.94945
 30
0.0
 11
357.456
 21
3.70004
 31
0.0
  0
LINE
  8
0
 62
     0
 10
357.456
 20
3.70004
 30
0.0
 11
357.995
 21
3.61597
 31
0.0
  0
LINE
  8
0
 62
     0
 10
357.995
 20
3.61597
 30
0.0
 11
358.535
 21
3.70004
 31
0.0
  0
LINE
  8
0
 62
     0
 10
358.535
 20
3.70004
 30
0.0
 11
359.025
 21
3.94945
 31
0.0
  0
LINE
  8
0
 62
     0
 10
359.025
 20
3.94945
 30
0.0
 11
359.41
 21
4.3367
 31
0.0
  0
LINE
  8
0
 62
     0
 10
359.41
 20
4.3367
 30
0.0
 11
359.66
 21
4.82452
 31
0.0
  0
LINE
  8
0
 62
     0
 10
359.66
 20
4.82452
 30
0.0
 11
359.745
 21
5.36607
 31
0.0
  0
LINE
  8
0
 62
     0
 10
359.745
 20
5.36607
 30
0.0
 11
359.66
 21
5.90628
 31
0.0
  0
LINE
  8
0
 62
     0
 10
359.66
 20
5.90628
 30
0.0
 11
359.41
 21
6.3941
 31
0.0
  0
LINE
  8
0
 62
     0
 10
359.41
 20
6.3941
 30
0.0
 11
359.025
 21
6.77997
 31
0.0
  0
LINE
  8
0
 62
     0
 10
359.025
 20
6.77997
 30
0.0
 11
358.535
 21
7.02938
 31
0.0
  0
LINE
  8
0
 62
     0
 10
358.535
 20
7.02938
 30
0.0
 11
357.995
 21
7.1162
 31
0.0
  0
LINE
  8
0
 62
     0
 10
357.995
 20
7.1162
 30
0.0
 11
357.456
 21
7.02938
 31
0.0
  0
LINE
  8
0
 62
     0
 10
155.495
 20
26.8911
 30
0.0
 11
155.495
 21
25.8906
 31
0.0
  0
LINE
  8
0
 62
     0
 10
155.495
 20
25.8906
 30
0.0
 11
154.696
 21
25.8906
 31
0.0
  0
LINE
  8
0
 62
     0
 10
154.696
 20
25.8906
 30
0.0
 11
154.696
 21
22.7914
 31
0.0
  0
LINE
  8
0
 62
     0
 10
154.696
 20
22.7914
 30
0.0
 11
155.495
 21
22.7914
 31
0.0
  0
LINE
  8
0
 62
     0
 10
155.495
 20
22.7914
 30
0.0
 11
155.495
 21
16.9912
 31
0.0
  0
LINE
  8
0
 62
     0
 10
155.495
 20
16.9912
 30
0.0
 11
154.696
 21
16.9912
 31
0.0
  0
LINE
  8
0
 62
     0
 10
154.696
 20
16.9912
 30
0.0
 11
154.696
 21
13.8906
 31
0.0
  0
LINE
  8
0
 62
     0
 10
154.696
 20
13.8906
 30
0.0
 11
155.495
 21
13.8906
 31
0.0
  0
LINE
  8
0
 62
     0
 10
155.495
 20
13.8906
 30
0.0
 11
155.495
 21
12.8902
 31
0.0
  0
LINE
  8
0
 62
     0
 10
155.495
 20
12.8902
 30
0.0
 11
169.496
 21
12.8902
 31
0.0
  0
LINE
  8
0
 62
     0
 10
169.496
 20
12.8902
 30
0.0
 11
169.496
 21
13.8906
 31
0.0
  0
LINE
  8
0
 62
     0
 10
169.496
 20
13.8906
 30
0.0
 11
170.295
 21
13.8906
 31
0.0
  0
LINE
  8
0
 62
     0
 10
170.295
 20
13.8906
 30
0.0
 11
170.295
 21
16.9912
 31
0.0
  0
LINE
  8
0
 62
     0
 10
170.295
 20
16.9912
 30
0.0
 11
169.496
 21
16.9912
 31
0.0
  0
LINE
  8
0
 62
     0
 10
169.496
 20
16.9912
 30
0.0
 11
169.496
 21
22.7914
 31
0.0
  0
LINE
  8
0
 62
     0
 10
169.496
 20
22.7914
 30
0.0
 11
170.295
 21
22.7914
 31
0.0
  0
LINE
  8
0
 62
     0
 10
170.295
 20
22.7914
 30
0.0
 11
170.295
 21
25.8906
 31
0.0
  0
LINE
  8
0
 62
     0
 10
170.295
 20
25.8906
 30
0.0
 11
169.496
 21
25.8906
 31
0.0
  0
LINE
  8
0
 62
     0
 10
169.496
 20
25.8906
 30
0.0
 11
169.496
 21
26.8911
 31
0.0
  0
LINE
  8
0
 62
     0
 10
169.496
 20
26.8911
 30
0.0
 11
155.495
 21
26.8911
 31
0.0
  0
LINE
  8
0
 62
     0
 10
136.445
 20
26.8911
 30
0.0
 11
136.445
 21
25.8906
 31
0.0
  0
LINE
  8
0
 62
     0
 10
136.445
 20
25.8906
 30
0.0
 11
135.644
 21
25.8906
 31
0.0
  0
LINE
  8
0
 62
     0
 10
135.644
 20
25.8906
 30
0.0
 11
135.644
 21
22.7914
 31
0.0
  0
LINE
  8
0
 62
     0
 10
135.644
 20
22.7914
 30
0.0
 11
136.445
 21
22.7914
 31
0.0
  0
LINE
  8
0
 62
     0
 10
136.445
 20
22.7914
 30
0.0
 11
136.445
 21
16.9912
 31
0.0
  0
LINE
  8
0
 62
     0
 10
136.445
 20
16.9912
 30
0.0
 11
135.644
 21
16.9912
 31
0.0
  0
LINE
  8
0
 62
     0
 10
135.644
 20
16.9912
 30
0.0
 11
135.644
 21
13.8906
 31
0.0
  0
LINE
  8
0
 62
     0
 10
135.644
 20
13.8906
 30
0.0
 11
136.445
 21
13.8906
 31
0.0
  0
LINE
  8
0
 62
     0
 10
136.445
 20
13.8906
 30
0.0
 11
136.445
 21
12.8902
 31
0.0
  0
LINE
  8
0
 62
     0
 10
136.445
 20
12.8902
 30
0.0
 11
150.446
 21
12.8902
 31
0.0
  0
LINE
  8
0
 62
     0
 10
150.446
 20
12.8902
 30
0.0
 11
150.446
 21
13.8906
 31
0.0
  0
LINE
  8
0
 62
     0
 10
150.446
 20
13.8906
 30
0.0
 11
151.245
 21
13.8906
 31
0.0
  0
LINE
  8
0
 62
     0
 10
151.245
 20
13.8906
 30
0.0
 11
151.245
 21
16.9912
 31
0.0
  0
LINE
  8
0
 62
     0
 10
151.245
 20
16.9912
 30
0.0
 11
150.446
 21
16.9912
 31
0.0
  0
LINE
  8
0
 62
     0
 10
150.446
 20
16.9912
 30
0.0
 11
150.446
 21
22.7914
 31
0.0
  0
LINE
  8
0
 62
     0
 10
150.446
 20
22.7914
 30
0.0
 11
151.245
 21
22.7914
 31
0.0
  0
LINE
  8
0
 62
     0
 10
151.245
 20
22.7914
 30
0.0
 11
151.245
 21
25.8906
 31
0.0
  0
LINE
  8
0
 62
     0
 10
151.245
 20
25.8906
 30
0.0
 11
150.446
 21
25.8906
 31
0.0
  0
LINE
  8
0
 62
     0
 10
150.446
 20
25.8906
 30
0.0
 11
150.446
 21
26.8911
 31
0.0
  0
LINE
  8
0
 62
     0
 10
150.446
 20
26.8911
 30
0.0
 11
136.445
 21
26.8911
 31
0.0
  0
LINE
  8
0
 62
     0
 10
186.505
 20
46.7085
 30
0.0
 11
186.847
 21
45.7687
 31
0.0
  0
LINE
  8
0
 62
     0
 10
186.847
 20
45.7687
 30
0.0
 11
186.095
 21
45.496
 31
0.0
  0
LINE
  8
0
 62
     0
 10
186.095
 20
45.496
 30
0.0
 11
187.156
 21
42.5827
 31
0.0
  0
LINE
  8
0
 62
     0
 10
187.156
 20
42.5827
 30
0.0
 11
187.906
 21
42.8554
 31
0.0
  0
LINE
  8
0
 62
     0
 10
187.906
 20
42.8554
 30
0.0
 11
189.891
 21
37.4054
 31
0.0
  0
LINE
  8
0
 62
     0
 10
189.891
 20
37.4054
 30
0.0
 11
189.139
 21
37.1327
 31
0.0
  0
LINE
  8
0
 62
     0
 10
189.139
 20
37.1327
 30
0.0
 11
190.199
 21
34.2194
 31
0.0
  0
LINE
  8
0
 62
     0
 10
190.199
 20
34.2194
 30
0.0
 11
190.95
 21
34.4923
 31
0.0
  0
LINE
  8
0
 62
     0
 10
190.95
 20
34.4923
 30
0.0
 11
191.292
 21
33.5525
 31
0.0
  0
LINE
  8
0
 62
     0
 10
191.292
 20
33.5525
 30
0.0
 11
204.448
 21
38.3413
 31
0.0
  0
LINE
  8
0
 62
     0
 10
204.448
 20
38.3413
 30
0.0
 11
204.107
 21
39.2811
 31
0.0
  0
LINE
  8
0
 62
     0
 10
204.107
 20
39.2811
 30
0.0
 11
204.859
 21
39.5552
 31
0.0
  0
LINE
  8
0
 62
     0
 10
204.859
 20
39.5552
 30
0.0
 11
203.798
 21
42.467
 31
0.0
  0
LINE
  8
0
 62
     0
 10
203.798
 20
42.467
 30
0.0
 11
203.047
 21
42.194
 31
0.0
  0
LINE
  8
0
 62
     0
 10
203.047
 20
42.194
 30
0.0
 11
201.063
 21
47.6444
 31
0.0
  0
LINE
  8
0
 62
     0
 10
201.063
 20
47.6444
 30
0.0
 11
201.815
 21
47.9171
 31
0.0
  0
LINE
  8
0
 62
     0
 10
201.815
 20
47.9171
 30
0.0
 11
200.754
 21
50.8303
 31
0.0
  0
LINE
  8
0
 62
     0
 10
200.754
 20
50.8303
 30
0.0
 11
200.003
 21
50.5576
 31
0.0
  0
LINE
  8
0
 62
     0
 10
200.003
 20
50.5576
 30
0.0
 11
199.66
 21
51.4974
 31
0.0
  0
LINE
  8
0
 62
     0
 10
199.66
 20
51.4974
 30
0.0
 11
186.505
 21
46.7085
 31
0.0
  0
LINE
  8
0
 62
     0
 10
204.406
 20
53.2239
 30
0.0
 11
204.748
 21
52.2841
 31
0.0
  0
LINE
  8
0
 62
     0
 10
204.748
 20
52.2841
 30
0.0
 11
203.997
 21
52.0114
 31
0.0
  0
LINE
  8
0
 62
     0
 10
203.997
 20
52.0114
 30
0.0
 11
205.056
 21
49.0982
 31
0.0
  0
LINE
  8
0
 62
     0
 10
205.056
 20
49.0982
 30
0.0
 11
205.809
 21
49.3709
 31
0.0
  0
LINE
  8
0
 62
     0
 10
205.809
 20
49.3709
 30
0.0
 11
207.792
 21
43.9222
 31
0.0
  0
LINE
  8
0
 62
     0
 10
207.792
 20
43.9222
 30
0.0
 11
207.039
 21
43.6481
 31
0.0
  0
LINE
  8
0
 62
     0
 10
207.039
 20
43.6481
 30
0.0
 11
208.1
 21
40.7349
 31
0.0
  0
LINE
  8
0
 62
     0
 10
208.1
 20
40.7349
 30
0.0
 11
208.853
 21
41.009
 31
0.0
  0
LINE
  8
0
 62
     0
 10
208.853
 20
41.009
 30
0.0
 11
209.194
 21
40.0692
 31
0.0
  0
LINE
  8
0
 62
     0
 10
209.194
 20
40.0692
 30
0.0
 11
222.349
 21
44.8564
 31
0.0
  0
LINE
  8
0
 62
     0
 10
222.349
 20
44.8564
 30
0.0
 11
222.008
 21
45.7962
 31
0.0
  0
LINE
  8
0
 62
     0
 10
222.008
 20
45.7962
 30
0.0
 11
222.76
 21
46.0707
 31
0.0
  0
LINE
  8
0
 62
     0
 10
222.76
 20
46.0707
 30
0.0
 11
221.7
 21
48.9839
 31
0.0
  0
LINE
  8
0
 62
     0
 10
221.7
 20
48.9839
 30
0.0
 11
220.948
 21
48.7094
 31
0.0
  0
LINE
  8
0
 62
     0
 10
220.948
 20
48.7094
 30
0.0
 11
218.964
 21
54.1595
 31
0.0
  0
LINE
  8
0
 62
     0
 10
218.964
 20
54.1595
 30
0.0
 11
219.716
 21
54.434
 31
0.0
  0
LINE
  8
0
 62
     0
 10
219.716
 20
54.434
 30
0.0
 11
218.656
 21
57.3472
 31
0.0
  0
LINE
  8
0
 62
     0
 10
218.656
 20
57.3472
 30
0.0
 11
217.904
 21
57.0727
 31
0.0
  0
LINE
  8
0
 62
     0
 10
217.904
 20
57.0727
 30
0.0
 11
217.562
 21
58.0125
 31
0.0
  0
LINE
  8
0
 62
     0
 10
217.562
 20
58.0125
 30
0.0
 11
204.406
 21
53.2239
 31
0.0
  0
LINE
  8
0
 62
     0
 10
105.938
 20
60.0826
 30
0.0
 11
105.186
 21
60.3553
 31
0.0
  0
LINE
  8
0
 62
     0
 10
105.186
 20
60.3553
 30
0.0
 11
104.126
 21
57.4421
 31
0.0
  0
LINE
  8
0
 62
     0
 10
104.126
 20
57.4421
 30
0.0
 11
104.877
 21
57.1694
 31
0.0
  0
LINE
  8
0
 62
     0
 10
104.877
 20
57.1694
 30
0.0
 11
102.894
 21
51.719
 31
0.0
  0
LINE
  8
0
 62
     0
 10
102.894
 20
51.719
 30
0.0
 11
102.142
 21
51.992
 31
0.0
  0
LINE
  8
0
 62
     0
 10
102.142
 20
51.992
 30
0.0
 11
101.082
 21
49.0802
 31
0.0
  0
LINE
  8
0
 62
     0
 10
101.082
 20
49.0802
 30
0.0
 11
101.833
 21
48.8061
 31
0.0
  0
LINE
  8
0
 62
     0
 10
101.833
 20
48.8061
 30
0.0
 11
101.491
 21
47.8663
 31
0.0
  0
LINE
  8
0
 62
     0
 10
101.491
 20
47.8663
 30
0.0
 11
114.647
 21
43.0773
 31
0.0
  0
LINE
  8
0
 62
     0
 10
114.647
 20
43.0773
 30
0.0
 11
114.989
 21
44.0171
 31
0.0
  0
LINE
  8
0
 62
     0
 10
114.989
 20
44.0171
 30
0.0
 11
115.74
 21
43.7444
 31
0.0
  0
LINE
  8
0
 62
     0
 10
115.74
 20
43.7444
 30
0.0
 11
116.801
 21
46.6577
 31
0.0
  0
LINE
  8
0
 62
     0
 10
116.801
 20
46.6577
 30
0.0
 11
116.05
 21
46.9304
 31
0.0
  0
LINE
  8
0
 62
     0
 10
116.05
 20
46.9304
 30
0.0
 11
118.033
 21
52.3804
 31
0.0
  0
LINE
  8
0
 62
     0
 10
118.033
 20
52.3804
 30
0.0
 11
118.784
 21
52.1077
 31
0.0
  0
LINE
  8
0
 62
     0
 10
118.784
 20
52.1077
 30
0.0
 11
119.845
 21
55.021
 31
0.0
  0
LINE
  8
0
 62
     0
 10
119.845
 20
55.021
 30
0.0
 11
119.093
 21
55.2937
 31
0.0
  0
LINE
  8
0
 62
     0
 10
119.093
 20
55.2937
 30
0.0
 11
119.436
 21
56.2335
 31
0.0
  0
LINE
  8
0
 62
     0
 10
119.436
 20
56.2335
 30
0.0
 11
106.28
 21
61.0224
 31
0.0
  0
LINE
  8
0
 62
     0
 10
106.28
 20
61.0224
 30
0.0
 11
105.938
 21
60.0826
 31
0.0
  0
LINE
  8
0
 62
     0
 10
222.306
 20
59.7394
 30
0.0
 11
222.648
 21
58.7996
 31
0.0
  0
LINE
  8
0
 62
     0
 10
222.648
 20
58.7996
 30
0.0
 11
221.897
 21
58.5265
 31
0.0
  0
LINE
  8
0
 62
     0
 10
221.897
 20
58.5265
 30
0.0
 11
222.957
 21
55.6147
 31
0.0
  0
LINE
  8
0
 62
     0
 10
222.957
 20
55.6147
 30
0.0
 11
223.709
 21
55.8863
 31
0.0
  0
LINE
  8
0
 62
     0
 10
223.709
 20
55.8863
 30
0.0
 11
225.692
 21
50.4363
 31
0.0
  0
LINE
  8
0
 62
     0
 10
225.692
 20
50.4363
 30
0.0
 11
224.941
 21
50.1632
 31
0.0
  0
LINE
  8
0
 62
     0
 10
224.941
 20
50.1632
 30
0.0
 11
226.001
 21
47.2504
 31
0.0
  0
LINE
  8
0
 62
     0
 10
226.001
 20
47.2504
 30
0.0
 11
226.754
 21
47.523
 31
0.0
  0
LINE
  8
0
 62
     0
 10
226.754
 20
47.523
 30
0.0
 11
227.095
 21
46.5832
 31
0.0
  0
LINE
  8
0
 62
     0
 10
227.095
 20
46.5832
 30
0.0
 11
240.25
 21
51.3733
 31
0.0
  0
LINE
  8
0
 62
     0
 10
240.25
 20
51.3733
 30
0.0
 11
239.908
 21
52.3117
 31
0.0
  0
LINE
  8
0
 62
     0
 10
239.908
 20
52.3117
 30
0.0
 11
240.661
 21
52.5861
 31
0.0
  0
LINE
  8
0
 62
     0
 10
240.661
 20
52.5861
 30
0.0
 11
239.601
 21
55.499
 31
0.0
  0
LINE
  8
0
 62
     0
 10
239.601
 20
55.499
 30
0.0
 11
238.849
 21
55.2249
 31
0.0
  0
LINE
  8
0
 62
     0
 10
238.849
 20
55.2249
 30
0.0
 11
236.864
 21
60.675
 31
0.0
  0
LINE
  8
0
 62
     0
 10
236.864
 20
60.675
 30
0.0
 11
237.617
 21
60.9494
 31
0.0
  0
LINE
  8
0
 62
     0
 10
237.617
 20
60.9494
 30
0.0
 11
236.557
 21
63.8609
 31
0.0
  0
LINE
  8
0
 62
     0
 10
236.557
 20
63.8609
 30
0.0
 11
235.804
 21
63.5882
 31
0.0
  0
LINE
  8
0
 62
     0
 10
235.804
 20
63.5882
 30
0.0
 11
235.463
 21
64.528
 31
0.0
  0
LINE
  8
0
 62
     0
 10
235.463
 20
64.528
 30
0.0
 11
222.306
 21
59.7394
 31
0.0
  0
LINE
  8
0
 62
     0
 10
88.036
 20
66.5977
 30
0.0
 11
87.285
 21
66.8722
 31
0.0
  0
LINE
  8
0
 62
     0
 10
87.285
 20
66.8722
 30
0.0
 11
86.2238
 21
63.959
 31
0.0
  0
LINE
  8
0
 62
     0
 10
86.2238
 20
63.959
 30
0.0
 11
86.9763
 21
63.6845
 31
0.0
  0
LINE
  8
0
 62
     0
 10
86.9763
 20
63.6845
 30
0.0
 11
84.9919
 21
58.2344
 31
0.0
  0
LINE
  8
0
 62
     0
 10
84.9919
 20
58.2344
 30
0.0
 11
84.2409
 21
58.5089
 31
0.0
  0
LINE
  8
0
 62
     0
 10
84.2409
 20
58.5089
 30
0.0
 11
83.1811
 21
55.5971
 31
0.0
  0
LINE
  8
0
 62
     0
 10
83.1811
 20
55.5971
 30
0.0
 11
83.9322
 21
55.3212
 31
0.0
  0
LINE
  8
0
 62
     0
 10
83.9322
 20
55.3212
 30
0.0
 11
83.5903
 21
54.3814
 31
0.0
  0
LINE
  8
0
 62
     0
 10
83.5903
 20
54.3814
 30
0.0
 11
96.7451
 21
49.5942
 31
0.0
  0
LINE
  8
0
 62
     0
 10
96.7451
 20
49.5942
 30
0.0
 11
97.0869
 21
50.534
 31
0.0
  0
LINE
  8
0
 62
     0
 10
97.0869
 20
50.534
 30
0.0
 11
97.8394
 21
50.2599
 31
0.0
  0
LINE
  8
0
 62
     0
 10
97.8394
 20
50.2599
 30
0.0
 11
98.9005
 21
53.1731
 31
0.0
  0
LINE
  8
0
 62
     0
 10
98.9005
 20
53.1731
 30
0.0
 11
98.1481
 21
53.4472
 31
0.0
  0
LINE
  8
0
 62
     0
 10
98.1481
 20
53.4472
 30
0.0
 11
100.131
 21
58.8959
 31
0.0
  0
LINE
  8
0
 62
     0
 10
100.131
 20
58.8959
 30
0.0
 11
100.884
 21
58.6232
 31
0.0
  0
LINE
  8
0
 62
     0
 10
100.884
 20
58.6232
 30
0.0
 11
101.943
 21
61.5364
 31
0.0
  0
LINE
  8
0
 62
     0
 10
101.943
 20
61.5364
 30
0.0
 11
101.192
 21
61.8091
 31
0.0
  0
LINE
  8
0
 62
     0
 10
101.192
 20
61.8091
 30
0.0
 11
101.534
 21
62.7489
 31
0.0
  0
LINE
  8
0
 62
     0
 10
101.534
 20
62.7489
 30
0.0
 11
88.3789
 21
67.5375
 31
0.0
  0
LINE
  8
0
 62
     0
 10
88.3789
 20
67.5375
 30
0.0
 11
88.036
 21
66.5977
 31
0.0
  0
LINE
  8
0
 62
     0
 10
179.99
 20
64.6095
 30
0.0
 11
180.332
 21
63.6707
 31
0.0
  0
LINE
  8
0
 62
     0
 10
180.332
 20
63.6707
 30
0.0
 11
179.579
 21
63.3966
 31
0.0
  0
LINE
  8
0
 62
     0
 10
179.579
 20
63.3966
 30
0.0
 11
180.64
 21
60.4834
 31
0.0
  0
LINE
  8
0
 62
     0
 10
180.64
 20
60.4834
 30
0.0
 11
181.391
 21
60.7579
 31
0.0
  0
LINE
  8
0
 62
     0
 10
181.391
 20
60.7579
 30
0.0
 11
183.376
 21
55.306
 31
0.0
  0
LINE
  8
0
 62
     0
 10
183.376
 20
55.306
 30
0.0
 11
182.623
 21
55.0333
 31
0.0
  0
LINE
  8
0
 62
     0
 10
182.623
 20
55.0333
 30
0.0
 11
183.683
 21
52.1201
 31
0.0
  0
LINE
  8
0
 62
     0
 10
183.683
 20
52.1201
 30
0.0
 11
184.435
 21
52.3931
 31
0.0
  0
LINE
  8
0
 62
     0
 10
184.435
 20
52.3931
 30
0.0
 11
184.777
 21
51.4544
 31
0.0
  0
LINE
  8
0
 62
     0
 10
184.777
 20
51.4544
 30
0.0
 11
197.933
 21
56.2434
 31
0.0
  0
LINE
  8
0
 62
     0
 10
197.933
 20
56.2434
 30
0.0
 11
197.592
 21
57.1832
 31
0.0
  0
LINE
  8
0
 62
     0
 10
197.592
 20
57.1832
 30
0.0
 11
198.342
 21
57.4559
 31
0.0
  0
LINE
  8
0
 62
     0
 10
198.342
 20
57.4559
 30
0.0
 11
197.283
 21
60.3691
 31
0.0
  0
LINE
  8
0
 62
     0
 10
197.283
 20
60.3691
 30
0.0
 11
196.53
 21
60.0964
 31
0.0
  0
LINE
  8
0
 62
     0
 10
196.53
 20
60.0964
 30
0.0
 11
194.547
 21
65.5451
 31
0.0
  0
LINE
  8
0
 62
     0
 10
194.547
 20
65.5451
 30
0.0
 11
195.298
 21
65.8192
 31
0.0
  0
LINE
  8
0
 62
     0
 10
195.298
 20
65.8192
 30
0.0
 11
194.239
 21
68.7324
 31
0.0
  0
LINE
  8
0
 62
     0
 10
194.239
 20
68.7324
 30
0.0
 11
193.486
 21
68.4583
 31
0.0
  0
LINE
  8
0
 62
     0
 10
193.486
 20
68.4583
 30
0.0
 11
193.144
 21
69.3981
 31
0.0
  0
LINE
  8
0
 62
     0
 10
193.144
 20
69.3981
 30
0.0
 11
179.99
 21
64.6095
 31
0.0
  0
LINE
  8
0
 62
     0
 10
70.1354
 20
73.1132
 30
0.0
 11
69.3829
 21
73.3859
 31
0.0
  0
LINE
  8
0
 62
     0
 10
69.3829
 20
73.3859
 30
0.0
 11
68.3232
 21
70.4744
 31
0.0
  0
LINE
  8
0
 62
     0
 10
68.3232
 20
70.4744
 30
0.0
 11
69.0757
 21
70.2
 31
0.0
  0
LINE
  8
0
 62
     0
 10
69.0757
 20
70.2
 30
0.0
 11
67.0913
 21
64.7499
 31
0.0
  0
LINE
  8
0
 62
     0
 10
67.0913
 20
64.7499
 30
0.0
 11
66.3402
 21
65.024
 31
0.0
  0
LINE
  8
0
 62
     0
 10
66.3402
 20
65.024
 30
0.0
 11
65.2791
 21
62.1111
 31
0.0
  0
LINE
  8
0
 62
     0
 10
65.2791
 20
62.1111
 30
0.0
 11
66.0315
 21
61.8367
 31
0.0
  0
LINE
  8
0
 62
     0
 10
66.0315
 20
61.8367
 30
0.0
 11
65.6897
 21
60.8983
 31
0.0
  0
LINE
  8
0
 62
     0
 10
65.6897
 20
60.8983
 30
0.0
 11
78.8444
 21
56.1082
 31
0.0
  0
LINE
  8
0
 62
     0
 10
78.8444
 20
56.1082
 30
0.0
 11
79.1863
 21
57.048
 31
0.0
  0
LINE
  8
0
 62
     0
 10
79.1863
 20
57.048
 30
0.0
 11
79.9387
 21
56.7754
 31
0.0
  0
LINE
  8
0
 62
     0
 10
79.9387
 20
56.7754
 30
0.0
 11
80.9985
 21
59.6882
 31
0.0
  0
LINE
  8
0
 62
     0
 10
80.9985
 20
59.6882
 30
0.0
 11
80.2474
 21
59.9613
 31
0.0
  0
LINE
  8
0
 62
     0
 10
80.2474
 20
59.9613
 30
0.0
 11
82.2304
 21
65.4113
 31
0.0
  0
LINE
  8
0
 62
     0
 10
82.2304
 20
65.4113
 30
0.0
 11
82.9829
 21
65.1387
 31
0.0
  0
LINE
  8
0
 62
     0
 10
82.9829
 20
65.1387
 30
0.0
 11
84.0422
 21
68.0515
 31
0.0
  0
LINE
  8
0
 62
     0
 10
84.0422
 20
68.0515
 30
0.0
 11
83.2915
 21
68.3246
 31
0.0
  0
LINE
  8
0
 62
     0
 10
83.2915
 20
68.3246
 30
0.0
 11
83.633
 21
69.2644
 31
0.0
  0
LINE
  8
0
 62
     0
 10
83.633
 20
69.2644
 30
0.0
 11
70.4769
 21
74.053
 31
0.0
  0
LINE
  8
0
 62
     0
 10
70.4769
 20
74.053
 30
0.0
 11
70.1354
 21
73.1132
 31
0.0
  0
LINE
  8
0
 62
     0
 10
197.89
 20
71.126
 30
0.0
 11
198.232
 21
70.1862
 31
0.0
  0
LINE
  8
0
 62
     0
 10
198.232
 20
70.1862
 30
0.0
 11
197.481
 21
69.9121
 31
0.0
  0
LINE
  8
0
 62
     0
 10
197.481
 20
69.9121
 30
0.0
 11
198.541
 21
66.9988
 31
0.0
  0
LINE
  8
0
 62
     0
 10
198.541
 20
66.9988
 30
0.0
 11
199.292
 21
67.273
 31
0.0
  0
LINE
  8
0
 62
     0
 10
199.292
 20
67.273
 30
0.0
 11
201.276
 21
61.8229
 31
0.0
  0
LINE
  8
0
 62
     0
 10
201.276
 20
61.8229
 30
0.0
 11
200.524
 21
61.5488
 31
0.0
  0
LINE
  8
0
 62
     0
 10
200.524
 20
61.5488
 30
0.0
 11
201.585
 21
58.6355
 31
0.0
  0
LINE
  8
0
 62
     0
 10
201.585
 20
58.6355
 30
0.0
 11
202.336
 21
58.9097
 31
0.0
  0
LINE
  8
0
 62
     0
 10
202.336
 20
58.9097
 30
0.0
 11
202.679
 21
57.9699
 31
0.0
  0
LINE
  8
0
 62
     0
 10
202.679
 20
57.9699
 30
0.0
 11
215.834
 21
62.7574
 31
0.0
  0
LINE
  8
0
 62
     0
 10
215.834
 20
62.7574
 30
0.0
 11
215.492
 21
63.6972
 31
0.0
  0
LINE
  8
0
 62
     0
 10
215.492
 20
63.6972
 30
0.0
 11
216.243
 21
63.9713
 31
0.0
  0
LINE
  8
0
 62
     0
 10
216.243
 20
63.9713
 30
0.0
 11
215.184
 21
66.8845
 31
0.0
  0
LINE
  8
0
 62
     0
 10
215.184
 20
66.8845
 30
0.0
 11
214.431
 21
66.6101
 31
0.0
  0
LINE
  8
0
 62
     0
 10
214.431
 20
66.6101
 30
0.0
 11
212.448
 21
72.0605
 31
0.0
  0
LINE
  8
0
 62
     0
 10
212.448
 20
72.0605
 30
0.0
 11
213.201
 21
72.3346
 31
0.0
  0
LINE
  8
0
 62
     0
 10
213.201
 20
72.3346
 30
0.0
 11
212.139
 21
75.2479
 31
0.0
  0
LINE
  8
0
 62
     0
 10
212.139
 20
75.2479
 30
0.0
 11
211.387
 21
74.9734
 31
0.0
  0
LINE
  8
0
 62
     0
 10
211.387
 20
74.9734
 30
0.0
 11
211.045
 21
75.9135
 31
0.0
  0
LINE
  8
0
 62
     0
 10
211.045
 20
75.9135
 30
0.0
 11
197.89
 21
71.126
 31
0.0
  0
LINE
  8
0
 62
     0
 10
215.791
 20
77.64
 30
0.0
 11
216.133
 21
76.7016
 31
0.0
  0
LINE
  8
0
 62
     0
 10
216.133
 20
76.7016
 30
0.0
 11
215.382
 21
76.4275
 31
0.0
  0
LINE
  8
0
 62
     0
 10
215.382
 20
76.4275
 30
0.0
 11
216.442
 21
73.5143
 31
0.0
  0
LINE
  8
0
 62
     0
 10
216.442
 20
73.5143
 30
0.0
 11
217.194
 21
73.7884
 31
0.0
  0
LINE
  8
0
 62
     0
 10
217.194
 20
73.7884
 30
0.0
 11
219.177
 21
68.3383
 31
0.0
  0
LINE
  8
0
 62
     0
 10
219.177
 20
68.3383
 30
0.0
 11
218.426
 21
68.0642
 31
0.0
  0
LINE
  8
0
 62
     0
 10
218.426
 20
68.0642
 30
0.0
 11
219.486
 21
65.1524
 31
0.0
  0
LINE
  8
0
 62
     0
 10
219.486
 20
65.1524
 30
0.0
 11
220.238
 21
65.4251
 31
0.0
  0
LINE
  8
0
 62
     0
 10
220.238
 20
65.4251
 30
0.0
 11
220.58
 21
64.4853
 31
0.0
  0
LINE
  8
0
 62
     0
 10
220.58
 20
64.4853
 30
0.0
 11
233.736
 21
69.2739
 31
0.0
  0
LINE
  8
0
 62
     0
 10
233.736
 20
69.2739
 30
0.0
 11
233.393
 21
70.2137
 31
0.0
  0
LINE
  8
0
 62
     0
 10
233.393
 20
70.2137
 30
0.0
 11
234.145
 21
70.4868
 31
0.0
  0
LINE
  8
0
 62
     0
 10
234.145
 20
70.4868
 30
0.0
 11
233.084
 21
73.4
 31
0.0
  0
LINE
  8
0
 62
     0
 10
233.084
 20
73.4
 30
0.0
 11
232.333
 21
73.127
 31
0.0
  0
LINE
  8
0
 62
     0
 10
232.333
 20
73.127
 30
0.0
 11
230.35
 21
78.577
 31
0.0
  0
LINE
  8
0
 62
     0
 10
230.35
 20
78.577
 30
0.0
 11
231.101
 21
78.8501
 31
0.0
  0
LINE
  8
0
 62
     0
 10
231.101
 20
78.8501
 30
0.0
 11
230.04
 21
81.7633
 31
0.0
  0
LINE
  8
0
 62
     0
 10
230.04
 20
81.7633
 30
0.0
 11
229.289
 21
81.4903
 31
0.0
  0
LINE
  8
0
 62
     0
 10
229.289
 20
81.4903
 30
0.0
 11
228.947
 21
82.4301
 31
0.0
  0
LINE
  8
0
 62
     0
 10
228.947
 20
82.4301
 30
0.0
 11
215.791
 21
77.64
 31
0.0
  0
LINE
  8
0
 62
     0
 10
94.5526
 20
84.4984
 30
0.0
 11
93.8004
 21
84.7729
 31
0.0
  0
LINE
  8
0
 62
     0
 10
93.8004
 20
84.7729
 30
0.0
 11
92.7393
 21
81.8596
 31
0.0
  0
LINE
  8
0
 62
     0
 10
92.7393
 20
81.8596
 30
0.0
 11
93.4918
 21
81.5855
 31
0.0
  0
LINE
  8
0
 62
     0
 10
93.4918
 20
81.5855
 30
0.0
 11
91.5088
 21
76.1351
 31
0.0
  0
LINE
  8
0
 62
     0
 10
91.5088
 20
76.1351
 30
0.0
 11
90.7563
 21
76.4095
 31
0.0
  0
LINE
  8
0
 62
     0
 10
90.7563
 20
76.4095
 30
0.0
 11
89.6966
 21
73.4963
 31
0.0
  0
LINE
  8
0
 62
     0
 10
89.6966
 20
73.4963
 30
0.0
 11
90.4476
 21
73.2222
 31
0.0
  0
LINE
  8
0
 62
     0
 10
90.4476
 20
73.2222
 30
0.0
 11
90.1058
 21
72.2824
 31
0.0
  0
LINE
  8
0
 62
     0
 10
90.1058
 20
72.2824
 30
0.0
 11
103.262
 21
67.4949
 31
0.0
  0
LINE
  8
0
 62
     0
 10
103.262
 20
67.4949
 30
0.0
 11
103.604
 21
68.4347
 31
0.0
  0
LINE
  8
0
 62
     0
 10
103.604
 20
68.4347
 30
0.0
 11
104.356
 21
68.1605
 31
0.0
  0
LINE
  8
0
 62
     0
 10
104.356
 20
68.1605
 30
0.0
 11
105.416
 21
71.0738
 31
0.0
  0
LINE
  8
0
 62
     0
 10
105.416
 20
71.0738
 30
0.0
 11
104.664
 21
71.3479
 31
0.0
  0
LINE
  8
0
 62
     0
 10
104.664
 20
71.3479
 30
0.0
 11
106.648
 21
76.798
 31
0.0
  0
LINE
  8
0
 62
     0
 10
106.648
 20
76.798
 30
0.0
 11
107.4
 21
76.5239
 31
0.0
  0
LINE
  8
0
 62
     0
 10
107.4
 20
76.5239
 30
0.0
 11
108.46
 21
79.4371
 31
0.0
  0
LINE
  8
0
 62
     0
 10
108.46
 20
79.4371
 30
0.0
 11
107.708
 21
79.7112
 31
0.0
  0
LINE
  8
0
 62
     0
 10
107.708
 20
79.7112
 30
0.0
 11
108.049
 21
80.651
 31
0.0
  0
LINE
  8
0
 62
     0
 10
108.049
 20
80.651
 30
0.0
 11
94.8944
 21
85.4385
 31
0.0
  0
LINE
  8
0
 62
     0
 10
94.8944
 20
85.4385
 30
0.0
 11
94.5526
 21
84.4984
 31
0.0
  0
LINE
  8
0
 62
     0
 10
336.47
 20
103.091
 30
0.0
 11
336.47
 21
102.091
 31
0.0
  0
LINE
  8
0
 62
     0
 10
336.47
 20
102.091
 30
0.0
 11
335.671
 21
102.091
 31
0.0
  0
LINE
  8
0
 62
     0
 10
335.671
 20
102.091
 30
0.0
 11
335.671
 21
98.9901
 31
0.0
  0
LINE
  8
0
 62
     0
 10
335.671
 20
98.9901
 30
0.0
 11
336.47
 21
98.9901
 31
0.0
  0
LINE
  8
0
 62
     0
 10
336.47
 20
98.9901
 30
0.0
 11
336.47
 21
93.1912
 31
0.0
  0
LINE
  8
0
 62
     0
 10
336.47
 20
93.1912
 30
0.0
 11
335.671
 21
93.1912
 31
0.0
  0
LINE
  8
0
 62
     0
 10
335.671
 20
93.1912
 30
0.0
 11
335.671
 21
90.0906
 31
0.0
  0
LINE
  8
0
 62
     0
 10
335.671
 20
90.0906
 30
0.0
 11
336.47
 21
90.0906
 31
0.0
  0
LINE
  8
0
 62
     0
 10
336.47
 20
90.0906
 30
0.0
 11
336.47
 21
89.0901
 31
0.0
  0
LINE
  8
0
 62
     0
 10
336.47
 20
89.0901
 30
0.0
 11
350.471
 21
89.0901
 31
0.0
  0
LINE
  8
0
 62
     0
 10
350.471
 20
89.0901
 30
0.0
 11
350.471
 21
90.0906
 31
0.0
  0
LINE
  8
0
 62
     0
 10
350.471
 20
90.0906
 30
0.0
 11
351.27
 21
90.0906
 31
0.0
  0
LINE
  8
0
 62
     0
 10
351.27
 20
90.0906
 30
0.0
 11
351.27
 21
93.1912
 31
0.0
  0
LINE
  8
0
 62
     0
 10
351.27
 20
93.1912
 30
0.0
 11
350.471
 21
93.1912
 31
0.0
  0
LINE
  8
0
 62
     0
 10
350.471
 20
93.1912
 30
0.0
 11
350.471
 21
98.9901
 31
0.0
  0
LINE
  8
0
 62
     0
 10
350.471
 20
98.9901
 30
0.0
 11
351.27
 21
98.9901
 31
0.0
  0
LINE
  8
0
 62
     0
 10
351.27
 20
98.9901
 30
0.0
 11
351.27
 21
102.091
 31
0.0
  0
LINE
  8
0
 62
     0
 10
351.27
 20
102.091
 30
0.0
 11
350.471
 21
102.091
 31
0.0
  0
LINE
  8
0
 62
     0
 10
350.471
 20
102.091
 30
0.0
 11
350.471
 21
103.091
 31
0.0
  0
LINE
  8
0
 62
     0
 10
350.471
 20
103.091
 30
0.0
 11
336.47
 21
103.091
 31
0.0
  0
LINE
  8
0
 62
     0
 10
317.42
 20
103.091
 30
0.0
 11
317.42
 21
102.091
 31
0.0
  0
LINE
  8
0
 62
     0
 10
317.42
 20
102.091
 30
0.0
 11
316.621
 21
102.091
 31
0.0
  0
LINE
  8
0
 62
     0
 10
316.621
 20
102.091
 30
0.0
 11
316.621
 21
98.9901
 31
0.0
  0
LINE
  8
0
 62
     0
 10
316.621
 20
98.9901
 30
0.0
 11
317.42
 21
98.9901
 31
0.0
  0
LINE
  8
0
 62
     0
 10
317.42
 20
98.9901
 30
0.0
 11
317.42
 21
93.1912
 31
0.0
  0
LINE
  8
0
 62
     0
 10
317.42
 20
93.1912
 30
0.0
 11
316.621
 21
93.1912
 31
0.0
  0
LINE
  8
0
 62
     0
 10
316.621
 20
93.1912
 30
0.0
 11
316.621
 21
90.0906
 31
0.0
  0
LINE
  8
0
 62
     0
 10
316.621
 20
90.0906
 30
0.0
 11
317.42
 21
90.0906
 31
0.0
  0
LINE
  8
0
 62
     0
 10
317.42
 20
90.0906
 30
0.0
 11
317.42
 21
89.0901
 31
0.0
  0
LINE
  8
0
 62
     0
 10
317.42
 20
89.0901
 30
0.0
 11
331.421
 21
89.0901
 31
0.0
  0
LINE
  8
0
 62
     0
 10
331.421
 20
89.0901
 30
0.0
 11
331.421
 21
90.0906
 31
0.0
  0
LINE
  8
0
 62
     0
 10
331.421
 20
90.0906
 30
0.0
 11
332.22
 21
90.0906
 31
0.0
  0
LINE
  8
0
 62
     0
 10
332.22
 20
90.0906
 30
0.0
 11
332.22
 21
93.1912
 31
0.0
  0
LINE
  8
0
 62
     0
 10
332.22
 20
93.1912
 30
0.0
 11
331.421
 21
93.1912
 31
0.0
  0
LINE
  8
0
 62
     0
 10
331.421
 20
93.1912
 30
0.0
 11
331.421
 21
98.9901
 31
0.0
  0
LINE
  8
0
 62
     0
 10
331.421
 20
98.9901
 30
0.0
 11
332.22
 21
98.9901
 31
0.0
  0
LINE
  8
0
 62
     0
 10
332.22
 20
98.9901
 30
0.0
 11
332.22
 21
102.091
 31
0.0
  0
LINE
  8
0
 62
     0
 10
332.22
 20
102.091
 30
0.0
 11
331.421
 21
102.091
 31
0.0
  0
LINE
  8
0
 62
     0
 10
331.421
 20
102.091
 30
0.0
 11
331.421
 21
103.091
 31
0.0
  0
LINE
  8
0
 62
     0
 10
331.421
 20
103.091
 30
0.0
 11
317.42
 21
103.091
 31
0.0
  0
LINE
  8
0
 62
     0
 10
298.37
 20
103.091
 30
0.0
 11
298.37
 21
102.091
 31
0.0
  0
LINE
  8
0
 62
     0
 10
298.37
 20
102.091
 30
0.0
 11
297.571
 21
102.091
 31
0.0
  0
LINE
  8
0
 62
     0
 10
297.571
 20
102.091
 30
0.0
 11
297.571
 21
98.9901
 31
0.0
  0
LINE
  8
0
 62
     0
 10
297.571
 20
98.9901
 30
0.0
 11
298.37
 21
98.9901
 31
0.0
  0
LINE
  8
0
 62
     0
 10
298.37
 20
98.9901
 30
0.0
 11
298.37
 21
93.1912
 31
0.0
  0
LINE
  8
0
 62
     0
 10
298.37
 20
93.1912
 30
0.0
 11
297.571
 21
93.1912
 31
0.0
  0
LINE
  8
0
 62
     0
 10
297.571
 20
93.1912
 30
0.0
 11
297.571
 21
90.0906
 31
0.0
  0
LINE
  8
0
 62
     0
 10
297.571
 20
90.0906
 30
0.0
 11
298.37
 21
90.0906
 31
0.0
  0
LINE
  8
0
 62
     0
 10
298.37
 20
90.0906
 30
0.0
 11
298.37
 21
89.0901
 31
0.0
  0
LINE
  8
0
 62
     0
 10
298.37
 20
89.0901
 30
0.0
 11
312.371
 21
89.0901
 31
0.0
  0
LINE
  8
0
 62
     0
 10
312.371
 20
89.0901
 30
0.0
 11
312.371
 21
90.0906
 31
0.0
  0
LINE
  8
0
 62
     0
 10
312.371
 20
90.0906
 30
0.0
 11
313.17
 21
90.0906
 31
0.0
  0
LINE
  8
0
 62
     0
 10
313.17
 20
90.0906
 30
0.0
 11
313.17
 21
93.1912
 31
0.0
  0
LINE
  8
0
 62
     0
 10
313.17
 20
93.1912
 30
0.0
 11
312.371
 21
93.1912
 31
0.0
  0
LINE
  8
0
 62
     0
 10
312.371
 20
93.1912
 30
0.0
 11
312.371
 21
98.9901
 31
0.0
  0
LINE
  8
0
 62
     0
 10
312.371
 20
98.9901
 30
0.0
 11
313.17
 21
98.9901
 31
0.0
  0
LINE
  8
0
 62
     0
 10
313.17
 20
98.9901
 30
0.0
 11
313.17
 21
102.091
 31
0.0
  0
LINE
  8
0
 62
     0
 10
313.17
 20
102.091
 30
0.0
 11
312.371
 21
102.091
 31
0.0
  0
LINE
  8
0
 62
     0
 10
312.371
 20
102.091
 30
0.0
 11
312.371
 21
103.091
 31
0.0
  0
LINE
  8
0
 62
     0
 10
312.371
 20
103.091
 30
0.0
 11
298.37
 21
103.091
 31
0.0
  0
LINE
  8
0
 62
     0
 10
279.32
 20
103.091
 30
0.0
 11
279.32
 21
102.091
 31
0.0
  0
LINE
  8
0
 62
     0
 10
279.32
 20
102.091
 30
0.0
 11
278.521
 21
102.091
 31
0.0
  0
LINE
  8
0
 62
     0
 10
278.521
 20
102.091
 30
0.0
 11
278.521
 21
98.9901
 31
0.0
  0
LINE
  8
0
 62
     0
 10
278.521
 20
98.9901
 30
0.0
 11
279.32
 21
98.9901
 31
0.0
  0
LINE
  8
0
 62
     0
 10
279.32
 20
98.9901
 30
0.0
 11
279.32
 21
93.1912
 31
0.0
  0
LINE
  8
0
 62
     0
 10
279.32
 20
93.1912
 30
0.0
 11
278.521
 21
93.1912
 31
0.0
  0
LINE
  8
0
 62
     0
 10
278.521
 20
93.1912
 30
0.0
 11
278.521
 21
90.0906
 31
0.0
  0
LINE
  8
0
 62
     0
 10
278.521
 20
90.0906
 30
0.0
 11
279.32
 21
90.0906
 31
0.0
  0
LINE
  8
0
 62
     0
 10
279.32
 20
90.0906
 30
0.0
 11
279.32
 21
89.0901
 31
0.0
  0
LINE
  8
0
 62
     0
 10
279.32
 20
89.0901
 30
0.0
 11
293.321
 21
89.0901
 31
0.0
  0
LINE
  8
0
 62
     0
 10
293.321
 20
89.0901
 30
0.0
 11
293.321
 21
90.0906
 31
0.0
  0
LINE
  8
0
 62
     0
 10
293.321
 20
90.0906
 30
0.0
 11
294.12
 21
90.0906
 31
0.0
  0
LINE
  8
0
 62
     0
 10
294.12
 20
90.0906
 30
0.0
 11
294.12
 21
93.1912
 31
0.0
  0
LINE
  8
0
 62
     0
 10
294.12
 20
93.1912
 30
0.0
 11
293.321
 21
93.1912
 31
0.0
  0
LINE
  8
0
 62
     0
 10
293.321
 20
93.1912
 30
0.0
 11
293.321
 21
98.9901
 31
0.0
  0
LINE
  8
0
 62
     0
 10
293.321
 20
98.9901
 30
0.0
 11
294.12
 21
98.9901
 31
0.0
  0
LINE
  8
0
 62
     0
 10
294.12
 20
98.9901
 30
0.0
 11
294.12
 21
102.091
 31
0.0
  0
LINE
  8
0
 62
     0
 10
294.12
 20
102.091
 30
0.0
 11
293.321
 21
102.091
 31
0.0
  0
LINE
  8
0
 62
     0
 10
293.321
 20
102.091
 30
0.0
 11
293.321
 21
103.091
 31
0.0
  0
LINE
  8
0
 62
     0
 10
293.321
 20
103.091
 30
0.0
 11
279.32
 21
103.091
 31
0.0
  0
LINE
  8
0
 62
     0
 10
31.6701
 20
103.091
 30
0.0
 11
31.6701
 21
102.091
 31
0.0
  0
LINE
  8
0
 62
     0
 10
31.6701
 20
102.091
 30
0.0
 11
30.8708
 21
102.091
 31
0.0
  0
LINE
  8
0
 62
     0
 10
30.8708
 20
102.091
 30
0.0
 11
30.8708
 21
98.9901
 31
0.0
  0
LINE
  8
0
 62
     0
 10
30.8708
 20
98.9901
 30
0.0
 11
31.6701
 21
98.9901
 31
0.0
  0
LINE
  8
0
 62
     0
 10
31.6701
 20
98.9901
 30
0.0
 11
31.6701
 21
93.1912
 31
0.0
  0
LINE
  8
0
 62
     0
 10
31.6701
 20
93.1912
 30
0.0
 11
30.8708
 21
93.1912
 31
0.0
  0
LINE
  8
0
 62
     0
 10
30.8708
 20
93.1912
 30
0.0
 11
30.8708
 21
90.0906
 31
0.0
  0
LINE
  8
0
 62
     0
 10
30.8708
 20
90.0906
 30
0.0
 11
31.6701
 21
90.0906
 31
0.0
  0
LINE
  8
0
 62
     0
 10
31.6701
 20
90.0906
 30
0.0
 11
31.6701
 21
89.0901
 31
0.0
  0
LINE
  8
0
 62
     0
 10
31.6701
 20
89.0901
 30
0.0
 11
45.671
 21
89.0901
 31
0.0
  0
LINE
  8
0
 62
     0
 10
45.671
 20
89.0901
 30
0.0
 11
45.671
 21
90.0906
 31
0.0
  0
LINE
  8
0
 62
     0
 10
45.671
 20
90.0906
 30
0.0
 11
46.4704
 21
90.0906
 31
0.0
  0
LINE
  8
0
 62
     0
 10
46.4704
 20
90.0906
 30
0.0
 11
46.4704
 21
93.1912
 31
0.0
  0
LINE
  8
0
 62
     0
 10
46.4704
 20
93.1912
 30
0.0
 11
45.671
 21
93.1912
 31
0.0
  0
LINE
  8
0
 62
     0
 10
45.671
 20
93.1912
 30
0.0
 11
45.671
 21
98.9901
 31
0.0
  0
LINE
  8
0
 62
     0
 10
45.671
 20
98.9901
 30
0.0
 11
46.4704
 21
98.9901
 31
0.0
  0
LINE
  8
0
 62
     0
 10
46.4704
 20
98.9901
 30
0.0
 11
46.4704
 21
102.091
 31
0.0
  0
LINE
  8
0
 62
     0
 10
46.4704
 20
102.091
 30
0.0
 11
45.671
 21
102.091
 31
0.0
  0
LINE
  8
0
 62
     0
 10
45.671
 20
102.091
 30
0.0
 11
45.671
 21
103.091
 31
0.0
  0
LINE
  8
0
 62
     0
 10
45.671
 20
103.091
 30
0.0
 11
31.6701
 21
103.091
 31
0.0
  0
LINE
  8
0
 62
     0
 10
12.6201
 20
103.091
 30
0.0
 11
12.6201
 21
102.091
 31
0.0
  0
LINE
  8
0
 62
     0
 10
12.6201
 20
102.091
 30
0.0
 11
11.8194
 21
102.091
 31
0.0
  0
LINE
  8
0
 62
     0
 10
11.8194
 20
102.091
 30
0.0
 11
11.8194
 21
98.9901
 31
0.0
  0
LINE
  8
0
 62
     0
 10
11.8194
 20
98.9901
 30
0.0
 11
12.6201
 21
98.9901
 31
0.0
  0
LINE
  8
0
 62
     0
 10
12.6201
 20
98.9901
 30
0.0
 11
12.6201
 21
93.1912
 31
0.0
  0
LINE
  8
0
 62
     0
 10
12.6201
 20
93.1912
 30
0.0
 11
11.8194
 21
93.1912
 31
0.0
  0
LINE
  8
0
 62
     0
 10
11.8194
 20
93.1912
 30
0.0
 11
11.8194
 21
90.0906
 31
0.0
  0
LINE
  8
0
 62
     0
 10
11.8194
 20
90.0906
 30
0.0
 11
12.6201
 21
90.0906
 31
0.0
  0
LINE
  8
0
 62
     0
 10
12.6201
 20
90.0906
 30
0.0
 11
12.6201
 21
89.0901
 31
0.0
  0
LINE
  8
0
 62
     0
 10
12.6201
 20
89.0901
 30
0.0
 11
26.6209
 21
89.0901
 31
0.0
  0
LINE
  8
0
 62
     0
 10
26.6209
 20
89.0901
 30
0.0
 11
26.6209
 21
90.0906
 31
0.0
  0
LINE
  8
0
 62
     0
 10
26.6209
 20
90.0906
 30
0.0
 11
27.4188
 21
90.0906
 31
0.0
  0
LINE
  8
0
 62
     0
 10
27.4188
 20
90.0906
 30
0.0
 11
27.4188
 21
93.1912
 31
0.0
  0
LINE
  8
0
 62
     0
 10
27.4188
 20
93.1912
 30
0.0
 11
26.6209
 21
93.1912
 31
0.0
  0
LINE
  8
0
 62
     0
 10
26.6209
 20
93.1912
 30
0.0
 11
26.6209
 21
98.9901
 31
0.0
  0
LINE
  8
0
 62
     0
 10
26.6209
 20
98.9901
 30
0.0
 11
27.4188
 21
98.9901
 31
0.0
  0
LINE
  8
0
 62
     0
 10
27.4188
 20
98.9901
 30
0.0
 11
27.4188
 21
102.091
 31
0.0
  0
LINE
  8
0
 62
     0
 10
27.4188
 20
102.091
 30
0.0
 11
26.6209
 21
102.091
 31
0.0
  0
LINE
  8
0
 62
     0
 10
26.6209
 20
102.091
 30
0.0
 11
26.6209
 21
103.091
 31
0.0
  0
LINE
  8
0
 62
     0
 10
26.6209
 20
103.091
 30
0.0
 11
12.6201
 21
103.091
 31
0.0
  0
LINE
  8
0
 62
     0
 10
4.55443
 20
112.281
 30
0.0
 11
4.06658
 21
112.032
 31
0.0
  0
LINE
  8
0
 62
     0
 10
4.06658
 20
112.032
 30
0.0
 11
3.67937
 21
111.645
 31
0.0
  0
LINE
  8
0
 62
     0
 10
3.67937
 20
111.645
 30
0.0
 11
3.42994
 21
111.157
 31
0.0
  0
LINE
  8
0
 62
     0
 10
3.42994
 20
111.157
 30
0.0
 11
3.34588
 21
110.615
 31
0.0
  0
LINE
  8
0
 62
     0
 10
3.34588
 20
110.615
 30
0.0
 11
3.42994
 21
110.075
 31
0.0
  0
LINE
  8
0
 62
     0
 10
3.42994
 20
110.075
 30
0.0
 11
3.67937
 21
109.587
 31
0.0
  0
LINE
  8
0
 62
     0
 10
3.67937
 20
109.587
 30
0.0
 11
4.06658
 21
109.201
 31
0.0
  0
LINE
  8
0
 62
     0
 10
4.06658
 20
109.201
 30
0.0
 11
4.55443
 21
108.952
 31
0.0
  0
LINE
  8
0
 62
     0
 10
4.55443
 20
108.952
 30
0.0
 11
5.09598
 21
108.865
 31
0.0
  0
LINE
  8
0
 62
     0
 10
5.09598
 20
108.865
 30
0.0
 11
5.63619
 21
108.952
 31
0.0
  0
LINE
  8
0
 62
     0
 10
5.63619
 20
108.952
 30
0.0
 11
6.12401
 21
109.201
 31
0.0
  0
LINE
  8
0
 62
     0
 10
6.12401
 20
109.201
 30
0.0
 11
6.50984
 21
109.587
 31
0.0
  0
LINE
  8
0
 62
     0
 10
6.50984
 20
109.587
 30
0.0
 11
6.75929
 21
110.075
 31
0.0
  0
LINE
  8
0
 62
     0
 10
6.75929
 20
110.075
 30
0.0
 11
6.84611
 21
110.615
 31
0.0
  0
LINE
  8
0
 62
     0
 10
6.84611
 20
110.615
 30
0.0
 11
6.75929
 21
111.157
 31
0.0
  0
LINE
  8
0
 62
     0
 10
6.75929
 20
111.157
 30
0.0
 11
6.50984
 21
111.645
 31
0.0
  0
LINE
  8
0
 62
     0
 10
6.50984
 20
111.645
 30
0.0
 11
6.12401
 21
112.032
 31
0.0
  0
LINE
  8
0
 62
     0
 10
6.12401
 20
112.032
 30
0.0
 11
5.63619
 21
112.281
 31
0.0
  0
LINE
  8
0
 62
     0
 10
5.63619
 20
112.281
 30
0.0
 11
5.09598
 21
112.365
 31
0.0
  0
LINE
  8
0
 62
     0
 10
5.09598
 20
112.365
 30
0.0
 11
4.55443
 21
112.281
 31
0.0
  0
LINE
  8
0
 62
     0
 10
357.456
 20
112.281
 30
0.0
 11
356.969
 21
112.032
 31
0.0
  0
LINE
  8
0
 62
     0
 10
356.969
 20
112.032
 30
0.0
 11
356.581
 21
111.645
 31
0.0
  0
LINE
  8
0
 62
     0
 10
356.581
 20
111.645
 30
0.0
 11
356.33
 21
111.157
 31
0.0
  0
LINE
  8
0
 62
     0
 10
356.33
 20
111.157
 30
0.0
 11
356.246
 21
110.615
 31
0.0
  0
LINE
  8
0
 62
     0
 10
356.246
 20
110.615
 30
0.0
 11
356.33
 21
110.075
 31
0.0
  0
LINE
  8
0
 62
     0
 10
356.33
 20
110.075
 30
0.0
 11
356.581
 21
109.587
 31
0.0
  0
LINE
  8
0
 62
     0
 10
356.581
 20
109.587
 30
0.0
 11
356.969
 21
109.201
 31
0.0
  0
LINE
  8
0
 62
     0
 10
356.969
 20
109.201
 30
0.0
 11
357.456
 21
108.952
 31
0.0
  0
LINE
  8
0
 62
     0
 10
357.456
 20
108.952
 30
0.0
 11
357.995
 21
108.865
 31
0.0
  0
LINE
  8
0
 62
     0
 10
357.995
 20
108.865
 30
0.0
 11
358.535
 21
108.952
 31
0.0
  0
LINE
  8
0
 62
     0
 10
358.535
 20
108.952
 30
0.0
 11
359.025
 21
109.201
 31
0.0
  0
LINE
  8
0
 62
     0
 10
359.025
 20
109.201
 30
0.0
 11
359.41
 21
109.587
 31
0.0
  0
LINE
  8
0
 62
     0
 10
359.41
 20
109.587
 30
0.0
 11
359.66
 21
110.075
 31
0.0
  0
LINE
  8
0
 62
     0
 10
359.66
 20
110.075
 30
0.0
 11
359.745
 21
110.615
 31
0.0
  0
LINE
  8
0
 62
     0
 10
359.745
 20
110.615
 30
0.0
 11
359.66
 21
111.157
 31
0.0
  0
LINE
  8
0
 62
     0
 10
359.66
 20
111.157
 30
0.0
 11
359.41
 21
111.645
 31
0.0
  0
LINE
  8
0
 62
     0
 10
359.41
 20
111.645
 30
0.0
 11
359.025
 21
112.032
 31
0.0
  0
LINE
  8
0
 62
     0
 10
359.025
 20
112.032
 30
0.0
 11
358.535
 21
112.281
 31
0.0
  0
LINE
  8
0
 62
     0
 10
358.535
 20
112.281
 30
0.0
 11
357.995
 21
112.365
 31
0.0
  0
LINE
  8
0
 62
     0
 10
357.995
 20
112.365
 30
0.0
 11
357.456
 21
112.281
 31
0.0
  0
LINE
  8
0
 62
     0
 10
269.23
 20
112.281
 30
0.0
 11
268.742
 21
112.032
 31
0.0
  0
LINE
  8
0
 62
     0
 10
268.742
 20
112.032
 30
0.0
 11
268.355
 21
111.645
 31
0.0
  0
LINE
  8
0
 62
     0
 10
268.355
 20
111.645
 30
0.0
 11
268.107
 21
111.157
 31
0.0
  0
LINE
  8
0
 62
     0
 10
268.107
 20
111.157
 30
0.0
 11
268.02
 21
110.615
 31
0.0
  0
LINE
  8
0
 62
     0
 10
268.02
 20
110.615
 30
0.0
 11
268.107
 21
110.075
 31
0.0
  0
LINE
  8
0
 62
     0
 10
268.107
 20
110.075
 30
0.0
 11
268.355
 21
109.587
 31
0.0
  0
LINE
  8
0
 62
     0
 10
268.355
 20
109.587
 30
0.0
 11
268.742
 21
109.201
 31
0.0
  0
LINE
  8
0
 62
     0
 10
268.742
 20
109.201
 30
0.0
 11
269.23
 21
108.952
 31
0.0
  0
LINE
  8
0
 62
     0
 10
269.23
 20
108.952
 30
0.0
 11
269.77
 21
108.865
 31
0.0
  0
LINE
  8
0
 62
     0
 10
269.77
 20
108.865
 30
0.0
 11
270.312
 21
108.952
 31
0.0
  0
LINE
  8
0
 62
     0
 10
270.312
 20
108.952
 30
0.0
 11
270.8
 21
109.201
 31
0.0
  0
LINE
  8
0
 62
     0
 10
270.8
 20
109.201
 30
0.0
 11
271.187
 21
109.587
 31
0.0
  0
LINE
  8
0
 62
     0
 10
271.187
 20
109.587
 30
0.0
 11
271.435
 21
110.075
 31
0.0
  0
LINE
  8
0
 62
     0
 10
271.435
 20
110.075
 30
0.0
 11
271.52
 21
110.615
 31
0.0
  0
LINE
  8
0
 62
     0
 10
271.52
 20
110.615
 30
0.0
 11
271.435
 21
111.157
 31
0.0
  0
LINE
  8
0
 62
     0
 10
271.435
 20
111.157
 30
0.0
 11
271.187
 21
111.645
 31
0.0
  0
LINE
  8
0
 62
     0
 10
271.187
 20
111.645
 30
0.0
 11
270.8
 21
112.032
 31
0.0
  0
LINE
  8
0
 62
     0
 10
270.8
 20
112.032
 30
0.0
 11
270.312
 21
112.281
 31
0.0
  0
LINE
  8
0
 62
     0
 10
270.312
 20
112.281
 30
0.0
 11
269.77
 21
112.365
 31
0.0
  0
LINE
  8
0
 62
     0
 10
269.77
 20
112.365
 30
0.0
 11
269.23
 21
112.281
 31
0.0
  0
LINE
  8
0
 62
     0
 10
181.004
 20
112.281
 30
0.0
 11
180.516
 21
112.032
 31
0.0
  0
LINE
  8
0
 62
     0
 10
180.516
 20
112.032
 30
0.0
 11
180.129
 21
111.645
 31
0.0
  0
LINE
  8
0
 62
     0
 10
180.129
 20
111.645
 30
0.0
 11
179.881
 21
111.157
 31
0.0
  0
LINE
  8
0
 62
     0
 10
179.881
 20
111.157
 30
0.0
 11
179.795
 21
110.615
 31
0.0
  0
LINE
  8
0
 62
     0
 10
179.795
 20
110.615
 30
0.0
 11
179.881
 21
110.075
 31
0.0
  0
LINE
  8
0
 62
     0
 10
179.881
 20
110.075
 30
0.0
 11
180.129
 21
109.587
 31
0.0
  0
LINE
  8
0
 62
     0
 10
180.129
 20
109.587
 30
0.0
 11
180.516
 21
109.201
 31
0.0
  0
LINE
  8
0
 62
     0
 10
180.516
 20
109.201
 30
0.0
 11
181.004
 21
108.952
 31
0.0
  0
LINE
  8
0
 62
     0
 10
181.004
 20
108.952
 30
0.0
 11
181.545
 21
108.865
 31
0.0
  0
LINE
  8
0
 62
     0
 10
181.545
 20
108.865
 30
0.0
 11
182.087
 21
108.952
 31
0.0
  0
LINE
  8
0
 62
     0
 10
182.087
 20
108.952
 30
0.0
 11
182.575
 21
109.201
 31
0.0
  0
LINE
  8
0
 62
     0
 10
182.575
 20
109.201
 30
0.0
 11
182.962
 21
109.587
 31
0.0
  0
LINE
  8
0
 62
     0
 10
182.962
 20
109.587
 30
0.0
 11
183.209
 21
110.075
 31
0.0
  0
LINE
  8
0
 62
     0
 10
183.209
 20
110.075
 30
0.0
 11
183.296
 21
110.615
 31
0.0
  0
LINE
  8
0
 62
     0
 10
183.296
 20
110.615
 30
0.0
 11
183.209
 21
111.157
 31
0.0
  0
LINE
  8
0
 62
     0
 10
183.209
 20
111.157
 30
0.0
 11
182.962
 21
111.645
 31
0.0
  0
LINE
  8
0
 62
     0
 10
182.962
 20
111.645
 30
0.0
 11
182.575
 21
112.032
 31
0.0
  0
LINE
  8
0
 62
     0
 10
182.575
 20
112.032
 30
0.0
 11
182.087
 21
112.281
 31
0.0
  0
LINE
  8
0
 62
     0
 10
182.087
 20
112.281
 30
0.0
 11
181.545
 21
112.365
 31
0.0
  0
LINE
  8
0
 62
     0
 10
181.545
 20
112.365
 30
0.0
 11
181.004
 21
112.281
 31
0.0
  0
LINE
  8
0
 62
     0
 10
92.7791
 20
112.281
 30
0.0
 11
92.2913
 21
112.032
 31
0.0
  0
LINE
  8
0
 62
     0
 10
92.2913
 20
112.032
 30
0.0
 11
91.9043
 21
111.645
 31
0.0
  0
LINE
  8
0
 62
     0
 10
91.9043
 20
111.645
 30
0.0
 11
91.6562
 21
111.157
 31
0.0
  0
LINE
  8
0
 62
     0
 10
91.6562
 20
111.157
 30
0.0
 11
91.5705
 21
110.615
 31
0.0
  0
LINE
  8
0
 62
     0
 10
91.5705
 20
110.615
 30
0.0
 11
91.6562
 21
110.075
 31
0.0
  0
LINE
  8
0
 62
     0
 10
91.6562
 20
110.075
 30
0.0
 11
91.9043
 21
109.587
 31
0.0
  0
LINE
  8
0
 62
     0
 10
91.9043
 20
109.587
 30
0.0
 11
92.2913
 21
109.201
 31
0.0
  0
LINE
  8
0
 62
     0
 10
92.2913
 20
109.201
 30
0.0
 11
92.7791
 21
108.952
 31
0.0
  0
LINE
  8
0
 62
     0
 10
92.7791
 20
108.952
 30
0.0
 11
93.3207
 21
108.865
 31
0.0
  0
LINE
  8
0
 62
     0
 10
93.3207
 20
108.865
 30
0.0
 11
93.8611
 21
108.952
 31
0.0
  0
LINE
  8
0
 62
     0
 10
93.8611
 20
108.952
 30
0.0
 11
94.3487
 21
109.201
 31
0.0
  0
LINE
  8
0
 62
     0
 10
94.3487
 20
109.201
 30
0.0
 11
94.736
 21
109.587
 31
0.0
  0
LINE
  8
0
 62
     0
 10
94.736
 20
109.587
 30
0.0
 11
94.984
 21
110.075
 31
0.0
  0
LINE
  8
0
 62
     0
 10
94.984
 20
110.075
 30
0.0
 11
95.0708
 21
110.615
 31
0.0
  0
LINE
  8
0
 62
     0
 10
95.0708
 20
110.615
 30
0.0
 11
94.984
 21
111.157
 31
0.0
  0
LINE
  8
0
 62
     0
 10
94.984
 20
111.157
 30
0.0
 11
94.736
 21
111.645
 31
0.0
  0
LINE
  8
0
 62
     0
 10
94.736
 20
111.645
 30
0.0
 11
94.3487
 21
112.032
 31
0.0
  0
LINE
  8
0
 62
     0
 10
94.3487
 20
112.032
 30
0.0
 11
93.8611
 21
112.281
 31
0.0
  0
LINE
  8
0
 62
     0
 10
93.8611
 20
112.281
 30
0.0
 11
93.3207
 21
112.365
 31
0.0
  0
LINE
  8
0
 62
     0
 10
93.3207
 20
112.365
 30
0.0
 11
92.7791
 21
112.281
 31
0.0
  0
ENDSEC
  0
EOF
