<?xml version="1.0" encoding="UTF-8" standalone="no"?>
<!DOCTYPE svg PUBLIC "-//W3C//DTD SVG 1.1//EN" "http://www.w3.org/Graphics/SVG/1.1/DTD/svg11.dtd">
<svg width="100%" height="100%" viewBox="0 0 1058 356" version="1.1" xmlns="http://www.w3.org/2000/svg" xmlns:xlink="http://www.w3.org/1999/xlink" xml:space="preserve" xmlns:serif="http://www.serif.com/" style="fill-rule:evenodd;clip-rule:evenodd;">
    <path d="M1028.7,14.176L1029.81,14.219L1030.91,14.349L1032.01,14.567L1033.08,14.868L1034.12,15.253L1035.13,15.718L1036.1,16.262L1037.03,16.88L1037.9,17.569L1038.72,18.326L1039.48,19.142L1040.16,20.018L1040.78,20.942L1041.33,21.915L1041.79,22.924L1042.18,23.967L1042.48,25.038L1042.7,26.13L1042.83,27.235L1042.87,28.349L1042.87,326.696L1042.83,327.81L1042.7,328.915L1042.48,330.007L1042.18,331.078L1041.79,332.121L1041.33,333.13L1040.78,334.103L1040.16,335.027L1039.48,335.903L1038.72,336.719L1037.9,337.476L1037.03,338.165L1036.1,338.783L1035.13,339.327L1034.12,339.792L1033.08,340.177L1032.01,340.478L1030.91,340.696L1029.81,340.826L1028.7,340.872L28.349,340.869L27.235,340.826L26.13,340.696L25.038,340.478L23.967,340.177L22.924,339.792L21.915,339.327L20.942,338.783L20.018,338.165L19.142,337.476L18.326,336.719L17.569,335.903L16.88,335.027L16.262,334.103L15.718,333.13L15.253,332.121L14.868,331.078L14.567,330.007L14.349,328.915L14.219,327.81L14.173,326.696L14.176,28.349L14.219,27.235L14.349,26.13L14.567,25.038L14.868,23.967L15.253,22.924L15.718,21.915L16.262,20.942L16.88,20.018L17.569,19.142L18.326,18.326L19.142,17.569L20.018,16.88L20.942,16.262L21.915,15.718L22.924,15.253L23.967,14.868L25.038,14.567L26.13,14.349L27.235,14.219L28.349,14.173L1028.7,14.176ZM1027.16,321.979L1025.78,322.685L1024.68,323.782L1023.98,325.165L1023.74,326.696L1023.98,328.229L1024.68,329.613L1025.78,330.71L1027.16,331.415L1028.7,331.656L1030.23,331.415L1031.61,330.71L1032.71,329.613L1033.41,328.229L1033.66,326.696L1033.41,325.165L1032.71,323.782L1031.61,322.685L1030.23,321.979L1028.7,321.735L1027.16,321.979ZM276.902,321.979L275.519,322.685L274.422,323.782L273.716,325.165L273.475,326.696L273.716,328.229L274.422,329.613L275.519,330.71L276.902,331.415L278.436,331.656L279.969,331.415L281.35,330.71L282.45,329.613L283.153,328.229L283.397,326.696L283.153,325.165L282.45,323.782L281.35,322.685L279.969,321.979L278.436,321.735L276.902,321.979ZM26.816,321.979L25.432,322.685L24.335,323.782L23.63,325.165L23.389,326.696L23.63,328.229L24.335,329.613L25.432,330.71L26.816,331.415L28.349,331.656L29.88,331.415L31.263,330.71L32.36,329.613L33.066,328.229L33.31,326.696L33.066,325.165L32.36,323.782L31.263,322.685L29.88,321.979L28.349,321.735L26.816,321.979ZM526.989,321.979L525.606,322.685L524.509,323.782L523.806,325.165L523.562,326.696L523.806,328.229L524.509,329.613L525.606,330.71L526.989,331.415L528.523,331.656L530.056,331.415L531.439,330.71L532.536,329.613L533.239,328.229L533.483,326.696L533.239,325.165L532.536,323.782L531.439,322.685L530.056,321.979L528.523,321.735L526.989,321.979ZM777.076,321.979L775.695,322.685L774.595,323.782L773.892,325.165L773.649,326.696L773.892,328.229L774.595,329.613L775.695,330.71L777.076,331.415L778.609,331.656L780.143,331.415L781.526,330.71L782.623,329.613L783.329,328.229L783.57,326.696L783.329,325.165L782.623,323.782L781.526,322.685L780.143,321.979L778.609,321.735L777.076,321.979ZM400.68,265.68L400.68,268.515L398.409,268.515L398.409,277.299L400.68,277.299L400.68,293.743L398.409,293.743L398.409,302.53L400.68,302.53L400.68,305.365L440.365,305.365L440.365,302.53L442.633,302.53L442.633,293.743L440.365,293.743L440.365,277.299L442.633,277.299L442.633,268.515L440.365,268.515L440.365,265.68L400.68,265.68ZM454.68,265.68L454.68,268.515L452.412,268.515L452.412,277.299L454.68,277.299L454.68,293.743L452.412,293.743L452.412,302.53L454.68,302.53L454.68,305.365L494.365,305.365L494.365,302.53L496.633,302.53L496.633,293.743L494.365,293.743L494.365,277.299L496.633,277.299L496.633,268.515L494.365,268.515L494.365,265.68L454.68,265.68ZM542.58,209.503L543.549,212.168L541.417,212.941L544.425,221.199L546.554,220.425L552.178,235.874L550.046,236.648L553.054,244.905L555.182,244.131L556.152,246.796L593.444,233.22L592.475,230.559L594.607,229.782L591.602,221.525L589.47,222.301L583.846,206.85L585.978,206.076L582.973,197.819L580.842,198.592L579.872,195.931L542.58,209.503ZM593.323,191.032L594.292,193.697L592.163,194.474L595.168,202.731L597.3,201.954L602.921,217.403L600.789,218.18L603.797,226.437L605.928,225.66L606.898,228.325L644.187,214.753L643.218,212.088L645.35,211.311L642.345,203.054L640.213,203.831L634.589,188.382L636.721,187.605L633.716,179.348L631.585,180.125L630.615,177.46L593.323,191.032ZM314.201,171.592L312.069,170.819L309.064,179.076L311.196,179.85L305.572,195.301L303.44,194.525L300.436,202.782L302.567,203.559L301.598,206.22L338.89,219.796L339.86,217.131L341.989,217.905L344.996,209.648L342.865,208.874L348.489,193.425L350.617,194.199L353.625,185.941L351.493,185.168L352.463,182.503L315.17,168.931L314.201,171.592ZM644.066,172.565L645.035,175.229L642.906,176.003L645.911,184.258L648.043,183.487L653.664,198.935L651.535,199.709L654.54,207.969L656.671,207.193L657.641,209.857L694.93,196.282L693.961,193.62L696.093,192.844L693.088,184.586L690.956,185.363L685.332,169.911L687.464,169.138L684.459,160.88L682.328,161.654L681.358,158.992L644.066,172.565ZM263.458,153.125L261.326,152.348L258.321,160.605L260.453,161.382L254.829,176.831L252.697,176.054L249.693,184.309L251.824,185.088L250.855,187.753L288.145,201.325L289.114,198.66L291.246,199.437L294.253,191.18L292.122,190.403L297.743,174.954L299.874,175.731L302.879,167.474L300.75,166.697L301.72,164.032L264.427,150.46L263.458,153.125ZM524.112,158.76L525.081,161.422L522.95,162.198L525.954,170.456L528.086,169.679L533.71,185.131L531.578,185.905L534.583,194.162L536.715,193.388L537.684,196.05L574.977,182.477L574.007,179.813L576.136,179.039L573.131,170.782L571,171.556L565.379,156.107L567.507,155.333L564.503,147.073L562.371,147.849L561.402,145.185L524.112,158.76ZM212.715,134.654L210.583,133.88L207.578,142.138L209.71,142.911L204.086,158.363L201.954,157.586L198.95,165.844L201.081,166.62L200.112,169.282L237.402,182.857L238.371,180.193L240.503,180.969L243.507,172.709L241.379,171.935L247,156.487L249.131,157.26L252.136,149.003L250.007,148.229L250.977,145.565L213.684,131.992L212.715,134.654ZM574.855,140.289L575.824,142.954L573.693,143.731L576.697,151.988L578.829,151.211L584.453,166.66L582.321,167.437L585.326,175.694L587.458,174.917L588.427,177.582L625.72,164.01L624.75,161.345L626.879,160.569L623.874,152.311L621.743,153.088L616.122,137.639L618.253,136.862L615.246,128.605L613.114,129.382L612.145,126.717L574.855,140.289ZM625.598,121.822L626.567,124.483L624.436,125.26L627.44,133.517L629.572,132.741L635.196,148.192L633.064,148.966L636.069,157.224L638.201,156.45L639.17,159.111L676.463,145.539L675.493,142.875L677.625,142.101L674.617,133.843L672.489,134.617L666.865,119.169L668.996,118.395L665.989,110.137L663.86,110.911L662.89,108.247L625.598,121.822ZM281.928,102.382L279.797,101.605L276.789,109.862L278.921,110.639L273.3,126.088L271.168,125.311L268.163,133.569L270.292,134.345L269.323,137.01L306.615,150.582L307.585,147.917L309.716,148.694L312.721,140.437L310.589,139.66L316.213,124.211L318.345,124.988L321.35,116.731L319.218,115.954L320.187,113.289L282.898,99.717L281.928,102.382ZM49.68,49.68L49.68,52.515L47.409,52.515L47.409,61.302L49.68,61.302L49.68,77.74L47.409,77.74L47.409,86.53L49.68,86.53L49.68,89.365L89.365,89.365L89.365,86.53L91.627,86.53L91.627,77.74L89.365,77.74L89.365,61.302L91.627,61.302L91.627,52.515L89.365,52.515L89.365,49.68L49.68,49.68ZM913.68,49.68L913.68,52.515L911.412,52.515L911.412,61.302L913.68,61.302L913.68,77.74L911.412,77.74L911.412,86.53L913.68,86.53L913.68,89.365L953.365,89.365L953.365,86.53L955.633,86.53L955.633,77.74L953.365,77.74L953.365,61.302L955.633,61.302L955.633,52.515L953.365,52.515L953.365,49.68L913.68,49.68ZM967.68,49.68L967.68,52.515L965.412,52.515L965.412,61.302L967.68,61.302L967.68,77.74L965.412,77.74L965.412,86.53L967.68,86.53L967.68,89.365L1007.37,89.365L1007.37,86.53L1009.63,86.53L1009.63,77.74L1007.37,77.74L1007.37,61.302L1009.63,61.302L1009.63,52.515L1007.37,52.515L1007.37,49.68L967.68,49.68ZM859.68,49.68L859.68,52.515L857.412,52.515L857.412,61.302L859.68,61.302L859.68,77.74L857.412,77.74L857.412,86.53L859.68,86.53L859.68,89.365L899.365,89.365L899.365,86.53L901.633,86.53L901.633,77.74L899.365,77.74L899.365,61.302L901.633,61.302L901.633,52.515L899.365,52.515L899.365,49.68L859.68,49.68ZM805.68,49.68L805.68,52.515L803.412,52.515L803.412,61.302L805.68,61.302L805.68,77.74L803.412,77.74L803.412,86.53L805.68,86.53L805.68,89.365L845.365,89.365L845.365,86.53L847.633,86.53L847.633,77.74L845.365,77.74L845.365,61.302L847.633,61.302L847.633,52.515L845.365,52.515L845.365,49.68L805.68,49.68ZM103.68,49.68L103.68,52.515L101.412,52.515L101.412,61.302L103.68,61.302L103.68,77.74L101.412,77.74L101.412,86.53L103.68,86.53L103.68,89.365L143.365,89.365L143.365,86.53L145.633,86.53L145.633,77.74L143.365,77.74L143.365,61.302L145.633,61.302L145.633,52.515L143.365,52.515L143.365,49.68L103.68,49.68ZM1027.16,23.63L1025.78,24.335L1024.68,25.432L1023.98,26.816L1023.74,28.349L1023.98,29.88L1024.68,31.263L1025.78,32.36L1027.16,33.066L1028.7,33.31L1030.23,33.066L1031.61,32.36L1032.71,31.263L1033.41,29.88L1033.66,28.349L1033.41,26.816L1032.71,25.432L1031.61,24.335L1030.23,23.63L1028.7,23.389L1027.16,23.63ZM526.989,23.63L525.606,24.335L524.509,25.432L523.806,26.816L523.562,28.349L523.806,29.88L524.509,31.263L525.606,32.36L526.989,33.066L528.523,33.31L530.056,33.066L531.439,32.36L532.536,31.263L533.239,29.88L533.483,28.349L533.239,26.816L532.536,25.432L531.439,24.335L530.056,23.63L528.523,23.389L526.989,23.63ZM777.076,23.63L775.695,24.335L774.595,25.432L773.892,26.816L773.649,28.349L773.892,29.88L774.595,31.263L775.695,32.36L777.076,33.066L778.609,33.31L780.143,33.066L781.526,32.36L782.623,31.263L783.329,29.88L783.57,28.349L783.329,26.816L782.623,25.432L781.526,24.335L780.143,23.63L778.609,23.389L777.076,23.63ZM26.816,23.63L25.432,24.335L24.335,25.432L23.63,26.816L23.389,28.349L23.63,29.88L24.335,31.263L25.432,32.36L26.816,33.066L28.349,33.31L29.88,33.066L31.263,32.36L32.36,31.263L33.066,29.88L33.31,28.349L33.066,26.816L32.36,25.432L31.263,24.335L29.88,23.63L28.349,23.389L26.816,23.63ZM276.902,23.63L275.519,24.335L274.422,25.432L273.716,26.816L273.475,28.349L273.716,29.88L274.422,31.263L275.519,32.36L276.902,33.066L278.436,33.31L279.969,33.066L281.35,32.36L282.45,31.263L283.153,29.88L283.397,28.349L283.153,26.816L282.45,25.432L281.35,24.335L279.969,23.63L278.436,23.389L276.902,23.63Z" style="fill-rule:nonzero;stroke:black;stroke-width:0.4px;"/>
</svg>
