<?xml version="1.0" encoding="UTF-8" standalone="no"?>
<!DOCTYPE svg PUBLIC "-//W3C//DTD SVG 1.1//EN" "http://www.w3.org/Graphics/SVG/1.1/DTD/svg11.dtd">
<svg width="100%" height="100%" viewBox="0 0 1058 356" version="1.1" xmlns="http://www.w3.org/2000/svg" xmlns:xlink="http://www.w3.org/1999/xlink" xml:space="preserve" xmlns:serif="http://www.serif.com/" style="fill-rule:evenodd;clip-rule:evenodd;">
    <path d="M1028.7,14.176L1029.81,14.219L1030.91,14.349L1032.01,14.567L1033.08,14.868L1034.12,15.253L1035.13,15.718L1036.1,16.262L1037.03,16.88L1037.9,17.569L1038.72,18.326L1039.48,19.142L1040.16,20.018L1040.78,20.942L1041.33,21.915L1041.79,22.924L1042.18,23.967L1042.48,25.038L1042.7,26.13L1042.83,27.235L1042.87,28.349L1042.87,326.696L1042.83,327.81L1042.7,328.915L1042.48,330.007L1042.18,331.078L1041.79,332.121L1041.33,333.13L1040.78,334.103L1040.16,335.027L1039.48,335.903L1038.72,336.719L1037.9,337.476L1037.03,338.165L1036.1,338.783L1035.13,339.327L1034.12,339.792L1033.08,340.177L1032.01,340.478L1030.91,340.696L1029.81,340.826L1028.7,340.872L28.349,340.869L27.235,340.826L26.13,340.696L25.038,340.478L23.967,340.177L22.924,339.792L21.915,339.327L20.942,338.783L20.018,338.165L19.142,337.476L18.326,336.719L17.569,335.903L16.88,335.027L16.262,334.103L15.718,333.13L15.253,332.121L14.868,331.078L14.567,330.007L14.349,328.915L14.219,327.81L14.173,326.696L14.176,28.349L14.219,27.235L14.349,26.13L14.567,25.038L14.868,23.967L15.253,22.924L15.718,21.915L16.262,20.942L16.88,20.018L17.569,19.142L18.326,18.326L19.142,17.569L20.018,16.88L20.942,16.262L21.915,15.718L22.924,15.253L23.967,14.868L25.038,14.567L26.13,14.349L27.235,14.219L28.349,14.173L1028.7,14.176ZM1027.16,321.979L1025.78,322.685L1024.68,323.782L1023.98,325.165L1023.74,326.696L1023.98,328.229L1024.68,329.613L1025.78,330.71L1027.16,331.415L1028.7,331.656L1030.23,331.415L1031.61,330.71L1032.71,329.613L1033.41,328.229L1033.66,326.696L1033.41,325.165L1032.71,323.782L1031.61,322.685L1030.23,321.979L1028.7,321.735L1027.16,321.979ZM276.902,321.979L275.519,322.685L274.422,323.782L273.716,325.165L273.475,326.696L273.716,328.229L274.422,329.613L275.519,330.71L276.902,331.415L278.436,331.656L279.969,331.415L281.35,330.71L282.45,329.613L283.153,328.229L283.397,326.696L283.153,325.165L282.45,323.782L281.35,322.685L279.969,321.979L278.436,321.735L276.902,321.979ZM26.816,321.979L25.432,322.685L24.335,323.782L23.63,325.165L23.389,326.696L23.63,328.229L24.335,329.613L25.432,330.71L26.816,331.415L28.349,331.656L29.88,331.415L31.263,330.71L32.36,329.613L33.066,328.229L33.31,326.696L33.066,325.165L32.36,323.782L31.263,322.685L29.88,321.979L28.349,321.735L26.816,321.979ZM526.989,321.979L525.606,322.685L524.509,323.782L523.806,325.165L523.562,326.696L523.806,328.229L524.509,329.613L525.606,330.71L526.989,331.415L528.523,331.656L530.056,331.415L531.439,330.71L532.536,329.613L533.239,328.229L533.483,326.696L533.239,325.165L532.536,323.782L531.439,322.685L530.056,321.979L528.523,321.735L526.989,321.979ZM777.076,321.979L775.695,322.685L774.595,323.782L773.892,325.165L773.649,326.696L773.892,328.229L774.595,329.613L775.695,330.71L777.076,331.415L778.609,331.656L780.143,331.415L781.526,330.71L782.623,329.613L783.329,328.229L783.57,326.696L783.329,325.165L782.623,323.782L781.526,322.685L780.143,321.979L778.609,321.735L777.076,321.979ZM42.523,42.523L42.523,312.523L1014.52,312.523L1014.52,42.523L42.523,42.523ZM1027.16,23.63L1025.78,24.335L1024.68,25.432L1023.98,26.816L1023.74,28.349L1023.98,29.88L1024.68,31.263L1025.78,32.36L1027.16,33.066L1028.7,33.31L1030.23,33.066L1031.61,32.36L1032.71,31.263L1033.41,29.88L1033.66,28.349L1033.41,26.816L1032.71,25.432L1031.61,24.335L1030.23,23.63L1028.7,23.389L1027.16,23.63ZM276.902,23.63L275.519,24.335L274.422,25.432L273.716,26.816L273.475,28.349L273.716,29.88L274.422,31.263L275.519,32.36L276.902,33.066L278.436,33.31L279.969,33.066L281.35,32.36L282.45,31.263L283.153,29.88L283.397,28.349L283.153,26.816L282.45,25.432L281.35,24.335L279.969,23.63L278.436,23.389L276.902,23.63ZM26.816,23.63L25.432,24.335L24.335,25.432L23.63,26.816L23.389,28.349L23.63,29.88L24.335,31.263L25.432,32.36L26.816,33.066L28.349,33.31L29.88,33.066L31.263,32.36L32.36,31.263L33.066,29.88L33.31,28.349L33.066,26.816L32.36,25.432L31.263,24.335L29.88,23.63L28.349,23.389L26.816,23.63ZM777.076,23.63L775.695,24.335L774.595,25.432L773.892,26.816L773.649,28.349L773.892,29.88L774.595,31.263L775.695,32.36L777.076,33.066L778.609,33.31L780.143,33.066L781.526,32.36L782.623,31.263L783.329,29.88L783.57,28.349L783.329,26.816L782.623,25.432L781.526,24.335L780.143,23.63L778.609,23.389L777.076,23.63ZM526.989,23.63L525.606,24.335L524.509,25.432L523.806,26.816L523.562,28.349L523.806,29.88L524.509,31.263L525.606,32.36L526.989,33.066L528.523,33.31L530.056,33.066L531.439,32.36L532.536,31.263L533.239,29.88L533.483,28.349L533.239,26.816L532.536,25.432L531.439,24.335L530.056,23.63L528.523,23.389L526.989,23.63Z" style="fill-rule:nonzero;stroke:black;stroke-width:0.4px;"/>
</svg>
