solid
facet normal 0 0 -1
outer loop
vertex 12.525 102.7 0
vertex 0 115.22500000000001 0
vertex 362.875 115.22500000000001 0
endloop
endfacet
facet normal 0 0 -1
outer loop
vertex 155.4 26.500000000000014 0
vertex 150.35 12.500000000000014 0
vertex 150.35 26.500000000000014 0
endloop
endfacet
facet normal 0 0 -1
outer loop
vertex 293.225 102.7 0
vertex 298.275 102.7 0
vertex 298.275 88.70000000000002 0
endloop
endfacet
facet normal 0 0 -1
outer loop
vertex 45.575 102.7 0
vertex 279.225 102.7 0
vertex 279.225 88.70000000000002 0
endloop
endfacet
facet normal 0 0 -1
outer loop
vertex 90.01075251639595 71.89186487076411 0
vertex 103.16644920739867 67.10358286420475 0
vertex 31.575 88.70000000000002 0
endloop
endfacet
facet normal 0 0 -1
outer loop
vertex 83.53810305763248 68.8736188595899 0
vertex 31.575 88.70000000000002 0
vertex 103.16644920739867 67.10358286420475 0
endloop
endfacet
facet normal 0 0 -1
outer loop
vertex 83.49526878604196 53.99072044479256 0
vertex 78.74982105107313 55.71792216858718 0
vertex 83.53810305763248 68.8736188595899 0
endloop
endfacet
facet normal 0 0 -1
outer loop
vertex 106.18469521857288 60.63093340544128 0
vertex 96.65096547704468 49.20243843823319 0
vertex 101.43924748360403 62.35813512923591 0
endloop
endfacet
facet normal 0 0 -1
outer loop
vertex 179.8941243600704 64.21879582485347 0
vertex 114.55210990301624 42.686954707879195 0
vertex 119.3403919095756 55.84265139888192 0
endloop
endfacet
facet normal 0 0 -1
outer loop
vertex 114.55210990301624 42.686954707879195 0
vertex 179.8941243600704 64.21879582485347 0
vertex 184.68240636662978 51.063099133850756 0
endloop
endfacet
facet normal 0 0 -1
outer loop
vertex 199.5653047814271 51.10593340544128 0
vertex 186.4096080904244 46.31765139888192 0
vertex 114.55210990301624 42.686954707879195 0
endloop
endfacet
facet normal 0 0 -1
outer loop
vertex 197.79526878604196 70.73427955520746 0
vertex 204.35358678798647 37.95023671443856 0
vertex 199.5653047814271 51.10593340544128 0
endloop
endfacet
facet normal 0 0 -1
outer loop
vertex 204.35358678798647 37.95023671443856 0
vertex 197.79526878604196 70.73427955520746 0
vertex 202.58355079260133 57.57858286420475 0
endloop
endfacet
facet normal 0 0 -1
outer loop
vertex 215.6964132120135 77.24976328556144 0
vertex 222.25473121395805 44.46572044479255 0
vertex 217.46644920739868 57.62141713579527 0
endloop
endfacet
facet normal 0 0 -1
outer loop
vertex 222.25473121395805 44.46572044479255 0
vertex 215.6964132120135 77.24976328556144 0
vertex 220.48469521857288 64.09406659455873 0
endloop
endfacet
facet normal 0 0 -1
outer loop
vertex 222.25473121395805 44.46572044479255 0
vertex 222.2118969423675 59.34861885958989 0
vertex 227.00017894892687 46.192922168587174 0
endloop
endfacet
facet normal 0 0 -1
outer loop
vertex 204.35358678798647 37.95023671443856 0
vertex 204.31075251639595 52.83313512923591 0
vertex 209.09903452295532 39.67743843823318 0
endloop
endfacet
facet normal 0 0 -1
outer loop
vertex 114.55210990301624 42.686954707879195 0
vertex 186.4096080904244 46.31765139888192 0
vertex 191.19789009698377 33.16195470787919 0
endloop
endfacet
facet normal 0 0 -1
outer loop
vertex 96.65096547704468 49.20243843823319 0
vertex 106.18469521857288 60.63093340544128 0
vertex 101.39641321201353 47.475236714438566 0
endloop
endfacet
facet normal 0 0 -1
outer loop
vertex 31.575 88.70000000000002 0
vertex 83.53810305763248 68.8736188595899 0
vertex 70.38240636662977 73.66190086614927 0
endloop
endfacet
facet normal 0 0 -1
outer loop
vertex 317.325 88.70000000000002 0
vertex 169.4 12.500000000000014 0
vertex 312.275 88.70000000000002 0
endloop
endfacet
facet normal 0 0 -1
outer loop
vertex 336.375 88.70000000000002 0
vertex 331.325 88.70000000000002 0
vertex 331.325 102.7 0
endloop
endfacet
facet normal 0 0 -1
outer loop
vertex 169.4 12.500000000000014 0
vertex 317.325 88.70000000000002 0
vertex 331.325 88.70000000000002 0
endloop
endfacet
facet normal 0 0 -1
outer loop
vertex 150.35 12.500000000000014 0
vertex 155.4 26.500000000000014 0
vertex 155.4 12.500000000000014 0
endloop
endfacet
facet normal 0 0 -1
outer loop
vertex 0 115.22500000000001 0
vertex 12.525 102.7 0
vertex 12.525 88.70000000000002 0
endloop
endfacet
facet normal 0 0 -1
outer loop
vertex 26.525 102.7 0
vertex 12.525 102.7 0
vertex 362.875 115.22500000000001 0
endloop
endfacet
facet normal 0 0 -1
outer loop
vertex 293.225 88.70000000000002 0
vertex 293.225 102.7 0
vertex 298.275 88.70000000000002 0
endloop
endfacet
facet normal 0 0 -1
outer loop
vertex 45.575 88.70000000000002 0
vertex 45.575 102.7 0
vertex 279.225 88.70000000000002 0
endloop
endfacet
facet normal 0 0 -0.9999999999999999
outer loop
vertex 90.01075251639595 71.89186487076411 0
vertex 31.575 88.70000000000002 0
vertex 45.575 88.70000000000002 0
endloop
endfacet
facet normal 0 0 -1
outer loop
vertex 88.28355079260132 67.14641713579528 0
vertex 83.49526878604196 53.99072044479256 0
vertex 83.53810305763248 68.8736188595899 0
endloop
endfacet
facet normal 0 0 -0.9999999999999999
outer loop
vertex 179.8941243600704 64.21879582485347 0
vertex 119.3403919095756 55.84265139888192 0
vertex 106.18469521857288 60.63093340544128 0
endloop
endfacet
facet normal 0 0 -0.9999999999999999
outer loop
vertex 199.5653047814271 51.10593340544128 0
vertex 114.55210990301624 42.686954707879195 0
vertex 184.68240636662978 51.063099133850756 0
endloop
endfacet
facet normal 0 0 -1
outer loop
vertex 204.31075251639595 52.83313512923591 0
vertex 204.35358678798647 37.95023671443856 0
vertex 202.58355079260133 57.57858286420475 0
endloop
endfacet
facet normal 0 0 -1
outer loop
vertex 222.2118969423675 59.34861885958989 0
vertex 222.25473121395805 44.46572044479255 0
vertex 220.48469521857288 64.09406659455873 0
endloop
endfacet
facet normal 0 0 -1
outer loop
vertex 31.575 88.70000000000002 0
vertex 70.38240636662977 73.66190086614927 0
vertex 65.59412436007041 60.50620417514654 0
endloop
endfacet
facet normal 0 0 -1
outer loop
vertex 317.325 88.70000000000002 0
vertex 312.275 88.70000000000002 0
vertex 312.275 102.7 0
endloop
endfacet
facet normal 0 0 -1
outer loop
vertex 336.375 102.7 0
vertex 336.375 88.70000000000002 0
vertex 331.325 102.7 0
endloop
endfacet
facet normal 0 0 -1
outer loop
vertex 169.4 12.500000000000014 0
vertex 331.325 88.70000000000002 0
vertex 336.375 88.70000000000002 0
endloop
endfacet
facet normal 0 0 -1
outer loop
vertex 0 0 0
vertex 0 115.22500000000001 0
vertex 12.525 88.70000000000002 0
endloop
endfacet
facet normal 0 0 -1
outer loop
vertex 94.79903452295531 85.04756156176683 0
vertex 90.01075251639595 71.89186487076411 0
vertex 45.575 88.70000000000002 0
endloop
endfacet
facet normal 0 0 -1
outer loop
vertex 88.28355079260132 67.14641713579528 0
vertex 83.53810305763248 68.8736188595899 0
vertex 103.16644920739867 67.10358286420475 0
endloop
endfacet
facet normal 0 0 -1
outer loop
vertex 179.8941243600704 64.21879582485347 0
vertex 106.18469521857288 60.63093340544128 0
vertex 101.43924748360403 62.35813512923591 0
endloop
endfacet
facet normal 0 0 -1
outer loop
vertex 199.5653047814271 51.10593340544128 0
vertex 184.68240636662978 51.063099133850756 0
vertex 197.83810305763248 55.85138114041011 0
endloop
endfacet
facet normal 0 0 -1
outer loop
vertex 204.31075251639595 52.83313512923591 0
vertex 202.58355079260133 57.57858286420475 0
vertex 215.73924748360406 62.366864870764104 0
endloop
endfacet
facet normal 0 0 -1
outer loop
vertex 222.2118969423675 59.34861885958989 0
vertex 220.48469521857288 64.09406659455873 0
vertex 233.64039190957558 68.88234860111808 0
endloop
endfacet
facet normal 0 0 -1
outer loop
vertex 317.325 102.7 0
vertex 317.325 88.70000000000002 0
vertex 312.275 102.7 0
endloop
endfacet
facet normal 0 0 -1
outer loop
vertex 169.4 12.500000000000014 0
vertex 336.375 88.70000000000002 0
vertex 350.375 88.70000000000002 0
endloop
endfacet
facet normal 0 0 -1
outer loop
vertex 0 0 0
vertex 12.525 88.70000000000002 0
vertex 136.35 12.500000000000014 0
endloop
endfacet
facet normal 0 0 -1
outer loop
vertex 94.79903452295531 85.04756156176683 0
vertex 45.575 88.70000000000002 0
vertex 279.225 88.70000000000002 0
endloop
endfacet
facet normal 0 0 -1
outer loop
vertex 101.43924748360403 62.35813512923591 0
vertex 88.28355079260132 67.14641713579528 0
vertex 103.16644920739867 67.10358286420475 0
endloop
endfacet
facet normal 0 0 -1
outer loop
vertex 193.04982105107314 69.00707783141283 0
vertex 179.8941243600704 64.21879582485347 0
vertex 101.43924748360403 62.35813512923591 0
endloop
endfacet
facet normal 0 0 -1
outer loop
vertex 197.79526878604196 70.73427955520746 0
vertex 199.5653047814271 51.10593340544128 0
vertex 197.83810305763248 55.85138114041011 0
endloop
endfacet
facet normal 0 0 -1
outer loop
vertex 217.46644920739868 57.62141713579527 0
vertex 204.31075251639595 52.83313512923591 0
vertex 215.73924748360406 62.366864870764104 0
endloop
endfacet
facet normal 0 0 -1
outer loop
vertex 235.36759363337023 64.13690086614926 0
vertex 222.2118969423675 59.34861885958989 0
vertex 233.64039190957558 68.88234860111808 0
endloop
endfacet
facet normal 0 0 -1
outer loop
vertex 0 0 0
vertex 136.35 12.500000000000014 0
vertex 150.35 12.500000000000014 0
endloop
endfacet
facet normal 0 0 -1
outer loop
vertex 94.79903452295531 85.04756156176683 0
vertex 279.225 88.70000000000002 0
vertex 293.225 88.70000000000002 0
endloop
endfacet
facet normal 0 0 -0.9999999999999999
outer loop
vertex 193.04982105107314 69.00707783141283 0
vertex 101.43924748360403 62.35813512923591 0
vertex 103.16644920739867 67.10358286420475 0
endloop
endfacet
facet normal 0 0 -1
outer loop
vertex 197.79526878604196 70.73427955520746 0
vertex 197.83810305763248 55.85138114041011 0
vertex 193.04982105107314 69.00707783141283 0
endloop
endfacet
facet normal 0 0 -0.9999999999999999
outer loop
vertex 215.6964132120135 77.24976328556144 0
vertex 217.46644920739868 57.62141713579527 0
vertex 215.73924748360406 62.366864870764104 0
endloop
endfacet
facet normal 0 0 -1
outer loop
vertex 0 0 0
vertex 150.35 12.500000000000014 0
vertex 155.4 12.500000000000014 0
endloop
endfacet
facet normal 0 0 -1
outer loop
vertex 94.79903452295531 85.04756156176683 0
vertex 293.225 88.70000000000002 0
vertex 298.275 88.70000000000002 0
endloop
endfacet
facet normal 0 0 -1
outer loop
vertex 193.04982105107314 69.00707783141283 0
vertex 103.16644920739867 67.10358286420475 0
vertex 107.95473121395803 80.25927955520747 0
endloop
endfacet
facet normal 0 0 -1
outer loop
vertex 215.6964132120135 77.24976328556144 0
vertex 215.73924748360406 62.366864870764104 0
vertex 210.9509654770447 75.52256156176682 0
endloop
endfacet
facet normal 0 0 -1
outer loop
vertex 0 0 0
vertex 155.4 12.500000000000014 0
vertex 169.4 12.500000000000014 0
endloop
endfacet
facet normal 0 0 -1
outer loop
vertex 94.79903452295531 85.04756156176683 0
vertex 298.275 88.70000000000002 0
vertex 312.275 88.70000000000002 0
endloop
endfacet
facet normal 0 0 -1
outer loop
vertex 193.04982105107314 69.00707783141283 0
vertex 107.95473121395803 80.25927955520747 0
vertex 94.79903452295531 85.04756156176683 0
endloop
endfacet
facet normal 0 0 -1
outer loop
vertex 362.875 0 0
vertex 0 0 0
vertex 169.4 12.500000000000014 0
endloop
endfacet
facet normal 0 0 -0.9999999999999999
outer loop
vertex 197.79526878604196 70.73427955520746 0
vertex 193.04982105107314 69.00707783141283 0
vertex 94.79903452295531 85.04756156176683 0
endloop
endfacet
facet normal 0 0 -1
outer loop
vertex 362.875 0 0
vertex 169.4 12.500000000000014 0
vertex 350.375 88.70000000000002 0
endloop
endfacet
facet normal 0 0 -0.9999999999999999
outer loop
vertex 210.9509654770447 75.52256156176682 0
vertex 197.79526878604196 70.73427955520746 0
vertex 94.79903452295531 85.04756156176683 0
endloop
endfacet
facet normal 0 0 -0.9999999999999999
outer loop
vertex 362.875 0 0
vertex 350.375 88.70000000000002 0
vertex 350.375 102.7 0
endloop
endfacet
facet normal 0 0 -0.9999999999999999
outer loop
vertex 215.6964132120135 77.24976328556144 0
vertex 210.9509654770447 75.52256156176682 0
vertex 94.79903452295531 85.04756156176683 0
endloop
endfacet
facet normal 0 0 -1
outer loop
vertex 362.875 115.22500000000001 0
vertex 362.875 0 0
vertex 350.375 102.7 0
endloop
endfacet
facet normal 0 0 -0.9999999999999999
outer loop
vertex 228.85210990301624 82.03804529212081 0
vertex 215.6964132120135 77.24976328556144 0
vertex 94.79903452295531 85.04756156176683 0
endloop
endfacet
facet normal 0 0 -1
outer loop
vertex 362.875 115.22500000000001 0
vertex 350.375 102.7 0
vertex 336.375 102.7 0
endloop
endfacet
facet normal 0 0 -1
outer loop
vertex 228.85210990301624 82.03804529212081 0
vertex 94.79903452295531 85.04756156176683 0
vertex 312.275 88.70000000000002 0
endloop
endfacet
facet normal 0 0 -1
outer loop
vertex 362.875 115.22500000000001 0
vertex 336.375 102.7 0
vertex 331.325 102.7 0
endloop
endfacet
facet normal 0 0 -1
outer loop
vertex 233.64039190957558 68.88234860111808 0
vertex 228.85210990301624 82.03804529212081 0
vertex 312.275 88.70000000000002 0
endloop
endfacet
facet normal 0 0 -1
outer loop
vertex 362.875 115.22500000000001 0
vertex 331.325 102.7 0
vertex 317.325 102.7 0
endloop
endfacet
facet normal 0 0 -1
outer loop
vertex 235.36759363337023 64.13690086614926 0
vertex 233.64039190957558 68.88234860111808 0
vertex 312.275 88.70000000000002 0
endloop
endfacet
facet normal 0 0 -1
outer loop
vertex 362.875 115.22500000000001 0
vertex 317.325 102.7 0
vertex 312.275 102.7 0
endloop
endfacet
facet normal 0 0 -1
outer loop
vertex 240.15587563992958 50.98120417514653 0
vertex 235.36759363337023 64.13690086614926 0
vertex 312.275 88.70000000000002 0
endloop
endfacet
facet normal 0 0 -1
outer loop
vertex 362.875 115.22500000000001 0
vertex 312.275 102.7 0
vertex 298.275 102.7 0
endloop
endfacet
facet normal 0 0 -1
outer loop
vertex 240.15587563992958 50.98120417514653 0
vertex 312.275 88.70000000000002 0
vertex 169.4 12.500000000000014 0
endloop
endfacet
facet normal 0 0 -0.9999999999999999
outer loop
vertex 362.875 115.22500000000001 0
vertex 298.275 102.7 0
vertex 293.225 102.7 0
endloop
endfacet
facet normal 0 0 -1
outer loop
vertex 227.00017894892687 46.192922168587174 0
vertex 240.15587563992958 50.98120417514653 0
vertex 169.4 12.500000000000014 0
endloop
endfacet
facet normal 0 0 -1
outer loop
vertex 362.875 115.22500000000001 0
vertex 293.225 102.7 0
vertex 279.225 102.7 0
endloop
endfacet
facet normal 0 0 -1
outer loop
vertex 222.25473121395805 44.46572044479255 0
vertex 227.00017894892687 46.192922168587174 0
vertex 169.4 12.500000000000014 0
endloop
endfacet
facet normal 0 0 -1
outer loop
vertex 362.875 115.22500000000001 0
vertex 279.225 102.7 0
vertex 45.575 102.7 0
endloop
endfacet
facet normal 0 0 -1
outer loop
vertex 209.09903452295532 39.67743843823318 0
vertex 222.25473121395805 44.46572044479255 0
vertex 169.4 12.500000000000014 0
endloop
endfacet
facet normal 0 0 -1
outer loop
vertex 362.875 115.22500000000001 0
vertex 45.575 102.7 0
vertex 31.575 102.7 0
endloop
endfacet
facet normal 0 0 -1
outer loop
vertex 204.35358678798647 37.95023671443856 0
vertex 209.09903452295532 39.67743843823318 0
vertex 169.4 12.500000000000014 0
endloop
endfacet
facet normal 0 0 -1
outer loop
vertex 26.525 102.7 0
vertex 362.875 115.22500000000001 0
vertex 31.575 102.7 0
endloop
endfacet
facet normal 0 0 -1
outer loop
vertex 191.19789009698377 33.16195470787919 0
vertex 204.35358678798647 37.95023671443856 0
vertex 169.4 12.500000000000014 0
endloop
endfacet
facet normal 0 0 -1
outer loop
vertex 26.525 102.7 0
vertex 31.575 102.7 0
vertex 31.575 88.70000000000002 0
endloop
endfacet
facet normal 0 0 -1
outer loop
vertex 191.19789009698377 33.16195470787919 0
vertex 169.4 12.500000000000014 0
vertex 169.4 26.500000000000014 0
endloop
endfacet
facet normal 0 0 -1
outer loop
vertex 26.525 88.70000000000002 0
vertex 26.525 102.7 0
vertex 31.575 88.70000000000002 0
endloop
endfacet
facet normal 0 0 -0.9999999999999999
outer loop
vertex 191.19789009698377 33.16195470787919 0
vertex 169.4 26.500000000000014 0
vertex 155.4 26.500000000000014 0
endloop
endfacet
facet normal 0 0 -1
outer loop
vertex 26.525 88.70000000000002 0
vertex 31.575 88.70000000000002 0
vertex 65.59412436007041 60.50620417514654 0
endloop
endfacet
facet normal 0 0 -1
outer loop
vertex 191.19789009698377 33.16195470787919 0
vertex 155.4 26.500000000000014 0
vertex 150.35 26.500000000000014 0
endloop
endfacet
facet normal 0 0 -1
outer loop
vertex 12.525 88.70000000000002 0
vertex 26.525 88.70000000000002 0
vertex 65.59412436007041 60.50620417514654 0
endloop
endfacet
facet normal 0 0 -0.9999999999999999
outer loop
vertex 191.19789009698377 33.16195470787919 0
vertex 150.35 26.500000000000014 0
vertex 136.35 26.500000000000014 0
endloop
endfacet
facet normal 0 0 -1
outer loop
vertex 136.35 12.500000000000014 0
vertex 12.525 88.70000000000002 0
vertex 65.59412436007041 60.50620417514654 0
endloop
endfacet
facet normal 0 0 -1
outer loop
vertex 114.55210990301624 42.686954707879195 0
vertex 191.19789009698377 33.16195470787919 0
vertex 136.35 26.500000000000014 0
endloop
endfacet
facet normal 0 0 -1
outer loop
vertex 136.35 12.500000000000014 0
vertex 65.59412436007041 60.50620417514654 0
vertex 78.74982105107313 55.71792216858718 0
endloop
endfacet
facet normal 0 0 -1
outer loop
vertex 114.55210990301624 42.686954707879195 0
vertex 136.35 26.500000000000014 0
vertex 136.35 12.500000000000014 0
endloop
endfacet
facet normal 0 0 -1
outer loop
vertex 136.35 12.500000000000014 0
vertex 78.74982105107313 55.71792216858718 0
vertex 83.49526878604196 53.99072044479256 0
endloop
endfacet
facet normal 0 0 -1
outer loop
vertex 101.39641321201353 47.475236714438566 0
vertex 114.55210990301624 42.686954707879195 0
vertex 136.35 12.500000000000014 0
endloop
endfacet
facet normal 0 0 -1
outer loop
vertex 136.35 12.500000000000014 0
vertex 83.49526878604196 53.99072044479256 0
vertex 96.65096547704468 49.20243843823319 0
endloop
endfacet
facet normal 0 0 -1
outer loop
vertex 96.65096547704468 49.20243843823319 0
vertex 101.39641321201353 47.475236714438566 0
vertex 136.35 12.500000000000014 0
endloop
endfacet
facet normal 0 0 1
outer loop
vertex 362.875 115.22500000000001 1.5
vertex 0 115.22500000000001 1.5
vertex 12.525 102.7 1.5
endloop
endfacet
facet normal 0 0 1
outer loop
vertex 150.35 26.500000000000014 1.5
vertex 150.35 12.500000000000014 1.5
vertex 155.4 26.500000000000014 1.5
endloop
endfacet
facet normal 0 0 1
outer loop
vertex 298.275 88.70000000000002 1.5
vertex 298.275 102.7 1.5
vertex 293.225 102.7 1.5
endloop
endfacet
facet normal 0 0 1
outer loop
vertex 279.225 88.70000000000002 1.5
vertex 279.225 102.7 1.5
vertex 45.575 102.7 1.5
endloop
endfacet
facet normal 0 0 1
outer loop
vertex 31.575 88.70000000000002 1.5
vertex 103.16644920739867 67.10358286420475 1.5
vertex 90.01075251639595 71.89186487076411 1.5
endloop
endfacet
facet normal 0 0 1
outer loop
vertex 103.16644920739867 67.10358286420475 1.5
vertex 31.575 88.70000000000002 1.5
vertex 83.53810305763248 68.8736188595899 1.5
endloop
endfacet
facet normal 0 0 1
outer loop
vertex 83.53810305763248 68.8736188595899 1.5
vertex 78.74982105107313 55.71792216858718 1.5
vertex 83.49526878604196 53.99072044479256 1.5
endloop
endfacet
facet normal 0 0 1
outer loop
vertex 101.43924748360403 62.35813512923591 1.5
vertex 96.65096547704468 49.20243843823319 1.5
vertex 106.18469521857288 60.63093340544128 1.5
endloop
endfacet
facet normal 0 0 1
outer loop
vertex 119.3403919095756 55.84265139888192 1.5
vertex 114.55210990301624 42.686954707879195 1.5
vertex 179.8941243600704 64.21879582485347 1.5
endloop
endfacet
facet normal 0 0 1
outer loop
vertex 184.68240636662978 51.063099133850756 1.5
vertex 179.8941243600704 64.21879582485347 1.5
vertex 114.55210990301624 42.686954707879195 1.5
endloop
endfacet
facet normal 0 0 1
outer loop
vertex 114.55210990301624 42.686954707879195 1.5
vertex 186.4096080904244 46.31765139888192 1.5
vertex 199.5653047814271 51.10593340544128 1.5
endloop
endfacet
facet normal 0 0 1
outer loop
vertex 199.5653047814271 51.10593340544128 1.5
vertex 204.35358678798647 37.95023671443856 1.5
vertex 197.79526878604196 70.73427955520746 1.5
endloop
endfacet
facet normal 0 0 1
outer loop
vertex 202.58355079260133 57.57858286420475 1.5
vertex 197.79526878604196 70.73427955520746 1.5
vertex 204.35358678798647 37.95023671443856 1.5
endloop
endfacet
facet normal 0 0 1
outer loop
vertex 217.46644920739868 57.62141713579527 1.5
vertex 222.25473121395805 44.46572044479255 1.5
vertex 215.6964132120135 77.24976328556144 1.5
endloop
endfacet
facet normal 0 0 1
outer loop
vertex 220.48469521857288 64.09406659455873 1.5
vertex 215.6964132120135 77.24976328556144 1.5
vertex 222.25473121395805 44.46572044479255 1.5
endloop
endfacet
facet normal 0 0 1
outer loop
vertex 227.00017894892687 46.192922168587174 1.5
vertex 222.2118969423675 59.34861885958989 1.5
vertex 222.25473121395805 44.46572044479255 1.5
endloop
endfacet
facet normal 0 0 1
outer loop
vertex 209.09903452295532 39.67743843823318 1.5
vertex 204.31075251639595 52.83313512923591 1.5
vertex 204.35358678798647 37.95023671443856 1.5
endloop
endfacet
facet normal 0 0 1
outer loop
vertex 191.19789009698377 33.16195470787919 1.5
vertex 186.4096080904244 46.31765139888192 1.5
vertex 114.55210990301624 42.686954707879195 1.5
endloop
endfacet
facet normal 0 0 1
outer loop
vertex 101.39641321201353 47.475236714438566 1.5
vertex 106.18469521857288 60.63093340544128 1.5
vertex 96.65096547704468 49.20243843823319 1.5
endloop
endfacet
facet normal 0 0 1
outer loop
vertex 70.38240636662977 73.66190086614927 1.5
vertex 83.53810305763248 68.8736188595899 1.5
vertex 31.575 88.70000000000002 1.5
endloop
endfacet
facet normal 0 0 1
outer loop
vertex 312.275 88.70000000000002 1.5
vertex 169.4 12.500000000000014 1.5
vertex 317.325 88.70000000000002 1.5
endloop
endfacet
facet normal 0 0 1
outer loop
vertex 331.325 102.7 1.5
vertex 331.325 88.70000000000002 1.5
vertex 336.375 88.70000000000002 1.5
endloop
endfacet
facet normal 0 0 1
outer loop
vertex 331.325 88.70000000000002 1.5
vertex 317.325 88.70000000000002 1.5
vertex 169.4 12.500000000000014 1.5
endloop
endfacet
facet normal 0 0 1
outer loop
vertex 155.4 12.500000000000014 1.5
vertex 155.4 26.500000000000014 1.5
vertex 150.35 12.500000000000014 1.5
endloop
endfacet
facet normal 0 0 1
outer loop
vertex 12.525 88.70000000000002 1.5
vertex 12.525 102.7 1.5
vertex 0 115.22500000000001 1.5
endloop
endfacet
facet normal 0 0 1
outer loop
vertex 362.875 115.22500000000001 1.5
vertex 12.525 102.7 1.5
vertex 26.525 102.7 1.5
endloop
endfacet
facet normal 0 0 1
outer loop
vertex 298.275 88.70000000000002 1.5
vertex 293.225 102.7 1.5
vertex 293.225 88.70000000000002 1.5
endloop
endfacet
facet normal 0 0 1
outer loop
vertex 279.225 88.70000000000002 1.5
vertex 45.575 102.7 1.5
vertex 45.575 88.70000000000002 1.5
endloop
endfacet
facet normal 0 0 0.9999999999999999
outer loop
vertex 45.575 88.70000000000002 1.5
vertex 31.575 88.70000000000002 1.5
vertex 90.01075251639595 71.89186487076411 1.5
endloop
endfacet
facet normal 0 0 1
outer loop
vertex 83.53810305763248 68.8736188595899 1.5
vertex 83.49526878604196 53.99072044479256 1.5
vertex 88.28355079260132 67.14641713579528 1.5
endloop
endfacet
facet normal 0 0 0.9999999999999999
outer loop
vertex 106.18469521857288 60.63093340544128 1.5
vertex 119.3403919095756 55.84265139888192 1.5
vertex 179.8941243600704 64.21879582485347 1.5
endloop
endfacet
facet normal 0 0 0.9999999999999999
outer loop
vertex 184.68240636662978 51.063099133850756 1.5
vertex 114.55210990301624 42.686954707879195 1.5
vertex 199.5653047814271 51.10593340544128 1.5
endloop
endfacet
facet normal 0 0 1
outer loop
vertex 202.58355079260133 57.57858286420475 1.5
vertex 204.35358678798647 37.95023671443856 1.5
vertex 204.31075251639595 52.83313512923591 1.5
endloop
endfacet
facet normal 0 0 1
outer loop
vertex 220.48469521857288 64.09406659455873 1.5
vertex 222.25473121395805 44.46572044479255 1.5
vertex 222.2118969423675 59.34861885958989 1.5
endloop
endfacet
facet normal 0 0 1
outer loop
vertex 65.59412436007041 60.50620417514654 1.5
vertex 70.38240636662977 73.66190086614927 1.5
vertex 31.575 88.70000000000002 1.5
endloop
endfacet
facet normal 0 0 1
outer loop
vertex 312.275 102.7 1.5
vertex 312.275 88.70000000000002 1.5
vertex 317.325 88.70000000000002 1.5
endloop
endfacet
facet normal 0 0 1
outer loop
vertex 331.325 102.7 1.5
vertex 336.375 88.70000000000002 1.5
vertex 336.375 102.7 1.5
endloop
endfacet
facet normal 0 0 1
outer loop
vertex 336.375 88.70000000000002 1.5
vertex 331.325 88.70000000000002 1.5
vertex 169.4 12.500000000000014 1.5
endloop
endfacet
facet normal 0 0 1
outer loop
vertex 12.525 88.70000000000002 1.5
vertex 0 115.22500000000001 1.5
vertex 0 0 1.5
endloop
endfacet
facet normal 0 0 1
outer loop
vertex 45.575 88.70000000000002 1.5
vertex 90.01075251639595 71.89186487076411 1.5
vertex 94.79903452295531 85.04756156176683 1.5
endloop
endfacet
facet normal 0 0 1
outer loop
vertex 103.16644920739867 67.10358286420475 1.5
vertex 83.53810305763248 68.8736188595899 1.5
vertex 88.28355079260132 67.14641713579528 1.5
endloop
endfacet
facet normal 0 0 1
outer loop
vertex 101.43924748360403 62.35813512923591 1.5
vertex 106.18469521857288 60.63093340544128 1.5
vertex 179.8941243600704 64.21879582485347 1.5
endloop
endfacet
facet normal 0 0 1
outer loop
vertex 197.83810305763248 55.85138114041011 1.5
vertex 184.68240636662978 51.063099133850756 1.5
vertex 199.5653047814271 51.10593340544128 1.5
endloop
endfacet
facet normal 0 0 1
outer loop
vertex 215.73924748360406 62.366864870764104 1.5
vertex 202.58355079260133 57.57858286420475 1.5
vertex 204.31075251639595 52.83313512923591 1.5
endloop
endfacet
facet normal 0 0 1
outer loop
vertex 233.64039190957558 68.88234860111808 1.5
vertex 220.48469521857288 64.09406659455873 1.5
vertex 222.2118969423675 59.34861885958989 1.5
endloop
endfacet
facet normal 0 0 1
outer loop
vertex 312.275 102.7 1.5
vertex 317.325 88.70000000000002 1.5
vertex 317.325 102.7 1.5
endloop
endfacet
facet normal 0 0 1
outer loop
vertex 350.375 88.70000000000002 1.5
vertex 336.375 88.70000000000002 1.5
vertex 169.4 12.500000000000014 1.5
endloop
endfacet
facet normal 0 0 1
outer loop
vertex 136.35 12.500000000000014 1.5
vertex 12.525 88.70000000000002 1.5
vertex 0 0 1.5
endloop
endfacet
facet normal 0 0 1
outer loop
vertex 279.225 88.70000000000002 1.5
vertex 45.575 88.70000000000002 1.5
vertex 94.79903452295531 85.04756156176683 1.5
endloop
endfacet
facet normal 0 0 1
outer loop
vertex 103.16644920739867 67.10358286420475 1.5
vertex 88.28355079260132 67.14641713579528 1.5
vertex 101.43924748360403 62.35813512923591 1.5
endloop
endfacet
facet normal 0 0 1
outer loop
vertex 101.43924748360403 62.35813512923591 1.5
vertex 179.8941243600704 64.21879582485347 1.5
vertex 193.04982105107314 69.00707783141283 1.5
endloop
endfacet
facet normal 0 0 1
outer loop
vertex 197.83810305763248 55.85138114041011 1.5
vertex 199.5653047814271 51.10593340544128 1.5
vertex 197.79526878604196 70.73427955520746 1.5
endloop
endfacet
facet normal 0 0 1
outer loop
vertex 215.73924748360406 62.366864870764104 1.5
vertex 204.31075251639595 52.83313512923591 1.5
vertex 217.46644920739868 57.62141713579527 1.5
endloop
endfacet
facet normal 0 0 1
outer loop
vertex 233.64039190957558 68.88234860111808 1.5
vertex 222.2118969423675 59.34861885958989 1.5
vertex 235.36759363337023 64.13690086614926 1.5
endloop
endfacet
facet normal 0 0 1
outer loop
vertex 150.35 12.500000000000014 1.5
vertex 136.35 12.500000000000014 1.5
vertex 0 0 1.5
endloop
endfacet
facet normal 0 0 1
outer loop
vertex 293.225 88.70000000000002 1.5
vertex 279.225 88.70000000000002 1.5
vertex 94.79903452295531 85.04756156176683 1.5
endloop
endfacet
facet normal 0 0 0.9999999999999999
outer loop
vertex 103.16644920739867 67.10358286420475 1.5
vertex 101.43924748360403 62.35813512923591 1.5
vertex 193.04982105107314 69.00707783141283 1.5
endloop
endfacet
facet normal 0 0 1
outer loop
vertex 193.04982105107314 69.00707783141283 1.5
vertex 197.83810305763248 55.85138114041011 1.5
vertex 197.79526878604196 70.73427955520746 1.5
endloop
endfacet
facet normal 0 0 0.9999999999999999
outer loop
vertex 215.73924748360406 62.366864870764104 1.5
vertex 217.46644920739868 57.62141713579527 1.5
vertex 215.6964132120135 77.24976328556144 1.5
endloop
endfacet
facet normal 0 0 1
outer loop
vertex 155.4 12.500000000000014 1.5
vertex 150.35 12.500000000000014 1.5
vertex 0 0 1.5
endloop
endfacet
facet normal 0 0 1
outer loop
vertex 298.275 88.70000000000002 1.5
vertex 293.225 88.70000000000002 1.5
vertex 94.79903452295531 85.04756156176683 1.5
endloop
endfacet
facet normal 0 0 1
outer loop
vertex 107.95473121395803 80.25927955520747 1.5
vertex 103.16644920739867 67.10358286420475 1.5
vertex 193.04982105107314 69.00707783141283 1.5
endloop
endfacet
facet normal 0 0 1
outer loop
vertex 210.9509654770447 75.52256156176682 1.5
vertex 215.73924748360406 62.366864870764104 1.5
vertex 215.6964132120135 77.24976328556144 1.5
endloop
endfacet
facet normal 0 0 1
outer loop
vertex 169.4 12.500000000000014 1.5
vertex 155.4 12.500000000000014 1.5
vertex 0 0 1.5
endloop
endfacet
facet normal 0 0 1
outer loop
vertex 312.275 88.70000000000002 1.5
vertex 298.275 88.70000000000002 1.5
vertex 94.79903452295531 85.04756156176683 1.5
endloop
endfacet
facet normal 0 0 1
outer loop
vertex 94.79903452295531 85.04756156176683 1.5
vertex 107.95473121395803 80.25927955520747 1.5
vertex 193.04982105107314 69.00707783141283 1.5
endloop
endfacet
facet normal 0 0 1
outer loop
vertex 169.4 12.500000000000014 1.5
vertex 0 0 1.5
vertex 362.875 0 1.5
endloop
endfacet
facet normal 0 0 0.9999999999999999
outer loop
vertex 94.79903452295531 85.04756156176683 1.5
vertex 193.04982105107314 69.00707783141283 1.5
vertex 197.79526878604196 70.73427955520746 1.5
endloop
endfacet
facet normal 0 0 1
outer loop
vertex 350.375 88.70000000000002 1.5
vertex 169.4 12.500000000000014 1.5
vertex 362.875 0 1.5
endloop
endfacet
facet normal 0 0 0.9999999999999999
outer loop
vertex 94.79903452295531 85.04756156176683 1.5
vertex 197.79526878604196 70.73427955520746 1.5
vertex 210.9509654770447 75.52256156176682 1.5
endloop
endfacet
facet normal 0 0 0.9999999999999999
outer loop
vertex 350.375 102.7 1.5
vertex 350.375 88.70000000000002 1.5
vertex 362.875 0 1.5
endloop
endfacet
facet normal 0 0 0.9999999999999999
outer loop
vertex 94.79903452295531 85.04756156176683 1.5
vertex 210.9509654770447 75.52256156176682 1.5
vertex 215.6964132120135 77.24976328556144 1.5
endloop
endfacet
facet normal 0 0 1
outer loop
vertex 350.375 102.7 1.5
vertex 362.875 0 1.5
vertex 362.875 115.22500000000001 1.5
endloop
endfacet
facet normal 0 0 0.9999999999999999
outer loop
vertex 94.79903452295531 85.04756156176683 1.5
vertex 215.6964132120135 77.24976328556144 1.5
vertex 228.85210990301624 82.03804529212081 1.5
endloop
endfacet
facet normal 0 0 1
outer loop
vertex 336.375 102.7 1.5
vertex 350.375 102.7 1.5
vertex 362.875 115.22500000000001 1.5
endloop
endfacet
facet normal 0 0 1
outer loop
vertex 312.275 88.70000000000002 1.5
vertex 94.79903452295531 85.04756156176683 1.5
vertex 228.85210990301624 82.03804529212081 1.5
endloop
endfacet
facet normal 0 0 1
outer loop
vertex 331.325 102.7 1.5
vertex 336.375 102.7 1.5
vertex 362.875 115.22500000000001 1.5
endloop
endfacet
facet normal 0 0 1
outer loop
vertex 312.275 88.70000000000002 1.5
vertex 228.85210990301624 82.03804529212081 1.5
vertex 233.64039190957558 68.88234860111808 1.5
endloop
endfacet
facet normal 0 0 1
outer loop
vertex 317.325 102.7 1.5
vertex 331.325 102.7 1.5
vertex 362.875 115.22500000000001 1.5
endloop
endfacet
facet normal 0 0 1
outer loop
vertex 312.275 88.70000000000002 1.5
vertex 233.64039190957558 68.88234860111808 1.5
vertex 235.36759363337023 64.13690086614926 1.5
endloop
endfacet
facet normal 0 0 1
outer loop
vertex 312.275 102.7 1.5
vertex 317.325 102.7 1.5
vertex 362.875 115.22500000000001 1.5
endloop
endfacet
facet normal 0 0 1
outer loop
vertex 312.275 88.70000000000002 1.5
vertex 235.36759363337023 64.13690086614926 1.5
vertex 240.15587563992958 50.98120417514653 1.5
endloop
endfacet
facet normal 0 0 1
outer loop
vertex 298.275 102.7 1.5
vertex 312.275 102.7 1.5
vertex 362.875 115.22500000000001 1.5
endloop
endfacet
facet normal 0 0 1
outer loop
vertex 169.4 12.500000000000014 1.5
vertex 312.275 88.70000000000002 1.5
vertex 240.15587563992958 50.98120417514653 1.5
endloop
endfacet
facet normal 0 0 0.9999999999999999
outer loop
vertex 293.225 102.7 1.5
vertex 298.275 102.7 1.5
vertex 362.875 115.22500000000001 1.5
endloop
endfacet
facet normal 0 0 1
outer loop
vertex 169.4 12.500000000000014 1.5
vertex 240.15587563992958 50.98120417514653 1.5
vertex 227.00017894892687 46.192922168587174 1.5
endloop
endfacet
facet normal 0 0 1
outer loop
vertex 279.225 102.7 1.5
vertex 293.225 102.7 1.5
vertex 362.875 115.22500000000001 1.5
endloop
endfacet
facet normal 0 0 1
outer loop
vertex 169.4 12.500000000000014 1.5
vertex 227.00017894892687 46.192922168587174 1.5
vertex 222.25473121395805 44.46572044479255 1.5
endloop
endfacet
facet normal 0 0 1
outer loop
vertex 45.575 102.7 1.5
vertex 279.225 102.7 1.5
vertex 362.875 115.22500000000001 1.5
endloop
endfacet
facet normal 0 0 1
outer loop
vertex 169.4 12.500000000000014 1.5
vertex 222.25473121395805 44.46572044479255 1.5
vertex 209.09903452295532 39.67743843823318 1.5
endloop
endfacet
facet normal 0 0 1
outer loop
vertex 31.575 102.7 1.5
vertex 45.575 102.7 1.5
vertex 362.875 115.22500000000001 1.5
endloop
endfacet
facet normal 0 0 1
outer loop
vertex 169.4 12.500000000000014 1.5
vertex 209.09903452295532 39.67743843823318 1.5
vertex 204.35358678798647 37.95023671443856 1.5
endloop
endfacet
facet normal 0 0 1
outer loop
vertex 31.575 102.7 1.5
vertex 362.875 115.22500000000001 1.5
vertex 26.525 102.7 1.5
endloop
endfacet
facet normal 0 0 1
outer loop
vertex 169.4 12.500000000000014 1.5
vertex 204.35358678798647 37.95023671443856 1.5
vertex 191.19789009698377 33.16195470787919 1.5
endloop
endfacet
facet normal 0 0 1
outer loop
vertex 31.575 88.70000000000002 1.5
vertex 31.575 102.7 1.5
vertex 26.525 102.7 1.5
endloop
endfacet
facet normal 0 0 1
outer loop
vertex 169.4 26.500000000000014 1.5
vertex 169.4 12.500000000000014 1.5
vertex 191.19789009698377 33.16195470787919 1.5
endloop
endfacet
facet normal 0 0 1
outer loop
vertex 31.575 88.70000000000002 1.5
vertex 26.525 102.7 1.5
vertex 26.525 88.70000000000002 1.5
endloop
endfacet
facet normal 0 0 0.9999999999999999
outer loop
vertex 155.4 26.500000000000014 1.5
vertex 169.4 26.500000000000014 1.5
vertex 191.19789009698377 33.16195470787919 1.5
endloop
endfacet
facet normal 0 0 1
outer loop
vertex 65.59412436007041 60.50620417514654 1.5
vertex 31.575 88.70000000000002 1.5
vertex 26.525 88.70000000000002 1.5
endloop
endfacet
facet normal 0 0 1
outer loop
vertex 150.35 26.500000000000014 1.5
vertex 155.4 26.500000000000014 1.5
vertex 191.19789009698377 33.16195470787919 1.5
endloop
endfacet
facet normal 0 0 1
outer loop
vertex 65.59412436007041 60.50620417514654 1.5
vertex 26.525 88.70000000000002 1.5
vertex 12.525 88.70000000000002 1.5
endloop
endfacet
facet normal 0 0 0.9999999999999999
outer loop
vertex 136.35 26.500000000000014 1.5
vertex 150.35 26.500000000000014 1.5
vertex 191.19789009698377 33.16195470787919 1.5
endloop
endfacet
facet normal 0 0 1
outer loop
vertex 65.59412436007041 60.50620417514654 1.5
vertex 12.525 88.70000000000002 1.5
vertex 136.35 12.500000000000014 1.5
endloop
endfacet
facet normal 0 0 1
outer loop
vertex 136.35 26.500000000000014 1.5
vertex 191.19789009698377 33.16195470787919 1.5
vertex 114.55210990301624 42.686954707879195 1.5
endloop
endfacet
facet normal 0 0 1
outer loop
vertex 78.74982105107313 55.71792216858718 1.5
vertex 65.59412436007041 60.50620417514654 1.5
vertex 136.35 12.500000000000014 1.5
endloop
endfacet
facet normal 0 0 1
outer loop
vertex 136.35 12.500000000000014 1.5
vertex 136.35 26.500000000000014 1.5
vertex 114.55210990301624 42.686954707879195 1.5
endloop
endfacet
facet normal 0 0 1
outer loop
vertex 83.49526878604196 53.99072044479256 1.5
vertex 78.74982105107313 55.71792216858718 1.5
vertex 136.35 12.500000000000014 1.5
endloop
endfacet
facet normal 0 0 1
outer loop
vertex 136.35 12.500000000000014 1.5
vertex 114.55210990301624 42.686954707879195 1.5
vertex 101.39641321201353 47.475236714438566 1.5
endloop
endfacet
facet normal 0 0 1
outer loop
vertex 96.65096547704468 49.20243843823319 1.5
vertex 83.49526878604196 53.99072044479256 1.5
vertex 136.35 12.500000000000014 1.5
endloop
endfacet
facet normal 0 0 1
outer loop
vertex 136.35 12.500000000000014 1.5
vertex 101.39641321201353 47.475236714438566 1.5
vertex 96.65096547704468 49.20243843823319 1.5
endloop
endfacet
facet normal 0 -1 0
outer loop
vertex 0 0 0
vertex 362.875 0 0
vertex 0 0 1.5
endloop
endfacet
facet normal 0 -1 0
outer loop
vertex 362.875 0 0
vertex 362.875 0 1.5
vertex 0 0 1.5
endloop
endfacet
facet normal 0.9999999999999999 0 0
outer loop
vertex 362.875 0 0
vertex 362.875 115.22500000000001 0
vertex 362.875 0 1.5
endloop
endfacet
facet normal 0.9999999999999999 0 0
outer loop
vertex 362.875 115.22500000000001 0
vertex 362.875 115.22500000000001 1.5
vertex 362.875 0 1.5
endloop
endfacet
facet normal 0 1 0
outer loop
vertex 362.875 115.22500000000001 0
vertex 0 115.22500000000001 0
vertex 362.875 115.22500000000001 1.5
endloop
endfacet
facet normal 0 1 0
outer loop
vertex 0 115.22500000000001 0
vertex 0 115.22500000000001 1.5
vertex 362.875 115.22500000000001 1.5
endloop
endfacet
facet normal -0.9999999999999999 0 0
outer loop
vertex 0 115.22500000000001 0
vertex 0 0 0
vertex 0 115.22500000000001 1.5
endloop
endfacet
facet normal -0.9999999999999999 0 0
outer loop
vertex 0 0 0
vertex 0 0 1.5
vertex 0 115.22500000000001 1.5
endloop
endfacet
facet normal 0 1 0
outer loop
vertex 26.525 88.70000000000002 0
vertex 12.525 88.70000000000002 0
vertex 26.525 88.70000000000002 1.5
endloop
endfacet
facet normal 0 1 0
outer loop
vertex 12.525 88.70000000000002 0
vertex 12.525 88.70000000000002 1.5
vertex 26.525 88.70000000000002 1.5
endloop
endfacet
facet normal 1 0 0
outer loop
vertex 12.525 88.70000000000002 0
vertex 12.525 102.7 0
vertex 12.525 88.70000000000002 1.5
endloop
endfacet
facet normal 1 0 0
outer loop
vertex 12.525 102.7 0
vertex 12.525 102.7 1.5
vertex 12.525 88.70000000000002 1.5
endloop
endfacet
facet normal 0 -1 0
outer loop
vertex 12.525 102.7 0
vertex 26.525 102.7 0
vertex 12.525 102.7 1.5
endloop
endfacet
facet normal 0 -1 0
outer loop
vertex 26.525 102.7 0
vertex 26.525 102.7 1.5
vertex 12.525 102.7 1.5
endloop
endfacet
facet normal -1 0 0
outer loop
vertex 26.525 102.7 0
vertex 26.525 88.70000000000002 0
vertex 26.525 102.7 1.5
endloop
endfacet
facet normal -1 0 0
outer loop
vertex 26.525 88.70000000000002 0
vertex 26.525 88.70000000000002 1.5
vertex 26.525 102.7 1.5
endloop
endfacet
facet normal 0 1 0
outer loop
vertex 45.575 88.70000000000002 0
vertex 31.575 88.70000000000002 0
vertex 45.575 88.70000000000002 1.5
endloop
endfacet
facet normal 0 1 0
outer loop
vertex 31.575 88.70000000000002 0
vertex 31.575 88.70000000000002 1.5
vertex 45.575 88.70000000000002 1.5
endloop
endfacet
facet normal 1 0 0
outer loop
vertex 31.575 88.70000000000002 0
vertex 31.575 102.7 0
vertex 31.575 88.70000000000002 1.5
endloop
endfacet
facet normal 1 0 0
outer loop
vertex 31.575 102.7 0
vertex 31.575 102.7 1.5
vertex 31.575 88.70000000000002 1.5
endloop
endfacet
facet normal 0 -1 0
outer loop
vertex 31.575 102.7 0
vertex 45.575 102.7 0
vertex 31.575 102.7 1.5
endloop
endfacet
facet normal 0 -1 0
outer loop
vertex 45.575 102.7 0
vertex 45.575 102.7 1.5
vertex 31.575 102.7 1.5
endloop
endfacet
facet normal -1 0 0
outer loop
vertex 45.575 102.7 0
vertex 45.575 88.70000000000002 0
vertex 45.575 102.7 1.5
endloop
endfacet
facet normal -1 0 0
outer loop
vertex 45.575 88.70000000000002 0
vertex 45.575 88.70000000000002 1.5
vertex 45.575 102.7 1.5
endloop
endfacet
facet normal 0 1 0
outer loop
vertex 293.225 88.70000000000002 0
vertex 279.225 88.70000000000002 0
vertex 293.225 88.70000000000002 1.5
endloop
endfacet
facet normal 0 1 0
outer loop
vertex 279.225 88.70000000000002 0
vertex 279.225 88.70000000000002 1.5
vertex 293.225 88.70000000000002 1.5
endloop
endfacet
facet normal 1 0 0
outer loop
vertex 279.225 88.70000000000002 0
vertex 279.225 102.7 0
vertex 279.225 88.70000000000002 1.5
endloop
endfacet
facet normal 1 0 0
outer loop
vertex 279.225 102.7 0
vertex 279.225 102.7 1.5
vertex 279.225 88.70000000000002 1.5
endloop
endfacet
facet normal 0 -1 0
outer loop
vertex 279.225 102.7 0
vertex 293.225 102.7 0
vertex 279.225 102.7 1.5
endloop
endfacet
facet normal 0 -1 0
outer loop
vertex 293.225 102.7 0
vertex 293.225 102.7 1.5
vertex 279.225 102.7 1.5
endloop
endfacet
facet normal -1 0 0
outer loop
vertex 293.225 102.7 0
vertex 293.225 88.70000000000002 0
vertex 293.225 102.7 1.5
endloop
endfacet
facet normal -1 0 0
outer loop
vertex 293.225 88.70000000000002 0
vertex 293.225 88.70000000000002 1.5
vertex 293.225 102.7 1.5
endloop
endfacet
facet normal 0 1 0
outer loop
vertex 312.275 88.70000000000002 0
vertex 298.275 88.70000000000002 0
vertex 312.275 88.70000000000002 1.5
endloop
endfacet
facet normal 0 1 0
outer loop
vertex 298.275 88.70000000000002 0
vertex 298.275 88.70000000000002 1.5
vertex 312.275 88.70000000000002 1.5
endloop
endfacet
facet normal 1 0 0
outer loop
vertex 298.275 88.70000000000002 0
vertex 298.275 102.7 0
vertex 298.275 88.70000000000002 1.5
endloop
endfacet
facet normal 1 0 0
outer loop
vertex 298.275 102.7 0
vertex 298.275 102.7 1.5
vertex 298.275 88.70000000000002 1.5
endloop
endfacet
facet normal 0 -1 0
outer loop
vertex 298.275 102.7 0
vertex 312.275 102.7 0
vertex 298.275 102.7 1.5
endloop
endfacet
facet normal 0 -1 0
outer loop
vertex 312.275 102.7 0
vertex 312.275 102.7 1.5
vertex 298.275 102.7 1.5
endloop
endfacet
facet normal -1 0 0
outer loop
vertex 312.275 102.7 0
vertex 312.275 88.70000000000002 0
vertex 312.275 102.7 1.5
endloop
endfacet
facet normal -1 0 0
outer loop
vertex 312.275 88.70000000000002 0
vertex 312.275 88.70000000000002 1.5
vertex 312.275 102.7 1.5
endloop
endfacet
facet normal 0 1 0
outer loop
vertex 331.325 88.70000000000002 0
vertex 317.325 88.70000000000002 0
vertex 331.325 88.70000000000002 1.5
endloop
endfacet
facet normal 0 1 0
outer loop
vertex 317.325 88.70000000000002 0
vertex 317.325 88.70000000000002 1.5
vertex 331.325 88.70000000000002 1.5
endloop
endfacet
facet normal 1 0 0
outer loop
vertex 317.325 88.70000000000002 0
vertex 317.325 102.7 0
vertex 317.325 88.70000000000002 1.5
endloop
endfacet
facet normal 1 0 0
outer loop
vertex 317.325 102.7 0
vertex 317.325 102.7 1.5
vertex 317.325 88.70000000000002 1.5
endloop
endfacet
facet normal 0 -1 0
outer loop
vertex 317.325 102.7 0
vertex 331.325 102.7 0
vertex 317.325 102.7 1.5
endloop
endfacet
facet normal 0 -1 0
outer loop
vertex 331.325 102.7 0
vertex 331.325 102.7 1.5
vertex 317.325 102.7 1.5
endloop
endfacet
facet normal -1 0 0
outer loop
vertex 331.325 102.7 0
vertex 331.325 88.70000000000002 0
vertex 331.325 102.7 1.5
endloop
endfacet
facet normal -1 0 0
outer loop
vertex 331.325 88.70000000000002 0
vertex 331.325 88.70000000000002 1.5
vertex 331.325 102.7 1.5
endloop
endfacet
facet normal 0 1 0
outer loop
vertex 350.375 88.70000000000002 0
vertex 336.375 88.70000000000002 0
vertex 350.375 88.70000000000002 1.5
endloop
endfacet
facet normal 0 1 0
outer loop
vertex 336.375 88.70000000000002 0
vertex 336.375 88.70000000000002 1.5
vertex 350.375 88.70000000000002 1.5
endloop
endfacet
facet normal 1 0 0
outer loop
vertex 336.375 88.70000000000002 0
vertex 336.375 102.7 0
vertex 336.375 88.70000000000002 1.5
endloop
endfacet
facet normal 1 0 0
outer loop
vertex 336.375 102.7 0
vertex 336.375 102.7 1.5
vertex 336.375 88.70000000000002 1.5
endloop
endfacet
facet normal 0 -1 0
outer loop
vertex 336.375 102.7 0
vertex 350.375 102.7 0
vertex 336.375 102.7 1.5
endloop
endfacet
facet normal 0 -1 0
outer loop
vertex 350.375 102.7 0
vertex 350.375 102.7 1.5
vertex 336.375 102.7 1.5
endloop
endfacet
facet normal -1 0 0
outer loop
vertex 350.375 102.7 0
vertex 350.375 88.70000000000002 0
vertex 350.375 102.7 1.5
endloop
endfacet
facet normal -1 0 0
outer loop
vertex 350.375 88.70000000000002 0
vertex 350.375 88.70000000000002 1.5
vertex 350.375 102.7 1.5
endloop
endfacet
facet normal 0 1 0
outer loop
vertex 150.35 12.500000000000014 0
vertex 136.35 12.500000000000014 0
vertex 150.35 12.500000000000014 1.5
endloop
endfacet
facet normal 0 1 0
outer loop
vertex 136.35 12.500000000000014 0
vertex 136.35 12.500000000000014 1.5
vertex 150.35 12.500000000000014 1.5
endloop
endfacet
facet normal 1 0 0
outer loop
vertex 136.35 12.500000000000014 0
vertex 136.35 26.500000000000014 0
vertex 136.35 12.500000000000014 1.5
endloop
endfacet
facet normal 1 0 0
outer loop
vertex 136.35 26.500000000000014 0
vertex 136.35 26.500000000000014 1.5
vertex 136.35 12.500000000000014 1.5
endloop
endfacet
facet normal 0 -1 0
outer loop
vertex 136.35 26.500000000000014 0
vertex 150.35 26.500000000000014 0
vertex 136.35 26.500000000000014 1.5
endloop
endfacet
facet normal 0 -1 0
outer loop
vertex 150.35 26.500000000000014 0
vertex 150.35 26.500000000000014 1.5
vertex 136.35 26.500000000000014 1.5
endloop
endfacet
facet normal -1 0 0
outer loop
vertex 150.35 26.500000000000014 0
vertex 150.35 12.500000000000014 0
vertex 150.35 26.500000000000014 1.5
endloop
endfacet
facet normal -1 0 0
outer loop
vertex 150.35 12.500000000000014 0
vertex 150.35 12.500000000000014 1.5
vertex 150.35 26.500000000000014 1.5
endloop
endfacet
facet normal 0 1 0
outer loop
vertex 169.4 12.500000000000014 0
vertex 155.4 12.500000000000014 0
vertex 169.4 12.500000000000014 1.5
endloop
endfacet
facet normal 0 1 0
outer loop
vertex 155.4 12.500000000000014 0
vertex 155.4 12.500000000000014 1.5
vertex 169.4 12.500000000000014 1.5
endloop
endfacet
facet normal 1 0 0
outer loop
vertex 155.4 12.500000000000014 0
vertex 155.4 26.500000000000014 0
vertex 155.4 12.500000000000014 1.5
endloop
endfacet
facet normal 1 0 0
outer loop
vertex 155.4 26.500000000000014 0
vertex 155.4 26.500000000000014 1.5
vertex 155.4 12.500000000000014 1.5
endloop
endfacet
facet normal 0 -1 0
outer loop
vertex 155.4 26.500000000000014 0
vertex 169.4 26.500000000000014 0
vertex 155.4 26.500000000000014 1.5
endloop
endfacet
facet normal 0 -1 0
outer loop
vertex 169.4 26.500000000000014 0
vertex 169.4 26.500000000000014 1.5
vertex 155.4 26.500000000000014 1.5
endloop
endfacet
facet normal -1 0 0
outer loop
vertex 169.4 26.500000000000014 0
vertex 169.4 12.500000000000014 0
vertex 169.4 26.500000000000014 1.5
endloop
endfacet
facet normal -1 0 0
outer loop
vertex 169.4 12.500000000000014 0
vertex 169.4 12.500000000000014 1.5
vertex 169.4 26.500000000000014 1.5
endloop
endfacet
facet normal 0.3420201433256684 0.9396926207859085 0
outer loop
vertex 103.16644920739867 67.10358286420475 0
vertex 90.01075251639595 71.89186487076411 0
vertex 103.16644920739867 67.10358286420475 1.5
endloop
endfacet
facet normal 0.3420201433256684 0.9396926207859085 0
outer loop
vertex 90.01075251639595 71.89186487076411 0
vertex 90.01075251639595 71.89186487076411 1.5
vertex 103.16644920739867 67.10358286420475 1.5
endloop
endfacet
facet normal 0.9396926207859085 -0.3420201433256684 0
outer loop
vertex 90.01075251639595 71.89186487076411 0
vertex 94.79903452295531 85.04756156176683 0
vertex 90.01075251639595 71.89186487076411 1.5
endloop
endfacet
facet normal 0.9396926207859085 -0.3420201433256684 0
outer loop
vertex 94.79903452295531 85.04756156176683 0
vertex 94.79903452295531 85.04756156176683 1.5
vertex 90.01075251639595 71.89186487076411 1.5
endloop
endfacet
facet normal -0.3420201433256684 -0.9396926207859085 0
outer loop
vertex 94.79903452295531 85.04756156176683 0
vertex 107.95473121395803 80.25927955520747 0
vertex 94.79903452295531 85.04756156176683 1.5
endloop
endfacet
facet normal -0.3420201433256684 -0.9396926207859085 0
outer loop
vertex 107.95473121395803 80.25927955520747 0
vertex 107.95473121395803 80.25927955520747 1.5
vertex 94.79903452295531 85.04756156176683 1.5
endloop
endfacet
facet normal -0.9396926207859085 0.3420201433256684 0
outer loop
vertex 107.95473121395803 80.25927955520747 0
vertex 103.16644920739867 67.10358286420475 0
vertex 107.95473121395803 80.25927955520747 1.5
endloop
endfacet
facet normal -0.9396926207859085 0.3420201433256684 0
outer loop
vertex 103.16644920739867 67.10358286420475 0
vertex 103.16644920739867 67.10358286420475 1.5
vertex 107.95473121395803 80.25927955520747 1.5
endloop
endfacet
facet normal 0.3420201433256688 0.9396926207859083 0
outer loop
vertex 78.74982105107313 55.71792216858718 0
vertex 65.59412436007041 60.50620417514654 0
vertex 78.74982105107313 55.71792216858718 1.5
endloop
endfacet
facet normal 0.3420201433256688 0.9396926207859083 0
outer loop
vertex 65.59412436007041 60.50620417514654 0
vertex 65.59412436007041 60.50620417514654 1.5
vertex 78.74982105107313 55.71792216858718 1.5
endloop
endfacet
facet normal 0.9396926207859085 -0.3420201433256682 0
outer loop
vertex 65.59412436007041 60.50620417514654 0
vertex 70.38240636662977 73.66190086614927 0
vertex 65.59412436007041 60.50620417514654 1.5
endloop
endfacet
facet normal 0.9396926207859085 -0.3420201433256682 0
outer loop
vertex 70.38240636662977 73.66190086614927 0
vertex 70.38240636662977 73.66190086614927 1.5
vertex 65.59412436007041 60.50620417514654 1.5
endloop
endfacet
facet normal -0.34202014332566927 -0.9396926207859082 0
outer loop
vertex 70.38240636662977 73.66190086614927 0
vertex 83.53810305763248 68.8736188595899 0
vertex 70.38240636662977 73.66190086614927 1.5
endloop
endfacet
facet normal -0.34202014332566927 -0.9396926207859082 0
outer loop
vertex 83.53810305763248 68.8736188595899 0
vertex 83.53810305763248 68.8736188595899 1.5
vertex 70.38240636662977 73.66190086614927 1.5
endloop
endfacet
facet normal -0.9396926207859085 0.3420201433256684 0
outer loop
vertex 83.53810305763248 68.8736188595899 0
vertex 78.74982105107313 55.71792216858718 0
vertex 83.53810305763248 68.8736188595899 1.5
endloop
endfacet
facet normal -0.9396926207859085 0.3420201433256684 0
outer loop
vertex 78.74982105107313 55.71792216858718 0
vertex 78.74982105107313 55.71792216858718 1.5
vertex 83.53810305763248 68.8736188595899 1.5
endloop
endfacet
facet normal 0.34202014332566927 0.9396926207859082 0
outer loop
vertex 96.65096547704468 49.20243843823319 0
vertex 83.49526878604196 53.99072044479256 0
vertex 96.65096547704468 49.20243843823319 1.5
endloop
endfacet
facet normal 0.34202014332566927 0.9396926207859082 0
outer loop
vertex 83.49526878604196 53.99072044479256 0
vertex 83.49526878604196 53.99072044479256 1.5
vertex 96.65096547704468 49.20243843823319 1.5
endloop
endfacet
facet normal 0.9396926207859085 -0.3420201433256684 0
outer loop
vertex 83.49526878604196 53.99072044479256 0
vertex 88.28355079260132 67.14641713579528 0
vertex 83.49526878604196 53.99072044479256 1.5
endloop
endfacet
facet normal 0.9396926207859085 -0.3420201433256684 0
outer loop
vertex 88.28355079260132 67.14641713579528 0
vertex 88.28355079260132 67.14641713579528 1.5
vertex 83.49526878604196 53.99072044479256 1.5
endloop
endfacet
facet normal -0.3420201433256688 -0.9396926207859083 0
outer loop
vertex 88.28355079260132 67.14641713579528 0
vertex 101.43924748360403 62.35813512923591 0
vertex 88.28355079260132 67.14641713579528 1.5
endloop
endfacet
facet normal -0.3420201433256688 -0.9396926207859083 0
outer loop
vertex 101.43924748360403 62.35813512923591 0
vertex 101.43924748360403 62.35813512923591 1.5
vertex 88.28355079260132 67.14641713579528 1.5
endloop
endfacet
facet normal -0.9396926207859085 0.3420201433256682 0
outer loop
vertex 101.43924748360403 62.35813512923591 0
vertex 96.65096547704468 49.20243843823319 0
vertex 101.43924748360403 62.35813512923591 1.5
endloop
endfacet
facet normal -0.9396926207859085 0.3420201433256682 0
outer loop
vertex 96.65096547704468 49.20243843823319 0
vertex 96.65096547704468 49.20243843823319 1.5
vertex 101.43924748360403 62.35813512923591 1.5
endloop
endfacet
facet normal 0.34202014332566927 0.9396926207859082 0
outer loop
vertex 114.55210990301624 42.686954707879195 0
vertex 101.39641321201353 47.475236714438566 0
vertex 114.55210990301624 42.686954707879195 1.5
endloop
endfacet
facet normal 0.34202014332566927 0.9396926207859082 0
outer loop
vertex 101.39641321201353 47.475236714438566 0
vertex 101.39641321201353 47.475236714438566 1.5
vertex 114.55210990301624 42.686954707879195 1.5
endloop
endfacet
facet normal 0.9396926207859085 -0.3420201433256684 0
outer loop
vertex 101.39641321201353 47.475236714438566 0
vertex 106.18469521857288 60.63093340544128 0
vertex 101.39641321201353 47.475236714438566 1.5
endloop
endfacet
facet normal 0.9396926207859085 -0.3420201433256684 0
outer loop
vertex 106.18469521857288 60.63093340544128 0
vertex 106.18469521857288 60.63093340544128 1.5
vertex 101.39641321201353 47.475236714438566 1.5
endloop
endfacet
facet normal -0.3420201433256688 -0.9396926207859083 0
outer loop
vertex 106.18469521857288 60.63093340544128 0
vertex 119.3403919095756 55.84265139888192 0
vertex 106.18469521857288 60.63093340544128 1.5
endloop
endfacet
facet normal -0.3420201433256688 -0.9396926207859083 0
outer loop
vertex 119.3403919095756 55.84265139888192 0
vertex 119.3403919095756 55.84265139888192 1.5
vertex 106.18469521857288 60.63093340544128 1.5
endloop
endfacet
facet normal -0.9396926207859085 0.3420201433256682 0
outer loop
vertex 119.3403919095756 55.84265139888192 0
vertex 114.55210990301624 42.686954707879195 0
vertex 119.3403919095756 55.84265139888192 1.5
endloop
endfacet
facet normal -0.9396926207859085 0.3420201433256682 0
outer loop
vertex 114.55210990301624 42.686954707879195 0
vertex 114.55210990301624 42.686954707879195 1.5
vertex 119.3403919095756 55.84265139888192 1.5
endloop
endfacet
facet normal -0.34202014332566866 0.9396926207859082 0
outer loop
vertex 197.83810305763248 55.85138114041011 0
vertex 184.68240636662978 51.063099133850756 0
vertex 197.83810305763248 55.85138114041011 1.5
endloop
endfacet
facet normal -0.34202014332566866 0.9396926207859082 0
outer loop
vertex 184.68240636662978 51.063099133850756 0
vertex 184.68240636662978 51.063099133850756 1.5
vertex 197.83810305763248 55.85138114041011 1.5
endloop
endfacet
facet normal 0.9396926207859082 0.34202014332566927 0
outer loop
vertex 184.68240636662978 51.063099133850756 0
vertex 179.8941243600704 64.21879582485347 0
vertex 184.68240636662978 51.063099133850756 1.5
endloop
endfacet
facet normal 0.9396926207859082 0.34202014332566927 0
outer loop
vertex 179.8941243600704 64.21879582485347 0
vertex 179.8941243600704 64.21879582485347 1.5
vertex 184.68240636662978 51.063099133850756 1.5
endloop
endfacet
facet normal 0.34202014332566805 -0.9396926207859086 0
outer loop
vertex 179.8941243600704 64.21879582485347 0
vertex 193.04982105107314 69.00707783141283 0
vertex 179.8941243600704 64.21879582485347 1.5
endloop
endfacet
facet normal 0.34202014332566805 -0.9396926207859086 0
outer loop
vertex 193.04982105107314 69.00707783141283 0
vertex 193.04982105107314 69.00707783141283 1.5
vertex 179.8941243600704 64.21879582485347 1.5
endloop
endfacet
facet normal -0.9396926207859089 -0.3420201433256675 0
outer loop
vertex 193.04982105107314 69.00707783141283 0
vertex 197.83810305763248 55.85138114041011 0
vertex 193.04982105107314 69.00707783141283 1.5
endloop
endfacet
facet normal -0.9396926207859089 -0.3420201433256675 0
outer loop
vertex 197.83810305763248 55.85138114041011 0
vertex 197.83810305763248 55.85138114041011 1.5
vertex 193.04982105107314 69.00707783141283 1.5
endloop
endfacet
facet normal -0.34202014332566805 0.9396926207859086 0
outer loop
vertex 215.73924748360406 62.366864870764104 0
vertex 202.58355079260133 57.57858286420475 0
vertex 215.73924748360406 62.366864870764104 1.5
endloop
endfacet
facet normal -0.34202014332566805 0.9396926207859086 0
outer loop
vertex 202.58355079260133 57.57858286420475 0
vertex 202.58355079260133 57.57858286420475 1.5
vertex 215.73924748360406 62.366864870764104 1.5
endloop
endfacet
facet normal 0.9396926207859082 0.34202014332566927 0
outer loop
vertex 202.58355079260133 57.57858286420475 0
vertex 197.79526878604196 70.73427955520746 0
vertex 202.58355079260133 57.57858286420475 1.5
endloop
endfacet
facet normal 0.9396926207859082 0.34202014332566927 0
outer loop
vertex 197.79526878604196 70.73427955520746 0
vertex 197.79526878604196 70.73427955520746 1.5
vertex 202.58355079260133 57.57858286420475 1.5
endloop
endfacet
facet normal 0.34202014332566805 -0.9396926207859086 0
outer loop
vertex 197.79526878604196 70.73427955520746 0
vertex 210.9509654770447 75.52256156176682 0
vertex 197.79526878604196 70.73427955520746 1.5
endloop
endfacet
facet normal 0.34202014332566805 -0.9396926207859086 0
outer loop
vertex 210.9509654770447 75.52256156176682 0
vertex 210.9509654770447 75.52256156176682 1.5
vertex 197.79526878604196 70.73427955520746 1.5
endloop
endfacet
facet normal -0.9396926207859082 -0.34202014332566927 0
outer loop
vertex 210.9509654770447 75.52256156176682 0
vertex 215.73924748360406 62.366864870764104 0
vertex 210.9509654770447 75.52256156176682 1.5
endloop
endfacet
facet normal -0.9396926207859082 -0.34202014332566927 0
outer loop
vertex 215.73924748360406 62.366864870764104 0
vertex 215.73924748360406 62.366864870764104 1.5
vertex 210.9509654770447 75.52256156176682 1.5
endloop
endfacet
facet normal -0.34202014332566866 0.9396926207859082 0
outer loop
vertex 233.64039190957558 68.88234860111808 0
vertex 220.48469521857288 64.09406659455873 0
vertex 233.64039190957558 68.88234860111808 1.5
endloop
endfacet
facet normal -0.34202014332566866 0.9396926207859082 0
outer loop
vertex 220.48469521857288 64.09406659455873 0
vertex 220.48469521857288 64.09406659455873 1.5
vertex 233.64039190957558 68.88234860111808 1.5
endloop
endfacet
facet normal 0.9396926207859082 0.34202014332566927 0
outer loop
vertex 220.48469521857288 64.09406659455873 0
vertex 215.6964132120135 77.24976328556144 0
vertex 220.48469521857288 64.09406659455873 1.5
endloop
endfacet
facet normal 0.9396926207859082 0.34202014332566927 0
outer loop
vertex 215.6964132120135 77.24976328556144 0
vertex 215.6964132120135 77.24976328556144 1.5
vertex 220.48469521857288 64.09406659455873 1.5
endloop
endfacet
facet normal 0.3420201433256689 -0.9396926207859082 0
outer loop
vertex 215.6964132120135 77.24976328556144 0
vertex 228.85210990301624 82.03804529212081 0
vertex 215.6964132120135 77.24976328556144 1.5
endloop
endfacet
facet normal 0.3420201433256689 -0.9396926207859082 0
outer loop
vertex 228.85210990301624 82.03804529212081 0
vertex 228.85210990301624 82.03804529212081 1.5
vertex 215.6964132120135 77.24976328556144 1.5
endloop
endfacet
facet normal -0.9396926207859089 -0.3420201433256671 0
outer loop
vertex 228.85210990301624 82.03804529212081 0
vertex 233.64039190957558 68.88234860111808 0
vertex 228.85210990301624 82.03804529212081 1.5
endloop
endfacet
facet normal -0.9396926207859089 -0.3420201433256671 0
outer loop
vertex 233.64039190957558 68.88234860111808 0
vertex 233.64039190957558 68.88234860111808 1.5
vertex 228.85210990301624 82.03804529212081 1.5
endloop
endfacet
facet normal -0.3420201433256696 0.9396926207859081 0
outer loop
vertex 204.35358678798647 37.95023671443856 0
vertex 191.19789009698377 33.16195470787919 0
vertex 204.35358678798647 37.95023671443856 1.5
endloop
endfacet
facet normal -0.3420201433256696 0.9396926207859081 0
outer loop
vertex 191.19789009698377 33.16195470787919 0
vertex 191.19789009698377 33.16195470787919 1.5
vertex 204.35358678798647 37.95023671443856 1.5
endloop
endfacet
facet normal 0.9396926207859082 0.3420201433256689 0
outer loop
vertex 191.19789009698377 33.16195470787919 0
vertex 186.4096080904244 46.31765139888192 0
vertex 191.19789009698377 33.16195470787919 1.5
endloop
endfacet
facet normal 0.9396926207859082 0.3420201433256689 0
outer loop
vertex 186.4096080904244 46.31765139888192 0
vertex 186.4096080904244 46.31765139888192 1.5
vertex 191.19789009698377 33.16195470787919 1.5
endloop
endfacet
facet normal 0.34202014332566866 -0.9396926207859082 0
outer loop
vertex 186.4096080904244 46.31765139888192 0
vertex 199.5653047814271 51.10593340544128 0
vertex 186.4096080904244 46.31765139888192 1.5
endloop
endfacet
facet normal 0.34202014332566866 -0.9396926207859082 0
outer loop
vertex 199.5653047814271 51.10593340544128 0
vertex 199.5653047814271 51.10593340544128 1.5
vertex 186.4096080904244 46.31765139888192 1.5
endloop
endfacet
facet normal -0.9396926207859082 -0.34202014332566927 0
outer loop
vertex 199.5653047814271 51.10593340544128 0
vertex 204.35358678798647 37.95023671443856 0
vertex 199.5653047814271 51.10593340544128 1.5
endloop
endfacet
facet normal -0.9396926207859082 -0.34202014332566927 0
outer loop
vertex 204.35358678798647 37.95023671443856 0
vertex 204.35358678798647 37.95023671443856 1.5
vertex 199.5653047814271 51.10593340544128 1.5
endloop
endfacet
facet normal -0.3420201433256689 0.9396926207859082 0
outer loop
vertex 222.25473121395805 44.46572044479255 0
vertex 209.09903452295532 39.67743843823318 0
vertex 222.25473121395805 44.46572044479255 1.5
endloop
endfacet
facet normal -0.3420201433256689 0.9396926207859082 0
outer loop
vertex 209.09903452295532 39.67743843823318 0
vertex 209.09903452295532 39.67743843823318 1.5
vertex 222.25473121395805 44.46572044479255 1.5
endloop
endfacet
facet normal 0.9396926207859082 0.3420201433256689 0
outer loop
vertex 209.09903452295532 39.67743843823318 0
vertex 204.31075251639595 52.83313512923591 0
vertex 209.09903452295532 39.67743843823318 1.5
endloop
endfacet
facet normal 0.9396926207859082 0.3420201433256689 0
outer loop
vertex 204.31075251639595 52.83313512923591 0
vertex 204.31075251639595 52.83313512923591 1.5
vertex 209.09903452295532 39.67743843823318 1.5
endloop
endfacet
facet normal 0.34202014332566805 -0.9396926207859086 0
outer loop
vertex 204.31075251639595 52.83313512923591 0
vertex 217.46644920739868 57.62141713579527 0
vertex 204.31075251639595 52.83313512923591 1.5
endloop
endfacet
facet normal 0.34202014332566805 -0.9396926207859086 0
outer loop
vertex 217.46644920739868 57.62141713579527 0
vertex 217.46644920739868 57.62141713579527 1.5
vertex 204.31075251639595 52.83313512923591 1.5
endloop
endfacet
facet normal -0.9396926207859082 -0.34202014332566927 0
outer loop
vertex 217.46644920739868 57.62141713579527 0
vertex 222.25473121395805 44.46572044479255 0
vertex 217.46644920739868 57.62141713579527 1.5
endloop
endfacet
facet normal -0.9396926207859082 -0.34202014332566927 0
outer loop
vertex 222.25473121395805 44.46572044479255 0
vertex 222.25473121395805 44.46572044479255 1.5
vertex 217.46644920739868 57.62141713579527 1.5
endloop
endfacet
facet normal -0.34202014332566866 0.9396926207859082 0
outer loop
vertex 240.15587563992958 50.98120417514653 0
vertex 227.00017894892687 46.192922168587174 0
vertex 240.15587563992958 50.98120417514653 1.5
endloop
endfacet
facet normal -0.34202014332566866 0.9396926207859082 0
outer loop
vertex 227.00017894892687 46.192922168587174 0
vertex 227.00017894892687 46.192922168587174 1.5
vertex 240.15587563992958 50.98120417514653 1.5
endloop
endfacet
facet normal 0.9396926207859082 0.34202014332566927 0
outer loop
vertex 227.00017894892687 46.192922168587174 0
vertex 222.2118969423675 59.34861885958989 0
vertex 227.00017894892687 46.192922168587174 1.5
endloop
endfacet
facet normal 0.9396926207859082 0.34202014332566927 0
outer loop
vertex 222.2118969423675 59.34861885958989 0
vertex 222.2118969423675 59.34861885958989 1.5
vertex 227.00017894892687 46.192922168587174 1.5
endloop
endfacet
facet normal 0.3420201433256689 -0.9396926207859082 0
outer loop
vertex 222.2118969423675 59.34861885958989 0
vertex 235.36759363337023 64.13690086614926 0
vertex 222.2118969423675 59.34861885958989 1.5
endloop
endfacet
facet normal 0.3420201433256689 -0.9396926207859082 0
outer loop
vertex 235.36759363337023 64.13690086614926 0
vertex 235.36759363337023 64.13690086614926 1.5
vertex 222.2118969423675 59.34861885958989 1.5
endloop
endfacet
facet normal -0.9396926207859089 -0.3420201433256671 0
outer loop
vertex 235.36759363337023 64.13690086614926 0
vertex 240.15587563992958 50.98120417514653 0
vertex 235.36759363337023 64.13690086614926 1.5
endloop
endfacet
facet normal -0.9396926207859089 -0.3420201433256671 0
outer loop
vertex 240.15587563992958 50.98120417514653 0
vertex 240.15587563992958 50.98120417514653 1.5
vertex 235.36759363337023 64.13690086614926 1.5
endloop
endfacet
endsolid