<?xml version="1.0" encoding="UTF-8" standalone="no"?><!DOCTYPE svg PUBLIC "-//W3C//DTD SVG 1.1//EN" "http://www.w3.org/Graphics/SVG/1.1/DTD/svg11.dtd"><svg width="100%" height="100%" viewBox="0 0 3300 2550" version="1.1" xmlns="http://www.w3.org/2000/svg" xmlns:xlink="http://www.w3.org/1999/xlink" xml:space="preserve" xmlns:serif="http://www.serif.com/" style="fill-rule:evenodd;clip-rule:evenodd;"><g id="Triggers"><path d="M1679.82,1523.32l0,11.811l-9.449,0l0,36.614l9.449,0l0,68.504l-9.449,0l0,36.614l9.449,0l0,11.811l165.354,0l-0,-11.811l9.449,0l-0,-36.614l-9.449,0l-0,-68.504l9.449,0l-0,-36.614l-9.449,0l-0,-11.811l-165.354,0Z" style="fill:none;fill-rule:nonzero;stroke:#000;stroke-width:1.67px;"/><path d="M1454.82,1523.32l0,11.811l-9.449,0l0,36.614l9.449,0l0,68.504l-9.449,0l0,36.614l9.449,0l0,11.811l165.354,0l-0,-11.811l9.449,0l-0,-36.614l-9.449,0l-0,-68.504l9.449,0l-0,-36.614l-9.449,0l-0,-11.811l-165.354,0Z" style="fill:none;fill-rule:nonzero;stroke:#000;stroke-width:1.67px;"/></g><g id="MainButtons"><path d="M2096.79,1156.97l4.04,11.101l-8.882,3.225l12.531,34.406l8.87,-3.225l23.434,64.37l-8.882,3.224l12.531,34.406l8.87,-3.225l4.04,11.103l155.385,-56.563l-4.039,-11.091l8.882,-3.236l-12.52,-34.405l-8.882,3.236l-23.433,-64.383l8.882,-3.223l-12.519,-34.406l-8.882,3.225l-4.04,-11.091l-155.386,56.551Z" style="fill:none;fill-rule:nonzero;stroke:#000;stroke-width:1.67px;"/><path d="M2308.22,1080.01l4.039,11.101l-8.87,3.236l12.52,34.406l8.881,-3.236l23.422,64.37l-8.87,3.236l12.519,34.406l8.882,-3.237l4.04,11.103l155.374,-56.551l-4.04,-11.103l8.882,-3.236l-12.52,-34.406l-8.881,3.237l-23.434,-64.37l8.882,-3.237l-12.519,-34.405l-8.882,3.236l-4.04,-11.102l-155.385,56.551Z" style="fill:none;fill-rule:nonzero;stroke:#000;stroke-width:1.67px;"/><path d="M2519.65,1003.07l4.039,11.101l-8.87,3.226l12.52,34.393l8.882,-3.212l23.421,64.37l-8.87,3.224l12.519,34.417l8.882,-3.236l4.04,11.102l155.374,-56.563l-4.04,-11.091l8.882,-3.236l-12.519,-34.404l-8.882,3.236l-23.433,-64.383l8.881,-3.224l-12.519,-34.405l-8.882,3.224l-4.039,-11.091l-155.386,56.552Z" style="fill:none;fill-rule:nonzero;stroke:#000;stroke-width:1.67px;"/><path d="M2019.84,945.545l4.039,11.091l-8.882,3.236l12.52,34.405l8.882,-3.236l23.433,64.371l-8.882,3.236l12.52,34.404l8.881,-3.224l4.04,11.09l155.386,-56.551l-4.04,-11.102l8.87,-3.225l-12.519,-34.405l-8.882,3.224l-23.422,-64.37l8.871,-3.224l-12.52,-34.406l-8.882,3.225l-4.039,-11.103l-155.374,56.563Z" style="fill:none;fill-rule:nonzero;stroke:#000;stroke-width:1.67px;"/><path d="M2231.27,868.585l4.039,11.101l-8.882,3.236l12.52,34.406l8.882,-3.236l23.433,64.37l-8.882,3.236l12.52,34.405l8.882,-3.236l4.039,11.103l155.386,-56.552l-4.04,-11.101l8.882,-3.236l-12.531,-34.406l-8.87,3.236l-23.433,-64.37l8.882,-3.236l-12.532,-34.405l-8.87,3.236l-4.039,-11.102l-155.386,56.551Z" style="fill:none;fill-rule:nonzero;stroke:#000;stroke-width:1.67px;"/><path d="M2442.7,791.636l4.039,11.09l-8.882,3.237l12.532,34.405l8.87,-3.236l23.433,64.382l-8.882,3.224l12.532,34.406l8.87,-3.225l4.039,11.091l155.386,-56.551l-4.039,-11.103l8.881,-3.224l-12.531,-34.406l-8.87,3.225l-23.433,-64.37l8.882,-3.225l-12.532,-34.405l-8.87,3.224l-4.039,-11.102l-155.386,56.563Z" style="fill:none;fill-rule:nonzero;stroke:#000;stroke-width:1.67px;"/></g><g id="WASD"><path d="M1160.73,1040.49l-8.882,-3.236l-12.519,34.405l8.881,3.237l-23.433,64.37l-8.881,-3.236l-12.52,34.405l8.882,3.236l-4.04,11.103l155.374,56.551l4.052,-11.103l8.87,3.237l12.531,-34.406l-8.882,-3.236l23.421,-64.37l8.882,3.236l12.532,-34.405l-8.882,-3.237l4.039,-11.102l-155.385,-56.551l-4.04,11.102Z" style="fill:none;fill-rule:nonzero;stroke:#000;stroke-width:1.67px;"/><path d="M949.302,963.523l-8.882,-3.225l-12.52,34.406l8.882,3.212l-23.433,64.382l-8.882,-3.224l-12.519,34.405l8.882,3.236l-4.04,11.091l155.374,56.563l4.04,-11.102l8.881,3.224l12.52,-34.405l-8.87,-3.225l23.421,-64.37l8.882,3.224l12.52,-34.405l-8.87,-3.224l4.039,-11.103l-155.386,-56.551l-4.039,11.091Z" style="fill:none;fill-rule:nonzero;stroke:#000;stroke-width:1.67px;"/><path d="M737.872,886.574l-8.882,-3.236l-12.52,34.405l8.882,3.236l-23.433,64.359l-8.882,-3.225l-12.519,34.406l8.881,3.236l-4.039,11.102l155.374,56.551l4.039,-11.102l8.882,3.236l12.52,-34.405l-8.882,-3.236l23.433,-64.371l8.882,3.237l12.52,-34.406l-8.882,-3.236l4.039,-11.102l-155.374,-56.552l-4.039,11.103Z" style="fill:none;fill-rule:nonzero;stroke:#000;stroke-width:1.67px;"/><path d="M1026.25,752.093l-8.87,-3.236l-12.532,34.418l8.882,3.224l-23.433,64.37l-8.87,-3.224l-12.531,34.405l8.881,3.225l-4.039,11.102l155.386,56.551l4.039,-11.09l8.882,3.224l12.52,-34.406l-8.882,-3.224l23.433,-64.382l8.882,3.236l12.52,-34.405l-8.882,-3.236l4.039,-11.091l-155.386,-56.563l-4.039,11.102Z" style="fill:none;fill-rule:nonzero;stroke:#000;stroke-width:1.67px;"/></g><g id="HomeShareSelectStart"><g id="SelectStart"><path d="M2922.7,209.646l0,11.811l-9.449,0l0,36.614l9.449,0l0,68.504l-9.449,0l0,36.614l9.449,-0l0,11.811l165.354,0l0,-11.811l9.449,-0l0,-36.614l-9.449,0l0,-68.504l9.449,0l0,-36.614l-9.449,-0l0,-11.811l-165.354,-0Z" style="fill:none;fill-rule:nonzero;stroke:#000;stroke-width:1.67px;"/><path d="M2697.7,209.646l0,11.811l-9.449,0l0,36.614l9.449,0l0,68.504l-9.449,0l0,36.614l9.449,-0l0,11.811l165.354,0l0,-11.811l9.449,-0l0,-36.614l-9.449,0l0,-68.504l9.449,0l0,-36.614l-9.449,-0l0,-11.811l-165.354,-0Z" style="fill:none;fill-rule:nonzero;stroke:#000;stroke-width:1.67px;"/></g><g id="HomeShare"><path d="M436.949,209.646l-0,11.811l-9.449,-0l-0,36.614l9.449,-0l-0,68.504l-9.449,-0l-0,36.614l9.449,-0l-0,11.811l165.354,-0l-0,-11.811l9.449,-0l-0,-36.614l-9.449,-0l-0,-68.504l9.449,-0l-0,-36.614l-9.449,-0l-0,-11.811l-165.354,-0Z" style="fill:none;fill-rule:nonzero;stroke:#000;stroke-width:1.67px;"/><path d="M211.949,209.646l-0,11.811l-9.449,-0l-0,36.614l9.449,-0l-0,68.504l-9.449,-0l-0,36.614l9.449,-0l-0,11.811l165.354,-0l-0,-11.811l9.449,-0l-0,-36.614l-9.449,-0l-0,-68.504l9.449,-0l-0,-36.614l-9.449,-0l-0,-11.811l-165.354,-0Z" style="fill:none;fill-rule:nonzero;stroke:#000;stroke-width:1.67px;"/></g><g id="StickClicks"><path d="M1679.82,209.646l0,11.811l-9.449,-0l0,36.614l9.449,-0l0,68.504l-9.449,-0l0,36.614l9.449,-0l0,11.811l165.354,-0l0,-11.811l9.449,-0l0,-36.614l-9.449,-0l0,-68.504l9.449,-0l0,-36.614l-9.449,-0l0,-11.811l-165.354,-0Z" style="fill:none;fill-rule:nonzero;stroke:#000;stroke-width:1.67px;"/><path d="M1454.82,209.646l0,11.811l-9.449,-0l0,36.614l9.449,-0l0,68.504l-9.449,-0l0,36.614l9.449,-0l0,11.811l165.354,-0l0,-11.811l9.449,-0l0,-36.614l-9.449,-0l0,-68.504l9.449,-0l0,-36.614l-9.449,-0l0,-11.811l-165.354,-0Z" style="fill:none;fill-rule:nonzero;stroke:#000;stroke-width:1.67px;"/></g></g><g id="MountHoles"><circle cx="74.173" cy="2475.83" r="14.173" style="fill:none;stroke:#000;stroke-width:1.67px;stroke-linecap:round;stroke-linejoin:round;stroke-miterlimit:1.5;"/><circle cx="74.173" cy="74.173" r="14.173" style="fill:none;stroke:#000;stroke-width:1.67px;stroke-linecap:round;stroke-linejoin:round;stroke-miterlimit:1.5;"/><circle cx="3225.83" cy="74.173" r="14.173" style="fill:none;stroke:#000;stroke-width:1.67px;stroke-linecap:round;stroke-linejoin:round;stroke-miterlimit:1.5;"/><circle cx="3225.83" cy="2475.83" r="14.173" style="fill:none;stroke:#000;stroke-width:1.67px;stroke-linecap:round;stroke-linejoin:round;stroke-miterlimit:1.5;"/></g></svg>