<?xml version="1.0" encoding="UTF-8" standalone="no"?><!DOCTYPE svg PUBLIC "-//W3C//DTD SVG 1.1//EN" "http://www.w3.org/Graphics/SVG/1.1/DTD/svg11.dtd"><svg width="100%" height="100%" viewBox="0 0 4350 2250" version="1.1" xmlns="http://www.w3.org/2000/svg" xmlns:xlink="http://www.w3.org/1999/xlink" xml:space="preserve" xmlns:serif="http://www.serif.com/" style="fill-rule:evenodd;clip-rule:evenodd;"><path id="board_edge" d="M4197.6,75.018l6.075,0.221l6.037,0.68l5.96,1.12l5.843,1.562l5.708,2.003l5.515,2.406l5.301,2.83l5.05,3.196l4.78,3.583l4.45,3.913l4.141,4.244l3.753,4.52l3.386,4.814l2.961,5.034l2.554,5.236l2.09,5.401l1.664,5.567l1.18,5.659l0.716,5.732l0.232,5.769l-0,1953l-0.232,5.751l-0.716,5.732l-1.18,5.659l-1.664,5.567l-2.09,5.401l-2.554,5.236l-2.961,5.034l-3.386,4.814l-3.753,4.52l-4.141,4.244l-4.45,3.913l-4.78,3.583l-5.05,3.196l-5.301,2.83l-5.515,2.406l-5.708,2.003l-5.843,1.562l-5.96,1.12l-6.037,0.68l-6.075,0.239l-4045.19,0l-6.076,-0.239l-6.037,-0.68l-5.959,-1.12l-5.863,-1.562l-5.689,-2.003l-5.514,-2.406l-5.302,-2.83l-5.069,-3.196l-4.76,-3.583l-4.47,-3.913l-4.121,-4.244l-3.773,-4.52l-3.367,-4.814l-2.98,-5.034l-2.535,-5.236l-2.109,-5.401l-1.644,-5.567l-1.181,-5.659l-0.715,-5.732l-0.252,-5.769l0.019,-1952.98l0.233,-5.769l0.715,-5.732l1.181,-5.659l1.644,-5.567l2.109,-5.401l2.535,-5.236l2.98,-5.034l3.367,-4.814l3.773,-4.52l4.121,-4.244l4.47,-3.913l4.76,-3.583l5.069,-3.196l5.302,-2.83l5.514,-2.406l5.689,-2.003l5.863,-1.562l5.959,-1.12l6.037,-0.68l6.076,-0.239l4045.19,0.018Z" style="fill:none;fill-rule:nonzero;stroke:#000;stroke-width:2.67px;"/><g id="StickClicks"><path d="M2129.46,1409.65l-0,11.811l-9.449,-0l-0,36.614l9.449,-0l-0,68.504l-9.449,-0l-0,36.614l9.449,-0l-0,11.811l165.354,0l-0,-11.811l9.449,-0l-0,-36.614l-9.449,-0l-0,-68.504l9.449,-0l-0,-36.614l-9.449,-0l-0,-11.811l-165.354,-0Z" style="fill:none;fill-rule:nonzero;stroke:#000;stroke-width:1.67px;"/><path d="M1904.46,1409.65l-0,11.811l-9.449,-0l-0,36.614l9.449,-0l-0,68.504l-9.449,-0l-0,36.614l9.449,-0l-0,11.811l165.354,0l-0,-11.811l9.449,-0l-0,-36.614l-9.449,-0l-0,-68.504l9.449,-0l-0,-36.614l-9.449,-0l-0,-11.811l-165.354,-0Z" style="fill:none;fill-rule:nonzero;stroke:#000;stroke-width:1.67px;"/></g><g id="MainButtons"><path d="M2415.35,1065.34l4.04,11.102l-8.882,3.224l12.531,34.406l8.87,-3.225l23.434,64.37l-8.882,3.225l12.531,34.405l8.87,-3.224l4.04,11.102l155.385,-56.563l-4.039,-11.09l8.882,-3.236l-12.52,-34.406l-8.882,3.236l-23.433,-64.382l8.882,-3.224l-12.519,-34.406l-8.882,3.225l-4.04,-11.091l-155.386,56.552Z" style="fill:none;fill-rule:nonzero;stroke:#000;stroke-width:1.67px;"/><path d="M2626.78,988.382l4.039,11.102l-8.87,3.236l12.52,34.406l8.881,-3.236l23.422,64.37l-8.87,3.236l12.519,34.406l8.882,-3.237l4.04,11.103l155.374,-56.551l-4.04,-11.103l8.882,-3.236l-12.52,-34.406l-8.881,3.237l-23.434,-64.37l8.882,-3.237l-12.519,-34.405l-8.882,3.236l-4.04,-11.102l-155.385,56.551Z" style="fill:none;fill-rule:nonzero;stroke:#000;stroke-width:1.67px;"/><path d="M2838.21,911.433l4.039,11.102l-8.87,3.225l12.52,34.394l8.882,-3.213l23.421,64.37l-8.87,3.224l12.519,34.418l8.882,-3.236l4.04,11.102l155.374,-56.563l-4.04,-11.091l8.882,-3.236l-12.519,-34.405l-8.882,3.236l-23.433,-64.382l8.881,-3.224l-12.519,-34.406l-8.882,3.224l-4.039,-11.09l-155.386,56.551Z" style="fill:none;fill-rule:nonzero;stroke:#000;stroke-width:1.67px;"/><path d="M2338.4,853.913l4.039,11.091l-8.882,3.236l12.52,34.406l8.882,-3.237l23.433,64.371l-8.882,3.236l12.52,34.405l8.881,-3.224l4.04,11.09l155.386,-56.551l-4.04,-11.102l8.87,-3.225l-12.519,-34.405l-8.882,3.224l-23.422,-64.37l8.871,-3.224l-12.52,-34.406l-8.882,3.225l-4.039,-11.103l-155.374,56.563Z" style="fill:none;fill-rule:nonzero;stroke:#000;stroke-width:1.67px;"/><path d="M2549.83,776.953l4.039,11.102l-8.882,3.236l12.52,34.406l8.882,-3.236l23.433,64.37l-8.882,3.236l12.52,34.405l8.882,-3.236l4.039,11.103l155.386,-56.552l-4.04,-11.102l8.882,-3.236l-12.531,-34.406l-8.87,3.237l-23.433,-64.371l8.882,-3.236l-12.532,-34.405l-8.87,3.236l-4.039,-11.102l-155.386,56.551Z" style="fill:none;fill-rule:nonzero;stroke:#000;stroke-width:1.67px;"/><path d="M2761.26,700.004l4.039,11.09l-8.882,3.237l12.532,34.405l8.87,-3.236l23.433,64.382l-8.882,3.224l12.532,34.406l8.87,-3.225l4.039,11.091l155.386,-56.551l-4.039,-11.103l8.881,-3.224l-12.531,-34.406l-8.87,3.225l-23.433,-64.37l8.882,-3.225l-12.532,-34.405l-8.87,3.224l-4.039,-11.102l-155.386,56.563Z" style="fill:none;fill-rule:nonzero;stroke:#000;stroke-width:1.67px;"/><path d="M2472.87,565.524l4.039,11.102l-8.87,3.224l12.52,34.406l8.882,-3.225l23.421,64.371l-8.87,3.236l12.52,34.405l8.882,-3.236l4.039,11.102l155.374,-56.563l-4.039,-11.09l8.882,-3.236l-12.52,-34.406l-8.882,3.236l-23.433,-64.37l8.882,-3.236l-12.52,-34.405l-8.882,3.224l-4.039,-11.091l-155.386,56.552Z" style="fill:none;fill-rule:nonzero;stroke:#000;stroke-width:1.67px;"/><path d="M2684.31,488.575l4.039,11.09l-8.881,3.237l12.519,34.405l8.882,-3.236l23.433,64.382l-8.882,3.224l12.52,34.406l8.882,-3.225l4.039,11.091l155.374,-56.551l-4.039,-11.103l8.882,-3.224l-12.52,-34.406l-8.882,3.225l-23.433,-64.37l8.882,-3.237l-12.52,-34.405l-8.882,3.236l-4.039,-11.102l-155.374,56.563Z" style="fill:none;fill-rule:nonzero;stroke:#000;stroke-width:1.67px;"/></g><g id="WASD"><path d="M1657.99,1009.93l-8.882,-3.236l-12.519,34.405l8.881,3.237l-23.433,64.37l-8.881,-3.236l-12.52,34.405l8.882,3.236l-4.04,11.103l155.374,56.551l4.052,-11.103l8.87,3.237l12.531,-34.406l-8.882,-3.236l23.421,-64.37l8.882,3.236l12.532,-34.405l-8.882,-3.237l4.039,-11.102l-155.385,-56.551l-4.04,11.102Z" style="fill:none;fill-rule:nonzero;stroke:#000;stroke-width:1.67px;"/><path d="M1446.56,932.965l-8.882,-3.225l-12.52,34.406l8.882,3.212l-23.433,64.382l-8.882,-3.224l-12.519,34.405l8.882,3.236l-4.04,11.091l155.374,56.563l4.04,-11.102l8.881,3.224l12.52,-34.405l-8.87,-3.225l23.421,-64.37l8.882,3.224l12.52,-34.405l-8.87,-3.224l4.039,-11.103l-155.386,-56.551l-4.039,11.091Z" style="fill:none;fill-rule:nonzero;stroke:#000;stroke-width:1.67px;"/><path d="M1235.13,856.016l-8.882,-3.236l-12.52,34.405l8.882,3.236l-23.433,64.359l-8.882,-3.225l-12.519,34.406l8.881,3.236l-4.039,11.102l155.374,56.551l4.039,-11.102l8.882,3.236l12.52,-34.405l-8.882,-3.236l23.433,-64.371l8.882,3.237l12.52,-34.406l-8.882,-3.236l4.039,-11.102l-155.374,-56.552l-4.039,11.103Z" style="fill:none;fill-rule:nonzero;stroke:#000;stroke-width:1.67px;"/><path d="M1523.51,721.535l-8.87,-3.236l-12.532,34.418l8.882,3.224l-23.433,64.37l-8.87,-3.224l-12.531,34.405l8.881,3.225l-4.039,11.102l155.386,56.551l4.039,-11.09l8.882,3.224l12.52,-34.406l-8.882,-3.224l23.433,-64.382l8.882,3.236l12.52,-34.405l-8.882,-3.236l4.039,-11.091l-155.386,-56.563l-4.039,11.102Z" style="fill:none;fill-rule:nonzero;stroke:#000;stroke-width:1.67px;"/></g><g id="StartSelectHomeShare"><path d="M984.449,217.323l-0,11.811l-9.449,-0l0,36.614l9.449,0l-0,68.504l-9.449,-0l0,36.614l9.449,0l-0,11.811l165.354,0l0,-11.811l9.449,0l-0,-36.614l-9.449,-0l0,-68.504l9.449,0l-0,-36.614l-9.449,-0l0,-11.811l-165.354,-0Z" style="fill:none;fill-rule:nonzero;stroke:#000;stroke-width:1.67px;"/><path d="M759.449,217.323l-0,11.811l-9.449,-0l0,36.614l9.449,0l-0,68.504l-9.449,-0l0,36.614l9.449,0l-0,11.811l165.354,0l0,-11.811l9.449,0l-0,-36.614l-9.449,-0l0,-68.504l9.449,0l-0,-36.614l-9.449,-0l0,-11.811l-165.354,-0Z" style="fill:none;fill-rule:nonzero;stroke:#000;stroke-width:1.67px;"/><path d="M534.449,217.323l-0,11.811l-9.449,-0l0,36.614l9.449,0l-0,68.504l-9.449,-0l0,36.614l9.449,0l-0,11.811l165.354,0l0,-11.811l9.449,0l-0,-36.614l-9.449,-0l0,-68.504l9.449,0l-0,-36.614l-9.449,-0l0,-11.811l-165.354,-0Z" style="fill:none;fill-rule:nonzero;stroke:#000;stroke-width:1.67px;"/><path d="M309.449,217.323l-0,11.811l-9.449,-0l0,36.614l9.449,0l-0,68.504l-9.449,-0l0,36.614l9.449,0l-0,11.811l165.354,0l0,-11.811l9.449,0l-0,-36.614l-9.449,-0l0,-68.504l9.449,0l-0,-36.614l-9.449,-0l0,-11.811l-165.354,-0Z" style="fill:none;fill-rule:nonzero;stroke:#000;stroke-width:1.67px;"/></g></svg>