<?xml version="1.0" encoding="UTF-8"?>
<!-- Generated by SVGo -->
<svg width="368.902mm" height="121.252mm" viewBox="0.000 0.000 368.902 121.252" xmlns="http://www.w3.org/2000/svg" xmlns:xlink="http://www.w3.org/1999/xlink">
<polygon points="360.902,5.001 361.137,5.010 361.371,5.037 361.602,5.083 361.829,5.147 362.050,5.229 362.263,5.327 362.469,5.443 362.665,5.573 362.850,5.719 363.023,5.879 363.183,6.052 363.329,6.237 363.459,6.433 363.575,6.639 363.673,6.852 363.755,7.073 363.819,7.300 363.865,7.531 363.892,7.765 363.902,8.001 363.902,113.251 363.892,113.487 363.865,113.721 363.819,113.952 363.755,114.179 363.673,114.400 363.575,114.613 363.459,114.819 363.329,115.015 363.183,115.200 363.023,115.373 362.850,115.533 362.665,115.679 362.469,115.809 362.263,115.925 362.050,116.023 361.829,116.105 361.602,116.169 361.371,116.215 361.137,116.242 360.902,116.252 8.001,116.251 7.765,116.242 7.531,116.215 7.300,116.169 7.073,116.105 6.852,116.023 6.639,115.925 6.433,115.809 6.237,115.679 6.052,115.533 5.879,115.373 5.719,115.200 5.573,115.015 5.443,114.819 5.327,114.613 5.229,114.400 5.147,114.179 5.083,113.952 5.037,113.721 5.010,113.487 5.000,113.251 5.001,8.001 5.010,7.765 5.037,7.531 5.083,7.300 5.147,7.073 5.229,6.852 5.327,6.639 5.443,6.433 5.573,6.237 5.719,6.052 5.879,5.879 6.052,5.719 6.237,5.573 6.433,5.443 6.639,5.327 6.852,5.229 7.073,5.147 7.300,5.083 7.531,5.037 7.765,5.010 8.001,5.000" style="fill:none;stroke-width:0.050000mm;stroke:black"/>
<polygon points="158.401,91.726 158.401,92.726 157.601,92.726 157.601,95.825 158.401,95.825 158.401,101.626 157.601,101.626 157.601,104.726 158.401,104.726 158.401,105.726 172.401,105.726 172.401,104.726 173.201,104.726 173.201,101.626 172.401,101.626 172.401,95.825 173.201,95.825 173.201,92.726 172.401,92.726 172.401,91.726" style="fill:none;stroke-width:0.050000mm;stroke:black"/>
<polygon points="139.351,91.726 139.351,92.726 138.550,92.726 138.550,95.825 139.351,95.825 139.351,101.626 138.550,101.626 138.550,104.726 139.351,104.726 139.351,105.726 153.351,105.726 153.351,104.726 154.151,104.726 154.151,101.626 153.351,101.626 153.351,95.825 154.151,95.825 154.151,92.726 153.351,92.726 153.351,91.726" style="fill:none;stroke-width:0.050000mm;stroke:black"/>
<polygon points="189.410,71.908 189.752,72.848 189.000,73.121 190.061,76.034 190.812,75.761 192.796,81.211 192.044,81.484 193.105,84.397 193.856,84.124 194.198,85.064 207.354,80.275 207.012,79.336 207.764,79.062 206.704,76.149 205.952,76.423 203.968,70.972 204.720,70.699 203.660,67.786 202.908,68.059 202.566,67.120" style="fill:none;stroke-width:0.050000mm;stroke:black"/>
<polygon points="207.311,65.392 207.653,66.332 206.902,66.606 207.962,69.519 208.714,69.245 210.697,74.695 209.945,74.969 211.006,77.882 211.758,77.608 212.100,78.548 225.255,73.760 224.913,72.820 225.665,72.546 224.605,69.633 223.853,69.907 221.869,64.457 222.621,64.183 221.561,61.270 220.809,61.544 220.467,60.604" style="fill:none;stroke-width:0.050000mm;stroke:black"/>
<polygon points="108.843,58.534 108.091,58.261 107.031,61.174 107.783,61.447 105.799,66.898 105.047,66.624 103.987,69.537 104.739,69.811 104.397,70.750 117.553,75.539 117.895,74.599 118.646,74.872 119.707,71.959 118.955,71.686 120.939,66.236 121.690,66.509 122.751,63.596 121.999,63.323 122.341,62.383 109.185,57.595" style="fill:none;stroke-width:0.050000mm;stroke:black"/>
<polygon points="225.212,58.877 225.554,59.817 224.803,60.090 225.863,63.003 226.615,62.730 228.598,68.180 227.847,68.453 228.907,71.367 229.659,71.093 230.001,72.033 243.156,67.244 242.814,66.305 243.566,66.031 242.506,63.118 241.754,63.392 239.770,57.941 240.522,57.668 239.462,54.755 238.710,55.028 238.368,54.089" style="fill:none;stroke-width:0.050000mm;stroke:black"/>
<polygon points="90.942,52.019 90.190,51.745 89.130,54.658 89.882,54.932 87.898,60.382 87.146,60.108 86.086,63.021 86.838,63.295 86.496,64.234 99.651,69.023 99.993,68.083 100.745,68.357 101.806,65.444 101.054,65.170 103.037,59.720 103.789,59.994 104.849,57.081 104.098,56.807 104.440,55.867 91.284,51.079" style="fill:none;stroke-width:0.050000mm;stroke:black"/>
<polygon points="182.895,54.007 183.237,54.946 182.485,55.220 183.545,58.133 184.297,57.859 186.281,63.310 185.529,63.583 186.589,66.496 187.341,66.223 187.683,67.162 200.839,62.374 200.497,61.434 201.248,61.161 200.188,58.248 199.436,58.521 197.453,53.071 198.204,52.798 197.144,49.884 196.392,50.158 196.050,49.218" style="fill:none;stroke-width:0.050000mm;stroke:black"/>
<polygon points="73.041,45.503 72.289,45.230 71.229,48.143 71.981,48.416 69.997,53.867 69.245,53.593 68.185,56.506 68.937,56.780 68.595,57.719 81.750,62.508 82.092,61.568 82.844,61.842 83.904,58.928 83.153,58.655 85.136,53.205 85.888,53.478 86.948,50.565 86.197,50.292 86.539,49.352 73.383,44.564" style="fill:none;stroke-width:0.050000mm;stroke:black"/>
<polygon points="200.796,47.491 201.138,48.431 200.386,48.705 201.446,51.618 202.198,51.344 204.182,56.794 203.430,57.068 204.490,59.981 205.242,59.707 205.584,60.647 218.740,55.859 218.398,54.919 219.149,54.645 218.089,51.732 217.337,52.006 215.354,46.556 216.106,46.282 215.045,43.369 214.293,43.643 213.951,42.703" style="fill:none;stroke-width:0.050000mm;stroke:black"/>
<polygon points="218.697,40.976 219.039,41.915 218.287,42.189 219.347,45.102 220.099,44.828 222.083,50.279 221.331,50.552 222.391,53.465 223.143,53.192 223.485,54.131 236.641,49.343 236.299,48.403 237.051,48.130 235.990,45.217 235.239,45.490 233.255,40.040 234.007,39.767 232.946,36.854 232.195,37.127 231.853,36.187" style="fill:none;stroke-width:0.050000mm;stroke:black"/>
<polygon points="97.458,34.118 96.706,33.844 95.645,36.757 96.397,37.031 94.414,42.481 93.662,42.207 92.602,45.120 93.353,45.394 93.011,46.334 106.167,51.122 106.509,50.182 107.261,50.456 108.321,47.543 107.569,47.269 109.553,41.819 110.305,42.093 111.365,39.180 110.613,38.906 110.955,37.966 97.800,33.178" style="fill:none;stroke-width:0.050000mm;stroke:black"/>
<polygon points="339.376,15.525 339.376,16.526 338.576,16.526 338.576,19.626 339.376,19.626 339.376,25.425 338.576,25.425 338.576,28.526 339.376,28.526 339.376,29.526 353.376,29.526 353.376,28.526 354.176,28.526 354.176,25.425 353.376,25.425 353.376,19.626 354.176,19.626 354.176,16.526 353.376,16.526 353.376,15.525" style="fill:none;stroke-width:0.050000mm;stroke:black"/>
<polygon points="320.326,15.525 320.326,16.526 319.526,16.526 319.526,19.626 320.326,19.626 320.326,25.425 319.526,25.425 319.526,28.526 320.326,28.526 320.326,29.526 334.326,29.526 334.326,28.526 335.126,28.526 335.126,25.425 334.326,25.425 334.326,19.626 335.126,19.626 335.126,16.526 334.326,16.526 334.326,15.525" style="fill:none;stroke-width:0.050000mm;stroke:black"/>
<polygon points="301.276,15.525 301.276,16.526 300.476,16.526 300.476,19.626 301.276,19.626 301.276,25.425 300.476,25.425 300.476,28.526 301.276,28.526 301.276,29.526 315.276,29.526 315.276,28.526 316.076,28.526 316.076,25.425 315.276,25.425 315.276,19.626 316.076,19.626 316.076,16.526 315.276,16.526 315.276,15.525" style="fill:none;stroke-width:0.050000mm;stroke:black"/>
<polygon points="282.226,15.525 282.226,16.526 281.426,16.526 281.426,19.626 282.226,19.626 282.226,25.425 281.426,25.425 281.426,28.526 282.226,28.526 282.226,29.526 296.226,29.526 296.226,28.526 297.026,28.526 297.026,25.425 296.226,25.425 296.226,19.626 297.026,19.626 297.026,16.526 296.226,16.526 296.226,15.525" style="fill:none;stroke-width:0.050000mm;stroke:black"/>
<polygon points="34.576,15.525 34.576,16.526 33.776,16.526 33.776,19.626 34.576,19.626 34.576,25.425 33.776,25.425 33.776,28.526 34.576,28.526 34.576,29.526 48.576,29.526 48.576,28.526 49.376,28.526 49.376,25.425 48.576,25.425 48.576,19.626 49.376,19.626 49.376,16.526 48.576,16.526 48.576,15.525" style="fill:none;stroke-width:0.050000mm;stroke:black"/>
<polygon points="15.525,15.525 15.525,16.526 14.725,16.526 14.725,19.626 15.525,19.626 15.525,25.425 14.725,25.425 14.725,28.526 15.525,28.526 15.525,29.526 29.526,29.526 29.526,28.526 30.326,28.526 30.326,25.425 29.526,25.425 29.526,19.626 30.326,19.626 30.326,16.526 29.526,16.526 29.526,15.525" style="fill:none;stroke-width:0.050000mm;stroke:black"/>
</svg>